<?xml version="1.0" encoding="UTF-8" standalone="no"?>
<!-- Created with Inkscape (http://www.inkscape.org/) -->
<svg
   xmlns:dc="http://purl.org/dc/elements/1.1/"
   xmlns:cc="http://creativecommons.org/ns#"
   xmlns:rdf="http://www.w3.org/1999/02/22-rdf-syntax-ns#"
   xmlns:svg="http://www.w3.org/2000/svg"
   xmlns="http://www.w3.org/2000/svg"
   xmlns:sodipodi="http://sodipodi.sourceforge.net/DTD/sodipodi-0.dtd"
   xmlns:inkscape="http://www.inkscape.org/namespaces/inkscape"
   width="287.55853"
   height="162.79958"
   id="svg2"
   sodipodi:version="0.32"
   inkscape:version="0.46"
   version="1.0"
   sodipodi:docname="ContrasteTamano.svg"
   inkscape:output_extension="org.inkscape.output.svg.inkscape">
  <defs
     id="defs4">
    <inkscape:perspective
       sodipodi:type="inkscape:persp3d"
       inkscape:vp_x="0 : 526.18109 : 1"
       inkscape:vp_y="0 : 1000 : 0"
       inkscape:vp_z="744.09448 : 526.18109 : 1"
       inkscape:persp3d-origin="372.04724 : 350.78739 : 1"
       id="perspective10" />
    <inkscape:perspective
       id="perspective2390"
       inkscape:persp3d-origin="372.04724 : 350.78739 : 1"
       inkscape:vp_z="744.09448 : 526.18109 : 1"
       inkscape:vp_y="0 : 1000 : 0"
       inkscape:vp_x="0 : 526.18109 : 1"
       sodipodi:type="inkscape:persp3d" />
  </defs>
  <sodipodi:namedview
     id="base"
     pagecolor="#ffffff"
     bordercolor="#666666"
     borderopacity="1.0"
     inkscape:pageopacity="0.0"
     inkscape:pageshadow="2"
     inkscape:zoom="2.3610782"
     inkscape:cx="275.10809"
     inkscape:cy="665.45309"
     inkscape:document-units="px"
     inkscape:current-layer="layer1"
     showgrid="false"
     inkscape:window-width="1360"
     inkscape:window-height="749"
     inkscape:window-x="-4"
     inkscape:window-y="-4" />
  <metadata
     id="metadata7">
    <rdf:RDF>
      <cc:Work
         rdf:about="">
        <dc:format>image/svg+xml</dc:format>
        <dc:type
           rdf:resource="http://purl.org/dc/dcmitype/StillImage" />
      </cc:Work>
    </rdf:RDF>
  </metadata>
  <g
     inkscape:label="Capa 1"
     inkscape:groupmode="layer"
     id="layer1"
     transform="translate(-178.60331,-307.71651)">
    <g
       id="g3205"
       transform="translate(-50,0)">
      <path
         transform="matrix(1.0210068,0,0,0.8785407,0.229972,68.106279)"
         d="M 266.82726,338.91696 A 7.8354034,9.1060095 0 1 1 251.15645,338.91696 A 7.8354034,9.1060095 0 1 1 266.82726,338.91696 z"
         sodipodi:ry="9.1060095"
         sodipodi:rx="7.8354034"
         sodipodi:cy="338.91696"
         sodipodi:cx="258.99185"
         id="path3168"
         style="opacity:1;fill:none;fill-opacity:1;fill-rule:evenodd;stroke:#000000;stroke-width:2.11171222;stroke-linecap:butt;stroke-miterlimit:4;stroke-dasharray:none;stroke-dashoffset:0;stroke-opacity:1"
         sodipodi:type="arc" />
      <path
         transform="matrix(1.0210068,0,0,0.8785407,-26.829134,82.882839)"
         d="M 266.82726,338.91696 A 7.8354034,9.1060095 0 1 1 251.15645,338.91696 A 7.8354034,9.1060095 0 1 1 266.82726,338.91696 z"
         sodipodi:ry="9.1060095"
         sodipodi:rx="7.8354034"
         sodipodi:cy="338.91696"
         sodipodi:cx="258.99185"
         id="path3170"
         style="opacity:1;fill:none;fill-opacity:1;fill-rule:evenodd;stroke:#000000;stroke-width:2.11171222;stroke-linecap:butt;stroke-miterlimit:4;stroke-dasharray:none;stroke-dashoffset:0;stroke-opacity:1"
         sodipodi:type="arc" />
      <path
         transform="matrix(1.0210068,0,0,0.8785407,-24.711457,111.68324)"
         d="M 266.82726,338.91696 A 7.8354034,9.1060095 0 1 1 251.15645,338.91696 A 7.8354034,9.1060095 0 1 1 266.82726,338.91696 z"
         sodipodi:ry="9.1060095"
         sodipodi:rx="7.8354034"
         sodipodi:cy="338.91696"
         sodipodi:cx="258.99185"
         id="path3172"
         style="opacity:1;fill:none;fill-opacity:1;fill-rule:evenodd;stroke:#000000;stroke-width:2.11171222;stroke-linecap:butt;stroke-miterlimit:4;stroke-dasharray:none;stroke-dashoffset:0;stroke-opacity:1"
         sodipodi:type="arc" />
      <path
         transform="matrix(1.0210068,0,0,0.8785407,1.8535907,125.96576)"
         d="M 266.82726,338.91696 A 7.8354034,9.1060095 0 1 1 251.15645,338.91696 A 7.8354034,9.1060095 0 1 1 266.82726,338.91696 z"
         sodipodi:ry="9.1060095"
         sodipodi:rx="7.8354034"
         sodipodi:cy="338.91696"
         sodipodi:cx="258.99185"
         id="path3174"
         style="opacity:1;fill:none;fill-opacity:1;fill-rule:evenodd;stroke:#000000;stroke-width:2.11171222;stroke-linecap:butt;stroke-miterlimit:4;stroke-dasharray:none;stroke-dashoffset:0;stroke-opacity:1"
         sodipodi:type="arc" />
      <path
         transform="matrix(1.0210068,0,0,0.8785407,27.806921,111.68324)"
         d="M 266.82726,338.91696 A 7.8354034,9.1060095 0 1 1 251.15645,338.91696 A 7.8354034,9.1060095 0 1 1 266.82726,338.91696 z"
         sodipodi:ry="9.1060095"
         sodipodi:rx="7.8354034"
         sodipodi:cy="338.91696"
         sodipodi:cx="258.99185"
         id="path3176"
         style="opacity:1;fill:none;fill-opacity:1;fill-rule:evenodd;stroke:#000000;stroke-width:2.11171222;stroke-linecap:butt;stroke-miterlimit:4;stroke-dasharray:none;stroke-dashoffset:0;stroke-opacity:1"
         sodipodi:type="arc" />
      <path
         transform="matrix(1.0210068,0,0,0.8785407,27.806921,82.459303)"
         d="M 266.82726,338.91696 A 7.8354034,9.1060095 0 1 1 251.15645,338.91696 A 7.8354034,9.1060095 0 1 1 266.82726,338.91696 z"
         sodipodi:ry="9.1060095"
         sodipodi:rx="7.8354034"
         sodipodi:cy="338.91696"
         sodipodi:cx="258.99185"
         id="path3178"
         style="opacity:1;fill:none;fill-opacity:1;fill-rule:evenodd;stroke:#000000;stroke-width:2.11171222;stroke-linecap:butt;stroke-miterlimit:4;stroke-dasharray:none;stroke-dashoffset:0;stroke-opacity:1"
         sodipodi:type="arc" />
      <path
         transform="matrix(0.9956354,0,0,1.0077773,0.6578756,-1.920268)"
         d="M 282.92159,392.91769 A 17.576715,17.364948 0 1 1 247.76816,392.91769 A 17.576715,17.364948 0 1 1 282.92159,392.91769 z"
         sodipodi:ry="17.364948"
         sodipodi:rx="17.576715"
         sodipodi:cy="392.91769"
         sodipodi:cx="265.34488"
         id="path3180"
         style="opacity:1;fill:#868686;fill-opacity:1;fill-rule:evenodd;stroke:#000000;stroke-width:1.99662995;stroke-linecap:butt;stroke-miterlimit:4;stroke-dasharray:none;stroke-dashoffset:0;stroke-opacity:1"
         sodipodi:type="arc" />
    </g>
    <g
       id="g3196"
       transform="matrix(0.9975207,7.037322e-2,-7.037322e-2,0.9975207,28.357742,-26.530689)">
      <path
         transform="matrix(0.9956354,0,0,1.0077773,125.88926,-4.7499674)"
         d="M 282.92159,392.91769 A 17.576715,17.364948 0 1 1 247.76816,392.91769 A 17.576715,17.364948 0 1 1 282.92159,392.91769 z"
         sodipodi:ry="17.364948"
         sodipodi:rx="17.576715"
         sodipodi:cy="392.91769"
         sodipodi:cx="265.34488"
         id="path3182"
         style="opacity:1;fill:#868686;fill-opacity:1;fill-rule:evenodd;stroke:#000000;stroke-width:1.99662995;stroke-linecap:butt;stroke-miterlimit:4;stroke-dasharray:none;stroke-dashoffset:0;stroke-opacity:1"
         sodipodi:type="arc" />
      <path
         transform="matrix(0.8690079,0,0,0.9700554,52.456714,10.429083)"
         d="M 412.94694,335.10513 A 30.494543,27.318027 0 1 1 351.95785,335.10513 A 30.494543,27.318027 0 1 1 412.94694,335.10513 z"
         sodipodi:ry="27.318027"
         sodipodi:rx="30.494543"
         sodipodi:cy="335.10513"
         sodipodi:cx="382.45239"
         id="path3184"
         style="opacity:1;fill:none;fill-opacity:1;fill-rule:evenodd;stroke:#000000;stroke-width:2.17831087;stroke-linecap:butt;stroke-miterlimit:4;stroke-dasharray:none;stroke-dashoffset:0;stroke-opacity:1"
         sodipodi:type="arc" />
      <path
         transform="matrix(0.8690079,0,0,0.9700554,8.5917728,42.435045)"
         d="M 412.94694,335.10513 A 30.494543,27.318027 0 1 1 351.95785,335.10513 A 30.494543,27.318027 0 1 1 412.94694,335.10513 z"
         sodipodi:ry="27.318027"
         sodipodi:rx="30.494543"
         sodipodi:cy="335.10513"
         sodipodi:cx="382.45239"
         id="path3186"
         style="opacity:1;fill:none;fill-opacity:1;fill-rule:evenodd;stroke:#000000;stroke-width:2.17831087;stroke-linecap:butt;stroke-miterlimit:4;stroke-dasharray:none;stroke-dashoffset:0;stroke-opacity:1"
         sodipodi:type="arc" />
      <path
         transform="matrix(0.8690079,0,0,0.9700554,12.403591,95.800494)"
         d="M 412.94694,335.10513 A 30.494543,27.318027 0 1 1 351.95785,335.10513 A 30.494543,27.318027 0 1 1 412.94694,335.10513 z"
         sodipodi:ry="27.318027"
         sodipodi:rx="30.494543"
         sodipodi:cy="335.10513"
         sodipodi:cx="382.45239"
         id="path3188"
         style="opacity:1;fill:none;fill-opacity:1;fill-rule:evenodd;stroke:#000000;stroke-width:2.17831087;stroke-linecap:butt;stroke-miterlimit:4;stroke-dasharray:none;stroke-dashoffset:0;stroke-opacity:1"
         sodipodi:type="arc" />
      <path
         transform="matrix(0.8690079,0,0,0.9700554,61.957222,117.82433)"
         d="M 412.94694,335.10513 A 30.494543,27.318027 0 1 1 351.95785,335.10513 A 30.494543,27.318027 0 1 1 412.94694,335.10513 z"
         sodipodi:ry="27.318027"
         sodipodi:rx="30.494543"
         sodipodi:cy="335.10513"
         sodipodi:cx="382.45239"
         id="path3190"
         style="opacity:1;fill:none;fill-opacity:1;fill-rule:evenodd;stroke:#000000;stroke-width:2.17831087;stroke-linecap:butt;stroke-miterlimit:4;stroke-dasharray:none;stroke-dashoffset:0;stroke-opacity:1"
         sodipodi:type="arc" />
      <path
         transform="matrix(0.8690079,0,0,0.9700554,108.12257,88.17686)"
         d="M 412.94694,335.10513 A 30.494543,27.318027 0 1 1 351.95785,335.10513 A 30.494543,27.318027 0 1 1 412.94694,335.10513 z"
         sodipodi:ry="27.318027"
         sodipodi:rx="30.494543"
         sodipodi:cy="335.10513"
         sodipodi:cx="382.45239"
         id="path3192"
         style="opacity:1;fill:none;fill-opacity:1;fill-rule:evenodd;stroke:#000000;stroke-width:2.17831087;stroke-linecap:butt;stroke-miterlimit:4;stroke-dasharray:none;stroke-dashoffset:0;stroke-opacity:1"
         sodipodi:type="arc" />
      <path
         transform="matrix(0.8690079,0,0,0.9700554,101.346,34.811409)"
         d="M 412.94694,335.10513 A 30.494543,27.318027 0 1 1 351.95785,335.10513 A 30.494543,27.318027 0 1 1 412.94694,335.10513 z"
         sodipodi:ry="27.318027"
         sodipodi:rx="30.494543"
         sodipodi:cy="335.10513"
         sodipodi:cx="382.45239"
         id="path3194"
         style="opacity:1;fill:none;fill-opacity:1;fill-rule:evenodd;stroke:#000000;stroke-width:2.17831087;stroke-linecap:butt;stroke-miterlimit:4;stroke-dasharray:none;stroke-dashoffset:0;stroke-opacity:1"
         sodipodi:type="arc" />
    </g>
  </g>
</svg>
