<?xml version="1.0" encoding="UTF-8" standalone="no"?>
<svg xmlns="http://www.w3.org/2000/svg" xmlns:xlink="http://www.w3.org/1999/xlink" width="174" height="211" version="1.1">
<rect fill="#fff" width="174" height="211" stroke="#000" stroke-width="6"/>
<path d="M 0,0 L 17.536,3 L 21.518,5.637 C 33.433,13.528 40.57,23.741 46.579,41.5 C 50.265,52.391 49.592,58.49 43.216,71.982 C 41.792,74.997 40.437,79.749 40.205,82.542 C 39.848,86.848 40.32,88.685 43.308,94.618 C 45.246,98.466 47.615,102.264 48.573,103.058 C 51.077,105.132 63.449,120.084 64.877,122.762 C 66.457,125.725 64.497,129.973 58.48,136.623 C 53.938,141.643 52.961,144.893 55.389,146.908 C 58.827,149.761 57.696,158.963 53.239,164.412 C 51.2,166.905 50.95,168 51.502,172.013 C 52.108,176.423 51.929,176.933 48.487,180.582 C 44.963,184.319 44.852,184.659 45.487,189.744 C 46.234,195.72 44.921,200.856 41.962,203.534 C 39.503,205.76 39.059,208 39.059,208 L 0,211 z " id="cr"/>
<use xlink:href="#cr" transform="translate(174)scale(-1,1)"/>
</svg>
