<?xml version="1.0" encoding="UTF-8" standalone="no"?>
<!-- Created with Inkscape (http://www.inkscape.org/) -->
<svg
   xmlns:dc="http://purl.org/dc/elements/1.1/"
   xmlns:cc="http://creativecommons.org/ns#"
   xmlns:rdf="http://www.w3.org/1999/02/22-rdf-syntax-ns#"
   xmlns:svg="http://www.w3.org/2000/svg"
   xmlns="http://www.w3.org/2000/svg"
   xmlns:sodipodi="http://sodipodi.sourceforge.net/DTD/sodipodi-0.dtd"
   xmlns:inkscape="http://www.inkscape.org/namespaces/inkscape"
   width="385.96912"
   height="246.18765"
   id="svg2"
   sodipodi:version="0.32"
   inkscape:version="0.46"
   version="1.0"
   sodipodi:docname="Texturas.svg"
   inkscape:output_extension="org.inkscape.output.svg.inkscape">
  <defs
     id="defs4">
    <inkscape:perspective
       sodipodi:type="inkscape:persp3d"
       inkscape:vp_x="0 : 526.18109 : 1"
       inkscape:vp_y="0 : 1000 : 0"
       inkscape:vp_z="744.09448 : 526.18109 : 1"
       inkscape:persp3d-origin="372.04724 : 350.78739 : 1"
       id="perspective10" />
  </defs>
  <sodipodi:namedview
     id="base"
     pagecolor="#ffffff"
     bordercolor="#666666"
     borderopacity="1.0"
     inkscape:pageopacity="0.0"
     inkscape:pageshadow="2"
     inkscape:zoom="2.153202"
     inkscape:cx="188.90881"
     inkscape:cy="126.29455"
     inkscape:document-units="px"
     inkscape:current-layer="layer1"
     showgrid="false"
     inkscape:window-width="1360"
     inkscape:window-height="749"
     inkscape:window-x="0"
     inkscape:window-y="0" />
  <metadata
     id="metadata7">
    <rdf:RDF>
      <cc:Work
         rdf:about="">
        <dc:format>image/svg+xml</dc:format>
        <dc:type
           rdf:resource="http://purl.org/dc/dcmitype/StillImage" />
      </cc:Work>
    </rdf:RDF>
  </metadata>
  <g
     inkscape:label="Capa 1"
     inkscape:groupmode="layer"
     id="layer1"
     transform="translate(-107.57143,-159.93361)">
    <rect
       style="opacity:1;fill:none;fill-opacity:1;fill-rule:evenodd;stroke:#000000;stroke-width:2;stroke-linecap:butt;stroke-miterlimit:4;stroke-dasharray:none;stroke-dashoffset:0;stroke-opacity:1"
       id="rect2383"
       width="382.85715"
       height="242.85715"
       x="108.57143"
       y="160.93361" />
    <path
       style="fill:none;fill-rule:evenodd;stroke:#000000;stroke-width:4;stroke-linecap:butt;stroke-linejoin:miter;stroke-miterlimit:4;stroke-dasharray:2, 2;stroke-dashoffset:0;stroke-opacity:1"
       d="M 154.28571,200.93361 C 183.55183,201.50644 178.50327,220.52464 182.85714,246.6479 C 185.06222,259.87838 225.34805,267.53924 237.14286,269.50504 C 256.13555,272.67049 268.57143,275.82321 268.57143,298.07647 C 268.57143,312.71801 298.2704,323.35835 311.42857,326.6479 C 332.47279,331.90895 353.22263,332.8107 374.28571,338.07647 C 400.81487,344.70876 428.50261,350.8992 454.28571,363.79075 C 456.84122,365.06851 488.68341,371.88094 491.54055,371.88094"
       id="path3155"
       sodipodi:nodetypes="cssssssc" />
    <path
       style="fill:none;fill-rule:evenodd;stroke:#000000;stroke-width:4.97241449;stroke-linecap:butt;stroke-linejoin:miter;stroke-miterlimit:4;stroke-dasharray:9.94482882, 4.97241441, 2.4862072, 4.97241441;stroke-dashoffset:0;stroke-opacity:1"
       d="M 437.49473,162.46242 C 453.20666,170.22713 400.46506,205.30069 391.42718,220.18885 C 380.99626,237.37176 385.71113,265.50937 385.71113,285.15987 C 385.71113,304.41352 379.54153,311.0316 368.56295,321.88263 C 359.56263,330.7784 357.13084,341.73507 357.13084,355.78057 C 357.13084,372.16853 351.41478,380.01649 351.41478,395.32815 C 351.41478,401.22203 351.85744,401.86638 351.49955,403.63505"
       id="path3157"
       sodipodi:nodetypes="csssssc" />
    <path
       style="fill:none;fill-rule:evenodd;stroke:#000000;stroke-width:4;stroke-linecap:butt;stroke-linejoin:miter;stroke-miterlimit:4;stroke-dasharray:4, 4;stroke-dashoffset:0;stroke-opacity:1"
       d="M 385.71429,232.36218 C 385.71429,236.18031 351.05826,235.21933 337.14286,235.21933 C 318.32783,235.21933 308.20119,220.71147 294.28571,212.36218 C 278.11308,202.6586 270.1049,191.70035 254.28571,183.79075 C 240.67089,176.98334 226.40772,178.42318 214.28571,172.36218 C 210.67685,170.55775 209.90099,165.7851 208.57143,163.79075"
       id="path3159" />
    <path
       style="fill:none;fill-rule:evenodd;stroke:#000000;stroke-width:3.98883367;stroke-linecap:butt;stroke-linejoin:miter;stroke-miterlimit:4;stroke-dasharray:23.93300266, 23.93300266;stroke-dashoffset:0;stroke-opacity:1"
       d="M 185.70881,162.32044 C 179.55572,159.26176 208.56857,203.3566 208.56857,244.70617 C 208.56857,266.12783 209.42837,287.89782 214.28351,307.20569 C 219.11553,326.42161 237.69606,347.52769 251.43063,361.18255 C 261.40379,371.09783 267.60745,384.82575 271.43293,392.4323 C 273.0644,395.67632 280.25289,401.38223 282.12725,403.71159"
       id="path3161"
       sodipodi:nodetypes="cssssc" />
  </g>
</svg>
