<?xml version="1.0" encoding="UTF-8" standalone="no"?>
<!-- Created with Inkscape (http://www.inkscape.org/) -->
<svg
   xmlns:dc="http://purl.org/dc/elements/1.1/"
   xmlns:cc="http://creativecommons.org/ns#"
   xmlns:rdf="http://www.w3.org/1999/02/22-rdf-syntax-ns#"
   xmlns:svg="http://www.w3.org/2000/svg"
   xmlns="http://www.w3.org/2000/svg"
   xmlns:sodipodi="http://sodipodi.sourceforge.net/DTD/sodipodi-0.dtd"
   xmlns:inkscape="http://www.inkscape.org/namespaces/inkscape"
   width="1379.7142"
   height="340.57141"
   id="svg2"
   sodipodi:version="0.32"
   inkscape:version="0.46"
   version="1.0"
   sodipodi:docname="VariablesVisuales.svg"
   inkscape:output_extension="org.inkscape.output.svg.inkscape">
  <defs
     id="defs4">
    <inkscape:perspective
       sodipodi:type="inkscape:persp3d"
       inkscape:vp_x="0 : 526.18109 : 1"
       inkscape:vp_y="0 : 1000 : 0"
       inkscape:vp_z="744.09448 : 526.18109 : 1"
       inkscape:persp3d-origin="372.04724 : 350.78739 : 1"
       id="perspective10" />
  </defs>
  <sodipodi:namedview
     id="base"
     pagecolor="#ffffff"
     bordercolor="#666666"
     borderopacity="1.0"
     inkscape:pageopacity="0.0"
     inkscape:pageshadow="2"
     inkscape:zoom="0.68419967"
     inkscape:cx="689.8571"
     inkscape:cy="170.2857"
     inkscape:document-units="px"
     inkscape:current-layer="layer1"
     showgrid="false"
     inkscape:window-width="1360"
     inkscape:window-height="749"
     inkscape:window-x="-4"
     inkscape:window-y="-4" />
  <metadata
     id="metadata7">
    <rdf:RDF>
      <cc:Work
         rdf:about="">
        <dc:format>image/svg+xml</dc:format>
        <dc:type
           rdf:resource="http://purl.org/dc/dcmitype/StillImage" />
      </cc:Work>
    </rdf:RDF>
  </metadata>
  <g
     inkscape:label="Capa 1"
     inkscape:groupmode="layer"
     id="layer1"
     transform="translate(-129.42858,-97.505046)">
    <g
       id="g2397">
      <rect
         y="99.612389"
         x="131.53592"
         height="139.78531"
         width="139.78531"
         id="rect2383"
         style="opacity:1;fill:none;fill-opacity:1;fill-rule:evenodd;stroke:#000000;stroke-width:4.21468592;stroke-linecap:butt;stroke-miterlimit:4;stroke-dasharray:none;stroke-dashoffset:0;stroke-opacity:1" />
      <rect
         y="99.612389"
         x="337.48831"
         height="139.78531"
         width="139.78531"
         id="rect2385"
         style="opacity:1;fill:none;fill-opacity:1;fill-rule:evenodd;stroke:#000000;stroke-width:4.21468592;stroke-linecap:butt;stroke-miterlimit:4;stroke-dasharray:none;stroke-dashoffset:0;stroke-opacity:1" />
      <rect
         y="99.612389"
         x="543.44067"
         height="139.78531"
         width="139.78531"
         id="rect2387"
         style="opacity:1;fill:none;fill-opacity:1;fill-rule:evenodd;stroke:#000000;stroke-width:4.21468592;stroke-linecap:butt;stroke-miterlimit:4;stroke-dasharray:none;stroke-dashoffset:0;stroke-opacity:1" />
      <rect
         y="99.612389"
         x="749.39307"
         height="139.78531"
         width="139.78531"
         id="rect2389"
         style="opacity:1;fill:none;fill-opacity:1;fill-rule:evenodd;stroke:#000000;stroke-width:4.21468592;stroke-linecap:butt;stroke-miterlimit:4;stroke-dasharray:none;stroke-dashoffset:0;stroke-opacity:1" />
      <rect
         y="99.612389"
         x="1161.2977"
         height="139.78531"
         width="139.78531"
         id="rect2391"
         style="opacity:1;fill:none;fill-opacity:1;fill-rule:evenodd;stroke:#000000;stroke-width:4.21468592;stroke-linecap:butt;stroke-miterlimit:4;stroke-dasharray:none;stroke-dashoffset:0;stroke-opacity:1" />
      <rect
         y="99.612389"
         x="955.3454"
         height="139.78531"
         width="139.78531"
         id="rect2393"
         style="opacity:1;fill:none;fill-opacity:1;fill-rule:evenodd;stroke:#000000;stroke-width:4.21468592;stroke-linecap:butt;stroke-miterlimit:4;stroke-dasharray:none;stroke-dashoffset:0;stroke-opacity:1" />
      <rect
         y="99.612389"
         x="1367.2501"
         height="139.78531"
         width="139.78531"
         id="rect2395"
         style="opacity:1;fill:none;fill-opacity:1;fill-rule:evenodd;stroke:#000000;stroke-width:4.21468592;stroke-linecap:butt;stroke-miterlimit:4;stroke-dasharray:none;stroke-dashoffset:0;stroke-opacity:1" />
    </g>
    <g
       id="g2406"
       transform="translate(0,196.57143)">
      <rect
         y="99.612389"
         x="131.53592"
         height="139.78531"
         width="139.78531"
         id="rect2408"
         style="opacity:1;fill:none;fill-opacity:1;fill-rule:evenodd;stroke:#000000;stroke-width:4.21468592;stroke-linecap:butt;stroke-miterlimit:4;stroke-dasharray:none;stroke-dashoffset:0;stroke-opacity:1" />
      <rect
         y="99.612389"
         x="337.48831"
         height="139.78531"
         width="139.78531"
         id="rect2410"
         style="opacity:1;fill:none;fill-opacity:1;fill-rule:evenodd;stroke:#000000;stroke-width:4.21468592;stroke-linecap:butt;stroke-miterlimit:4;stroke-dasharray:none;stroke-dashoffset:0;stroke-opacity:1" />
      <rect
         y="99.612389"
         x="543.44067"
         height="139.78531"
         width="139.78531"
         id="rect2412"
         style="opacity:1;fill:none;fill-opacity:1;fill-rule:evenodd;stroke:#000000;stroke-width:4.21468592;stroke-linecap:butt;stroke-miterlimit:4;stroke-dasharray:none;stroke-dashoffset:0;stroke-opacity:1" />
      <rect
         y="99.612389"
         x="749.39307"
         height="139.78531"
         width="139.78531"
         id="rect2414"
         style="opacity:1;fill:none;fill-opacity:1;fill-rule:evenodd;stroke:#000000;stroke-width:4.21468592;stroke-linecap:butt;stroke-miterlimit:4;stroke-dasharray:none;stroke-dashoffset:0;stroke-opacity:1" />
      <rect
         y="99.612389"
         x="1161.2977"
         height="139.78531"
         width="139.78531"
         id="rect2416"
         style="opacity:1;fill:none;fill-opacity:1;fill-rule:evenodd;stroke:#000000;stroke-width:4.21468592;stroke-linecap:butt;stroke-miterlimit:4;stroke-dasharray:none;stroke-dashoffset:0;stroke-opacity:1" />
      <rect
         y="99.612389"
         x="955.3454"
         height="139.78531"
         width="139.78531"
         id="rect2418"
         style="opacity:1;fill:none;fill-opacity:1;fill-rule:evenodd;stroke:#000000;stroke-width:4.21468592;stroke-linecap:butt;stroke-miterlimit:4;stroke-dasharray:none;stroke-dashoffset:0;stroke-opacity:1" />
      <rect
         y="99.612389"
         x="1367.2501"
         height="139.78531"
         width="139.78531"
         id="rect2420"
         style="opacity:1;fill:none;fill-opacity:1;fill-rule:evenodd;stroke:#000000;stroke-width:4.21468592;stroke-linecap:butt;stroke-miterlimit:4;stroke-dasharray:none;stroke-dashoffset:0;stroke-opacity:1" />
    </g>
    <path
       sodipodi:type="arc"
       style="opacity:1;fill:#000000;fill-opacity:1;fill-rule:evenodd;stroke:#000000;stroke-width:4;stroke-linecap:butt;stroke-miterlimit:4;stroke-dasharray:none;stroke-dashoffset:0;stroke-opacity:1"
       id="path2424"
       sodipodi:cx="-402.85715"
       sodipodi:cy="156.6479"
       sodipodi:rx="62.857143"
       sodipodi:ry="67.14286"
       d="M -340,156.6479 A 62.857143,67.14286 0 1 1 -465.71429,156.6479 A 62.857143,67.14286 0 1 1 -340,156.6479 z"
       transform="matrix(0.4960911,0,0,0.4644256,372.85379,66.610906)" />
    <path
       sodipodi:type="arc"
       style="opacity:1;fill:#000000;fill-opacity:1;fill-rule:evenodd;stroke:#000000;stroke-width:4;stroke-linecap:butt;stroke-miterlimit:4;stroke-dasharray:none;stroke-dashoffset:0;stroke-opacity:1"
       id="path3196"
       sodipodi:cx="-402.85715"
       sodipodi:cy="156.6479"
       sodipodi:rx="62.857143"
       sodipodi:ry="67.14286"
       d="M -340,156.6479 A 62.857143,67.14286 0 1 1 -465.71429,156.6479 A 62.857143,67.14286 0 1 1 -340,156.6479 z"
       transform="matrix(0.4960911,0,0,0.4644256,428.42527,319.61089)" />
    <path
       sodipodi:type="arc"
       style="opacity:1;fill:#000000;fill-opacity:1;fill-rule:evenodd;stroke:#000000;stroke-width:4;stroke-linecap:butt;stroke-miterlimit:4;stroke-dasharray:none;stroke-dashoffset:0;stroke-opacity:1"
       id="path3198"
       sodipodi:cx="-402.85715"
       sodipodi:cy="156.6479"
       sodipodi:rx="62.857143"
       sodipodi:ry="67.14286"
       d="M -340,156.6479 A 62.857143,67.14286 0 1 1 -465.71429,156.6479 A 62.857143,67.14286 0 1 1 -340,156.6479 z"
       transform="matrix(0.4960911,0,0,0.4644256,607.56813,96.753746)" />
    <rect
       style="opacity:1;fill:#000000;fill-opacity:1;fill-rule:evenodd;stroke:#000000;stroke-width:4;stroke-linecap:butt;stroke-miterlimit:4;stroke-dasharray:none;stroke-dashoffset:0;stroke-opacity:1"
       id="rect3200"
       width="71.428574"
       height="65.714287"
       x="371.42859"
       y="332.36218" />
    <path
       sodipodi:type="arc"
       style="opacity:1;fill:#000000;fill-opacity:1;fill-rule:evenodd;stroke:#000000;stroke-width:4;stroke-linecap:butt;stroke-miterlimit:4;stroke-dasharray:none;stroke-dashoffset:0;stroke-opacity:1"
       id="path3202"
       sodipodi:cx="-402.85715"
       sodipodi:cy="156.6479"
       sodipodi:rx="62.857143"
       sodipodi:ry="67.14286"
       d="M -340,156.6479 A 62.857143,67.14286 0 1 1 -465.71429,156.6479 A 62.857143,67.14286 0 1 1 -340,156.6479 z"
       transform="matrix(0.4960911,0,0,0.4644256,811.28242,96.753746)" />
    <path
       sodipodi:type="arc"
       style="opacity:1;fill:#000000;fill-opacity:1;fill-rule:evenodd;stroke:#000000;stroke-width:4;stroke-linecap:butt;stroke-miterlimit:4;stroke-dasharray:none;stroke-dashoffset:0;stroke-opacity:1"
       id="path3204"
       sodipodi:cx="-402.85715"
       sodipodi:cy="156.6479"
       sodipodi:rx="62.857143"
       sodipodi:ry="67.14286"
       d="M -340,156.6479 A 62.857143,67.14286 0 1 1 -465.71429,156.6479 A 62.857143,67.14286 0 1 1 -340,156.6479 z"
       transform="matrix(0.2315092,0,0,0.216732,704.69371,332.12586)" />
    <path
       sodipodi:type="arc"
       style="opacity:1;fill:#ac1616;fill-opacity:1;fill-rule:evenodd;stroke:#000000;stroke-width:4;stroke-linecap:butt;stroke-miterlimit:4;stroke-dasharray:none;stroke-dashoffset:0;stroke-opacity:1"
       id="path3206"
       sodipodi:cx="-402.85715"
       sodipodi:cy="156.6479"
       sodipodi:rx="62.857143"
       sodipodi:ry="67.14286"
       d="M -340,156.6479 A 62.857143,67.14286 0 1 1 -465.71429,156.6479 A 62.857143,67.14286 0 1 1 -340,156.6479 z"
       transform="matrix(0.4960911,0,0,0.4644256,1017.8539,96.753746)" />
    <path
       sodipodi:type="arc"
       style="opacity:1;fill:#338f38;fill-opacity:1;fill-rule:evenodd;stroke:#000000;stroke-width:4;stroke-linecap:butt;stroke-miterlimit:4;stroke-dasharray:none;stroke-dashoffset:0;stroke-opacity:1"
       id="path3208"
       sodipodi:cx="-402.85715"
       sodipodi:cy="156.6479"
       sodipodi:rx="62.857143"
       sodipodi:ry="67.14286"
       d="M -340,156.6479 A 62.857143,67.14286 0 1 1 -465.71429,156.6479 A 62.857143,67.14286 0 1 1 -340,156.6479 z"
       transform="matrix(0.4960911,0,0,0.4644256,1017.8539,293.32518)" />
    <path
       sodipodi:type="arc"
       style="opacity:1;fill:#ac1616;fill-opacity:1;fill-rule:evenodd;stroke:#000000;stroke-width:4;stroke-linecap:butt;stroke-miterlimit:4;stroke-dasharray:none;stroke-dashoffset:0;stroke-opacity:1"
       id="path3210"
       sodipodi:cx="-402.85715"
       sodipodi:cy="156.6479"
       sodipodi:rx="62.857143"
       sodipodi:ry="67.14286"
       d="M -340,156.6479 A 62.857143,67.14286 0 1 1 -465.71429,156.6479 A 62.857143,67.14286 0 1 1 -340,156.6479 z"
       transform="matrix(0.4960911,0,0,0.4644256,1224.1395,96.753746)" />
    <path
       sodipodi:type="arc"
       style="opacity:1;fill:#ec6767;fill-opacity:1;fill-rule:evenodd;stroke:#000000;stroke-width:4;stroke-linecap:butt;stroke-miterlimit:4;stroke-dasharray:none;stroke-dashoffset:0;stroke-opacity:1"
       id="path3212"
       sodipodi:cx="-402.85715"
       sodipodi:cy="156.6479"
       sodipodi:rx="62.857143"
       sodipodi:ry="67.14286"
       d="M -340,156.6479 A 62.857143,67.14286 0 1 1 -465.71429,156.6479 A 62.857143,67.14286 0 1 1 -340,156.6479 z"
       transform="matrix(0.4960911,0,0,0.4644256,1224.1395,293.32518)" />
    <rect
       style="opacity:1;fill:#000000;fill-opacity:1;fill-rule:evenodd;stroke:#000000;stroke-width:2.9024508;stroke-linecap:butt;stroke-miterlimit:4;stroke-dasharray:none;stroke-dashoffset:0;stroke-opacity:1"
       id="rect3214"
       width="41.097549"
       height="103.9547"
       x="1410.8798"
       y="120.38484" />
    <rect
       style="opacity:1;fill:#000000;fill-opacity:1;fill-rule:evenodd;stroke:#000000;stroke-width:2.9024508;stroke-linecap:butt;stroke-miterlimit:4;stroke-dasharray:none;stroke-dashoffset:0;stroke-opacity:1"
       id="rect3216"
       width="41.097549"
       height="103.9547"
       x="1242.7871"
       y="-823.72125"
       transform="matrix(0.6976739,0.7164155,-0.7164155,0.6976739,0,0)" />
    <path
       sodipodi:type="arc"
       style="opacity:1;fill:none;fill-opacity:1;fill-rule:evenodd;stroke:#000000;stroke-width:8.3333807;stroke-linecap:butt;stroke-miterlimit:4;stroke-dasharray:none;stroke-dashoffset:0;stroke-opacity:1"
       id="path3218"
       sodipodi:cx="-402.85715"
       sodipodi:cy="156.6479"
       sodipodi:rx="62.857143"
       sodipodi:ry="67.14286"
       d="M -340,156.6479 A 62.857143,67.14286 0 1 1 -465.71429,156.6479 A 62.857143,67.14286 0 1 1 -340,156.6479 z"
       transform="matrix(0.4960911,0,0,0.4644256,1428.4253,96.753746)" />
    <path
       sodipodi:type="arc"
       style="opacity:1;fill:none;fill-opacity:1;fill-rule:evenodd;stroke:#000000;stroke-width:8.3333807;stroke-linecap:butt;stroke-miterlimit:4;stroke-dasharray:none;stroke-dashoffset:0;stroke-opacity:1"
       id="path3220"
       sodipodi:cx="-402.85715"
       sodipodi:cy="156.6479"
       sodipodi:rx="62.857143"
       sodipodi:ry="67.14286"
       d="M -340,156.6479 A 62.857143,67.14286 0 1 1 -465.71429,156.6479 A 62.857143,67.14286 0 1 1 -340,156.6479 z"
       transform="matrix(0.4960911,0,0,0.4644256,1428.4252,293.32518)" />
    <path
       style="fill:none;fill-rule:evenodd;stroke:#000000;stroke-width:4;stroke-linecap:butt;stroke-linejoin:miter;stroke-miterlimit:4;stroke-dasharray:none;stroke-opacity:1"
       d="M 1208.7207,145.60952 L 1208.7207,191.62231"
       id="path3222" />
    <path
       style="fill:none;fill-rule:evenodd;stroke:#000000;stroke-width:4;stroke-linecap:butt;stroke-linejoin:miter;stroke-miterlimit:4;stroke-dasharray:none;stroke-opacity:1"
       d="M 1221.1088,140.95493 L 1221.1088,197.58606"
       id="path3224" />
    <path
       style="fill:none;fill-rule:evenodd;stroke:#000000;stroke-width:4;stroke-linecap:butt;stroke-linejoin:miter;stroke-miterlimit:4;stroke-dasharray:none;stroke-opacity:1"
       d="M 1245.8849,145.60952 L 1245.8849,194.27689"
       id="path3230" />
    <path
       style="fill:none;fill-rule:evenodd;stroke:#000000;stroke-width:4;stroke-linecap:butt;stroke-linejoin:miter;stroke-miterlimit:4;stroke-dasharray:none;stroke-opacity:1"
       d="M 1233.4968,137.41549 L 1233.4968,201.12551"
       id="path3232" />
    <g
       id="g3284"
       transform="translate(1.9733478,5.3091684)">
      <path
         transform="matrix(0.9287017,0,0,1.114442,101.21999,-42.772365)"
         d="M 1229.9573,346.68521 A 2.6545842,2.2121534 0 1 1 1224.6482,346.68521 A 2.6545842,2.2121534 0 1 1 1229.9573,346.68521 z"
         sodipodi:ry="2.2121534"
         sodipodi:rx="2.6545842"
         sodipodi:cy="346.68521"
         sodipodi:cx="1227.3027"
         id="path3254"
         style="opacity:1;fill:#000000;fill-opacity:1;fill-rule:evenodd;stroke:#000000;stroke-width:4;stroke-linecap:butt;stroke-miterlimit:4;stroke-dasharray:none;stroke-dashoffset:0;stroke-opacity:1"
         sodipodi:type="arc" />
      <path
         transform="matrix(0.9287017,0,0,1.114442,72.019562,-42.772365)"
         d="M 1229.9573,346.68521 A 2.6545842,2.2121534 0 1 1 1224.6482,346.68521 A 2.6545842,2.2121534 0 1 1 1229.9573,346.68521 z"
         sodipodi:ry="2.2121534"
         sodipodi:rx="2.6545842"
         sodipodi:cy="346.68521"
         sodipodi:cx="1227.3027"
         id="path3256"
         style="opacity:1;fill:#000000;fill-opacity:1;fill-rule:evenodd;stroke:#000000;stroke-width:4;stroke-linecap:butt;stroke-miterlimit:4;stroke-dasharray:none;stroke-dashoffset:0;stroke-opacity:1"
         sodipodi:type="arc" />
      <path
         transform="matrix(0.9287017,0,0,1.114442,81.753066,-42.772365)"
         d="M 1229.9573,346.68521 A 2.6545842,2.2121534 0 1 1 1224.6482,346.68521 A 2.6545842,2.2121534 0 1 1 1229.9573,346.68521 z"
         sodipodi:ry="2.2121534"
         sodipodi:rx="2.6545842"
         sodipodi:cy="346.68521"
         sodipodi:cx="1227.3027"
         id="path3258"
         style="opacity:1;fill:#000000;fill-opacity:1;fill-rule:evenodd;stroke:#000000;stroke-width:4;stroke-linecap:butt;stroke-miterlimit:4;stroke-dasharray:none;stroke-dashoffset:0;stroke-opacity:1"
         sodipodi:type="arc" />
      <path
         transform="matrix(0.9287017,0,0,1.114442,91.486569,-42.772365)"
         d="M 1229.9573,346.68521 A 2.6545842,2.2121534 0 1 1 1224.6482,346.68521 A 2.6545842,2.2121534 0 1 1 1229.9573,346.68521 z"
         sodipodi:ry="2.2121534"
         sodipodi:rx="2.6545842"
         sodipodi:cy="346.68521"
         sodipodi:cx="1227.3027"
         id="path3260"
         style="opacity:1;fill:#000000;fill-opacity:1;fill-rule:evenodd;stroke:#000000;stroke-width:4;stroke-linecap:butt;stroke-miterlimit:4;stroke-dasharray:none;stroke-dashoffset:0;stroke-opacity:1"
         sodipodi:type="arc" />
    </g>
    <g
       id="g3315"
       transform="translate(2,0)">
      <path
         transform="matrix(0.9287017,0,0,1.114442,102.10485,-4.7233242)"
         d="M 1229.9573,346.68521 A 2.6545842,2.2121534 0 1 1 1224.6482,346.68521 A 2.6545842,2.2121534 0 1 1 1229.9573,346.68521 z"
         sodipodi:ry="2.2121534"
         sodipodi:rx="2.6545842"
         sodipodi:cy="346.68521"
         sodipodi:cx="1227.3027"
         id="path3270"
         style="opacity:1;fill:#000000;fill-opacity:1;fill-rule:evenodd;stroke:#000000;stroke-width:4;stroke-linecap:butt;stroke-miterlimit:4;stroke-dasharray:none;stroke-dashoffset:0;stroke-opacity:1"
         sodipodi:type="arc" />
      <path
         transform="matrix(0.9287017,0,0,1.114442,72.904423,-4.7233242)"
         d="M 1229.9573,346.68521 A 2.6545842,2.2121534 0 1 1 1224.6482,346.68521 A 2.6545842,2.2121534 0 1 1 1229.9573,346.68521 z"
         sodipodi:ry="2.2121534"
         sodipodi:rx="2.6545842"
         sodipodi:cy="346.68521"
         sodipodi:cx="1227.3027"
         id="path3272"
         style="opacity:1;fill:#000000;fill-opacity:1;fill-rule:evenodd;stroke:#000000;stroke-width:4;stroke-linecap:butt;stroke-miterlimit:4;stroke-dasharray:none;stroke-dashoffset:0;stroke-opacity:1"
         sodipodi:type="arc" />
      <path
         transform="matrix(0.9287017,0,0,1.114442,82.637927,-4.7233242)"
         d="M 1229.9573,346.68521 A 2.6545842,2.2121534 0 1 1 1224.6482,346.68521 A 2.6545842,2.2121534 0 1 1 1229.9573,346.68521 z"
         sodipodi:ry="2.2121534"
         sodipodi:rx="2.6545842"
         sodipodi:cy="346.68521"
         sodipodi:cx="1227.3027"
         id="path3274"
         style="opacity:1;fill:#000000;fill-opacity:1;fill-rule:evenodd;stroke:#000000;stroke-width:4;stroke-linecap:butt;stroke-miterlimit:4;stroke-dasharray:none;stroke-dashoffset:0;stroke-opacity:1"
         sodipodi:type="arc" />
      <path
         transform="matrix(0.9287017,0,0,1.114442,92.37143,-4.7233242)"
         d="M 1229.9573,346.68521 A 2.6545842,2.2121534 0 1 1 1224.6482,346.68521 A 2.6545842,2.2121534 0 1 1 1229.9573,346.68521 z"
         sodipodi:ry="2.2121534"
         sodipodi:rx="2.6545842"
         sodipodi:cy="346.68521"
         sodipodi:cx="1227.3027"
         id="path3276"
         style="opacity:1;fill:#000000;fill-opacity:1;fill-rule:evenodd;stroke:#000000;stroke-width:4;stroke-linecap:butt;stroke-miterlimit:4;stroke-dasharray:none;stroke-dashoffset:0;stroke-opacity:1"
         sodipodi:type="arc" />
    </g>
    <g
       id="g3298"
       transform="translate(1.0884864,-0.5899448)">
      <g
         transform="translate(-5.3091684,0)"
         id="g3278">
        <path
           sodipodi:type="arc"
           style="opacity:1;fill:#000000;fill-opacity:1;fill-rule:evenodd;stroke:#000000;stroke-width:4;stroke-linecap:butt;stroke-miterlimit:4;stroke-dasharray:none;stroke-dashoffset:0;stroke-opacity:1"
           id="path3262"
           sodipodi:cx="1227.3027"
           sodipodi:cy="346.68521"
           sodipodi:rx="2.6545842"
           sodipodi:ry="2.2121534"
           d="M 1229.9573,346.68521 A 2.6545842,2.2121534 0 1 1 1224.6482,346.68521 A 2.6545842,2.2121534 0 1 1 1229.9573,346.68521 z"
           transform="matrix(0.9287017,0,0,1.114442,107.41402,-25.959998)" />
        <path
           sodipodi:type="arc"
           style="opacity:1;fill:#000000;fill-opacity:1;fill-rule:evenodd;stroke:#000000;stroke-width:4;stroke-linecap:butt;stroke-miterlimit:4;stroke-dasharray:none;stroke-dashoffset:0;stroke-opacity:1"
           id="path3264"
           sodipodi:cx="1227.3027"
           sodipodi:cy="346.68521"
           sodipodi:rx="2.6545842"
           sodipodi:ry="2.2121534"
           d="M 1229.9573,346.68521 A 2.6545842,2.2121534 0 1 1 1224.6482,346.68521 A 2.6545842,2.2121534 0 1 1 1229.9573,346.68521 z"
           transform="matrix(0.9287017,0,0,1.114442,78.213591,-25.959998)" />
        <path
           sodipodi:type="arc"
           style="opacity:1;fill:#000000;fill-opacity:1;fill-rule:evenodd;stroke:#000000;stroke-width:4;stroke-linecap:butt;stroke-miterlimit:4;stroke-dasharray:none;stroke-dashoffset:0;stroke-opacity:1"
           id="path3266"
           sodipodi:cx="1227.3027"
           sodipodi:cy="346.68521"
           sodipodi:rx="2.6545842"
           sodipodi:ry="2.2121534"
           d="M 1229.9573,346.68521 A 2.6545842,2.2121534 0 1 1 1224.6482,346.68521 A 2.6545842,2.2121534 0 1 1 1229.9573,346.68521 z"
           transform="matrix(0.9287017,0,0,1.114442,87.947095,-25.959998)" />
        <path
           sodipodi:type="arc"
           style="opacity:1;fill:#000000;fill-opacity:1;fill-rule:evenodd;stroke:#000000;stroke-width:4;stroke-linecap:butt;stroke-miterlimit:4;stroke-dasharray:none;stroke-dashoffset:0;stroke-opacity:1"
           id="path3268"
           sodipodi:cx="1227.3027"
           sodipodi:cy="346.68521"
           sodipodi:rx="2.6545842"
           sodipodi:ry="2.2121534"
           d="M 1229.9573,346.68521 A 2.6545842,2.2121534 0 1 1 1224.6482,346.68521 A 2.6545842,2.2121534 0 1 1 1229.9573,346.68521 z"
           transform="matrix(0.9287017,0,0,1.114442,97.680598,-25.959998)" />
      </g>
      <path
         transform="matrix(0.9287017,0,0,1.114442,111.39589,-25.959998)"
         d="M 1229.9573,346.68521 A 2.6545842,2.2121534 0 1 1 1224.6482,346.68521 A 2.6545842,2.2121534 0 1 1 1229.9573,346.68521 z"
         sodipodi:ry="2.2121534"
         sodipodi:rx="2.6545842"
         sodipodi:cy="346.68521"
         sodipodi:cx="1227.3027"
         id="path3290"
         style="opacity:1;fill:#000000;fill-opacity:1;fill-rule:evenodd;stroke:#000000;stroke-width:4;stroke-linecap:butt;stroke-miterlimit:4;stroke-dasharray:none;stroke-dashoffset:0;stroke-opacity:1"
         sodipodi:type="arc" />
      <path
         transform="matrix(0.9287017,0,0,1.114442,63.613378,-25.959998)"
         d="M 1229.9573,346.68521 A 2.6545842,2.2121534 0 1 1 1224.6482,346.68521 A 2.6545842,2.2121534 0 1 1 1229.9573,346.68521 z"
         sodipodi:ry="2.2121534"
         sodipodi:rx="2.6545842"
         sodipodi:cy="346.68521"
         sodipodi:cx="1227.3027"
         id="path3294"
         style="opacity:1;fill:#000000;fill-opacity:1;fill-rule:evenodd;stroke:#000000;stroke-width:4;stroke-linecap:butt;stroke-miterlimit:4;stroke-dasharray:none;stroke-dashoffset:0;stroke-opacity:1"
         sodipodi:type="arc" />
    </g>
    <g
       id="g3307"
       transform="translate(1.0884864,-0.7373857)">
      <path
         transform="matrix(0.9287017,0,0,1.114442,102.54728,-15.341661)"
         d="M 1229.9573,346.68521 A 2.6545842,2.2121534 0 1 1 1224.6482,346.68521 A 2.6545842,2.2121534 0 1 1 1229.9573,346.68521 z"
         sodipodi:ry="2.2121534"
         sodipodi:rx="2.6545842"
         sodipodi:cy="346.68521"
         sodipodi:cx="1227.3027"
         id="path3236"
         style="opacity:1;fill:#000000;fill-opacity:1;fill-rule:evenodd;stroke:#000000;stroke-width:4;stroke-linecap:butt;stroke-miterlimit:4;stroke-dasharray:none;stroke-dashoffset:0;stroke-opacity:1"
         sodipodi:type="arc" />
      <path
         transform="matrix(0.9287017,0,0,1.114442,73.346854,-15.341661)"
         d="M 1229.9573,346.68521 A 2.6545842,2.2121534 0 1 1 1224.6482,346.68521 A 2.6545842,2.2121534 0 1 1 1229.9573,346.68521 z"
         sodipodi:ry="2.2121534"
         sodipodi:rx="2.6545842"
         sodipodi:cy="346.68521"
         sodipodi:cx="1227.3027"
         id="path3238"
         style="opacity:1;fill:#000000;fill-opacity:1;fill-rule:evenodd;stroke:#000000;stroke-width:4;stroke-linecap:butt;stroke-miterlimit:4;stroke-dasharray:none;stroke-dashoffset:0;stroke-opacity:1"
         sodipodi:type="arc" />
      <path
         transform="matrix(0.9287017,0,0,1.114442,83.080358,-15.341661)"
         d="M 1229.9573,346.68521 A 2.6545842,2.2121534 0 1 1 1224.6482,346.68521 A 2.6545842,2.2121534 0 1 1 1229.9573,346.68521 z"
         sodipodi:ry="2.2121534"
         sodipodi:rx="2.6545842"
         sodipodi:cy="346.68521"
         sodipodi:cx="1227.3027"
         id="path3244"
         style="opacity:1;fill:#000000;fill-opacity:1;fill-rule:evenodd;stroke:#000000;stroke-width:4;stroke-linecap:butt;stroke-miterlimit:4;stroke-dasharray:none;stroke-dashoffset:0;stroke-opacity:1"
         sodipodi:type="arc" />
      <path
         transform="matrix(0.9287017,0,0,1.114442,92.813861,-15.341661)"
         d="M 1229.9573,346.68521 A 2.6545842,2.2121534 0 1 1 1224.6482,346.68521 A 2.6545842,2.2121534 0 1 1 1229.9573,346.68521 z"
         sodipodi:ry="2.2121534"
         sodipodi:rx="2.6545842"
         sodipodi:cy="346.68521"
         sodipodi:cx="1227.3027"
         id="path3246"
         style="opacity:1;fill:#000000;fill-opacity:1;fill-rule:evenodd;stroke:#000000;stroke-width:4;stroke-linecap:butt;stroke-miterlimit:4;stroke-dasharray:none;stroke-dashoffset:0;stroke-opacity:1"
         sodipodi:type="arc" />
      <path
         transform="matrix(0.9287017,0,0,1.114442,112.28076,-14.4568)"
         d="M 1229.9573,346.68521 A 2.6545842,2.2121534 0 1 1 1224.6482,346.68521 A 2.6545842,2.2121534 0 1 1 1229.9573,346.68521 z"
         sodipodi:ry="2.2121534"
         sodipodi:rx="2.6545842"
         sodipodi:cy="346.68521"
         sodipodi:cx="1227.3027"
         id="path3292"
         style="opacity:1;fill:#000000;fill-opacity:1;fill-rule:evenodd;stroke:#000000;stroke-width:4;stroke-linecap:butt;stroke-miterlimit:4;stroke-dasharray:none;stroke-dashoffset:0;stroke-opacity:1"
         sodipodi:type="arc" />
      <path
         transform="matrix(0.9287017,0,0,1.114442,63.613378,-15.341661)"
         d="M 1229.9573,346.68521 A 2.6545842,2.2121534 0 1 1 1224.6482,346.68521 A 2.6545842,2.2121534 0 1 1 1229.9573,346.68521 z"
         sodipodi:ry="2.2121534"
         sodipodi:rx="2.6545842"
         sodipodi:cy="346.68521"
         sodipodi:cx="1227.3027"
         id="path3296"
         style="opacity:1;fill:#000000;fill-opacity:1;fill-rule:evenodd;stroke:#000000;stroke-width:4;stroke-linecap:butt;stroke-miterlimit:4;stroke-dasharray:none;stroke-dashoffset:0;stroke-opacity:1"
         sodipodi:type="arc" />
    </g>
  </g>
</svg>
