<?xml version="1.0" encoding="UTF-8" standalone="no"?>
<!-- Created with Inkscape (http://www.inkscape.org/) -->
<svg
   xmlns:dc="http://purl.org/dc/elements/1.1/"
   xmlns:cc="http://creativecommons.org/ns#"
   xmlns:rdf="http://www.w3.org/1999/02/22-rdf-syntax-ns#"
   xmlns:svg="http://www.w3.org/2000/svg"
   xmlns="http://www.w3.org/2000/svg"
   xmlns:sodipodi="http://sodipodi.sourceforge.net/DTD/sodipodi-0.dtd"
   xmlns:inkscape="http://www.inkscape.org/namespaces/inkscape"
   width="1029.985"
   height="367.71429"
   id="svg2"
   sodipodi:version="0.32"
   inkscape:version="0.46"
   version="1.0"
   sodipodi:docname="Conectividad.svg"
   inkscape:output_extension="org.inkscape.output.svg.inkscape">
  <defs
     id="defs4">
    <marker
       inkscape:stockid="Arrow1Send"
       orient="auto"
       refY="0"
       refX="0"
       id="Arrow1Send"
       style="overflow:visible">
      <path
         id="path3255"
         d="M 0,0 L 5,-5 L -12.5,0 L 5,5 L 0,0 z"
         style="fill-rule:evenodd;stroke:#000000;stroke-width:1pt;marker-start:none"
         transform="matrix(-0.2,0,0,-0.2,-1.2,0)" />
    </marker>
    <marker
       inkscape:stockid="Arrow2Mend"
       orient="auto"
       refY="0"
       refX="0"
       id="Arrow2Mend"
       style="overflow:visible">
      <path
         id="path3267"
         style="font-size:12px;fill-rule:evenodd;stroke-width:0.625;stroke-linejoin:round"
         d="M 8.7185878,4.0337352 L -2.2072895,0.016013256 L 8.7185884,-4.0017078 C 6.97309,-1.6296469 6.9831476,1.6157441 8.7185878,4.0337352 z"
         transform="scale(-0.6,-0.6)" />
    </marker>
    <inkscape:perspective
       sodipodi:type="inkscape:persp3d"
       inkscape:vp_x="0 : 526.18109 : 1"
       inkscape:vp_y="0 : 1000 : 0"
       inkscape:vp_z="744.09448 : 526.18109 : 1"
       inkscape:persp3d-origin="372.04724 : 350.78739 : 1"
       id="perspective10" />
  </defs>
  <sodipodi:namedview
     id="base"
     pagecolor="#ffffff"
     bordercolor="#666666"
     borderopacity="1.0"
     inkscape:pageopacity="0.0"
     inkscape:pageshadow="2"
     inkscape:zoom="0.91651816"
     inkscape:cx="514.99252"
     inkscape:cy="183.85715"
     inkscape:document-units="px"
     inkscape:current-layer="layer1"
     showgrid="false"
     inkscape:window-width="1360"
     inkscape:window-height="749"
     inkscape:window-x="-4"
     inkscape:window-y="-4" />
  <metadata
     id="metadata7">
    <rdf:RDF>
      <cc:Work
         rdf:about="">
        <dc:format>image/svg+xml</dc:format>
        <dc:type
           rdf:resource="http://purl.org/dc/dcmitype/StillImage" />
      </cc:Work>
    </rdf:RDF>
  </metadata>
  <g
     inkscape:label="Capa 1"
     inkscape:groupmode="layer"
     id="layer1"
     transform="translate(-25.385927,-98.167213)">
    <path
       style="fill:#1ec309;fill-opacity:1;fill-rule:evenodd;stroke:#000000;stroke-width:1px;stroke-linecap:butt;stroke-linejoin:miter;stroke-opacity:1"
       d="M 95.852878,185.39322 C 96.140725,185.39322 96.428571,185.39322 96.716418,185.39322 C 106.54558,185.39322 113.07062,165.33238 116.57783,159.48704 C 120.7852,152.47475 126.72758,149.71904 134.71215,151.71518 C 139.55064,152.9248 156.62782,169.87901 162.34542,174.16721 C 169.98203,179.89467 155.22737,193.49198 168.39019,200.07339 C 185.10192,208.42926 192.5693,210.73515 192.5693,230.29727 C 192.5693,246.22507 169.35948,256.20346 156.30064,256.20346 C 146.78294,256.20346 138.51268,257.07178 136.43923,246.70452 C 136.32633,246.14001 136.43923,245.55314 136.43923,244.97744 C 136.43923,233.27037 128.11514,226.04184 119.16844,224.2525 C 106.26738,221.67229 98.85899,221.97972 96.716418,206.98171 C 96.151475,203.02711 97.579957,196.07878 97.579957,191.438 C 97.579957,188.16082 97.793764,190.24544 95.852878,185.39322 z"
       id="path3155" />
    <path
       style="fill:#1ec309;fill-opacity:1;fill-rule:evenodd;stroke:#000000;stroke-width:1px;stroke-linecap:butt;stroke-linejoin:miter;stroke-opacity:1"
       d="M 202.06823,172.44013 C 202.06823,139.56487 230.98618,160.88763 242.65458,163.80474 C 245.22916,164.44838 247.83582,164.95612 250.42644,165.53182 C 252.69187,166.03524 255.03198,166.10751 257.33475,166.39535 C 265.84773,167.45948 264.57085,181.93906 240.92751,181.93906 C 231.15531,181.93906 226.54873,184.23845 218.47548,186.25676 C 215.03307,187.11736 210.82345,178.79066 208.11301,176.75783 C 204.37932,173.95756 208.9929,175.21 202.06823,172.44013 z"
       id="path3157" />
    <path
       style="fill:#1ec309;fill-opacity:1;fill-rule:evenodd;stroke:#000000;stroke-width:1px;stroke-linecap:butt;stroke-linejoin:miter;stroke-opacity:1"
       d="M 338.92964,226.99664 C 333.67851,223.05829 331.48147,237.89896 326.84008,242.54035 C 308.63507,260.74536 349.8678,288.59578 361.38166,311.6235 C 365.1004,319.06097 388.01972,313.87726 389.87846,306.44227 C 393.57663,291.64959 406.38663,283.1267 420.96588,283.1267 C 435.19961,283.1267 430.46482,270.69813 430.46482,259.81114 C 430.46482,247.92242 437.87584,239.75646 429.60128,228.72372 C 421.59846,218.05329 397.73928,220.95186 386.42431,220.95186 C 373.51291,220.95186 357.03769,227.78419 345.83795,230.4508 C 343.33339,231.04712 341.45422,227.50155 338.92964,226.99664 z"
       id="path3159" />
    <path
       style="fill:#1ec309;fill-opacity:1;fill-rule:evenodd;stroke:#000000;stroke-width:1px;stroke-linecap:butt;stroke-linejoin:miter;stroke-opacity:1"
       d="M 323.14126,185.2493 C 266.07655,198.83613 333.7618,212.01902 334.36727,212.01902 C 336.11608,212.01902 339.85338,202.21521 341.27559,200.79301 C 345.82423,196.24437 337.30073,189.90984 335.23081,187.83992 C 332.81961,185.42872 326.81061,185.98317 323.14126,185.2493 z"
       id="path3161" />
    <path
       style="fill:#1ec309;fill-opacity:1;fill-rule:evenodd;stroke:#000000;stroke-width:1px;stroke-linecap:butt;stroke-linejoin:miter;stroke-opacity:1"
       d="M 361.82303,194.89216 C 359.2727,192.34183 363.39756,204.39109 367.00426,204.39109 C 373.37929,204.39109 377.38154,203.52755 384.27505,203.52755 C 390.07626,203.52755 418.17031,204.4997 395.50107,193.16508 C 387.30972,189.06941 384.26904,185.05262 377.36674,190.57446 C 376.41312,191.33736 375.63966,192.30154 374.77612,193.16508 C 372.96604,194.97515 364.05451,194.44586 361.82303,194.89216 z"
       id="path3163" />
    <path
       style="fill:#1ec309;fill-opacity:1;fill-rule:evenodd;stroke:#000000;stroke-width:1px;stroke-linecap:butt;stroke-linejoin:miter;stroke-opacity:1"
       d="M 55.78625,354.31735 C 40.23987,369.86372 82.42327,315.50231 103.28092,308.54976 C 111.7914,305.71293 135.75382,316.93738 142.14019,319.77577 C 156.2331,326.03929 166.9599,326.46115 178.40885,337.9101 C 187.1822,346.68345 201.25629,357.23066 205.17857,368.99752 C 209.50305,381.97094 215.50499,396.77501 212.08689,410.44741 C 209.48325,420.86197 204.0569,424.26404 194.8161,424.26404 C 179.95842,424.26404 176.71476,416.82403 168.04638,405.26618 C 158.55476,392.61069 133.46912,392.34876 123.14233,402.67556 C 116.02833,409.78955 111.47344,417.57717 101.55384,422.53696 C 89.71304,428.45736 61.50651,414.60285 51.46855,409.58387 C 39.140238,403.41972 42.80406,394.92116 51.46855,389.72247 C 56.88405,386.47316 56.64979,381.53042 56.64979,375.90583 C 56.64979,364.64254 51.17938,365.83452 55.78625,354.31735 z"
       id="path3165" />
    <path
       style="fill:#131af4;fill-opacity:1;fill-rule:evenodd;stroke:none;stroke-width:1px;stroke-linecap:butt;stroke-linejoin:miter;stroke-opacity:1"
       d="M 26.755331,264.06165 C 46.997745,266.83092 67.568524,265.32237 87.95003,266.19136 C 125.2016,266.23324 163.54669,264.26125 199.41033,275.98927 C 215.00604,289.83022 234.82488,294.31982 254.48558,299.71472 C 269.898,309.33917 286.46857,317.35916 301.58584,327.32022 C 322.25497,334.11763 344.3169,328.862 365.60471,330.68865 C 382.10392,324.96405 402.80754,331.70621 415.81954,333.99377 C 436.86598,335.25371 452.66678,333.82134 465.62016,342.8723 C 466.27594,351.0247 468.17458,354.41727 465.40872,354.91599 C 461.01029,355.70908 449.98191,350.12314 442.50233,351.83259 C 421.56043,352.45144 394.4445,344.44304 365.32109,344.59744 C 339.51602,338.67147 311.20134,349.68372 286.87792,336.30632 C 271.49878,329.18144 256.32199,321.75113 243.00813,311.09768 C 230.5095,300.56432 212.99461,303.10414 199.78774,294.12421 C 187.15755,286.43857 173.38661,277.53245 157.84321,280.41124 C 124.50829,281.21437 91.07832,278.8507 57.81978,282.04716 C 42.473478,281.50762 29.293187,281.48322 26.990271,280.37497 C 24.885804,279.36223 25.873345,273.26943 26.755331,264.06165 z"
       id="path3173"
       sodipodi:nodetypes="ccccccccscccccccsc" />
    <rect
       style="fill:none;fill-opacity:1;fill-rule:evenodd;stroke:#000000;stroke-width:2;stroke-linecap:butt;stroke-miterlimit:4;stroke-dasharray:none;stroke-dashoffset:0;stroke-opacity:1"
       id="rect2383"
       width="440"
       height="365.71429"
       x="26.385927"
       y="99.167213" />
    <path
       style="fill:#deab0a;fill-opacity:1;fill-rule:evenodd;stroke:#000000;stroke-width:1px;stroke-linecap:butt;stroke-linejoin:miter;stroke-opacity:1"
       d="M 169.45043,260.63148 C 169.45043,266.5771 169.45043,272.52273 169.45043,278.46836 C 169.45043,281.2125 169.45043,283.95664 169.45043,286.70077 C 169.45043,294.47995 176.09077,297.21129 179.74095,293.56111 C 181.13383,292.16823 179.94831,282.2338 180.42698,279.84043 C 181.05416,276.70452 180.42698,272.75984 180.42698,269.54992 C 180.42698,264.75302 179.5346,263.64896 177.68284,259.94544 C 176.37177,257.32329 171.26458,258.21262 169.45043,260.63148 z"
       id="path3185" />
    <rect
       style="fill:none;fill-opacity:1;fill-rule:evenodd;stroke:#000000;stroke-width:2;stroke-linecap:butt;stroke-miterlimit:4;stroke-dasharray:none;stroke-dashoffset:0;stroke-opacity:1"
       id="rect3201"
       width="440"
       height="365.71429"
       x="614.37097"
       y="99.167213" />
    <path
       style="fill:none;fill-rule:evenodd;stroke:#000000;stroke-width:9;stroke-linecap:butt;stroke-linejoin:miter;marker-end:url(#Arrow1Send);stroke-miterlimit:4;stroke-dasharray:none;stroke-opacity:1"
       d="M 479.27819,280.08396 L 587.94046,280.08396"
       id="path3235" />
    <path
       sodipodi:type="arc"
       style="opacity:1;fill:#1ec307;fill-opacity:1;fill-rule:evenodd;stroke:#000000;stroke-width:2;stroke-linecap:butt;stroke-miterlimit:4;stroke-dasharray:none;stroke-dashoffset:0;stroke-opacity:1"
       id="path4538"
       sodipodi:cx="1162.0356"
       sodipodi:cy="166.911"
       sodipodi:rx="8.0928335"
       sodipodi:ry="7.6167846"
       d="M 1170.1285,166.911 A 8.0928335,7.6167846 0 1 1 1153.9428,166.911 A 8.0928335,7.6167846 0 1 1 1170.1285,166.911 z"
       transform="translate(-191.37171,92.353511)" />
    <path
       sodipodi:type="arc"
       style="opacity:1;fill:#1ec307;fill-opacity:1;fill-rule:evenodd;stroke:#000000;stroke-width:2;stroke-linecap:butt;stroke-miterlimit:4;stroke-dasharray:none;stroke-dashoffset:0;stroke-opacity:1"
       id="path4549"
       sodipodi:cx="1162.0356"
       sodipodi:cy="166.911"
       sodipodi:rx="8.0928335"
       sodipodi:ry="7.6167846"
       d="M 1170.1285,166.911 A 8.0928335,7.6167846 0 1 1 1153.9428,166.911 A 8.0928335,7.6167846 0 1 1 1170.1285,166.911 z"
       transform="translate(-190.89563,28.562943)" />
    <path
       sodipodi:type="arc"
       style="opacity:1;fill:#1ec307;fill-opacity:1;fill-rule:evenodd;stroke:#000000;stroke-width:2;stroke-linecap:butt;stroke-miterlimit:4;stroke-dasharray:none;stroke-dashoffset:0;stroke-opacity:1"
       id="path4551"
       sodipodi:cx="1162.0356"
       sodipodi:cy="166.911"
       sodipodi:rx="8.0928335"
       sodipodi:ry="7.6167846"
       d="M 1170.1285,166.911 A 8.0928335,7.6167846 0 1 1 1153.9428,166.911 A 8.0928335,7.6167846 0 1 1 1170.1285,166.911 z"
       transform="translate(-251.82991,30.467139)" />
    <path
       sodipodi:type="arc"
       style="opacity:1;fill:#1ec307;fill-opacity:1;fill-rule:evenodd;stroke:#000000;stroke-width:2;stroke-linecap:butt;stroke-miterlimit:4;stroke-dasharray:none;stroke-dashoffset:0;stroke-opacity:1"
       id="path4553"
       sodipodi:cx="1162.0356"
       sodipodi:cy="166.911"
       sodipodi:rx="8.0928335"
       sodipodi:ry="7.6167846"
       d="M 1170.1285,166.911 A 8.0928335,7.6167846 0 1 1 1153.9428,166.911 A 8.0928335,7.6167846 0 1 1 1170.1285,166.911 z"
       transform="translate(-347.03971,1.9041979)" />
    <path
       sodipodi:type="arc"
       style="opacity:1;fill:#1ec307;fill-opacity:1;fill-rule:evenodd;stroke:#000000;stroke-width:2;stroke-linecap:butt;stroke-miterlimit:4;stroke-dasharray:none;stroke-dashoffset:0;stroke-opacity:1"
       id="path4555"
       sodipodi:cx="1162.0356"
       sodipodi:cy="166.911"
       sodipodi:rx="8.0928335"
       sodipodi:ry="7.6167846"
       d="M 1170.1285,166.911 A 8.0928335,7.6167846 0 1 1 1153.9428,166.911 A 8.0928335,7.6167846 0 1 1 1170.1285,166.911 z"
       transform="translate(-434.63274,37.131826)" />
    <path
       sodipodi:type="arc"
       style="opacity:1;fill:#1ec307;fill-opacity:1;fill-rule:evenodd;stroke:#000000;stroke-width:2;stroke-linecap:butt;stroke-miterlimit:4;stroke-dasharray:none;stroke-dashoffset:0;stroke-opacity:1"
       id="path4557"
       sodipodi:cx="1162.0356"
       sodipodi:cy="166.911"
       sodipodi:rx="8.0928335"
       sodipodi:ry="7.6167846"
       d="M 1170.1285,166.911 A 8.0928335,7.6167846 0 1 1 1153.9428,166.911 A 8.0928335,7.6167846 0 1 1 1170.1285,166.911 z"
       transform="translate(-446.83623,197.74304)" />
    <path
       style="fill:none;fill-rule:evenodd;stroke:#000000;stroke-width:1px;stroke-linecap:butt;stroke-linejoin:miter;stroke-opacity:1"
       d="M 970.72824,250.64772 L 971.07571,204.09072"
       id="path4559"
       inkscape:connector-type="polyline"
       inkscape:connection-start="#path4538"
       inkscape:connection-end="#path4549" />
    <path
       style="fill:none;fill-rule:evenodd;stroke:#000000;stroke-width:1px;stroke-linecap:butt;stroke-linejoin:miter;stroke-opacity:1"
       d="M 901.1129,194.65028 L 824.08877,171.54304"
       id="path4565"
       inkscape:connector-type="polyline"
       inkscape:connection-start="#path4551"
       inkscape:connection-end="#path4553" />
    <path
       style="fill:none;fill-rule:evenodd;stroke:#000000;stroke-width:1px;stroke-linecap:butt;stroke-linejoin:miter;stroke-opacity:1"
       d="M 805.9031,172.47209 L 736.49574,200.38592"
       id="path4567"
       inkscape:connector-type="polyline"
       inkscape:connection-start="#path4553"
       inkscape:connection-end="#path4555" />
    <path
       style="fill:none;fill-rule:evenodd;stroke:#000000;stroke-width:1px;stroke-linecap:butt;stroke-linejoin:miter;stroke-opacity:1"
       d="M 726.74819,212.65961 L 715.85413,356.03725"
       id="path4569"
       inkscape:connector-type="polyline"
       inkscape:connection-start="#path4555"
       inkscape:connection-end="#path4557" />
    <path
       style="fill:none;fill-rule:evenodd;stroke:#000000;stroke-width:1px;stroke-linecap:butt;stroke-linejoin:miter;stroke-opacity:1"
       d="M 919.29857,197.09398 L 962.04718,195.75809"
       id="path4571"
       inkscape:connector-type="polyline"
       inkscape:connection-start="#path4551"
       inkscape:connection-end="#path4549" />
    <path
       style="fill:none;fill-rule:evenodd;stroke:#000000;stroke-width:1px;stroke-linecap:butt;stroke-linejoin:miter;stroke-opacity:1"
       d="M 918.62367,205.99492 L 962.246,250.64772"
       id="path4582"
       inkscape:connector-type="polyline"
       inkscape:connection-start="#path4551"
       inkscape:connection-end="#path4538" />
    <path
       sodipodi:type="arc"
       style="opacity:1;fill:#1ec307;fill-opacity:1;fill-rule:evenodd;stroke:#000000;stroke-width:2;stroke-linecap:butt;stroke-miterlimit:4;stroke-dasharray:none;stroke-dashoffset:0;stroke-opacity:1"
       id="path4584"
       sodipodi:cx="1162.0356"
       sodipodi:cy="166.911"
       sodipodi:rx="8.0928335"
       sodipodi:ry="7.6167846"
       d="M 1170.1285,166.911 A 8.0928335,7.6167846 0 1 1 1153.9428,166.911 A 8.0928335,7.6167846 0 1 1 1170.1285,166.911 z"
       transform="translate(-155.66801,259.92277)" />
    <path
       style="fill:#1ec307;fill-opacity:1;fill-rule:evenodd;stroke:#000000;stroke-width:1px;stroke-linecap:butt;stroke-linejoin:miter;stroke-opacity:1"
       d="M 391.3123,425.88167 C 401.97408,417.79137 408.41598,415.47676 414.16265,403.98341 C 418.04591,396.21689 428.46442,399.24322 431.30042,402.07922 C 437.16591,407.94471 437.13765,415.47091 446.53398,420.16908 C 447.77837,420.79127 446.53398,437.29992 446.53398,440.16314 C 446.53398,446.85296 438.08852,448.49223 435.10881,449.68412 C 427.32075,452.79934 424.37963,444.66753 419.87524,440.16314 C 416.21632,436.50421 406.75646,441.40591 405.59377,441.11524 C 401.27675,440.03598 395.42228,429.16965 391.3123,425.88167 z"
       id="path4586" />
  </g>
</svg>
