<?xml version="1.0" encoding="UTF-8" standalone="no"?>
<!-- Created with Inkscape (http://www.inkscape.org/) -->

<svg
   xmlns:dc="http://purl.org/dc/elements/1.1/"
   xmlns:cc="http://creativecommons.org/ns#"
   xmlns:rdf="http://www.w3.org/1999/02/22-rdf-syntax-ns#"
   xmlns:svg="http://www.w3.org/2000/svg"
   xmlns="http://www.w3.org/2000/svg"
   xmlns:sodipodi="http://sodipodi.sourceforge.net/DTD/sodipodi-0.dtd"
   xmlns:inkscape="http://www.inkscape.org/namespaces/inkscape"
   width="744.09448819"
   height="1052.3622047"
   id="svg2"
   version="1.1"
   inkscape:version="0.48.4 r9939"
   sodipodi:docname="New document 1">
  <defs
     id="defs4" />
  <sodipodi:namedview
     id="base"
     pagecolor="#ffffff"
     bordercolor="#666666"
     borderopacity="1.0"
     inkscape:pageopacity="0.0"
     inkscape:pageshadow="2"
     inkscape:zoom="0.35"
     inkscape:cx="375"
     inkscape:cy="520"
     inkscape:document-units="px"
     inkscape:current-layer="layer1"
     showgrid="false"
     inkscape:window-width="1920"
     inkscape:window-height="1057"
     inkscape:window-x="-8"
     inkscape:window-y="-8"
     inkscape:window-maximized="1" />
  <metadata
     id="metadata7">
    <rdf:RDF>
      <cc:Work
         rdf:about="">
        <dc:format>image/svg+xml</dc:format>
        <dc:type
           rdf:resource="http://purl.org/dc/dcmitype/StillImage" />
        <dc:title></dc:title>
      </cc:Work>
    </rdf:RDF>
  </metadata>
  <g
     inkscape:label="Layer 1"
     inkscape:groupmode="layer"
     id="layer1">
    <g
       transform="translate(-406.1756,-243.92123)"
       id="g2997">
      <g
         id="g2999">
        <path
           id="path3001"
           style="fill:#ff0000;fill-opacity:1;fill-rule:nonzero;stroke:none"
           d="m 5.3614588,348.31927 171.4956812,0 0,171.4957 -171.4956812,0 0,-171.4957 z"
           inkscape:connector-curvature="0" />
      </g>
      <g
         id="g3003">
        <path
           id="path3005"
           style="fill:none;stroke:#000000;stroke-width:5;stroke-linecap:butt;stroke-linejoin:miter;stroke-miterlimit:4;stroke-opacity:1;stroke-dasharray:none"
           d="m 5.3614588,348.31927 171.4956812,0 0,171.4957 -171.4956812,0 0,-171.4957 z"
           inkscape:connector-curvature="0" />
      </g>
      <g
         id="g3007">
        <path
           id="path3009"
           style="fill:#ffffff;fill-opacity:1;fill-rule:nonzero;stroke:none"
           d="m 176.79005,348.31927 171.49569,0 0,171.4957 -171.49569,0 0,-171.4957 z"
           inkscape:connector-curvature="0" />
      </g>
      <g
         id="g3011">
        <path
           id="path3013"
           style="fill:none;stroke:#000000;stroke-width:5;stroke-linecap:butt;stroke-linejoin:miter;stroke-miterlimit:4;stroke-opacity:1;stroke-dasharray:none"
           d="m 176.79005,348.31927 171.49569,0 0,171.4957 -171.49569,0 0,-171.4957 z"
           inkscape:connector-curvature="0" />
      </g>
      <g
         id="g3015">
        <path
           id="path3017"
           style="fill:#ff0000;fill-opacity:1;fill-rule:nonzero;stroke:none"
           d="m 5.3614588,519.7478 171.4956812,0 0,171.4957 -171.4956812,0 0,-171.4957 z"
           inkscape:connector-curvature="0" />
      </g>
      <g
         id="g3019">
        <path
           id="path3021"
           style="fill:none;stroke:#000000;stroke-width:5;stroke-linecap:butt;stroke-linejoin:miter;stroke-miterlimit:4;stroke-opacity:1;stroke-dasharray:none"
           d="m 5.3614588,519.7478 171.4956812,0 0,171.4957 -171.4956812,0 0,-171.4957 z"
           inkscape:connector-curvature="0" />
      </g>
      <g
         id="g3023">
        <path
           id="path3025"
           style="fill:#ff0000;fill-opacity:1;fill-rule:nonzero;stroke:none"
           d="m 176.79005,519.7478 171.49569,0 0,171.4957 -171.49569,0 0,-171.4957 z"
           inkscape:connector-curvature="0" />
      </g>
      <g
         id="g3027">
        <path
           id="path3029"
           style="fill:none;stroke:#000000;stroke-width:5;stroke-linecap:butt;stroke-linejoin:miter;stroke-miterlimit:4;stroke-opacity:1;stroke-dasharray:none"
           d="m 176.79005,519.7478 171.49569,0 0,171.4957 -171.49569,0 0,-171.4957 z"
           inkscape:connector-curvature="0" />
      </g>
      <g
         id="g3031">
        <path
           id="path3033"
           style="fill:#ff0000;fill-opacity:1;fill-rule:nonzero;stroke:none"
           d="m 349.07574,348.31927 171.49569,0 0,171.4957 -171.49569,0 0,-171.4957 z"
           inkscape:connector-curvature="0" />
      </g>
      <g
         id="g3035">
        <path
           id="path3037"
           style="fill:none;stroke:#000000;stroke-width:5;stroke-linecap:butt;stroke-linejoin:miter;stroke-miterlimit:4;stroke-opacity:1;stroke-dasharray:none"
           d="m 349.07574,348.31927 171.49569,0 0,171.4957 -171.49569,0 0,-171.4957 z"
           inkscape:connector-curvature="0" />
      </g>
      <g
         id="g3039">
        <path
           id="path3041"
           style="fill:#ffffff;fill-opacity:1;fill-rule:nonzero;stroke:none"
           d="m 520.50433,348.31927 171.49569,0 0,171.4957 -171.49569,0 0,-171.4957 z"
           inkscape:connector-curvature="0" />
      </g>
      <g
         id="g3043">
        <path
           id="path3045"
           style="fill:none;stroke:#000000;stroke-width:5;stroke-linecap:butt;stroke-linejoin:miter;stroke-miterlimit:4;stroke-opacity:1;stroke-dasharray:none"
           d="m 520.50433,348.31927 171.49569,0 0,171.4957 -171.49569,0 0,-171.4957 z"
           inkscape:connector-curvature="0" />
      </g>
      <g
         id="g3047">
        <path
           id="path3049"
           style="fill:#ff0000;fill-opacity:1;fill-rule:nonzero;stroke:none"
           d="m 349.07574,519.7478 171.49569,0 0,171.4957 -171.49569,0 0,-171.4957 z"
           inkscape:connector-curvature="0" />
      </g>
      <g
         id="g3051">
        <path
           id="path3053"
           style="fill:none;stroke:#000000;stroke-width:5;stroke-linecap:butt;stroke-linejoin:miter;stroke-miterlimit:4;stroke-opacity:1;stroke-dasharray:none"
           d="m 349.07574,519.7478 171.49569,0 0,171.4957 -171.49569,0 0,-171.4957 z"
           inkscape:connector-curvature="0" />
      </g>
      <g
         id="g3055">
        <path
           id="path3057"
           style="fill:#ff0000;fill-opacity:1;fill-rule:nonzero;stroke:none"
           d="m 520.50433,519.7478 171.49569,0 0,171.4957 -171.49569,0 0,-171.4957 z"
           inkscape:connector-curvature="0" />
      </g>
      <g
         id="g3059">
        <path
           id="path3061"
           style="fill:none;stroke:#000000;stroke-width:5;stroke-linecap:butt;stroke-linejoin:miter;stroke-miterlimit:4;stroke-opacity:1;stroke-dasharray:none"
           d="m 520.50433,519.7478 171.49569,0 0,171.4957 -171.49569,0 0,-171.4957 z"
           inkscape:connector-curvature="0" />
      </g>
      <g
         id="g3063">
        <path
           id="path3065"
           style="fill:#ffffff;fill-opacity:1;fill-rule:nonzero;stroke:none"
           d="m -164.7603,348.22672 171.4956821,0 0,171.49569 -171.4956821,0 0,-171.49569 z"
           inkscape:connector-curvature="0" />
      </g>
      <g
         id="g3067">
        <path
           id="path3069"
           style="fill:none;stroke:#000000;stroke-width:5;stroke-linecap:butt;stroke-linejoin:miter;stroke-miterlimit:4;stroke-opacity:1;stroke-dasharray:none"
           d="m -164.7603,348.22672 171.4956821,0 0,171.49569 -171.4956821,0 0,-171.49569 z"
           inkscape:connector-curvature="0" />
      </g>
      <g
         id="g3071">
        <path
           id="path3073"
           style="fill:#ff0000;fill-opacity:1;fill-rule:nonzero;stroke:none"
           d="m -164.7603,519.65527 171.4956821,0 0,171.4957 -171.4956821,0 0,-171.4957 z"
           inkscape:connector-curvature="0" />
      </g>
      <g
         id="g3075">
        <path
           id="path3077"
           style="fill:none;stroke:#000000;stroke-width:5;stroke-linecap:butt;stroke-linejoin:miter;stroke-miterlimit:4;stroke-opacity:1;stroke-dasharray:none"
           d="m -164.7603,519.65527 171.4956821,0 0,171.4957 -171.4956821,0 0,-171.4957 z"
           inkscape:connector-curvature="0" />
      </g>
      <g
         id="g3079">
        <path
           id="path3081"
           style="fill:#ff0000;fill-opacity:1;fill-rule:nonzero;stroke:none"
           d="m 6.06953,689.52515 171.49568,0 0,171.49569 -171.49568,0 0,-171.49569 z"
           inkscape:connector-curvature="0" />
      </g>
      <g
         id="g3083">
        <path
           id="path3085"
           style="fill:none;stroke:#000000;stroke-width:5;stroke-linecap:butt;stroke-linejoin:miter;stroke-miterlimit:4;stroke-opacity:1;stroke-dasharray:none"
           d="m 6.06953,689.52515 171.49568,0 0,171.49569 -171.49568,0 0,-171.49569 z"
           inkscape:connector-curvature="0" />
      </g>
      <g
         id="g3087">
        <path
           id="path3089"
           style="fill:#ffff00;fill-opacity:1;fill-rule:nonzero;stroke:none"
           d="m 177.49811,689.52515 171.49568,0 0,171.49569 -171.49568,0 0,-171.49569 z"
           inkscape:connector-curvature="0" />
      </g>
      <g
         id="g3091">
        <path
           id="path3093"
           style="fill:none;stroke:#000000;stroke-width:5;stroke-linecap:butt;stroke-linejoin:miter;stroke-miterlimit:4;stroke-opacity:1;stroke-dasharray:none"
           d="m 177.49811,689.52515 171.49568,0 0,171.49569 -171.49568,0 0,-171.49569 z"
           inkscape:connector-curvature="0" />
      </g>
      <g
         id="g3095">
        <path
           id="path3097"
           style="fill:#ff0000;fill-opacity:1;fill-rule:nonzero;stroke:none"
           d="m 349.78381,689.52515 171.49569,0 0,171.49569 -171.49569,0 0,-171.49569 z"
           inkscape:connector-curvature="0" />
      </g>
      <g
         id="g3099">
        <path
           id="path3101"
           style="fill:none;stroke:#000000;stroke-width:5;stroke-linecap:butt;stroke-linejoin:miter;stroke-miterlimit:4;stroke-opacity:1;stroke-dasharray:none"
           d="m 349.78381,689.52515 171.49569,0 0,171.49569 -171.49569,0 0,-171.49569 z"
           inkscape:connector-curvature="0" />
      </g>
      <g
         id="g3103">
        <path
           id="path3105"
           style="fill:#ffffff;fill-opacity:1;fill-rule:nonzero;stroke:none"
           d="m 519.20898,689.53937 173.48478,0 0,171.46719 -173.48478,0 0,-171.46719 z"
           inkscape:connector-curvature="0" />
      </g>
      <g
         id="g3107">
        <path
           id="path3109"
           style="fill:none;stroke:#000000;stroke-width:5.02849483;stroke-linecap:butt;stroke-linejoin:miter;stroke-miterlimit:4;stroke-opacity:1;stroke-dasharray:none"
           d="m 519.20898,689.53937 173.48478,0 0,171.46719 -173.48478,0 0,-171.46719 z"
           inkscape:connector-curvature="0" />
      </g>
      <g
         id="g3111">
        <path
           id="path3113"
           style="fill:#ff0000;fill-opacity:1;fill-rule:nonzero;stroke:none"
           d="m 5.7502704,861.41583 171.4956796,0 0,171.49567 -171.4956796,0 0,-171.49567 z"
           inkscape:connector-curvature="0" />
      </g>
      <g
         id="g3115">
        <path
           id="path3117"
           style="fill:none;stroke:#000000;stroke-width:5;stroke-linecap:butt;stroke-linejoin:miter;stroke-miterlimit:4;stroke-opacity:1;stroke-dasharray:none"
           d="m 5.7502704,861.41583 171.4956796,0 0,171.49567 -171.4956796,0 0,-171.49567 z"
           inkscape:connector-curvature="0" />
      </g>
      <g
         id="g3119">
        <path
           id="path3121"
           style="fill:#ff0000;fill-opacity:1;fill-rule:nonzero;stroke:none"
           d="m 177.17886,861.41583 171.49569,0 0,171.49567 -171.49569,0 0,-171.49567 z"
           inkscape:connector-curvature="0" />
      </g>
      <g
         id="g3123">
        <path
           id="path3125"
           style="fill:none;stroke:#000000;stroke-width:5;stroke-linecap:butt;stroke-linejoin:miter;stroke-miterlimit:4;stroke-opacity:1;stroke-dasharray:none"
           d="m 177.17886,861.41583 171.49569,0 0,171.49567 -171.49569,0 0,-171.49567 z"
           inkscape:connector-curvature="0" />
      </g>
      <g
         id="g3127">
        <path
           id="path3129"
           style="fill:#ff0000;fill-opacity:1;fill-rule:nonzero;stroke:none"
           d="m 5.7502704,1032.8444 171.4956796,0 0,171.4957 -171.4956796,0 0,-171.4957 z"
           inkscape:connector-curvature="0" />
      </g>
      <g
         id="g3131">
        <path
           id="path3133"
           style="fill:none;stroke:#000000;stroke-width:5;stroke-linecap:butt;stroke-linejoin:miter;stroke-miterlimit:4;stroke-opacity:1;stroke-dasharray:none"
           d="m 5.7502704,1032.8444 171.4956796,0 0,171.4957 -171.4956796,0 0,-171.4957 z"
           inkscape:connector-curvature="0" />
      </g>
      <g
         id="g3135">
        <path
           id="path3137"
           style="fill:#ffffff;fill-opacity:1;fill-rule:nonzero;stroke:none"
           d="m 177.17886,1032.8444 171.49569,0 0,171.4957 -171.49569,0 0,-171.4957 z"
           inkscape:connector-curvature="0" />
      </g>
      <g
         id="g3139">
        <path
           id="path3141"
           style="fill:none;stroke:#000000;stroke-width:5;stroke-linecap:butt;stroke-linejoin:miter;stroke-miterlimit:4;stroke-opacity:1;stroke-dasharray:none"
           d="m 177.17886,1032.8444 171.49569,0 0,171.4957 -171.49569,0 0,-171.4957 z"
           inkscape:connector-curvature="0" />
      </g>
      <g
         id="g3143">
        <path
           id="path3145"
           style="fill:#ff0000;fill-opacity:1;fill-rule:nonzero;stroke:none"
           d="m 349.46457,861.41583 171.49568,0 0,171.49567 -171.49568,0 0,-171.49567 z"
           inkscape:connector-curvature="0" />
      </g>
      <g
         id="g3147">
        <path
           id="path3149"
           style="fill:none;stroke:#000000;stroke-width:5;stroke-linecap:butt;stroke-linejoin:miter;stroke-miterlimit:4;stroke-opacity:1;stroke-dasharray:none"
           d="m 349.46457,861.41583 171.49568,0 0,171.49567 -171.49568,0 0,-171.49567 z"
           inkscape:connector-curvature="0" />
      </g>
      <g
         id="g3151">
        <path
           id="path3153"
           style="fill:#ff0000;fill-opacity:1;fill-rule:nonzero;stroke:none"
           d="m 520.89313,861.41583 171.49568,0 0,171.49567 -171.49568,0 0,-171.49567 z"
           inkscape:connector-curvature="0" />
      </g>
      <g
         id="g3155">
        <path
           id="path3157"
           style="fill:none;stroke:#000000;stroke-width:5;stroke-linecap:butt;stroke-linejoin:miter;stroke-miterlimit:4;stroke-opacity:1;stroke-dasharray:none"
           d="m 520.89313,861.41583 171.49568,0 0,171.49567 -171.49568,0 0,-171.49567 z"
           inkscape:connector-curvature="0" />
      </g>
      <g
         id="g3159">
        <path
           id="path3161"
           style="fill:#ff0000;fill-opacity:1;fill-rule:nonzero;stroke:none"
           d="m 349.46457,1032.8444 171.49568,0 0,171.4957 -171.49568,0 0,-171.4957 z"
           inkscape:connector-curvature="0" />
      </g>
      <g
         id="g3163">
        <path
           id="path3165"
           style="fill:none;stroke:#000000;stroke-width:5;stroke-linecap:butt;stroke-linejoin:miter;stroke-miterlimit:4;stroke-opacity:1;stroke-dasharray:none"
           d="m 349.46457,1032.8444 171.49568,0 0,171.4957 -171.49568,0 0,-171.4957 z"
           inkscape:connector-curvature="0" />
      </g>
      <g
         id="g3167">
        <path
           id="path3169"
           style="fill:#ffffff;fill-opacity:1;fill-rule:nonzero;stroke:none"
           d="m 520.89313,1032.8444 171.49568,0 0,171.4957 -171.49568,0 0,-171.4957 z"
           inkscape:connector-curvature="0" />
      </g>
      <g
         id="g3171">
        <path
           id="path3173"
           style="fill:none;stroke:#000000;stroke-width:5;stroke-linecap:butt;stroke-linejoin:miter;stroke-miterlimit:4;stroke-opacity:1;stroke-dasharray:none"
           d="m 520.89313,1032.8444 171.49568,0 0,171.4957 -171.49568,0 0,-171.4957 z"
           inkscape:connector-curvature="0" />
      </g>
      <g
         id="g3175">
        <path
           id="path3177"
           style="fill:#ffffff;fill-opacity:1;fill-rule:nonzero;stroke:none"
           d="m -164.05223,689.43262 171.4956809,0 0,171.49569 -171.4956809,0 0,-171.49569 z"
           inkscape:connector-curvature="0" />
      </g>
      <g
         id="g3179">
        <path
           id="path3181"
           style="fill:none;stroke:#000000;stroke-width:5;stroke-linecap:butt;stroke-linejoin:miter;stroke-miterlimit:4;stroke-opacity:1;stroke-dasharray:none"
           d="m -164.05223,689.43262 171.4956809,0 0,171.49569 -171.4956809,0 0,-171.49569 z"
           inkscape:connector-curvature="0" />
      </g>
      <g
         id="g3183">
        <path
           id="path3185"
           style="fill:#ff0000;fill-opacity:1;fill-rule:nonzero;stroke:none"
           d="m -164.37149,861.3233 171.4956813,0 0,171.4957 -171.4956813,0 0,-171.4957 z"
           inkscape:connector-curvature="0" />
      </g>
      <g
         id="g3187">
        <path
           id="path3189"
           style="fill:none;stroke:#000000;stroke-width:5;stroke-linecap:butt;stroke-linejoin:miter;stroke-miterlimit:4;stroke-opacity:1;stroke-dasharray:none"
           d="m -164.37149,861.3233 171.4956813,0 0,171.4957 -171.4956813,0 0,-171.4957 z"
           inkscape:connector-curvature="0" />
      </g>
      <g
         id="g3191">
        <path
           id="path3193"
           style="fill:#ffffff;fill-opacity:1;fill-rule:nonzero;stroke:none"
           d="m -164.37149,1032.7518 171.4956813,0 0,171.4957 -171.4956813,0 0,-171.4957 z"
           inkscape:connector-curvature="0" />
      </g>
      <g
         id="g3195">
        <path
           id="path3197"
           style="fill:none;stroke:#000000;stroke-width:5;stroke-linecap:butt;stroke-linejoin:miter;stroke-miterlimit:4;stroke-opacity:1;stroke-dasharray:none"
           d="m -164.37149,1032.7518 171.4956813,0 0,171.4957 -171.4956813,0 0,-171.4957 z"
           inkscape:connector-curvature="0" />
      </g>
      <g
         id="g3199">
        <path
           id="path3201"
           style="fill:#ffffff;fill-opacity:1;fill-rule:nonzero;stroke:none"
           d="m 1188.3271,348.31927 171.4957,0 0,171.4957 -171.4957,0 0,-171.4957 z"
           inkscape:connector-curvature="0" />
      </g>
      <g
         id="g3203">
        <path
           id="path3205"
           style="fill:none;stroke:#000000;stroke-width:5;stroke-linecap:butt;stroke-linejoin:miter;stroke-miterlimit:4;stroke-opacity:1;stroke-dasharray:none"
           d="m 1188.3271,348.31927 171.4957,0 0,171.4957 -171.4957,0 0,-171.4957 z"
           inkscape:connector-curvature="0" />
      </g>
      <g
         id="g3207">
        <path
           id="path3209"
           style="fill:#ffffff;fill-opacity:1;fill-rule:nonzero;stroke:none"
           d="m 1359.7559,348.31927 171.4956,0 0,171.4957 -171.4956,0 0,-171.4957 z"
           inkscape:connector-curvature="0" />
      </g>
      <g
         id="g3211">
        <path
           id="path3213"
           style="fill:none;stroke:#000000;stroke-width:5;stroke-linecap:butt;stroke-linejoin:miter;stroke-miterlimit:4;stroke-opacity:1;stroke-dasharray:none"
           d="m 1359.7559,348.31927 171.4956,0 0,171.4957 -171.4956,0 0,-171.4957 z"
           inkscape:connector-curvature="0" />
      </g>
      <g
         id="g3215">
        <path
           id="path3217"
           style="fill:#ff0000;fill-opacity:1;fill-rule:nonzero;stroke:none"
           d="m 1188.3271,519.7478 171.4957,0 0,171.4957 -171.4957,0 0,-171.4957 z"
           inkscape:connector-curvature="0" />
      </g>
      <g
         id="g3219">
        <path
           id="path3221"
           style="fill:none;stroke:#000000;stroke-width:5;stroke-linecap:butt;stroke-linejoin:miter;stroke-miterlimit:4;stroke-opacity:1;stroke-dasharray:none"
           d="m 1188.3271,519.7478 171.4957,0 0,171.4957 -171.4957,0 0,-171.4957 z"
           inkscape:connector-curvature="0" />
      </g>
      <g
         id="g3223">
        <path
           id="path3225"
           style="fill:#ff0000;fill-opacity:1;fill-rule:nonzero;stroke:none"
           d="m 1359.7559,519.7478 171.4956,0 0,171.4957 -171.4956,0 0,-171.4957 z"
           inkscape:connector-curvature="0" />
      </g>
      <g
         id="g3227">
        <path
           id="path3229"
           style="fill:none;stroke:#000000;stroke-width:5;stroke-linecap:butt;stroke-linejoin:miter;stroke-miterlimit:4;stroke-opacity:1;stroke-dasharray:none"
           d="m 1359.7559,519.7478 171.4956,0 0,171.4957 -171.4956,0 0,-171.4957 z"
           inkscape:connector-curvature="0" />
      </g>
      <g
         id="g3231">
        <path
           id="path3233"
           style="fill:#ffffff;fill-opacity:1;fill-rule:nonzero;stroke:none"
           d="m 1532.0415,348.31927 171.4957,0 0,171.4957 -171.4957,0 0,-171.4957 z"
           inkscape:connector-curvature="0" />
      </g>
      <g
         id="g3235">
        <path
           id="path3237"
           style="fill:none;stroke:#000000;stroke-width:5;stroke-linecap:butt;stroke-linejoin:miter;stroke-miterlimit:4;stroke-opacity:1;stroke-dasharray:none"
           d="m 1532.0415,348.31927 171.4957,0 0,171.4957 -171.4957,0 0,-171.4957 z"
           inkscape:connector-curvature="0" />
      </g>
      <g
         id="g3239">
        <path
           id="path3241"
           style="fill:#ffffff;fill-opacity:1;fill-rule:nonzero;stroke:none"
           d="m 1703.4701,348.31927 171.4957,0 0,171.4957 -171.4957,0 0,-171.4957 z"
           inkscape:connector-curvature="0" />
      </g>
      <g
         id="g3243">
        <path
           id="path3245"
           style="fill:none;stroke:#000000;stroke-width:5;stroke-linecap:butt;stroke-linejoin:miter;stroke-miterlimit:4;stroke-opacity:1;stroke-dasharray:none"
           d="m 1703.4701,348.31927 171.4957,0 0,171.4957 -171.4957,0 0,-171.4957 z"
           inkscape:connector-curvature="0" />
      </g>
      <g
         id="g3247">
        <path
           id="path3249"
           style="fill:#ff0000;fill-opacity:1;fill-rule:nonzero;stroke:none"
           d="m 1532.0415,519.7478 171.4957,0 0,171.4957 -171.4957,0 0,-171.4957 z"
           inkscape:connector-curvature="0" />
      </g>
      <g
         id="g3251">
        <path
           id="path3253"
           style="fill:none;stroke:#000000;stroke-width:5;stroke-linecap:butt;stroke-linejoin:miter;stroke-miterlimit:4;stroke-opacity:1;stroke-dasharray:none"
           d="m 1532.0415,519.7478 171.4957,0 0,171.4957 -171.4957,0 0,-171.4957 z"
           inkscape:connector-curvature="0" />
      </g>
      <g
         id="g3255">
        <path
           id="path3257"
           style="fill:#ffffff;fill-opacity:1;fill-rule:nonzero;stroke:none"
           d="m 1703.4701,519.7478 171.4957,0 0,171.4957 -171.4957,0 0,-171.4957 z"
           inkscape:connector-curvature="0" />
      </g>
      <g
         id="g3259">
        <path
           id="path3261"
           style="fill:none;stroke:#000000;stroke-width:5;stroke-linecap:butt;stroke-linejoin:miter;stroke-miterlimit:4;stroke-opacity:1;stroke-dasharray:none"
           d="m 1703.4701,519.7478 171.4957,0 0,171.4957 -171.4957,0 0,-171.4957 z"
           inkscape:connector-curvature="0" />
      </g>
      <g
         id="g3263">
        <path
           id="path3265"
           style="fill:#ffffff;fill-opacity:1;fill-rule:nonzero;stroke:none"
           d="m 1018.2054,348.22672 171.4957,0 0,171.49569 -171.4957,0 0,-171.49569 z"
           inkscape:connector-curvature="0" />
      </g>
      <g
         id="g3267">
        <path
           id="path3269"
           style="fill:none;stroke:#000000;stroke-width:5;stroke-linecap:butt;stroke-linejoin:miter;stroke-miterlimit:4;stroke-opacity:1;stroke-dasharray:none"
           d="m 1018.2054,348.22672 171.4957,0 0,171.49569 -171.4957,0 0,-171.49569 z"
           inkscape:connector-curvature="0" />
      </g>
      <g
         id="g3271">
        <path
           id="path3273"
           style="fill:#ffffff;fill-opacity:1;fill-rule:nonzero;stroke:none"
           d="m 1018.2054,519.65527 171.4957,0 0,171.4957 -171.4957,0 0,-171.4957 z"
           inkscape:connector-curvature="0" />
      </g>
      <g
         id="g3275">
        <path
           id="path3277"
           style="fill:none;stroke:#000000;stroke-width:5;stroke-linecap:butt;stroke-linejoin:miter;stroke-miterlimit:4;stroke-opacity:1;stroke-dasharray:none"
           d="m 1018.2054,519.65527 171.4957,0 0,171.4957 -171.4957,0 0,-171.4957 z"
           inkscape:connector-curvature="0" />
      </g>
      <g
         id="g3279">
        <path
           id="path3281"
           style="fill:#ff0000;fill-opacity:1;fill-rule:nonzero;stroke:none"
           d="m 1189.0353,689.52515 171.4957,0 0,171.49569 -171.4957,0 0,-171.49569 z"
           inkscape:connector-curvature="0" />
      </g>
      <g
         id="g3283">
        <path
           id="path3285"
           style="fill:none;stroke:#000000;stroke-width:5;stroke-linecap:butt;stroke-linejoin:miter;stroke-miterlimit:4;stroke-opacity:1;stroke-dasharray:none"
           d="m 1189.0353,689.52515 171.4957,0 0,171.49569 -171.4957,0 0,-171.49569 z"
           inkscape:connector-curvature="0" />
      </g>
      <g
         id="g3287">
        <path
           id="path3289"
           style="fill:#ffff00;fill-opacity:1;fill-rule:nonzero;stroke:none"
           d="m 1360.4639,689.52515 171.4956,0 0,171.49569 -171.4956,0 0,-171.49569 z"
           inkscape:connector-curvature="0" />
      </g>
      <g
         id="g3291">
        <path
           id="path3293"
           style="fill:none;stroke:#000000;stroke-width:5;stroke-linecap:butt;stroke-linejoin:miter;stroke-miterlimit:4;stroke-opacity:1;stroke-dasharray:none"
           d="m 1360.4639,689.52515 171.4956,0 0,171.49569 -171.4956,0 0,-171.49569 z"
           inkscape:connector-curvature="0" />
      </g>
      <g
         id="g3295">
        <path
           id="path3297"
           style="fill:#ff0000;fill-opacity:1;fill-rule:nonzero;stroke:none"
           d="m 1532.7495,689.52515 171.4957,0 0,171.49569 -171.4957,0 0,-171.49569 z"
           inkscape:connector-curvature="0" />
      </g>
      <g
         id="g3299">
        <path
           id="path3301"
           style="fill:none;stroke:#000000;stroke-width:5;stroke-linecap:butt;stroke-linejoin:miter;stroke-miterlimit:4;stroke-opacity:1;stroke-dasharray:none"
           d="m 1532.7495,689.52515 171.4957,0 0,171.49569 -171.4957,0 0,-171.49569 z"
           inkscape:connector-curvature="0" />
      </g>
      <g
         id="g3303">
        <path
           id="path3305"
           style="fill:#ffffff;fill-opacity:1;fill-rule:nonzero;stroke:none"
           d="m 1702.1747,689.53937 173.4848,0 0,171.46719 -173.4848,0 0,-171.46719 z"
           inkscape:connector-curvature="0" />
      </g>
      <g
         id="g3307">
        <path
           id="path3309"
           style="fill:none;stroke:#000000;stroke-width:5.02849483;stroke-linecap:butt;stroke-linejoin:miter;stroke-miterlimit:4;stroke-opacity:1;stroke-dasharray:none"
           d="m 1702.1747,689.53937 173.4848,0 0,171.46719 -173.4848,0 0,-171.46719 z"
           inkscape:connector-curvature="0" />
      </g>
      <g
         id="g3311">
        <path
           id="path3313"
           style="fill:#ff0000;fill-opacity:1;fill-rule:nonzero;stroke:none"
           d="m 1188.7161,861.41583 171.4956,0 0,171.49567 -171.4956,0 0,-171.49567 z"
           inkscape:connector-curvature="0" />
      </g>
      <g
         id="g3315">
        <path
           id="path3317"
           style="fill:none;stroke:#000000;stroke-width:5;stroke-linecap:butt;stroke-linejoin:miter;stroke-miterlimit:4;stroke-opacity:1;stroke-dasharray:none"
           d="m 1188.7161,861.41583 171.4956,0 0,171.49567 -171.4956,0 0,-171.49567 z"
           inkscape:connector-curvature="0" />
      </g>
      <g
         id="g3319">
        <path
           id="path3321"
           style="fill:#ff0000;fill-opacity:1;fill-rule:nonzero;stroke:none"
           d="m 1360.1445,861.41583 171.4957,0 0,171.49567 -171.4957,0 0,-171.49567 z"
           inkscape:connector-curvature="0" />
      </g>
      <g
         id="g3323">
        <path
           id="path3325"
           style="fill:none;stroke:#000000;stroke-width:5;stroke-linecap:butt;stroke-linejoin:miter;stroke-miterlimit:4;stroke-opacity:1;stroke-dasharray:none"
           d="m 1360.1445,861.41583 171.4957,0 0,171.49567 -171.4957,0 0,-171.49567 z"
           inkscape:connector-curvature="0" />
      </g>
      <g
         id="g3327">
        <path
           id="path3329"
           style="fill:#ffffff;fill-opacity:1;fill-rule:nonzero;stroke:none"
           d="m 1188.7161,1032.8444 171.4956,0 0,171.4957 -171.4956,0 0,-171.4957 z"
           inkscape:connector-curvature="0" />
      </g>
      <g
         id="g3331">
        <path
           id="path3333"
           style="fill:none;stroke:#000000;stroke-width:5;stroke-linecap:butt;stroke-linejoin:miter;stroke-miterlimit:4;stroke-opacity:1;stroke-dasharray:none"
           d="m 1188.7161,1032.8444 171.4956,0 0,171.4957 -171.4956,0 0,-171.4957 z"
           inkscape:connector-curvature="0" />
      </g>
      <g
         id="g3335">
        <path
           id="path3337"
           style="fill:#ffffff;fill-opacity:1;fill-rule:nonzero;stroke:none"
           d="m 1360.1445,1032.8444 171.4957,0 0,171.4957 -171.4957,0 0,-171.4957 z"
           inkscape:connector-curvature="0" />
      </g>
      <g
         id="g3339">
        <path
           id="path3341"
           style="fill:none;stroke:#000000;stroke-width:5;stroke-linecap:butt;stroke-linejoin:miter;stroke-miterlimit:4;stroke-opacity:1;stroke-dasharray:none"
           d="m 1360.1445,1032.8444 171.4957,0 0,171.4957 -171.4957,0 0,-171.4957 z"
           inkscape:connector-curvature="0" />
      </g>
      <g
         id="g3343">
        <path
           id="path3345"
           style="fill:#ff0000;fill-opacity:1;fill-rule:nonzero;stroke:none"
           d="m 1532.4303,861.41583 171.4957,0 0,171.49567 -171.4957,0 0,-171.49567 z"
           inkscape:connector-curvature="0" />
      </g>
      <g
         id="g3347">
        <path
           id="path3349"
           style="fill:none;stroke:#000000;stroke-width:5;stroke-linecap:butt;stroke-linejoin:miter;stroke-miterlimit:4;stroke-opacity:1;stroke-dasharray:none"
           d="m 1532.4303,861.41583 171.4957,0 0,171.49567 -171.4957,0 0,-171.49567 z"
           inkscape:connector-curvature="0" />
      </g>
      <g
         id="g3351">
        <path
           id="path3353"
           style="fill:#ffffff;fill-opacity:1;fill-rule:nonzero;stroke:none"
           d="m 1703.8589,861.41583 171.4957,0 0,171.49567 -171.4957,0 0,-171.49567 z"
           inkscape:connector-curvature="0" />
      </g>
      <g
         id="g3355">
        <path
           id="path3357"
           style="fill:none;stroke:#000000;stroke-width:5;stroke-linecap:butt;stroke-linejoin:miter;stroke-miterlimit:4;stroke-opacity:1;stroke-dasharray:none"
           d="m 1703.8589,861.41583 171.4957,0 0,171.49567 -171.4957,0 0,-171.49567 z"
           inkscape:connector-curvature="0" />
      </g>
      <g
         id="g3359">
        <path
           id="path3361"
           style="fill:#ffffff;fill-opacity:1;fill-rule:nonzero;stroke:none"
           d="m 1532.4303,1032.8444 171.4957,0 0,171.4957 -171.4957,0 0,-171.4957 z"
           inkscape:connector-curvature="0" />
      </g>
      <g
         id="g3363">
        <path
           id="path3365"
           style="fill:none;stroke:#000000;stroke-width:5;stroke-linecap:butt;stroke-linejoin:miter;stroke-miterlimit:4;stroke-opacity:1;stroke-dasharray:none"
           d="m 1532.4303,1032.8444 171.4957,0 0,171.4957 -171.4957,0 0,-171.4957 z"
           inkscape:connector-curvature="0" />
      </g>
      <g
         id="g3367">
        <path
           id="path3369"
           style="fill:#ffffff;fill-opacity:1;fill-rule:nonzero;stroke:none"
           d="m 1703.8589,1032.8444 171.4957,0 0,171.4957 -171.4957,0 0,-171.4957 z"
           inkscape:connector-curvature="0" />
      </g>
      <g
         id="g3371">
        <path
           id="path3373"
           style="fill:none;stroke:#000000;stroke-width:5;stroke-linecap:butt;stroke-linejoin:miter;stroke-miterlimit:4;stroke-opacity:1;stroke-dasharray:none"
           d="m 1703.8589,1032.8444 171.4957,0 0,171.4957 -171.4957,0 0,-171.4957 z"
           inkscape:connector-curvature="0" />
      </g>
      <g
         id="g3375">
        <path
           id="path3377"
           style="fill:#ffffff;fill-opacity:1;fill-rule:nonzero;stroke:none"
           d="m 1018.9135,689.43262 171.4957,0 0,171.49569 -171.4957,0 0,-171.49569 z"
           inkscape:connector-curvature="0" />
      </g>
      <g
         id="g3379">
        <path
           id="path3381"
           style="fill:none;stroke:#000000;stroke-width:5;stroke-linecap:butt;stroke-linejoin:miter;stroke-miterlimit:4;stroke-opacity:1;stroke-dasharray:none"
           d="m 1018.9135,689.43262 171.4957,0 0,171.49569 -171.4957,0 0,-171.49569 z"
           inkscape:connector-curvature="0" />
      </g>
      <g
         id="g3383">
        <path
           id="path3385"
           style="fill:#ffffff;fill-opacity:1;fill-rule:nonzero;stroke:none"
           d="m 1018.5942,861.3233 171.4957,0 0,171.4957 -171.4957,0 0,-171.4957 z"
           inkscape:connector-curvature="0" />
      </g>
      <g
         id="g3387">
        <path
           id="path3389"
           style="fill:none;stroke:#000000;stroke-width:5;stroke-linecap:butt;stroke-linejoin:miter;stroke-miterlimit:4;stroke-opacity:1;stroke-dasharray:none"
           d="m 1018.5942,861.3233 171.4957,0 0,171.4957 -171.4957,0 0,-171.4957 z"
           inkscape:connector-curvature="0" />
      </g>
      <g
         id="g3391">
        <path
           id="path3393"
           style="fill:#ffffff;fill-opacity:1;fill-rule:nonzero;stroke:none"
           d="m 1018.5942,1032.7518 171.4957,0 0,171.4957 -171.4957,0 0,-171.4957 z"
           inkscape:connector-curvature="0" />
      </g>
      <g
         id="g3395">
        <path
           id="path3397"
           style="fill:none;stroke:#000000;stroke-width:5;stroke-linecap:butt;stroke-linejoin:miter;stroke-miterlimit:4;stroke-opacity:1;stroke-dasharray:none"
           d="m 1018.5942,1032.7518 171.4957,0 0,171.4957 -171.4957,0 0,-171.4957 z"
           inkscape:connector-curvature="0" />
      </g>
      <g
         id="g3399">
        <path
           id="path3401"
           style="fill:#000000;fill-opacity:1;fill-rule:nonzero;stroke:none"
           d="m -301.6868,772.43463 c -3.62957,2e-5 -6.14421,0.41505 -7.54394,1.24512 -1.39975,0.83009 -2.09962,2.2461 -2.09961,4.24805 -10e-6,1.59505 0.52082,2.86458 1.5625,3.80859 1.05793,0.92774 2.49022,1.3916 4.29687,1.3916 2.49022,0 4.48403,-0.8789 5.98145,-2.63672 1.51365,-1.77408 2.27048,-4.12596 2.27051,-7.05566 l 0,-1.00098 -4.46778,0 m 8.95996,-1.85547 0,15.60059 -4.49218,0 0,-4.15039 c -1.02542,1.66016 -2.30308,2.889 -3.83301,3.68652 -1.52997,0.78125 -3.40171,1.17188 -5.61524,1.17188 -2.79949,0 -5.0293,-0.78125 -6.68945,-2.34375 -1.64388,-1.57878 -2.46582,-3.68652 -2.46582,-6.32325 0,-3.07616 1.02539,-5.39549 3.07617,-6.958 2.06705,-1.56249 5.14322,-2.34374 9.22852,-2.34375 l 6.29883,0 0,-0.43946 c -3e-5,-2.06703 -0.68362,-3.66208 -2.05079,-4.78515 -1.35093,-1.1393 -3.25522,-1.70896 -5.71289,-1.70899 -1.56251,3e-5 -3.08432,0.1872 -4.56543,0.56153 -1.48112,0.37437 -2.90528,0.93589 -4.27246,1.68457 l 0,-4.15039 c 1.64388,-0.63474 3.23893,-1.10675 4.78516,-1.41602 1.54621,-0.32549 3.05174,-0.48825 4.5166,-0.48828 3.95506,3e-5 6.90916,1.02542 8.86231,3.07617 1.9531,2.0508 2.92966,5.15953 2.92968,9.32617"
           inkscape:connector-curvature="0" />
      </g>
      <g
         id="g3403">
        <path
           id="path3405"
           style="fill:#000000;fill-opacity:1;fill-rule:nonzero;stroke:none"
           d="m -284.1575,748.2403 3.90625,0 c 2.44139,3.84118 4.26431,7.60094 5.46875,11.27929 1.22069,3.67841 1.83104,7.33238 1.83105,10.96192 -10e-6,3.64584 -0.61036,7.31609 -1.83105,11.01074 -1.20444,3.69466 -3.02736,7.45442 -5.46875,11.2793 l -3.90625,0 c 2.16471,-3.72722 3.77603,-7.43002 4.83398,-11.1084 1.07421,-3.69466 1.61132,-7.42187 1.61133,-11.18164 -10e-6,-3.75975 -0.53712,-7.47068 -1.61133,-11.13282 -1.05795,-3.66208 -2.66927,-7.36487 -4.83398,-11.10839"
           inkscape:connector-curvature="0" />
      </g>
      <g
         id="g3407" />
      <g
         id="g3409" />
      <g
         id="g3411" />
      <g
         id="g3413" />
      <g
         id="g3415" />
      <g
         id="g3417" />
      <g
         id="g3419" />
      <g
         id="g3421" />
      <g
         id="g3423" />
      <g
         id="g3425" />
      <g
         id="g3427" />
      <g
         id="g3429" />
      <g
         id="g3431" />
      <g
         id="g3433" />
      <g
         id="g3435" />
      <g
         id="g3437" />
      <g
         id="g3439" />
      <g
         id="g3441" />
      <g
         id="g3443" />
      <g
         id="g3445" />
      <g
         id="g3447" />
      <g
         id="g3449" />
      <g
         id="g3451" />
      <g
         id="g3453" />
      <g
         id="g3455" />
      <g
         id="g3457" />
      <g
         id="g3459" />
      <g
         id="g3461" />
      <g
         id="g3463" />
      <g
         id="g3465" />
      <g
         id="g3467" />
      <g
         id="g3469" />
      <g
         id="g3471" />
      <g
         id="g3473" />
      <g
         id="g3475" />
      <g
         id="g3477" />
      <g
         id="g3479" />
      <g
         id="g3481" />
      <g
         id="g3483" />
      <g
         id="g3485" />
      <g
         id="g3487" />
      <g
         id="g3489" />
      <g
         id="g3491" />
      <g
         id="g3493" />
      <g
         id="g3495" />
      <g
         id="g3497" />
      <g
         id="g3499" />
      <g
         id="g3501" />
      <g
         id="g3503" />
      <g
         id="g3505" />
      <g
         id="g3507" />
      <g
         id="g3509" />
      <g
         id="g3511" />
      <g
         id="g3513" />
      <g
         id="g3515" />
      <g
         id="g3517" />
      <g
         id="g3519" />
      <g
         id="g3521" />
      <g
         id="g3523" />
      <g
         id="g3525" />
      <g
         id="g3527" />
      <g
         id="g3529" />
      <g
         id="g3531" />
      <g
         id="g3533" />
      <g
         id="g3535" />
      <g
         id="g3537" />
      <g
         id="g3539" />
      <g
         id="g3541" />
      <g
         id="g3543" />
      <g
         id="g3545" />
      <g
         id="g3547" />
      <g
         id="g3549">
        <path
           id="path3551"
           style="fill:#000000;fill-opacity:1;fill-rule:nonzero;stroke:none"
           d="m 885.88644,772.53229 c -2e-5,-3.30402 -0.68361,-5.89191 -2.05078,-7.76367 -1.35093,-1.888 -3.21453,-2.83201 -5.59082,-2.83204 -2.37631,3e-5 -4.24806,0.94404 -5.61523,2.83204 -1.35092,1.87176 -2.02638,4.45965 -2.02637,7.76367 -10e-6,3.30404 0.67545,5.90007 2.02637,7.78808 1.36717,1.87175 3.23892,2.80762 5.61523,2.80762 2.37629,0 4.23989,-0.93587 5.59082,-2.80762 1.36717,-1.88801 2.05076,-4.48404 2.05078,-7.78808 m -15.2832,-9.5459 c 0.944,-1.62758 2.13215,-2.83201 3.56445,-3.61328 1.44856,-0.7975 3.17382,-1.19626 5.17579,-1.19629 3.32029,3e-5 6.01397,1.31838 8.08105,3.95508 2.08331,2.63674 3.12497,6.10353 3.125,10.40039 -3e-5,4.29688 -1.04169,7.76368 -3.125,10.40039 -2.06708,2.63672 -4.76076,3.95508 -8.08105,3.95508 -2.00197,0 -3.72723,-0.39063 -5.17579,-1.17188 -1.4323,-0.79752 -2.62045,-2.01009 -3.56445,-3.63769 l 0,4.10156 -4.5166,0 0,-37.98828 4.5166,0 0,14.79492"
           inkscape:connector-curvature="0" />
      </g>
      <g
         id="g3553">
        <path
           id="path3555"
           style="fill:#000000;fill-opacity:1;fill-rule:nonzero;stroke:none"
           d="m 897.28781,748.2403 3.90625,0 c 2.4414,3.84118 4.26431,7.60094 5.46875,11.27929 1.22069,3.67841 1.83104,7.33238 1.83106,10.96192 -2e-5,3.64584 -0.61037,7.31609 -1.83106,11.01074 -1.20444,3.69466 -3.02735,7.45442 -5.46875,11.2793 l -3.90625,0 c 2.16471,-3.72722 3.77604,-7.43002 4.83399,-11.1084 1.0742,-3.69466 1.61131,-7.42187 1.61132,-11.18164 -10e-6,-3.75975 -0.53712,-7.47068 -1.61132,-11.13282 -1.05795,-3.66208 -2.66928,-7.36487 -4.83399,-11.10839"
           inkscape:connector-curvature="0" />
      </g>
    </g>
    <rect
       style="fill:#ffffff;fill-opacity:1;stroke:none"
       id="rect4402"
       width="111.42857"
       height="100"
       x="-777.14288"
       y="466.64789" />
    <rect
       style="fill:#ffffff;fill-opacity:1;stroke:none"
       id="rect4404"
       width="102.85714"
       height="102.85714"
       x="420"
       y="478.07648" />
    <text
       xml:space="preserve"
       style="font-size:40px;font-style:normal;font-weight:normal;line-height:125%;letter-spacing:0px;word-spacing:0px;fill:#000000;fill-opacity:1;stroke:none;font-family:Sans"
       x="-774.28571"
       y="546.64789"
       id="text4406"
       sodipodi:linespacing="125%"><tspan
         sodipodi:role="line"
         id="tspan4408"
         x="-774.28571"
         y="546.64789"
         style="font-size:72px">a)                                                          b)</tspan></text>
  </g>
</svg>
