<?xml version="1.0" encoding="UTF-8" standalone="no"?>
<!-- Created with Inkscape (http://www.inkscape.org/) -->
<svg
   xmlns:dc="http://purl.org/dc/elements/1.1/"
   xmlns:cc="http://creativecommons.org/ns#"
   xmlns:rdf="http://www.w3.org/1999/02/22-rdf-syntax-ns#"
   xmlns:svg="http://www.w3.org/2000/svg"
   xmlns="http://www.w3.org/2000/svg"
   xmlns:sodipodi="http://sodipodi.sourceforge.net/DTD/sodipodi-0.dtd"
   xmlns:inkscape="http://www.inkscape.org/namespaces/inkscape"
   width="975.74695"
   height="875.7583"
   id="svg2"
   sodipodi:version="0.32"
   inkscape:version="0.46"
   version="1.0"
   sodipodi:docname="Granularidad_metadatos.svg"
   inkscape:output_extension="org.inkscape.output.svg.inkscape">
  <defs
     id="defs4">
    <marker
       inkscape:stockid="Arrow1Lend"
       orient="auto"
       refY="0"
       refX="0"
       id="Arrow1Lend"
       style="overflow:visible">
      <path
         id="path3240"
         d="M 0,0 L 5,-5 L -12.5,0 L 5,5 L 0,0 z"
         style="fill-rule:evenodd;stroke:#000000;stroke-width:1pt;marker-start:none"
         transform="matrix(-0.8,0,0,-0.8,-10,0)" />
    </marker>
    <marker
       inkscape:stockid="Arrow1Mstart"
       orient="auto"
       refY="0"
       refX="0"
       id="Arrow1Mstart"
       style="overflow:visible">
      <path
         id="path3243"
         d="M 0,0 L 5,-5 L -12.5,0 L 5,5 L 0,0 z"
         style="fill-rule:evenodd;stroke:#000000;stroke-width:1pt;marker-start:none"
         transform="matrix(0.4,0,0,0.4,4,0)" />
    </marker>
    <marker
       inkscape:stockid="Arrow1Mend"
       orient="auto"
       refY="0"
       refX="0"
       id="Arrow1Mend"
       style="overflow:visible">
      <path
         id="path3246"
         d="M 0,0 L 5,-5 L -12.5,0 L 5,5 L 0,0 z"
         style="fill-rule:evenodd;stroke:#000000;stroke-width:1pt;marker-start:none"
         transform="matrix(-0.4,0,0,-0.4,-4,0)" />
    </marker>
    <inkscape:perspective
       sodipodi:type="inkscape:persp3d"
       inkscape:vp_x="0 : 526.18109 : 1"
       inkscape:vp_y="0 : 1000 : 0"
       inkscape:vp_z="744.09448 : 526.18109 : 1"
       inkscape:persp3d-origin="372.04724 : 350.78739 : 1"
       id="perspective10" />
  </defs>
  <sodipodi:namedview
     id="base"
     pagecolor="#ffffff"
     bordercolor="#666666"
     borderopacity="1.0"
     inkscape:pageopacity="0.0"
     inkscape:pageshadow="2"
     inkscape:zoom="0.4817733"
     inkscape:cx="372.04724"
     inkscape:cy="713.32454"
     inkscape:document-units="px"
     inkscape:current-layer="layer1"
     showgrid="false"
     showguides="true"
     inkscape:guide-bbox="true"
     inkscape:window-width="1024"
     inkscape:window-height="695"
     inkscape:window-x="0"
     inkscape:window-y="0" />
  <metadata
     id="metadata7">
    <rdf:RDF>
      <cc:Work
         rdf:about="">
        <dc:format>image/svg+xml</dc:format>
        <dc:type
           rdf:resource="http://purl.org/dc/dcmitype/StillImage" />
      </cc:Work>
    </rdf:RDF>
  </metadata>
  <g
     inkscape:label="Capa 1"
     inkscape:groupmode="layer"
     id="layer1"
     transform="translate(-35.861971,77.316368)">
    <path
       style="fill:#552200;fill-rule:evenodd;stroke:#000000;stroke-width:1px;stroke-linecap:butt;stroke-linejoin:miter;stroke-opacity:1"
       d="M 577,204.375 C 556.63491,202.88556 531.71922,201.13095 521,207.5625 C 506.75805,216.10766 471.63669,241.93301 452.90625,246.84375 C 456.60171,250.65068 460.6687,254.82845 465.25,259.25 C 470.34033,264.16283 475.86143,269.24911 481.5625,274 C 483.79785,275.86279 485.84386,277.49637 487.75,278.9375 C 489.65614,280.37863 491.41193,281.62585 493.0625,282.625 C 494.71307,283.62415 496.25011,284.40066 497.71875,284.9375 C 499.18739,285.47434 500.57713,285.7583 501.9375,285.8125 C 503.29787,285.8667 504.64302,285.66751 505.96875,285.21875 C 507.29448,284.76999 508.60401,284.0658 509.96875,283.09375 C 511.33349,282.1217 512.74136,280.89066 514.21875,279.375 C 515.69614,277.85934 517.24257,276.07961 518.90625,274 C 521.2245,271.10219 523.08935,268.91198 524.78125,267.15625 C 526.47315,265.40052 528.01588,264.05451 529.6875,262.875 C 531.35912,261.69549 533.14884,260.66915 535.40625,259.5 C 537.66366,258.33085 540.36325,257.03713 543.8125,255.3125 C 546.89383,253.77184 549.36618,252.9061 551.46875,252.28125 C 553.57132,251.6564 555.31511,251.26635 556.90625,250.65625 C 557.70182,250.3512 558.46341,250.00156 559.21875,249.53125 C 559.97409,249.06094 560.72648,248.46695 561.5,247.71875 C 562.27352,246.97055 563.05613,246.04498 563.90625,244.90625 C 564.75637,243.76752 565.67112,242.42314 566.65625,240.78125 C 568.07905,238.40992 569.18583,235.93251 570.0625,233.4375 C 570.93917,230.94249 571.57765,228.43794 572.125,225.9375 C 573.2197,220.93661 573.89048,216.03185 574.96875,211.71875 C 575.96948,207.71584 576.41974,206.07867 577,204.375 z"
       id="path3178" />
    <path
       style="fill:#ff6600;fill-rule:evenodd;stroke:#000000;stroke-width:1px;stroke-linecap:butt;stroke-linejoin:miter;stroke-opacity:1"
       d="M 120.71875,322.46875 C 124.48652,323.21231 128.42495,324.04875 132.25,324.71875 C 134.16252,325.05375 136.03487,325.35772 137.875,325.5625 C 139.71513,325.76728 141.50883,325.875 143.21875,325.875 C 145.99187,325.875 148.86639,325.80592 151.8125,325.625 C 154.75861,325.44408 157.77389,325.15937 160.8125,324.78125 C 163.85111,324.40313 166.91812,323.90412 169.96875,323.3125 C 173.01938,322.72088 176.04908,322.04016 179.03125,321.21875 C 182.01342,320.39734 184.94802,319.4425 187.78125,318.375 C 190.61448,317.3075 193.36495,316.11112 195.96875,314.78125 C 198.57255,313.45138 201.01861,311.98354 203.3125,310.375 C 205.60639,308.76646 207.75275,307.0285 209.65625,305.125 C 211.91808,302.86317 214.15927,300.91958 216.4375,299.21875 C 218.71573,297.51792 221.007,296.04875 223.3125,294.78125 C 225.618,293.51375 227.93762,292.43059 230.28125,291.46875 C 232.62488,290.50691 235.01362,289.69011 237.40625,288.90625 C 242.19151,287.33854 247.07854,285.99682 252.125,284.375 C 254.64823,283.56409 257.20766,282.67219 259.8125,281.65625 C 262.41734,280.64031 265.05269,279.47365 267.75,278.125 C 270.62815,276.68592 273.26949,275.58068 275.6875,274.6875 C 278.10551,273.79432 280.29604,273.13803 282.34375,272.625 C 286.43918,271.59894 289.90923,271.1561 293.0625,270.65625 C 294.63914,270.40632 296.11789,270.14823 297.59375,269.78125 C 299.06961,269.41427 300.53508,268.93102 302,268.28125 C 303.46492,267.63148 304.95619,266.81704 306.5,265.71875 C 308.04381,264.62046 309.6312,263.2438 311.34375,261.53125 C 313.07864,259.79635 314.77484,258.05121 316.4375,256.21875 C 318.10016,254.38629 319.74228,252.45491 321.3125,250.4375 C 322.88272,248.42009 324.38618,246.28974 325.84375,244 C 326.24545,243.36896 326.60784,242.6247 327,241.96875 C 302.93255,232.13336 278.83317,217.93751 251.15625,217.9375 C 227.1057,217.9375 208.50393,219.01952 186.8125,226.25 C 155.95814,236.53479 128.99438,262.42872 122.46875,288.53125 C 122.46875,295.60056 124.28597,308.23111 122.46875,315.5 C 121.78008,318.25468 121.23917,320.44673 120.71875,322.46875 z"
       id="path3181" />
    <path
       style="fill:#ffb380;fill-rule:evenodd;stroke:#000000;stroke-width:1px;stroke-linecap:butt;stroke-linejoin:miter;stroke-opacity:1"
       d="M 367.40625,437 C 364.47961,437.03808 361.53237,437.0042 358.625,437.0625 C 342.29816,437.38988 326.31531,437.96875 311.34375,437.96875 C 299.17451,437.96875 287.00955,438.04959 274.90625,438.0625 C 262.80295,438.07541 250.77344,438.01821 238.8125,437.71875 C 232.83203,437.56902 226.86805,437.35132 220.9375,437.0625 C 215.00695,436.77368 209.08983,436.40607 203.21875,435.9375 C 197.34767,435.46893 191.52081,434.90773 185.71875,434.21875 C 179.91669,433.52977 174.16099,432.7313 168.4375,431.78125 C 162.71401,430.8312 157.01036,429.72054 151.375,428.46875 C 145.73964,427.21696 140.16268,425.81293 134.625,424.21875 C 129.08732,422.62457 123.61794,420.85224 118.1875,418.875 C 117.29145,418.54875 116.42422,418.11858 115.53125,417.78125 C 119.21469,424.84651 128.93562,443.93939 122.46875,450.40625 C 114.53132,458.34368 102.24027,473.16392 99.625,483.625 C 98.063325,489.8717 93.841393,509.60349 97.5625,518.90625 C 105.66131,539.1533 117.30607,561.9968 139.0625,572.875 C 179.20017,592.94383 218.53587,581.1875 259.46875,581.1875 C 279.95415,581.1875 320.32862,561.15528 330.03125,541.75 C 338.1823,525.4479 352.4265,515.61578 361.15625,498.15625 C 366.67252,487.12372 367.40626,480.4191 367.40625,467.03125 C 367.40625,457.02766 367.40626,447.00502 367.40625,437 z"
       id="path3206" />
    <path
       style="fill:#a05a2c;fill-rule:evenodd;stroke:#000000;stroke-width:1px;stroke-linecap:butt;stroke-linejoin:miter;stroke-opacity:1"
       d="M 327,241.96875 C 326.60784,242.6247 326.24545,243.36896 325.84375,244 C 324.38618,246.28974 322.88272,248.42009 321.3125,250.4375 C 319.74228,252.45491 318.10016,254.38629 316.4375,256.21875 C 314.77484,258.05121 313.07864,259.79635 311.34375,261.53125 C 309.6312,263.2438 308.04381,264.62046 306.5,265.71875 C 304.95619,266.81704 303.46492,267.63148 302,268.28125 C 300.53508,268.93102 299.06961,269.41427 297.59375,269.78125 C 296.11789,270.14823 294.63914,270.40632 293.0625,270.65625 C 289.90923,271.1561 286.43918,271.59894 282.34375,272.625 C 280.29604,273.13803 278.10551,273.79432 275.6875,274.6875 C 273.26949,275.58068 270.62815,276.68592 267.75,278.125 C 265.05269,279.47365 262.41734,280.64031 259.8125,281.65625 C 257.20766,282.67219 254.64823,283.56409 252.125,284.375 C 247.07854,285.99682 242.19151,287.33854 237.40625,288.90625 C 235.01362,289.69011 232.62488,290.50691 230.28125,291.46875 C 227.93762,292.43059 225.618,293.51375 223.3125,294.78125 C 221.007,296.04875 218.71573,297.51792 216.4375,299.21875 C 214.15927,300.91958 211.91808,302.86317 209.65625,305.125 C 207.75275,307.0285 205.60639,308.76646 203.3125,310.375 C 201.01861,311.98354 198.57255,313.45138 195.96875,314.78125 C 193.36495,316.11112 190.61448,317.3075 187.78125,318.375 C 184.94802,319.4425 182.01342,320.39734 179.03125,321.21875 C 176.04908,322.04016 173.01938,322.72088 169.96875,323.3125 C 166.91812,323.90412 163.85111,324.40313 160.8125,324.78125 C 157.77389,325.15937 154.75861,325.44408 151.8125,325.625 C 148.86639,325.80592 145.99187,325.875 143.21875,325.875 C 141.50883,325.875 139.71513,325.76728 137.875,325.5625 C 136.03487,325.35772 134.16252,325.05375 132.25,324.71875 C 128.42495,324.04875 124.48652,323.21231 120.71875,322.46875 C 118.95329,329.32828 117.31435,333.09191 110,340.40625 C 98.355602,352.05064 99.625003,356.97105 99.625,373.625 C 99.625,389.84242 107.47513,401.76277 114.15625,415.125 C 114.37423,415.56096 115.08988,416.93465 115.53125,417.78125 C 116.42422,418.11858 117.29145,418.54875 118.1875,418.875 C 123.61794,420.85224 129.08732,422.62457 134.625,424.21875 C 140.16268,425.81293 145.73964,427.21696 151.375,428.46875 C 157.01036,429.72054 162.71401,430.8312 168.4375,431.78125 C 174.16099,432.7313 179.91669,433.52977 185.71875,434.21875 C 191.52081,434.90773 197.34767,435.46893 203.21875,435.9375 C 209.08983,436.40607 215.00695,436.77368 220.9375,437.0625 C 226.86805,437.35132 232.83203,437.56902 238.8125,437.71875 C 250.77344,438.01821 262.80295,438.07541 274.90625,438.0625 C 287.00955,438.04959 299.17451,437.96875 311.34375,437.96875 C 326.31531,437.96875 342.29816,437.38988 358.625,437.0625 C 361.53237,437.0042 364.47961,437.03808 367.40625,437 C 367.40625,436.6252 367.40625,436.24974 367.40625,435.875 C 367.40625,426.48996 365.14345,413.80125 367.40625,404.75 C 368.76517,399.31434 368.12639,384.59099 371.53125,377.78125 C 385.48145,349.88086 410.35909,348.71875 440.03125,348.71875 C 478.68326,348.71875 517.34791,348.71875 556,348.71875 C 556.83651,347.26505 557.41621,346.1084 558.34375,344.5625 C 560.18799,341.48877 562.28793,337.98517 564.59375,334.28125 C 566.89957,330.57733 569.43004,326.66309 572.09375,322.75 C 574.75746,318.83691 577.55084,314.92 580.46875,311.21875 C 581.63226,309.74288 582.8701,308.52037 584.0625,307.125 C 581.59774,305.57313 579.16187,304.06065 576.5,302.25 C 572.66106,299.63869 568.65246,296.78846 564.65625,293.75 C 563.24432,292.67646 561.87242,291.48784 560.46875,290.375 C 558.96986,290.33606 557.44931,290.30173 556.28125,290.59375 C 547.90465,292.6879 541.40187,294.30579 531.375,296.8125 C 527.6689,297.73902 521.63284,299.52861 515.65625,301.75 C 512.66796,302.8607 509.70131,304.10453 507.03125,305.375 C 504.36119,306.64547 502.01126,307.9603 500.25,309.28125 C 498.77115,310.39039 496.55596,312.21205 493.90625,314.25 C 491.25654,316.28795 488.16754,318.52431 484.875,320.4375 C 483.22873,321.39409 481.52048,322.27214 479.8125,323 C 478.10452,323.72786 476.39117,324.32007 474.6875,324.6875 C 472.98383,325.05493 471.28962,325.21845 469.65625,325.09375 C 468.02288,324.96905 466.43456,324.56103 464.9375,323.8125 C 457.83237,320.25994 451.84987,317.88684 446.21875,315 C 443.40319,313.55658 440.66573,311.98366 437.9375,310.0625 C 435.20927,308.14134 432.4846,305.89085 429.65625,303.0625 C 428.17661,301.58286 426.48566,299.68258 424.6875,297.53125 C 422.88934,295.37992 420.97826,292.95717 419.09375,290.375 C 417.20924,287.79283 415.36367,285.05342 413.625,282.28125 C 411.88633,279.50908 410.26691,276.72132 408.90625,274 C 405.67661,267.54072 400.82771,258.91536 396.875,251.5625 C 386.28838,251.43009 375.68809,251.15625 365.3125,251.15625 C 352.20616,251.15625 339.60943,247.12171 327,241.96875 z"
       id="path3201" />
    <path
       style="fill:#502d16;fill-rule:evenodd;stroke:#000000;stroke-width:1px;stroke-linecap:butt;stroke-linejoin:miter;stroke-opacity:1"
       d="M 584.0625,307.125 C 582.8701,308.52037 581.63226,309.74288 580.46875,311.21875 C 577.55084,314.92 574.75746,318.83691 572.09375,322.75 C 569.43004,326.66309 566.89957,330.57733 564.59375,334.28125 C 562.28793,337.98517 560.18799,341.48877 558.34375,344.5625 C 557.41621,346.1084 556.83651,347.26505 556,348.71875 C 556.09374,348.71875 556.18751,348.71875 556.28125,348.71875 C 600.89704,348.71875 639.78236,350.53069 676.65625,332.09375 C 693.69095,323.5764 720.24997,310.29137 720.25,288.53125 C 720.25,274.7164 710.77778,259.09278 699.875,246.90625 C 699.64004,247.14042 699.3946,247.42148 699.15625,247.65625 C 697.05694,249.72404 694.81893,251.82787 692.1875,254.09375 C 689.55607,256.35963 686.55325,258.796 682.90625,261.53125 C 680.55446,263.29509 678.46162,264.7034 676.4375,265.8125 C 674.41338,266.9216 672.44405,267.74688 670.3125,268.34375 C 668.18095,268.94062 665.89281,269.30408 663.21875,269.53125 C 660.54469,269.75842 657.49543,269.84375 653.84375,269.84375 C 651.85841,269.84375 650.00118,269.94485 648.25,270.15625 C 646.49882,270.36765 644.83694,270.68869 643.28125,271.09375 C 641.72556,271.49881 640.27385,271.98151 638.875,272.5625 C 637.47615,273.14349 636.12443,273.82332 634.84375,274.5625 C 632.28239,276.04087 629.94563,277.80778 627.625,279.8125 C 625.30437,281.81722 623.0142,284.04831 620.625,286.4375 C 619.17056,287.89194 617.07271,290.46741 614.5625,293.40625 C 612.05229,296.34509 609.11817,299.65159 606.03125,302.5625 C 604.48779,304.01795 602.91032,305.36634 601.3125,306.53125 C 599.71468,307.69616 598.09229,308.68967 596.5,309.375 C 594.90771,310.06033 593.33939,310.45204 591.8125,310.46875 C 591.04906,310.4771 590.29836,310.38175 589.5625,310.1875 C 588.82664,309.99325 588.10705,309.70173 587.40625,309.28125 C 586.36517,308.6566 585.15241,307.81123 584.0625,307.125 z"
       id="path3198" />
    <path
       style="fill:#ff9955;fill-rule:evenodd;stroke:#000000;stroke-width:1px;stroke-linecap:butt;stroke-linejoin:miter;stroke-opacity:1"
       d="M 396.875,251.5625 C 400.82771,258.91536 405.67661,267.54072 408.90625,274 C 410.26691,276.72132 411.88633,279.50908 413.625,282.28125 C 415.36367,285.05342 417.20924,287.79283 419.09375,290.375 C 420.97826,292.95717 422.88934,295.37992 424.6875,297.53125 C 426.48566,299.68258 428.17661,301.58286 429.65625,303.0625 C 432.4846,305.89085 435.20927,308.14134 437.9375,310.0625 C 440.66573,311.98366 443.40319,313.55658 446.21875,315 C 451.84987,317.88684 457.83237,320.25994 464.9375,323.8125 C 466.43456,324.56103 468.02288,324.96905 469.65625,325.09375 C 471.28962,325.21845 472.98383,325.05493 474.6875,324.6875 C 476.39117,324.32007 478.10452,323.72786 479.8125,323 C 481.52048,322.27214 483.22873,321.39409 484.875,320.4375 C 488.16754,318.52431 491.25654,316.28795 493.90625,314.25 C 496.55596,312.21205 498.77115,310.39039 500.25,309.28125 C 502.01126,307.9603 504.36119,306.64547 507.03125,305.375 C 509.70131,304.10453 512.66796,302.8607 515.65625,301.75 C 521.63284,299.52861 527.6689,297.73902 531.375,296.8125 C 541.40187,294.30579 547.90465,292.6879 556.28125,290.59375 C 557.44931,290.30173 558.96986,290.33606 560.46875,290.375 C 557.89958,288.33814 555.31338,286.33365 552.8125,284.1875 C 548.94525,280.86879 545.20205,277.45205 541.75,274 C 537.93174,270.18174 534.18353,266.40025 530.375,262.46875 C 530.16995,262.60668 529.88853,262.73315 529.6875,262.875 C 528.01588,264.05451 526.47315,265.40052 524.78125,267.15625 C 523.08935,268.91198 521.2245,271.10219 518.90625,274 C 517.24257,276.07961 515.69614,277.85934 514.21875,279.375 C 512.74136,280.89066 511.33349,282.1217 509.96875,283.09375 C 508.60401,284.0658 507.29448,284.76999 505.96875,285.21875 C 504.64302,285.66751 503.29787,285.8667 501.9375,285.8125 C 500.57713,285.7583 499.18739,285.47434 497.71875,284.9375 C 496.25011,284.40066 494.71307,283.62415 493.0625,282.625 C 491.41193,281.62585 489.65614,280.37863 487.75,278.9375 C 485.84386,277.49637 483.79785,275.86279 481.5625,274 C 475.86143,269.24911 470.34033,264.16283 465.25,259.25 C 460.6687,254.82845 456.60171,250.65068 452.90625,246.84375 C 452.78033,246.87676 452.62442,246.96889 452.5,247 C 434.83438,251.41641 415.86824,251.80005 396.875,251.5625 z"
       id="path3191" />
    <path
       style="fill:#d45500;fill-rule:evenodd;stroke:#000000;stroke-width:1px;stroke-linecap:butt;stroke-linejoin:miter;stroke-opacity:1"
       d="M 530.375,262.46875 C 534.18353,266.40025 537.93174,270.18174 541.75,274 C 545.20205,277.45205 548.94525,280.86879 552.8125,284.1875 C 556.67975,287.50621 560.66004,290.71154 564.65625,293.75 C 568.65246,296.78846 572.66106,299.63869 576.5,302.25 C 580.33894,304.86131 584.01082,307.24399 587.40625,309.28125 C 588.10705,309.70173 588.82664,309.99325 589.5625,310.1875 C 590.29836,310.38175 591.04906,310.4771 591.8125,310.46875 C 593.33939,310.45204 594.90771,310.06033 596.5,309.375 C 598.09229,308.68967 599.71468,307.69616 601.3125,306.53125 C 602.91032,305.36634 604.48779,304.01795 606.03125,302.5625 C 609.11817,299.65159 612.05229,296.34509 614.5625,293.40625 C 617.07271,290.46741 619.17056,287.89194 620.625,286.4375 C 623.0142,284.04831 625.30437,281.81722 627.625,279.8125 C 629.94563,277.80778 632.28239,276.04087 634.84375,274.5625 C 636.12443,273.82332 637.47615,273.14349 638.875,272.5625 C 640.27385,271.98151 641.72556,271.49881 643.28125,271.09375 C 644.83694,270.68869 646.49882,270.36765 648.25,270.15625 C 650.00118,269.94485 651.85841,269.84375 653.84375,269.84375 C 657.49543,269.84375 660.54469,269.75842 663.21875,269.53125 C 665.89281,269.30408 668.18095,268.94062 670.3125,268.34375 C 672.44405,267.74688 674.41338,266.9216 676.4375,265.8125 C 678.46162,264.7034 680.55446,263.29509 682.90625,261.53125 C 686.55325,258.796 689.55607,256.35963 692.1875,254.09375 C 694.81893,251.82787 697.05694,249.72404 699.15625,247.65625 C 699.3946,247.42148 699.64004,247.14042 699.875,246.90625 C 695.6477,242.18121 691.23404,237.92472 687.03125,234.5625 C 656.08396,209.80467 640.90825,205.5 597.78125,205.5 C 592.37278,205.5 584.99719,204.95989 577,204.375 C 576.41974,206.07867 575.96948,207.71584 574.96875,211.71875 C 573.89048,216.03185 573.2197,220.93661 572.125,225.9375 C 571.57765,228.43794 570.93917,230.94249 570.0625,233.4375 C 569.18583,235.93251 568.07905,238.40992 566.65625,240.78125 C 565.67112,242.42314 564.75637,243.76752 563.90625,244.90625 C 563.05613,246.04498 562.27352,246.97055 561.5,247.71875 C 560.72648,248.46695 559.97409,249.06094 559.21875,249.53125 C 558.46341,250.00156 557.70182,250.3512 556.90625,250.65625 C 555.31511,251.26635 553.57132,251.6564 551.46875,252.28125 C 549.36618,252.9061 546.89383,253.77184 543.8125,255.3125 C 540.36325,257.03713 537.66366,258.33085 535.40625,259.5 C 533.42031,260.52855 531.87503,261.45973 530.375,262.46875 z"
       id="path3171" />
    <g
       id="g3183"
       transform="translate(-20.756649,18.680988)"
       style="fill:none">
      <rect
         y="143.79076"
         x="59.999977"
         height="237.14285"
         width="348.57144"
         id="rect2383"
         style="fill:none;fill-opacity:0.456;stroke:#000000;stroke-width:3;stroke-miterlimit:4;stroke-dasharray:none;stroke-opacity:1" />
      <rect
         y="143.79076"
         x="409.14285"
         height="237.14285"
         width="348.57144"
         id="rect3155"
         style="fill:none;fill-opacity:0.456;stroke:#000000;stroke-width:3;stroke-miterlimit:4;stroke-dasharray:none;stroke-opacity:1" />
      <rect
         y="380.36218"
         x="59.999977"
         height="237.14285"
         width="348.57144"
         id="rect3157"
         style="fill:none;fill-opacity:0.456;stroke:#000000;stroke-width:3;stroke-miterlimit:4;stroke-dasharray:none;stroke-opacity:1" />
    </g>
    <text
       xml:space="preserve"
       style="font-size:40px;font-style:normal;font-weight:normal;text-align:center;text-anchor:middle;fill:#000000;fill-opacity:1;stroke:none;stroke-width:1px;stroke-linecap:butt;stroke-linejoin:miter;stroke-opacity:1;font-family:Bitstream Vera Sans"
       x="674.59119"
       y="757.61774"
       id="text3218"><tspan
         sodipodi:role="line"
         id="tspan3220"
         x="674.59119"
         y="757.61774"
         style="font-size:28px;text-align:center;text-anchor:middle">Metadatos asociados</tspan><tspan
         sodipodi:role="line"
         x="674.59119"
         y="792.61774"
         id="tspan3222"
         style="font-size:28px;text-align:center;text-anchor:middle">a una capa</tspan></text>
    <text
       xml:space="preserve"
       style="font-size:40px;font-style:normal;font-weight:normal;fill:#000000;fill-opacity:1;stroke:none;stroke-width:1px;stroke-linecap:butt;stroke-linejoin:miter;stroke-opacity:1;font-family:Bitstream Vera Sans"
       x="865.55231"
       y="514.76495"
       id="text3224"><tspan
         sodipodi:role="line"
         id="tspan3226"
         x="865.55231"
         y="514.76495"
         style="font-size:28px;text-align:center;text-anchor:middle">Metadatos asociados</tspan><tspan
         sodipodi:role="line"
         x="865.55231"
         y="549.76495"
         id="tspan3228"
         style="font-size:28px;text-align:center;text-anchor:middle">a una entidad</tspan></text>
    <path
       style="fill:none;fill-rule:evenodd;stroke:#000000;stroke-width:4;stroke-linecap:butt;stroke-linejoin:miter;marker-end:url(#Arrow1Mend);stroke-miterlimit:4;stroke-dasharray:none;stroke-opacity:1"
       d="M 657.98582,718.18011 L 392.3007,402.67903"
       id="path3232"
       sodipodi:nodetypes="cc" />
    <flowRoot
       xml:space="preserve"
       id="flowRoot4012"
       style="font-size:40px;font-style:normal;font-weight:normal;fill:#000000;fill-opacity:1;stroke:none;stroke-width:1px;stroke-linecap:butt;stroke-linejoin:miter;stroke-opacity:1;font-family:Bitstream Vera Sans"><flowRegion
         id="flowRegion4014"><rect
           id="rect4016"
           width="292.66876"
           height="53.967293"
           x="-390.22504"
           y="26.983646" /></flowRegion><flowPara
         id="flowPara4018"></flowPara></flowRoot>    <path
       style="fill:none;fill-rule:evenodd;stroke:#000000;stroke-width:4;stroke-linecap:butt;stroke-linejoin:miter;marker-end:url(#Arrow1Mend);stroke-miterlimit:4;stroke-dasharray:none;stroke-opacity:1"
       d="M 655.91016,716.10444 L 581.18622,404.75469"
       id="path5599"
       sodipodi:nodetypes="cc" />
    <path
       style="fill:none;fill-rule:evenodd;stroke:#000000;stroke-width:4;stroke-linecap:butt;stroke-linejoin:miter;marker-end:url(#Arrow1Mend);stroke-miterlimit:4;stroke-dasharray:none;stroke-opacity:1"
       d="M 656.71665,716.87515 L 395.18286,538.36796"
       id="path6128"
       sodipodi:nodetypes="cc" />
    <path
       style="fill:none;fill-rule:evenodd;stroke:#000000;stroke-width:4;stroke-linecap:butt;stroke-linejoin:miter;marker-end:url(#Arrow1Mend);stroke-miterlimit:4;stroke-dasharray:none;stroke-opacity:1"
       d="M 814.28992,482.86813 L 453.23133,284.09642"
       id="path6132"
       sodipodi:nodetypes="cc" />
    <path
       style="fill:none;fill-rule:evenodd;stroke:#000000;stroke-width:4;stroke-linecap:butt;stroke-linejoin:miter;marker-end:url(#Arrow1Mend);stroke-miterlimit:4;stroke-dasharray:none;stroke-opacity:1"
       d="M 814.39704,483.36026 L 656.6465,244.65879"
       id="path6134"
       sodipodi:nodetypes="cc" />
    <path
       style="fill:none;fill-rule:evenodd;stroke:#000000;stroke-width:4;stroke-linecap:butt;stroke-linejoin:miter;marker-end:url(#Arrow1Mend);stroke-miterlimit:4;stroke-dasharray:none;stroke-opacity:1"
       d="M 815.05992,483.25313 L 648.34384,319.38272"
       id="path6136"
       sodipodi:nodetypes="cc" />
    <text
       xml:space="preserve"
       style="font-size:40px;font-style:normal;font-weight:normal;fill:#000000;fill-opacity:1;stroke:none;stroke-width:1px;stroke-linecap:butt;stroke-linejoin:miter;stroke-opacity:1;font-family:Bitstream Vera Sans"
       x="386.77533"
       y="-56.042931"
       id="text3208"><tspan
         sodipodi:role="line"
         x="391.23236"
         y="-56.042931"
         id="tspan3212"
         style="font-size:28px;text-align:center;text-anchor:middle">Metadatos asociados </tspan><tspan
         sodipodi:role="line"
         x="386.77533"
         y="-21.042931"
         id="tspan3216"
         style="font-size:28px;text-align:center;text-anchor:middle">a un juego de datos</tspan></text>
    <g
       id="g6675">
      <path
         id="path6138"
         d="M 37.361971,93.404927 L 738.93676,93.404927"
         style="fill:none;fill-rule:evenodd;stroke:#000000;stroke-width:3;stroke-linecap:butt;stroke-linejoin:miter;stroke-miterlimit:4;stroke-dasharray:none;stroke-opacity:1" />
      <path
         id="path6140"
         d="M 37.361971,93.404927 L 37.361971,130.7669"
         style="fill:none;fill-rule:evenodd;stroke:#000000;stroke-width:3;stroke-linecap:butt;stroke-linejoin:miter;stroke-miterlimit:4;stroke-dasharray:none;stroke-opacity:1" />
      <path
         id="path6142"
         d="M 737.73843,92.070737 L 737.73843,129.43271"
         style="fill:none;fill-rule:evenodd;stroke:#000000;stroke-width:3;stroke-linecap:butt;stroke-linejoin:miter;stroke-miterlimit:4;stroke-dasharray:none;stroke-opacity:1" />
    </g>
    <path
       style="fill:none;fill-rule:evenodd;stroke:#000000;stroke-width:3;stroke-linecap:butt;stroke-linejoin:miter;marker-end:url(#Arrow1Mend);stroke-miterlimit:4;stroke-dasharray:none;stroke-opacity:1"
       d="M 388.14937,2.0756651 L 388.14937,80.950937"
       id="path6146" />
  </g>
</svg>
