<?xml version="1.0" encoding="UTF-8" standalone="no"?>
<!-- Created with Inkscape (http://www.inkscape.org/) -->
<svg
   xmlns:dc="http://purl.org/dc/elements/1.1/"
   xmlns:cc="http://creativecommons.org/ns#"
   xmlns:rdf="http://www.w3.org/1999/02/22-rdf-syntax-ns#"
   xmlns:svg="http://www.w3.org/2000/svg"
   xmlns="http://www.w3.org/2000/svg"
   xmlns:xlink="http://www.w3.org/1999/xlink"
   xmlns:sodipodi="http://sodipodi.sourceforge.net/DTD/sodipodi-0.dtd"
   xmlns:inkscape="http://www.inkscape.org/namespaces/inkscape"
   width="587.86353"
   height="191.50259"
   id="svg2"
   sodipodi:version="0.32"
   inkscape:version="0.46"
   version="1.0"
   sodipodi:docname="EtiquetasLineas.svg"
   inkscape:output_extension="org.inkscape.output.svg.inkscape">
  <defs
     id="defs4">
    <inkscape:perspective
       sodipodi:type="inkscape:persp3d"
       inkscape:vp_x="0 : 526.18109 : 1"
       inkscape:vp_y="0 : 1000 : 0"
       inkscape:vp_z="744.09448 : 526.18109 : 1"
       inkscape:persp3d-origin="372.04724 : 350.78739 : 1"
       id="perspective10" />
  </defs>
  <sodipodi:namedview
     id="base"
     pagecolor="#ffffff"
     bordercolor="#666666"
     borderopacity="1.0"
     inkscape:pageopacity="0.0"
     inkscape:pageshadow="2"
     inkscape:zoom="1.6058148"
     inkscape:cx="374.03195"
     inkscape:cy="82.972271"
     inkscape:document-units="px"
     inkscape:current-layer="layer1"
     showgrid="false"
     inkscape:window-width="1360"
     inkscape:window-height="749"
     inkscape:window-x="0"
     inkscape:window-y="0" />
  <metadata
     id="metadata7">
    <rdf:RDF>
      <cc:Work
         rdf:about="">
        <dc:format>image/svg+xml</dc:format>
        <dc:type
           rdf:resource="http://purl.org/dc/dcmitype/StillImage" />
      </cc:Work>
    </rdf:RDF>
  </metadata>
  <g
     inkscape:label="Capa 1"
     inkscape:groupmode="layer"
     id="layer1"
     transform="translate(-76.14286,-125.6479)">
    <rect
       style="opacity:1;fill:none;fill-opacity:1;fill-rule:evenodd;stroke:#000000;stroke-width:2;stroke-linecap:butt;stroke-miterlimit:4;stroke-dasharray:none;stroke-dashoffset:0;stroke-opacity:1"
       id="rect2383"
       width="277.14285"
       height="162.85715"
       x="77.14286"
       y="126.6479" />
    <path
       style="fill:none;fill-rule:evenodd;stroke:#0000cb;stroke-width:1px;stroke-linecap:butt;stroke-linejoin:miter;stroke-opacity:1"
       d="M 77.057569,241.31741 C 82.295967,234.92596 105.5224,230.62291 114.20043,226.90376 C 125.84023,221.91527 133.12044,229.74702 141.36461,237.99118 C 147.67534,244.30192 153.44854,239.65429 160.76759,239.65429 C 170.95279,239.65429 177.74835,237.93291 187.3774,236.32807 C 188.48614,236.14328 189.59488,235.95849 190.70362,235.7737 C 197.3018,234.674 204.48903,236.32807 211.21535,236.32807 C 218.76805,236.32807 225.97812,239.09992 233.94456,239.09992 C 239.39364,239.09992 244.72649,239.65429 250.02132,239.65429 C 256.30419,239.65429 262.58706,239.65429 268.86994,239.65429 C 274.77929,239.65429 281.37939,237.43681 287.71855,237.43681 C 293.48291,237.43681 299.15093,243.46509 304.34968,245.198 C 307.37018,246.20484 315.81267,242.98052 319.87207,242.98052 C 324.01997,242.98052 327.49149,244.64363 332.06823,244.64363 C 332.99218,244.64363 352.28919,247.20661 353.21315,247.20661"
       id="path3155"
       sodipodi:nodetypes="csssssssssssssc" />
    <path
       style="fill:none;fill-rule:evenodd;stroke:#0000cb;stroke-width:1px;stroke-linecap:butt;stroke-linejoin:miter;stroke-opacity:1"
       d="M 78.629049,166.91687 C 78.629049,170.44728 114.65602,183.36094 118.08102,184.21719 C 132.07707,187.7162 148.13591,199.85843 157.99574,209.71826 C 162.84702,214.56955 166.51624,213.70133 171.85501,216.37071 C 176.05613,218.47127 179.09862,221.37844 183.4968,223.57753 C 188.08995,225.87411 190.84378,225.34576 195.13859,228.56687 C 197.40999,230.27042 200.335,230.88789 202.34542,231.8931 C 204.25762,232.8492 208.60816,231.93427 210.66098,232.44747 C 214.1675,233.3241 216.81037,233.30468 219.53092,234.66495 C 221.21459,235.50679 223.56305,237.40292 225.17088,238.20684"
       id="path3159"
       sodipodi:nodetypes="cssssssssc" />
    <text
       xml:space="preserve"
       style="font-size:14px;font-style:normal;font-weight:normal;fill:#0000cb;fill-opacity:1;stroke:none;stroke-width:1px;stroke-linecap:butt;stroke-linejoin:miter;stroke-opacity:1;font-family:Bitstream Vera Sans"
       id="text3161"><textPath
         xlink:href="#path3185"
         id="textPath3187"><tspan
   style="font-size:10px;fill:#0000cb;fill-opacity:1;stroke:none;stroke-opacity:1"
   id="tspan3163">R í o   a z u l</tspan></textPath></text>
    <rect
       style="opacity:1;fill:none;fill-opacity:1;fill-rule:evenodd;stroke:#000000;stroke-width:2;stroke-linecap:butt;stroke-miterlimit:4;stroke-dasharray:none;stroke-dashoffset:0;stroke-opacity:1"
       id="rect3165"
       width="277.14285"
       height="162.85715"
       x="385.86356"
       y="127.73531" />
    <path
       style="fill:none;fill-rule:evenodd;stroke:#0000cb;stroke-width:1px;stroke-linecap:butt;stroke-linejoin:miter;stroke-opacity:1"
       d="M 385.77825,242.40482 C 391.01665,236.01337 414.24308,231.71032 422.92111,227.99117 C 434.56091,223.00268 441.84112,230.83443 450.08529,239.07859 C 456.39602,245.38933 462.16922,240.7417 469.48827,240.7417 C 479.67347,240.7417 486.46903,239.02032 496.09808,237.41548 C 497.20682,237.23069 498.31556,237.0459 499.4243,236.86111 C 506.02248,235.76141 513.20971,237.41548 519.93603,237.41548 C 527.48873,237.41548 534.6988,240.18733 542.66524,240.18733 C 548.11432,240.18733 553.44717,240.7417 558.742,240.7417 C 565.02487,240.7417 571.30774,240.7417 577.59062,240.7417 C 583.49997,240.7417 590.10007,238.52422 596.43923,238.52422 C 602.20359,238.52422 607.87161,244.5525 613.07036,246.28541 C 616.09086,247.29225 624.53335,244.06793 628.59275,244.06793 C 632.74065,244.06793 636.21217,245.73104 640.78891,245.73104 C 641.71286,245.73104 661.0819,247.67128 662.00586,247.67128"
       id="path3167"
       sodipodi:nodetypes="csssssssssssssc" />
    <path
       style="fill:none;fill-rule:evenodd;stroke:#0000cb;stroke-width:1px;stroke-linecap:butt;stroke-linejoin:miter;stroke-opacity:1"
       d="M 387.34973,167.78586 C 387.34973,171.31627 423.3767,184.44835 426.8017,185.3046 C 440.79775,188.80361 456.85659,200.94584 466.71642,210.80567 C 471.5677,215.65696 475.23692,214.78874 480.57569,217.45812 C 484.77681,219.55868 487.8193,222.46585 492.21748,224.66494 C 496.81063,226.96152 499.56446,226.43317 503.85927,229.65428 C 506.13067,231.35783 509.05568,231.9753 511.0661,232.98051 C 512.9783,233.93661 517.32884,233.02168 519.38166,233.53488 C 522.88818,234.41151 525.53105,234.39209 528.2516,235.75236 C 529.93527,236.5942 532.28373,238.39408 533.89156,239.198"
       id="path3169"
       sodipodi:nodetypes="cssssssssc" />
    <text
       xml:space="preserve"
       style="font-size:14px;font-style:normal;font-weight:normal;fill:#0000cb;fill-opacity:1;stroke:none;stroke-width:1px;stroke-linecap:butt;stroke-linejoin:miter;stroke-opacity:1;font-family:Bitstream Vera Sans"
       id="text3171"
       transform="translate(2,-2)"><textPath
         xlink:href="#path3179"
         id="textPath3181"><tspan
   style="font-size:10px;fill:#0000cb;fill-opacity:1;stroke:none;stroke-opacity:1"
   id="tspan3173">R í o    a z u l</tspan></textPath></text>
    <path
       style="fill:none;fill-rule:evenodd;stroke:none;stroke-width:1px;stroke-linecap:butt;stroke-linejoin:miter;stroke-opacity:1"
       d="M 500.40146,227.78112 C 504.1026,228.24488 503.30718,231.68045 512.43026,233.28901 C 514.53005,233.65924 518.00536,232.77129 520.05579,233.36477 C 523.36297,234.322 526.74121,235.82437 529.13714,237.02234 C 531.78243,238.34498 535.97129,240.01996 538.42991,240.04892 C 541.29012,240.08262 545.7734,240.43869 548.50841,240.33609 C 552.29532,240.19403 551.89232,240.50758 554.06798,240.50758 C 557.579,240.50758 560.70712,240.79474 564.21814,240.79474 C 567.35957,240.79474 569.54378,240.89046 572.68522,240.89046 C 574.53312,240.89046 575.9024,240.79474 577.75031,240.79474"
       id="path3179"
       sodipodi:nodetypes="cssssssssc" />
    <path
       style="fill:none;fill-rule:evenodd;stroke:none;stroke-width:1px;stroke-linecap:butt;stroke-linejoin:miter;stroke-opacity:1"
       d="M 234.08964,247.96782 C 236.13754,247.45859 241.43048,247.84811 243.61878,247.87155 C 246.47725,247.90217 249.60082,247.88315 252.08913,248.06407 C 252.26225,248.07665 254.61101,248.39903 258.92316,247.96781 C 262.32116,247.62801 265.04452,248.47801 268.35605,248.06407 C 270.39936,247.80865 272.20779,247.00527 274.22754,247.00527 C 276.04942,247.00527 278.99105,246.71681 280.67656,246.23524 C 282.58432,245.69016 284.91024,245.85001 286.93307,246.13899 C 288.71968,246.39422 289.66549,245.7633 290.78322,246.04273 C 290.94194,246.08241 291.10407,246.1069 291.26449,246.13899 C 293.30429,246.54695 296.2915,247.74119 298.29103,249.02661 C 299.82333,250.01165 301.38175,250.99972 302.71872,252.20299 C 302.7828,252.26066 303.16986,252.47367 303.19999,252.49175"
       id="path3185"
       sodipodi:nodetypes="csssssssssssc" />
    <text
       xml:space="preserve"
       style="font-size:14px;font-style:normal;font-weight:normal;fill:#000000;fill-opacity:1;stroke:none;stroke-width:1px;stroke-linecap:butt;stroke-linejoin:miter;stroke-opacity:1;font-family:Bitstream Vera Sans"
       x="133.26569"
       y="189.60855"
       id="text3240"
       transform="translate(76.14286,125.6479)"><tspan
         sodipodi:role="line"
         id="tspan3242"
         x="133.26569"
         y="189.60855"
         style="font-size:9px"><tspan
           style="font-size:16px"
           id="tspan2395">a)</tspan><tspan
           style="font-size:16px"
           id="tspan2401">                                                                  b)</tspan></tspan></text>
  </g>
</svg>
