<?xml version="1.0" encoding="UTF-8" standalone="no"?>
<!-- Created with Inkscape (http://www.inkscape.org/) -->

<svg
   xmlns:dc="http://purl.org/dc/elements/1.1/"
   xmlns:cc="http://creativecommons.org/ns#"
   xmlns:rdf="http://www.w3.org/1999/02/22-rdf-syntax-ns#"
   xmlns:svg="http://www.w3.org/2000/svg"
   xmlns="http://www.w3.org/2000/svg"
   xmlns:xlink="http://www.w3.org/1999/xlink"
   xmlns:sodipodi="http://sodipodi.sourceforge.net/DTD/sodipodi-0.dtd"
   xmlns:inkscape="http://www.inkscape.org/namespaces/inkscape"
   width="305.19788"
   height="357.7475"
   id="svg2"
   sodipodi:version="0.32"
   inkscape:version="0.48.4 r9939"
   version="1.0"
   sodipodi:docname="EtiquetasLineas.pdf"
   inkscape:output_extension="org.inkscape.output.svg.inkscape">
  <defs
     id="defs4">
    <inkscape:perspective
       sodipodi:type="inkscape:persp3d"
       inkscape:vp_x="0 : 526.18109 : 1"
       inkscape:vp_y="0 : 1000 : 0"
       inkscape:vp_z="744.09448 : 526.18109 : 1"
       inkscape:persp3d-origin="372.04724 : 350.78739 : 1"
       id="perspective10" />
  </defs>
  <sodipodi:namedview
     id="base"
     pagecolor="#ffffff"
     bordercolor="#666666"
     borderopacity="1.0"
     inkscape:pageopacity="0.0"
     inkscape:pageshadow="2"
     inkscape:zoom="1.6058148"
     inkscape:cx="400.08697"
     inkscape:cy="249.21718"
     inkscape:document-units="px"
     inkscape:current-layer="layer1"
     showgrid="false"
     inkscape:window-width="1920"
     inkscape:window-height="1057"
     inkscape:window-x="-8"
     inkscape:window-y="-8"
     fit-margin-top="0"
     fit-margin-left="0"
     fit-margin-right="0"
     fit-margin-bottom="0"
     inkscape:window-maximized="1" />
  <metadata
     id="metadata7">
    <rdf:RDF>
      <cc:Work
         rdf:about="">
        <dc:format>image/svg+xml</dc:format>
        <dc:type
           rdf:resource="http://purl.org/dc/dcmitype/StillImage" />
        <dc:title></dc:title>
      </cc:Work>
    </rdf:RDF>
  </metadata>
  <g
     inkscape:label="Capa 1"
     inkscape:groupmode="layer"
     id="layer1"
     transform="translate(-50.087841,-125.6479)">
    <rect
       style="fill:none;stroke:#000000;stroke-width:2;stroke-linecap:butt;stroke-miterlimit:4;stroke-opacity:1;stroke-dasharray:none;stroke-dashoffset:0"
       id="rect2383"
       width="277.14285"
       height="162.85715"
       x="77.14286"
       y="126.6479" />
    <path
       style="fill:none;stroke:#0000cb;stroke-width:1px;stroke-linecap:butt;stroke-linejoin:miter;stroke-opacity:1"
       d="m 77.057569,241.31741 c 5.238398,-6.39145 28.464831,-10.6945 37.142861,-14.41365 11.6398,-4.98849 18.92001,2.84326 27.16418,11.08742 6.31073,6.31074 12.08393,1.66311 19.40298,1.66311 10.1852,0 16.98076,-1.72138 26.60981,-3.32622 1.10874,-0.18479 2.21748,-0.36958 3.32622,-0.55437 6.59818,-1.0997 13.78541,0.55437 20.51173,0.55437 7.5527,0 14.76277,2.77185 22.72921,2.77185 5.44908,0 10.78193,0.55437 16.07676,0.55437 6.28287,0 12.56574,0 18.84862,0 5.90935,0 12.50945,-2.21748 18.84861,-2.21748 5.76436,0 11.43238,6.02828 16.63113,7.76119 3.0205,1.00684 11.46299,-2.21748 15.52239,-2.21748 4.1479,0 7.61942,1.66311 12.19616,1.66311 0.92395,0 20.22096,2.56298 21.14492,2.56298"
       id="path3155"
       sodipodi:nodetypes="csssssssssssssc"
       inkscape:connector-curvature="0" />
    <path
       style="fill:none;stroke:#0000cb;stroke-width:1px;stroke-linecap:butt;stroke-linejoin:miter;stroke-opacity:1"
       d="m 78.629049,166.91687 c 0,3.53041 36.026971,16.44407 39.451971,17.30032 13.99605,3.49901 30.05489,15.64124 39.91472,25.50107 4.85128,4.85129 8.5205,3.98307 13.85927,6.65245 4.20112,2.10056 7.24361,5.00773 11.64179,7.20682 4.59315,2.29658 7.34698,1.76823 11.64179,4.98934 2.2714,1.70355 5.19641,2.32102 7.20683,3.32623 1.9122,0.9561 6.26274,0.0412 8.31556,0.55437 3.50652,0.87663 6.14939,0.85721 8.86994,2.21748 1.68367,0.84184 4.03213,2.73797 5.63996,3.54189"
       id="path3159"
       sodipodi:nodetypes="cssssssssc"
       inkscape:connector-curvature="0" />
    <text
       xml:space="preserve"
       style="font-size:14px;font-style:normal;font-weight:normal;fill:#0000cb;fill-opacity:1;stroke:none;font-family:Bitstream Vera Sans"
       id="text3161"><textPath
         xlink:href="#path3185"
         id="textPath3187"><tspan
   style="font-size:10px;fill:#0000cb;fill-opacity:1;stroke:none"
   id="tspan3163">R í o   a z u l</tspan></textPath></text>
    <g
       id="g3001"
       transform="translate(-308.87746,191.80294)">
      <rect
         y="127.73531"
         x="385.86356"
         height="162.85715"
         width="277.14285"
         id="rect3165"
         style="fill:none;stroke:#000000;stroke-width:2;stroke-linecap:butt;stroke-miterlimit:4;stroke-opacity:1;stroke-dasharray:none;stroke-dashoffset:0" />
      <path
         sodipodi:nodetypes="csssssssssssssc"
         id="path3167"
         d="m 385.77825,242.40482 c 5.2384,-6.39145 28.46483,-10.6945 37.14286,-14.41365 11.6398,-4.98849 18.92001,2.84326 27.16418,11.08742 6.31073,6.31074 12.08393,1.66311 19.40298,1.66311 10.1852,0 16.98076,-1.72138 26.60981,-3.32622 1.10874,-0.18479 2.21748,-0.36958 3.32622,-0.55437 6.59818,-1.0997 13.78541,0.55437 20.51173,0.55437 7.5527,0 14.76277,2.77185 22.72921,2.77185 5.44908,0 10.78193,0.55437 16.07676,0.55437 6.28287,0 12.56574,0 18.84862,0 5.90935,0 12.50945,-2.21748 18.84861,-2.21748 5.76436,0 11.43238,6.02828 16.63113,7.76119 3.0205,1.00684 11.46299,-2.21748 15.52239,-2.21748 4.1479,0 7.61942,1.66311 12.19616,1.66311 0.92395,0 20.29299,1.94024 21.21695,1.94024"
         style="fill:none;stroke:#0000cb;stroke-width:1px;stroke-linecap:butt;stroke-linejoin:miter;stroke-opacity:1"
         inkscape:connector-curvature="0" />
      <path
         sodipodi:nodetypes="cssssssssc"
         id="path3169"
         d="m 387.34973,167.78586 c 0,3.53041 36.02697,16.66249 39.45197,17.51874 13.99605,3.49901 30.05489,15.64124 39.91472,25.50107 4.85128,4.85129 8.5205,3.98307 13.85927,6.65245 4.20112,2.10056 7.24361,5.00773 11.64179,7.20682 4.59315,2.29658 7.34698,1.76823 11.64179,4.98934 2.2714,1.70355 5.19641,2.32102 7.20683,3.32623 1.9122,0.9561 6.26274,0.0412 8.31556,0.55437 3.50652,0.87663 6.14939,0.85721 8.86994,2.21748 1.68367,0.84184 4.03213,2.64172 5.63996,3.44564"
         style="fill:none;stroke:#0000cb;stroke-width:1px;stroke-linecap:butt;stroke-linejoin:miter;stroke-opacity:1"
         inkscape:connector-curvature="0" />
      <text
         transform="translate(2,-2)"
         id="text3171"
         style="font-size:14px;font-style:normal;font-weight:normal;fill:#0000cb;fill-opacity:1;stroke:none;font-family:Bitstream Vera Sans"
         xml:space="preserve"><textPath
           id="textPath3181"
           xlink:href="#path3179"><tspan
   id="tspan3173"
   style="font-size:10px;fill:#0000cb;fill-opacity:1;stroke:none">R í o    a z u l</tspan></textPath></text>
      <path
         sodipodi:nodetypes="cssssssssc"
         id="path3179"
         d="m 500.40146,227.78112 c 3.70114,0.46376 2.90572,3.89933 12.0288,5.50789 2.09979,0.37023 5.5751,-0.51772 7.62553,0.0758 3.30718,0.95723 6.68542,2.4596 9.08135,3.65757 2.64529,1.32264 6.83415,2.99762 9.29277,3.02658 2.86021,0.0337 7.34349,0.38977 10.0785,0.28717 3.78691,-0.14206 3.38391,0.17149 5.55957,0.17149 3.51102,0 6.63914,0.28716 10.15016,0.28716 3.14143,0 5.32564,0.0957 8.46708,0.0957 1.8479,0 3.21718,-0.0957 5.06509,-0.0957"
         style="fill:none;stroke:none"
         inkscape:connector-curvature="0" />
    </g>
    <path
       style="fill:none;stroke:none"
       d="m 234.08964,247.96782 c 2.0479,-0.50923 7.34084,-0.11971 9.52914,-0.0963 2.85847,0.0306 5.98204,0.0116 8.47035,0.19252 0.17312,0.0126 2.52188,0.33496 6.83403,-0.0963 3.398,-0.3398 6.12136,0.5102 9.43289,0.0963 2.04331,-0.25542 3.85174,-1.0588 5.87149,-1.0588 1.82188,0 4.76351,-0.28846 6.44902,-0.77003 1.90776,-0.54508 4.23368,-0.38523 6.25651,-0.0962 1.78661,0.25523 2.73242,-0.37569 3.85015,-0.0963 0.15872,0.0397 0.32085,0.0642 0.48127,0.0963 2.0398,0.40796 5.02701,1.6022 7.02654,2.88762 1.5323,0.98504 3.09072,1.97311 4.42769,3.17638 0.0641,0.0577 0.45114,0.27068 0.48127,0.28876"
       id="path3185"
       sodipodi:nodetypes="csssssssssssc"
       inkscape:connector-curvature="0" />
    <text
       xml:space="preserve"
       style="font-size:14px;font-style:normal;font-weight:normal;fill:#000000;fill-opacity:1;stroke:none;font-family:Bitstream Vera Sans"
       x="49.365185"
       y="210.63667"
       id="text3240"><tspan
         sodipodi:role="line"
         x="49.365185"
         y="210.63667"
         style="font-size:20px"
         id="tspan3026">a)</tspan><tspan
         sodipodi:role="line"
         x="49.365185"
         y="235.63667"
         style="font-size:20px"
         id="tspan3074" /><tspan
         sodipodi:role="line"
         x="49.365185"
         y="260.63666"
         style="font-size:20px"
         id="tspan3076" /><tspan
         sodipodi:role="line"
         x="49.365185"
         y="285.63666"
         style="font-size:20px"
         id="tspan3078" /><tspan
         sodipodi:role="line"
         x="49.365185"
         y="310.63666"
         style="font-size:20px"
         id="tspan3080" /><tspan
         sodipodi:role="line"
         x="49.365185"
         y="335.63666"
         style="font-size:20px"
         id="tspan3082" /><tspan
         sodipodi:role="line"
         x="49.365185"
         y="360.63666"
         style="font-size:20px"
         id="tspan3030" /><tspan
         sodipodi:role="line"
         x="49.365185"
         y="385.63666"
         style="font-size:20px"
         id="tspan3046" /><tspan
         sodipodi:role="line"
         x="49.365185"
         y="410.63666"
         style="font-size:20px"
         id="tspan3056">b)</tspan></text>
  </g>
</svg>
