<?xml version="1.0" encoding="UTF-8" standalone="no"?>
<!-- Created with Inkscape (http://www.inkscape.org/) -->

<svg
   xmlns:dc="http://purl.org/dc/elements/1.1/"
   xmlns:cc="http://creativecommons.org/ns#"
   xmlns:rdf="http://www.w3.org/1999/02/22-rdf-syntax-ns#"
   xmlns:svg="http://www.w3.org/2000/svg"
   xmlns="http://www.w3.org/2000/svg"
   xmlns:sodipodi="http://sodipodi.sourceforge.net/DTD/sodipodi-0.dtd"
   xmlns:inkscape="http://www.inkscape.org/namespaces/inkscape"
   width="792.13159"
   height="346.85965"
   id="svg2"
   sodipodi:version="0.32"
   inkscape:version="0.48.4 r9939"
   sodipodi:docname="Juntar_capas.svg"
   inkscape:output_extension="org.inkscape.output.svg.inkscape"
   version="1.0">
  <defs
     id="defs4" />
  <sodipodi:namedview
     id="base"
     pagecolor="#ffffff"
     bordercolor="#666666"
     borderopacity="1.0"
     inkscape:pageopacity="0.0"
     inkscape:pageshadow="2"
     inkscape:zoom="1.5456424"
     inkscape:cx="317.69921"
     inkscape:cy="152.36317"
     inkscape:document-units="px"
     inkscape:current-layer="layer1"
     inkscape:window-width="1920"
     inkscape:window-height="1057"
     inkscape:window-x="-8"
     inkscape:window-y="-8"
     showgrid="false"
     inkscape:window-maximized="1" />
  <metadata
     id="metadata7">
    <rdf:RDF>
      <cc:Work
         rdf:about="">
        <dc:format>image/svg+xml</dc:format>
        <dc:type
           rdf:resource="http://purl.org/dc/dcmitype/StillImage" />
      </cc:Work>
    </rdf:RDF>
  </metadata>
  <g
     inkscape:label="Capa 1"
     inkscape:groupmode="layer"
     id="layer1"
     transform="translate(-113.90652,-47.038909)">
    <g
       id="g3241"
       transform="translate(176.58885,-220.50731)">
      <path
         id="path2167"
         d="M 218.55121,571.9541 C 218.72319,571.2843 218.80965,570.79533 218.98871,570.0791 C 219.24168,569.06722 219.63183,568.11298 220.14496,567.2041 C 220.65809,566.29522 221.27414,565.43595 221.95746,564.61035 C 223.3241,562.95915 224.9499,561.45299 226.45746,560.0166 C 227.96502,558.58021 229.37253,557.20841 230.30121,555.8291 C 230.76555,555.13945 231.0853,554.44031 231.26996,553.73535 C 231.45462,553.03039 231.4862,552.31908 231.30121,551.5791 C 230.72561,549.27668 230.1587,547.23846 229.45746,545.4541 C 228.75622,543.66974 227.91385,542.12653 226.86371,540.79785 C 226.33864,540.13351 225.76787,539.51622 225.11371,538.9541 C 224.45955,538.39198 223.73736,537.89054 222.92621,537.42285 C 221.30391,536.48748 219.34394,535.74603 216.92621,535.1416 C 215.3389,534.74477 213.3029,534.2743 211.01996,533.8291 C 208.73702,533.3839 206.21267,532.9418 203.58246,532.6416 C 200.95225,532.3414 198.21156,532.16593 195.58246,532.2041 C 192.95336,532.24227 190.4246,532.50919 188.14496,533.0791 C 186.55765,533.47593 184.52165,533.9464 182.23871,534.3916 C 179.95577,534.8368 177.43141,535.24765 174.80121,535.54785 C 172.17101,535.84805 169.46156,536.02352 166.83246,535.98535 C 164.20336,535.94718 161.64335,535.71151 159.36371,535.1416 C 157.81118,534.75346 155.60084,534.24914 153.14496,533.61035 C 150.68908,532.97156 148.00314,532.1765 145.42621,531.2041 C 144.13774,530.7179 142.87951,530.1955 141.70746,529.61035 C 140.53541,529.0252 139.44655,528.39858 138.48871,527.7041 C 137.53087,527.00962 136.69705,526.23702 136.05121,525.42285 C 135.40537,524.60868 134.94352,523.74208 134.70746,522.79785 C 134.24196,520.93586 133.93741,518.89397 133.64496,516.8291 C 129.28582,518.03066 104.07967,520.30342 101.80121,524.86035 C 97.064621,534.33353 92.587446,554.24645 93.582456,557.73535 C 96.532501,572.48554 95.741181,564.05278 99.769961,572.11035 C 103.33306,579.23654 114.93472,579.2013 112.08246,590.61035 C 111.19793,594.14849 107.20753,613.23534 116.20746,613.23535 C 129.38328,613.23535 142.81855,614.28569 155.26996,611.17285 C 160.72815,609.8083 184.01996,604.00322 184.01996,596.79785 C 184.01996,591.25763 180.75317,567.15839 184.01996,563.8916 C 189.46979,558.44178 203.56377,552.6229 212.80121,561.86035 C 214.10767,563.16681 216.24325,567.68482 218.55121,571.9541 z "
         style="fill:#0072bc;fill-opacity:1;fill-rule:evenodd;stroke:#000000;stroke-width:2;stroke-linecap:butt;stroke-linejoin:miter;stroke-miterlimit:4;stroke-dasharray:none;stroke-opacity:1" />
      <path
         id="path2160"
         d="M 290.48871,470.8291 C 287.10601,470.64023 282.02994,471.42285 274.45746,471.42285 C 260.402,471.42285 259.27651,481.67285 245.70746,481.67285 C 232.11477,481.67285 228.96735,480.50592 218.98871,475.5166 C 211.58894,471.81672 204.25897,471.42285 192.23871,471.42285 C 185.39566,471.42285 166.53246,469.39576 163.48871,473.4541 C 159.67423,478.54007 150.92451,484.58589 149.08246,491.9541 C 147.67784,497.5726 142.65182,512.66942 134.70746,516.6416 C 134.60187,516.6944 133.85438,516.77138 133.64496,516.8291 C 133.93741,518.89397 134.24196,520.93586 134.70746,522.79785 C 134.94352,523.74208 135.40537,524.60868 136.05121,525.42285 C 136.69705,526.23702 137.53087,527.00962 138.48871,527.7041 C 139.44655,528.39858 140.53541,529.0252 141.70746,529.61035 C 142.87951,530.1955 144.13774,530.7179 145.42621,531.2041 C 148.00314,532.1765 150.68908,532.97156 153.14496,533.61035 C 155.60084,534.24914 157.81118,534.75346 159.36371,535.1416 C 161.64335,535.71151 164.20336,535.94718 166.83246,535.98535 C 169.46156,536.02352 172.17101,535.84805 174.80121,535.54785 C 177.43141,535.24765 179.95577,534.8368 182.23871,534.3916 C 184.52165,533.9464 186.55765,533.47593 188.14496,533.0791 C 190.4246,532.50919 192.95336,532.24227 195.58246,532.2041 C 198.21156,532.16593 200.95225,532.3414 203.58246,532.6416 C 206.21267,532.9418 208.73702,533.3839 211.01996,533.8291 C 213.3029,534.2743 215.3389,534.74477 216.92621,535.1416 C 219.34394,535.74603 221.30391,536.48748 222.92621,537.42285 C 223.73736,537.89054 224.45955,538.39198 225.11371,538.9541 C 225.76787,539.51622 226.33864,540.13351 226.86371,540.79785 C 227.91385,542.12653 228.75622,543.66974 229.45746,545.4541 C 230.1587,547.23846 230.72561,549.27668 231.30121,551.5791 C 231.4862,552.31908 231.45462,553.03039 231.26996,553.73535 C 231.0853,554.44031 230.76555,555.13945 230.30121,555.8291 C 229.37253,557.20841 227.96502,558.58021 226.45746,560.0166 C 224.9499,561.45299 223.3241,562.95915 221.95746,564.61035 C 221.27414,565.43595 220.65809,566.29522 220.14496,567.2041 C 219.63183,568.11298 219.24168,569.06722 218.98871,570.0791 C 218.80965,570.79533 218.72319,571.2843 218.55121,571.9541 C 220.7448,576.01182 223.1027,579.84978 225.14496,580.36035 C 234.79,582.77161 251.44065,582.81466 258.01996,576.23535 C 266.06613,568.18918 272.33551,573.18694 282.67621,568.0166 C 290.54234,564.08354 300.05857,555.95689 295.01996,543.36035 C 288.24967,526.43462 283.65941,531.96857 270.36371,518.67285 C 265.44313,513.75226 257.77977,501.80321 272.42621,498.1416 C 278.13742,496.7138 297.08246,493.2 297.08246,487.86035 C 297.08246,474.13828 296.12654,471.14388 290.48871,470.8291 z "
         style="fill:#ff5555;fill-opacity:1;fill-rule:evenodd;stroke:#000000;stroke-width:2;stroke-linecap:butt;stroke-linejoin:miter;stroke-miterlimit:4;stroke-dasharray:none;stroke-opacity:1" />
    </g>
    <path
       style="fill:#0072bc;fill-opacity:1;fill-rule:evenodd;stroke:#000000;stroke-width:2;stroke-linecap:butt;stroke-linejoin:miter;stroke-miterlimit:4;stroke-dasharray:none;stroke-opacity:1"
       d="M 702.56935,103.68249 C 702.74133,103.01269 702.82779,102.52372 703.00685,101.80749 C 703.25982,100.79561 703.64997,99.841373 704.1631,98.932493 C 704.67623,98.023613 705.29228,97.164343 705.9756,96.338743 C 707.34224,94.687543 708.96804,93.181383 710.4756,91.744993 C 711.98316,90.308603 713.39067,88.936803 714.31935,87.557493 C 714.78369,86.867843 715.10344,86.168703 715.2881,85.463743 C 715.47276,84.758783 715.50434,84.047473 715.31935,83.307493 C 714.74375,81.005073 714.17684,78.966853 713.4756,77.182493 C 712.77436,75.398133 711.93199,73.854923 710.88185,72.526243 C 710.35678,71.861903 709.78601,71.244613 709.13185,70.682493 C 708.47769,70.120373 707.7555,69.618933 706.94435,69.151243 C 705.32205,68.215873 703.36208,67.474423 700.94435,66.869993 C 699.35704,66.473163 697.32104,66.002693 695.0381,65.557493 C 692.75516,65.112293 690.23081,64.670193 687.6006,64.369993 C 684.97039,64.069793 682.2297,63.894323 679.6006,63.932493 C 676.9715,63.970663 674.44274,64.237583 672.1631,64.807493 C 670.57579,65.204323 668.53979,65.674793 666.25685,66.119993 C 663.97391,66.565193 661.44955,66.976043 658.81935,67.276243 C 656.18915,67.576443 653.4797,67.751913 650.8506,67.713743 C 648.2215,67.675573 645.66149,67.439903 643.38186,66.869993 C 641.82933,66.481853 639.61899,65.977533 637.16311,65.338743 C 634.70723,64.699953 632.02129,63.904893 629.44436,62.932493 C 628.15589,62.446293 626.89766,61.923893 625.72561,61.338743 C 624.55356,60.753593 623.4647,60.126973 622.50686,59.432493 C 621.54902,58.738013 620.7152,57.965413 620.06936,57.151243 C 619.42352,56.337073 618.96167,55.470473 618.72561,54.526243 C 618.26011,52.664253 617.95556,50.622363 617.66311,48.557493 C 613.30397,49.759053 588.09782,52.031813 585.81936,56.588743 C 581.08276,66.061923 576.60558,85.974843 577.60059,89.463743 C 580.55064,104.21393 579.75932,95.781173 583.7881,103.83874 C 587.35121,110.96493 598.95287,110.92969 596.10061,122.33874 C 595.21608,125.87688 591.22568,144.96373 600.22561,144.96374 C 613.40143,144.96374 626.8367,146.01408 639.28811,142.90124 C 644.74629,141.53669 668.0381,135.73161 668.0381,128.52624 C 668.0381,122.98602 664.77131,98.886783 668.0381,95.619993 C 673.48793,90.170173 687.58191,84.351293 696.81935,93.588743 C 698.12581,94.895203 700.26139,99.413213 702.56935,103.68249 z "
       id="path2169" />
    <path
       style="fill:#ff5555;fill-opacity:1;fill-rule:evenodd;stroke:#000000;stroke-width:2;stroke-linecap:butt;stroke-linejoin:miter;stroke-miterlimit:4;stroke-dasharray:none;stroke-opacity:1"
       d="M 319.99315,48.068318 C 316.61045,47.879448 311.53438,48.662068 303.9619,48.662068 C 289.90644,48.662068 288.78095,58.912068 275.2119,58.912068 C 261.61921,58.912068 258.47179,57.745138 248.49315,52.755818 C 241.09338,49.055938 233.76341,48.662068 221.74315,48.662068 C 214.9001,48.662068 196.0369,46.634978 192.99315,50.693318 C 189.17867,55.779288 180.42895,61.825108 178.5869,69.193328 C 177.18228,74.811828 172.15626,89.908648 164.2119,93.880828 C 164.10631,93.933628 163.35882,94.010608 163.1494,94.068328 C 163.44185,96.133198 163.7464,98.175088 164.2119,100.03708 C 164.44796,100.98131 164.90981,101.84791 165.55565,102.66208 C 166.20149,103.47625 167.03531,104.24885 167.99315,104.94333 C 168.95099,105.63781 170.03985,106.26443 171.2119,106.84958 C 172.38395,107.43473 173.64218,107.95713 174.93065,108.44333 C 177.50758,109.41573 180.19352,110.21079 182.6494,110.84958 C 185.10528,111.48837 187.31562,111.99269 188.86815,112.38083 C 191.14779,112.95074 193.7078,113.18641 196.3369,113.22458 C 198.966,113.26275 201.67545,113.08728 204.30565,112.78708 C 206.93585,112.48688 209.46021,112.07603 211.74315,111.63083 C 214.02609,111.18563 216.06209,110.71516 217.6494,110.31833 C 219.92904,109.74842 222.4578,109.4815 225.0869,109.44333 C 227.716,109.40516 230.45669,109.58063 233.0869,109.88083 C 235.71711,110.18103 238.24146,110.62313 240.5244,111.06833 C 242.80734,111.51353 244.84334,111.984 246.43065,112.38083 C 248.84838,112.98526 250.80835,113.72671 252.43065,114.66208 C 253.2418,115.12977 253.96399,115.63121 254.61815,116.19333 C 255.27231,116.75545 255.84308,117.37274 256.36815,118.03708 C 257.41829,119.36576 258.26066,120.90897 258.9619,122.69333 C 259.66314,124.47769 260.23005,126.51591 260.80565,128.81833 C 260.99064,129.55831 260.95906,130.26962 260.7744,130.97458 C 260.58974,131.67954 260.26999,132.37868 259.80565,133.06833 C 258.87697,134.44764 257.46946,135.81944 255.9619,137.25583 C 254.45434,138.69222 252.82854,140.19838 251.4619,141.84958 C 250.77858,142.67518 250.16253,143.53445 249.6494,144.44333 C 249.13627,145.35221 248.74612,146.30645 248.49315,147.31833 C 248.31409,148.03456 248.22763,148.52353 248.05565,149.19333 C 250.24924,153.25105 252.60714,157.08901 254.6494,157.59958 C 264.29444,160.01084 280.94509,160.05389 287.5244,153.47458 C 295.57057,145.42841 301.83995,150.42617 312.18065,145.25583 C 320.04678,141.32277 329.56301,133.19612 324.5244,120.59958 C 317.75411,103.67385 313.16385,109.2078 299.86815,95.912078 C 294.94757,90.991488 287.28421,79.042438 301.93065,75.380828 C 307.64186,73.953028 326.5869,70.439228 326.5869,65.099568 C 326.5869,51.377498 325.63098,48.383098 319.99315,48.068318 z "
       id="path2171" />
    <rect
       style="opacity:0.26086958;fill:#64bf4d;fill-opacity:1;stroke:#000000;stroke-width:1.66654313;stroke-miterlimit:4;stroke-opacity:1;stroke-dasharray:none;stroke-dashoffset:0"
       id="rect3214"
       width="216.28868"
       height="19.393932"
       x="333.68854"
       y="81.898666" />
    <text
       xml:space="preserve"
       style="font-size:12px;font-style:normal;font-weight:normal;fill:#000000;fill-opacity:1;stroke:none;font-family:Bitstream Vera Sans"
       x="341.45319"
       y="97.475594"
       id="text3216"><tspan
         sodipodi:role="line"
         id="tspan3218"
         x="341.45319"
         y="97.475594"><tspan
           id="tspan3011"
           style="font-size:16px"> Nombre       Color        Área          </tspan></tspan></text>
    <text
       xml:space="preserve"
       style="font-size:12px;font-style:normal;font-weight:normal;fill:#000000;fill-opacity:1;stroke:none;font-family:Bitstream Vera Sans"
       x="342.02802"
       y="123.66954"
       id="text3220"><tspan
         sodipodi:role="line"
         id="tspan3222"
         x="342.02802"
         y="123.66954"><tspan
           id="tspan3013"
           style="font-size:16px">Polígono 1    Rojo         32,2 </tspan></tspan></text>
    <rect
       style="opacity:0.26086958;fill:#64bf4d;fill-opacity:1;stroke:#000000;stroke-width:1.40934122;stroke-miterlimit:4;stroke-opacity:1;stroke-dasharray:none;stroke-dashoffset:0"
       id="rect3224"
       width="152.65511"
       height="19.651134"
       x="743.50415"
       y="80.968285" />
    <text
       xml:space="preserve"
       style="font-size:12px;font-style:normal;font-weight:normal;fill:#000000;fill-opacity:1;stroke:none;font-family:Bitstream Vera Sans"
       x="751.39746"
       y="96.67382"
       id="text3226"><tspan
         sodipodi:role="line"
         id="tspan3228"
         x="751.39746"
         y="96.67382"><tspan
           style="font-size:16px"
           id="tspan3015">Nombre         Color</tspan></tspan></text>
    <text
       xml:space="preserve"
       style="font-size:12px;font-style:normal;font-weight:normal;fill:#000000;fill-opacity:1;stroke:none;font-family:Bitstream Vera Sans"
       x="751.97229"
       y="122.86776"
       id="text3230"><tspan
         sodipodi:role="line"
         id="tspan3232"
         x="751.97229"
         y="122.86776"><tspan
           style="font-size:16px"
           id="tspan3017">Polígono 2     Azul </tspan></tspan></text>
    <path
       style="fill:none;fill-rule:evenodd;stroke:#000000;stroke-width:1;stroke-linecap:butt;stroke-linejoin:miter;stroke-miterlimit:4;stroke-dasharray:1, 3;stroke-dashoffset:0;stroke-opacity:1"
       d="M 129.0105,210.59151 C 889.34901,210.59151 886.60411,210.59151 886.60411,210.59151"
       id="path3258" />
    <rect
       style="opacity:0.26086958;fill:#64bf4d;fill-opacity:1;stroke:#000000;stroke-width:1.75440288;stroke-miterlimit:4;stroke-opacity:1;stroke-dasharray:none;stroke-dashoffset:0"
       id="rect3262"
       width="240.78607"
       height="19.306074"
       x="557.93817"
       y="295.89972" />
    <text
       xml:space="preserve"
       style="font-size:12px;font-style:normal;font-weight:normal;fill:#000000;fill-opacity:1;stroke:none;font-family:Bitstream Vera Sans"
       x="565.65894"
       y="311.43271"
       id="text3264"><tspan
         sodipodi:role="line"
         id="tspan3266"
         x="565.65894"
         y="311.43271"><tspan
           id="tspan3019"
           style="font-size:16px">Nombre           Color          Área          </tspan></tspan></text>
    <text
       xml:space="preserve"
       style="font-size:12px;font-style:normal;font-weight:normal;fill:#000000;fill-opacity:1;stroke:none;font-family:Bitstream Vera Sans"
       x="566.23376"
       y="337.62668"
       id="text3268"><tspan
         sodipodi:role="line"
         id="tspan3270"
         x="566.23376"
         y="337.62668"><tspan
           id="tspan3021"
           style="font-size:16px">Polígono 1       Rojo          32,2 </tspan></tspan></text>
    <text
       xml:space="preserve"
       style="font-size:12px;font-style:normal;font-weight:normal;fill:#000000;fill-opacity:1;stroke:none;font-family:Bitstream Vera Sans"
       x="115.47293"
       y="109.94502"
       id="text3272"><tspan
         sodipodi:role="line"
         id="tspan3274"
         x="115.47293"
         y="109.94502"
         style="font-size:20px">a)</tspan></text>
    <text
       xml:space="preserve"
       style="font-size:12px;font-style:normal;font-weight:normal;fill:#000000;fill-opacity:1;stroke:none;font-family:Bitstream Vera Sans"
       x="115.12137"
       y="335.02719"
       id="text3276"><tspan
         sodipodi:role="line"
         id="tspan3278"
         x="115.12137"
         y="335.02719"
         style="font-size:20px">b)</tspan></text>
    <text
       xml:space="preserve"
       style="font-size:12px;font-style:normal;font-weight:normal;fill:#000000;fill-opacity:1;stroke:none;stroke-width:1px;stroke-linecap:butt;stroke-linejoin:miter;stroke-opacity:1;font-family:Bitstream Vera Sans"
       x="566.6803"
       y="360.04208"
       id="text3285"><tspan
         sodipodi:role="line"
         id="tspan3287"
         x="566.6803"
         y="360.04208"><tspan
           style="font-size:16px"
           id="tspan3023">Polígono 2       Azul          -------   </tspan></tspan></text>
  </g>
</svg>
