<?xml version="1.0" encoding="UTF-8" standalone="no"?>
<!-- Created with Inkscape (http://www.inkscape.org/) -->

<svg
   xmlns:dc="http://purl.org/dc/elements/1.1/"
   xmlns:cc="http://creativecommons.org/ns#"
   xmlns:rdf="http://www.w3.org/1999/02/22-rdf-syntax-ns#"
   xmlns:svg="http://www.w3.org/2000/svg"
   xmlns="http://www.w3.org/2000/svg"
   xmlns:sodipodi="http://sodipodi.sourceforge.net/DTD/sodipodi-0.dtd"
   xmlns:inkscape="http://www.inkscape.org/namespaces/inkscape"
   width="772.90851"
   height="319.14911"
   id="svg2"
   sodipodi:version="0.32"
   inkscape:version="0.48.4 r9939"
   sodipodi:docname="Union_vectorial.svg"
   inkscape:output_extension="org.inkscape.output.svg.inkscape"
   version="1.0">
  <defs
     id="defs4" />
  <sodipodi:namedview
     id="base"
     pagecolor="#ffffff"
     bordercolor="#666666"
     borderopacity="1.0"
     inkscape:pageopacity="0.0"
     inkscape:pageshadow="2"
     inkscape:zoom="1.1854091"
     inkscape:cx="379.48766"
     inkscape:cy="153.87718"
     inkscape:document-units="px"
     inkscape:current-layer="layer1"
     inkscape:window-width="1920"
     inkscape:window-height="1057"
     inkscape:window-x="-8"
     inkscape:window-y="-8"
     showgrid="false"
     fit-margin-top="0"
     fit-margin-left="0"
     fit-margin-right="0"
     fit-margin-bottom="0"
     inkscape:window-maximized="1" />
  <metadata
     id="metadata7">
    <rdf:RDF>
      <cc:Work
         rdf:about="">
        <dc:format>image/svg+xml</dc:format>
        <dc:type
           rdf:resource="http://purl.org/dc/dcmitype/StillImage" />
      </cc:Work>
    </rdf:RDF>
  </metadata>
  <g
     inkscape:label="Capa 1"
     inkscape:groupmode="layer"
     id="layer1"
     transform="translate(-122.19559,-64.973129)">
    <path
       sodipodi:type="arc"
       style="fill:#0000ff;fill-opacity:1;stroke:#211812;stroke-width:1;stroke-miterlimit:4;stroke-opacity:0.9888268;stroke-dasharray:none;stroke-dashoffset:0"
       id="path3341"
       sodipodi:cx="108.59868"
       sodipodi:cy="73.872375"
       sodipodi:rx="43.865349"
       sodipodi:ry="43.013596"
       d="m 152.46403,73.872375 c 0,23.755753 -19.63919,43.013595 -43.86535,43.013595 -24.226165,0 -43.86535,-19.257842 -43.86535,-43.013595 0,-23.755752 19.639185,-43.013595 43.86535,-43.013595 24.22616,0 43.86535,19.257843 43.86535,43.013595 z"
       transform="matrix(0.9015044,0,0,0.919356,304.23152,221.21776)" />
    <path
       style="fill:none;stroke:#000000;stroke-width:1;stroke-linecap:butt;stroke-linejoin:miter;stroke-miterlimit:4;stroke-opacity:1;stroke-dasharray:1, 3;stroke-dashoffset:0"
       d="m 137.0105,220.59151 c 760.33851,0 757.59361,0 757.59361,0"
       id="path3258"
       inkscape:connector-curvature="0" />
    <rect
       style="opacity:0.26086958;fill:#64bf4d;fill-opacity:1;stroke:#000000;stroke-width:1.41316009;stroke-miterlimit:4;stroke-opacity:1;stroke-dasharray:none;stroke-dashoffset:0"
       id="rect3262"
       width="170.34119"
       height="17.706375"
       x="537.76758"
       y="253.67004" />
    <text
       xml:space="preserve"
       style="font-size:12px;font-style:normal;font-weight:normal;fill:#000000;fill-opacity:1;stroke:none;font-family:Bitstream Vera Sans"
       x="529.65894"
       y="267.43271"
       id="text3264"><tspan
         sodipodi:role="line"
         id="tspan3266"
         x="529.65894"
         y="267.43271"><tspan
           style="font-size:16px"
           id="tspan3029">      ID (a)          ID (b)      </tspan></tspan></text>
    <text
       xml:space="preserve"
       style="font-size:12px;font-style:normal;font-weight:normal;fill:#000000;fill-opacity:1;stroke:none;font-family:Bitstream Vera Sans"
       x="567.13129"
       y="294.47028"
       id="text3268"><tspan
         sodipodi:role="line"
         id="tspan3270"
         x="567.13129"
         y="294.47028"
         style="font-size:16px">1                  1</tspan><tspan
         sodipodi:role="line"
         x="567.13129"
         y="314.47028"
         id="tspan3343"
         style="font-size:16px">1</tspan><tspan
         sodipodi:role="line"
         x="567.13129"
         y="334.47028"
         id="tspan3345"
         style="font-size:16px">                    1</tspan><tspan
         sodipodi:role="line"
         x="567.13129"
         y="354.47028"
         id="tspan3361"
         style="font-size:16px">2                              </tspan></text>
    <text
       xml:space="preserve"
       style="font-size:12px;font-style:normal;font-weight:normal;fill:#000000;fill-opacity:1;stroke:none;font-family:Bitstream Vera Sans"
       x="121.47293"
       y="109.94502"
       id="text3272"><tspan
         sodipodi:role="line"
         id="tspan3274"
         x="121.47293"
         y="109.94502"
         style="font-size:20px">a)</tspan></text>
    <text
       xml:space="preserve"
       style="font-size:12px;font-style:normal;font-weight:normal;fill:#000000;fill-opacity:1;stroke:none;font-family:Bitstream Vera Sans"
       x="121.12137"
       y="335.02719"
       id="text3276"><tspan
         sodipodi:role="line"
         id="tspan3278"
         x="121.12137"
         y="335.02719"
         style="font-size:20px">b)</tspan></text>
    <rect
       style="opacity:0.26086958;fill:#64bf4d;fill-opacity:1;stroke:#000000;stroke-width:1.09278476;stroke-miterlimit:4;stroke-opacity:1;stroke-dasharray:none;stroke-dashoffset:0"
       id="rect3214"
       width="100.0503"
       height="18.026751"
       x="377.99463"
       y="66.710266" />
    <text
       xml:space="preserve"
       style="font-size:12px;font-style:normal;font-weight:normal;fill:#000000;fill-opacity:1;stroke:none;font-family:Bitstream Vera Sans"
       x="364.04617"
       y="80.633133"
       id="text3216"><tspan
         sodipodi:role="line"
         id="tspan3218"
         x="364.04617"
         y="80.633133"><tspan
           style="font-size:16px"
           id="tspan3019">           ID (a)                 </tspan></tspan></text>
    <text
       xml:space="preserve"
       style="font-size:12px;font-style:normal;font-weight:normal;fill:#000000;fill-opacity:1;stroke:none;font-family:Bitstream Vera Sans"
       x="376.5065"
       y="106.82708"
       id="text3220"><tspan
         sodipodi:role="line"
         id="tspan3222"
         x="376.5065"
         y="106.82708"><tspan
           style="font-size:16px"
           id="tspan3021">           1            </tspan></tspan></text>
    <text
       id="text7969"
       y="126.81746"
       x="376.5065"
       style="font-size:12px;font-style:normal;font-weight:normal;fill:#000000;fill-opacity:1;stroke:none;font-family:Bitstream Vera Sans"
       xml:space="preserve"><tspan
         y="126.81746"
         x="376.5065"
         id="tspan7971"
         sodipodi:role="line"><tspan
           style="font-size:16px"
           id="tspan3023">           2            </tspan></tspan></text>
    <rect
       style="opacity:0.26086958;fill:#64bf4d;fill-opacity:1;stroke:#000000;stroke-width:1.09278476;stroke-miterlimit:4;stroke-opacity:1;stroke-dasharray:none;stroke-dashoffset:0"
       id="rect2317"
       width="100.0503"
       height="18.026751"
       x="760.62775"
       y="66.710266" />
    <text
       xml:space="preserve"
       style="font-size:12px;font-style:normal;font-weight:normal;fill:#000000;fill-opacity:1;stroke:none;font-family:Bitstream Vera Sans"
       x="758.67932"
       y="80.633133"
       id="text2319"><tspan
         sodipodi:role="line"
         id="tspan2321"
         x="758.67932"
         y="80.633133"><tspan
           style="font-size:16px"
           id="tspan3025">        ID (b)              </tspan></tspan></text>
    <text
       xml:space="preserve"
       style="font-size:12px;font-style:normal;font-weight:normal;fill:#000000;fill-opacity:1;stroke:none;font-family:Bitstream Vera Sans"
       x="759.13965"
       y="106.82709"
       id="text2323"><tspan
         sodipodi:role="line"
         id="tspan2325"
         x="759.13965"
         y="106.82709"><tspan
           style="font-size:16px"
           id="tspan3027">           1            </tspan></tspan></text>
    <text
       id="text2327"
       y="126.81747"
       x="769.13965"
       style="font-size:12px;font-style:normal;font-weight:normal;fill:#000000;fill-opacity:1;stroke:none;font-family:Bitstream Vera Sans"
       xml:space="preserve"><tspan
         y="126.81747"
         x="769.13965"
         id="tspan2329"
         sodipodi:role="line">                       </tspan></text>
    <path
       sodipodi:type="arc"
       style="fill:#ffff00;fill-opacity:1;stroke:#211812;stroke-width:1;stroke-miterlimit:4;stroke-opacity:0.9888268;stroke-dasharray:none;stroke-dashoffset:0"
       id="path2349"
       sodipodi:cx="108.59868"
       sodipodi:cy="73.872375"
       sodipodi:rx="43.865349"
       sodipodi:ry="43.013596"
       d="m 152.46403,73.872375 c 0,23.755753 -19.63919,43.013595 -43.86535,43.013595 -24.226165,0 -43.86535,-19.257842 -43.86535,-43.013595 0,-23.755752 19.639185,-43.013595 43.86535,-43.013595 24.22616,0 43.86535,19.257843 43.86535,43.013595 z"
       transform="matrix(0.9916549,0,0,1.0112916,108.44744,45.718373)" />
    <path
       sodipodi:type="arc"
       style="fill:#ffff00;fill-opacity:1;stroke:#211812;stroke-width:1;stroke-miterlimit:4;stroke-opacity:0.9888268;stroke-dasharray:none;stroke-dashoffset:0"
       id="path2351"
       sodipodi:cx="186.53421"
       sodipodi:cy="121.57062"
       sodipodi:rx="20.442104"
       sodipodi:ry="19.164473"
       d="m 206.97631,121.57062 c 0,10.58424 -9.15224,19.16447 -20.4421,19.16447 -11.28986,0 -20.4421,-8.58023 -20.4421,-19.16447 0,-10.58425 9.15224,-19.16447 20.4421,-19.16447 11.28986,0 20.4421,8.58022 20.4421,19.16447 z"
       transform="matrix(0.9542667,0,0,1.0178845,126.30929,55.601964)" />
    <path
       sodipodi:type="arc"
       style="fill:#0000ff;fill-opacity:1;stroke:#211812;stroke-width:1;stroke-miterlimit:4;stroke-opacity:0.9888268;stroke-dasharray:none;stroke-dashoffset:0"
       id="path2353"
       sodipodi:cx="108.59868"
       sodipodi:cy="73.872375"
       sodipodi:rx="43.865349"
       sodipodi:ry="43.013596"
       d="m 152.46403,73.872375 c 0,23.755753 -19.63919,43.013595 -43.86535,43.013595 -24.226165,0 -43.86535,-19.257842 -43.86535,-43.013595 0,-23.755752 19.639185,-43.013595 43.86535,-43.013595 24.22616,0 43.86535,19.257843 43.86535,43.013595 z"
       transform="matrix(0.9015044,0,0,0.919356,536.65257,39.8318)" />
    <rect
       style="fill:none;stroke:#211812;stroke-width:2;stroke-miterlimit:4;stroke-opacity:0.9888268;stroke-dasharray:none;stroke-dashoffset:0"
       id="rect2355"
       width="172.90614"
       height="136.2807"
       x="162.45651"
       y="66.824883" />
    <rect
       style="fill:none;stroke:#211812;stroke-width:2;stroke-miterlimit:4;stroke-opacity:0.9888268;stroke-dasharray:none;stroke-dashoffset:0"
       id="rect3326"
       width="172.90614"
       height="136.2807"
       x="548.10168"
       y="65.973129" />
    <path
       style="fill:#ffff00;fill-opacity:1;stroke:#211812;stroke-width:1.00142515;stroke-miterlimit:4;stroke-opacity:0.9888268;stroke-dasharray:none;stroke-dashoffset:0"
       d="m 378.18777,257.97641 c -2.98174,-0.64664 -6.04429,-1.03125 -9.21875,-1.03125 -24.01161,0 -43.5,19.48839 -43.5,43.5 0,24.01161 19.4884,43.50001 43.5,43.5 12.97992,0 24.49644,-5.81829 32.46875,-14.84375 -2.61673,-0.0208 -5.18365,-0.27486 -7.65625,-0.78125 -2.5735,-0.52706 -5.07223,-1.31152 -7.4375,-2.3125 -2.36527,-1.00098 -4.61484,-2.20324 -6.71875,-3.625 -2.10391,-1.42176 -4.05435,-3.05435 -5.84375,-4.84375 -1.7894,-1.7894 -3.42199,-3.73984 -4.84375,-5.84375 -1.42176,-2.10391 -2.62402,-4.35348 -3.625,-6.71875 -1.00098,-2.36527 -1.78544,-4.864 -2.3125,-7.4375 -0.52706,-2.5735 -0.8125,-5.24016 -0.8125,-7.96875 0,-2.72859 0.28544,-5.39525 0.8125,-7.96875 0.52706,-2.5735 1.31152,-5.04098 2.3125,-7.40625 1.00098,-2.36527 2.20324,-4.61484 3.625,-6.71875 1.42176,-2.10391 3.05435,-4.05435 4.84375,-5.84375 1.34983,-1.34983 2.87374,-2.51191 4.40625,-3.65625 z"
       id="path3339"
       inkscape:connector-curvature="0" />
    <path
       style="fill:#008000;fill-opacity:1;stroke:#211812;stroke-width:1.00142515;stroke-miterlimit:4;stroke-opacity:0.9888268;stroke-dasharray:none;stroke-dashoffset:0"
       d="m 378.18777,257.97641 c -1.53251,1.14434 -3.05642,2.30642 -4.40625,3.65625 -1.7894,1.7894 -3.42199,3.73984 -4.84375,5.84375 -1.42176,2.10391 -2.62402,4.35348 -3.625,6.71875 -1.00098,2.36527 -1.78544,4.83275 -2.3125,7.40625 -0.52706,2.5735 -0.8125,5.24016 -0.8125,7.96875 0,2.72859 0.28544,5.39525 0.8125,7.96875 0.52706,2.5735 1.31152,5.07223 2.3125,7.4375 1.00098,2.36527 2.20324,4.61484 3.625,6.71875 1.42176,2.10391 3.05435,4.05435 4.84375,5.84375 1.7894,1.7894 3.73984,3.42199 5.84375,4.84375 2.10391,1.42176 4.35348,2.62402 6.71875,3.625 2.36527,1.00098 4.864,1.78544 7.4375,2.3125 2.4726,0.50639 5.03952,0.76044 7.65625,0.78125 6.77569,-7.67077 11.03125,-17.62456 11.03125,-28.65625 0,-20.83715 -14.7091,-38.22419 -34.28125,-42.46875 z"
       id="path3330"
       inkscape:connector-curvature="0" />
    <path
       sodipodi:type="arc"
       style="fill:#ffff00;fill-opacity:1;stroke:#211812;stroke-width:1;stroke-miterlimit:4;stroke-opacity:0.9888268;stroke-dasharray:none;stroke-dashoffset:0"
       id="path3332"
       sodipodi:cx="186.53421"
       sodipodi:cy="121.57062"
       sodipodi:rx="20.442104"
       sodipodi:ry="19.164473"
       d="m 206.97631,121.57062 c 0,10.58424 -9.15224,19.16447 -20.4421,19.16447 -11.28986,0 -20.4421,-8.58023 -20.4421,-19.16447 0,-10.58425 9.15224,-19.16447 20.4421,-19.16447 11.28986,0 20.4421,8.58022 20.4421,19.16447 z"
       transform="matrix(0.9542667,0,0,1.0178845,279.13956,235.61862)" />
    <rect
       style="fill:none;stroke:#211812;stroke-width:2;stroke-miterlimit:4;stroke-opacity:0.9888268;stroke-dasharray:none;stroke-dashoffset:0"
       id="rect3334"
       width="172.90614"
       height="136.2807"
       x="315.28677"
       y="246.84154" />
  </g>
</svg>
