<?xml version="1.0" encoding="UTF-8" standalone="no"?>
<!-- Created with Inkscape (http://www.inkscape.org/) -->

<svg
   xmlns:dc="http://purl.org/dc/elements/1.1/"
   xmlns:cc="http://creativecommons.org/ns#"
   xmlns:rdf="http://www.w3.org/1999/02/22-rdf-syntax-ns#"
   xmlns:svg="http://www.w3.org/2000/svg"
   xmlns="http://www.w3.org/2000/svg"
   xmlns:sodipodi="http://sodipodi.sourceforge.net/DTD/sodipodi-0.dtd"
   xmlns:inkscape="http://www.inkscape.org/namespaces/inkscape"
   width="744.44641"
   height="376.18484"
   id="svg2"
   sodipodi:version="0.32"
   inkscape:version="0.48.4 r9939"
   version="1.0"
   sodipodi:docname="Simplificacion_triangulacion.svg"
   inkscape:output_extension="org.inkscape.output.svg.inkscape">
  <defs
     id="defs4" />
  <sodipodi:namedview
     id="base"
     pagecolor="#ffffff"
     bordercolor="#666666"
     borderopacity="1.0"
     inkscape:pageopacity="0.0"
     inkscape:pageshadow="2"
     inkscape:zoom="0.982704"
     inkscape:cx="434.26856"
     inkscape:cy="215.52636"
     inkscape:document-units="px"
     inkscape:current-layer="layer1"
     inkscape:window-width="1920"
     inkscape:window-height="1057"
     inkscape:window-x="-8"
     inkscape:window-y="-8"
     showgrid="false"
     fit-margin-top="0"
     fit-margin-left="0"
     fit-margin-right="0"
     fit-margin-bottom="0"
     inkscape:window-maximized="1" />
  <metadata
     id="metadata7">
    <rdf:RDF>
      <cc:Work
         rdf:about="">
        <dc:format>image/svg+xml</dc:format>
        <dc:type
           rdf:resource="http://purl.org/dc/dcmitype/StillImage" />
      </cc:Work>
    </rdf:RDF>
  </metadata>
  <g
     inkscape:label="Capa 1"
     inkscape:groupmode="layer"
     id="layer1"
     transform="translate(101.11606,-155.52067)">
    <path
       style="fill:none;stroke:#000000;stroke-width:1px;stroke-linecap:butt;stroke-linejoin:miter;stroke-opacity:1"
       d="M 49.50446,166.7037 -88.776787,253.62335 -82.191966,389.27067 44.23661,466.97156 202.27232,411.65906 187.78571,232.55192 49.50446,166.7037 z"
       id="path3153"
       inkscape:connector-curvature="0" />
    <path
       style="fill:none;stroke:#000000;stroke-width:1px;stroke-linecap:butt;stroke-linejoin:miter;stroke-opacity:1"
       d="m 49.50446,168.02067 6.58482,148.81696 131.69643,-85.60268"
       id="path3157"
       inkscape:connector-curvature="0" />
    <path
       style="fill:none;stroke:#000000;stroke-width:1px;stroke-linecap:butt;stroke-linejoin:miter;stroke-opacity:1"
       d="m 54.77232,316.83763 146.18304,94.82143"
       id="path3159"
       inkscape:connector-curvature="0" />
    <path
       style="fill:none;stroke:#000000;stroke-width:1px;stroke-linecap:butt;stroke-linejoin:miter;stroke-opacity:1"
       d="m 42.91964,464.33763 11.85268,-147.5"
       id="path3161"
       inkscape:connector-curvature="0" />
    <path
       style="fill:none;stroke:#000000;stroke-width:1px;stroke-linecap:butt;stroke-linejoin:miter;stroke-opacity:1"
       d="M -82.191966,387.9537 54.77232,316.83763"
       id="path3163"
       inkscape:connector-curvature="0" />
    <path
       style="fill:none;stroke:#000000;stroke-width:1px;stroke-linecap:butt;stroke-linejoin:miter;stroke-opacity:1"
       d="M -90.093751,253.62335 53.45536,316.83763"
       id="path3167"
       inkscape:connector-curvature="0" />
    <path
       sodipodi:type="arc"
       style="fill:#5282e9;fill-opacity:1;stroke:#000000;stroke-width:2;stroke-miterlimit:4;stroke-opacity:1;stroke-dasharray:none;stroke-dashoffset:0"
       id="path2160"
       sodipodi:cx="75.714287"
       sodipodi:cy="218.07646"
       sodipodi:rx="18.571428"
       sodipodi:ry="17.142857"
       d="m 94.285715,218.07646 c 0,9.46774 -8.314712,17.14286 -18.571428,17.14286 -10.256717,0 -18.571428,-7.67512 -18.571428,-17.14286 0,-9.46774 8.314711,-17.14285 18.571428,-17.14285 10.256716,0 18.571428,7.67511 18.571428,17.14285 z"
       transform="matrix(0.6373564,0,0,0.6904694,-136.87305,103.26695)" />
    <path
       sodipodi:type="arc"
       style="fill:#5282e9;fill-opacity:1;stroke:#000000;stroke-width:2;stroke-miterlimit:4;stroke-opacity:1;stroke-dasharray:none;stroke-dashoffset:0"
       id="path3143"
       sodipodi:cx="75.714287"
       sodipodi:cy="218.07646"
       sodipodi:rx="18.571428"
       sodipodi:ry="17.142857"
       d="m 94.285715,218.07646 c 0,9.46774 -8.314712,17.14286 -18.571428,17.14286 -10.256717,0 -18.571428,-7.67512 -18.571428,-17.14286 0,-9.46774 8.314711,-17.14285 18.571428,-17.14285 10.256716,0 18.571428,7.67511 18.571428,17.14285 z"
       transform="matrix(0.6373564,0,0,0.6904694,1.24748,17.445545)" />
    <path
       sodipodi:type="arc"
       style="fill:#5282e9;fill-opacity:1;stroke:#000000;stroke-width:2;stroke-miterlimit:4;stroke-opacity:1;stroke-dasharray:none;stroke-dashoffset:0"
       id="path3145"
       sodipodi:cx="75.714287"
       sodipodi:cy="218.07646"
       sodipodi:rx="18.571428"
       sodipodi:ry="17.142857"
       d="m 94.285715,218.07646 c 0,9.46774 -8.314712,17.14286 -18.571428,17.14286 -10.256717,0 -18.571428,-7.67512 -18.571428,-17.14286 0,-9.46774 8.314711,-17.14285 18.571428,-17.14285 10.256716,0 18.571428,7.67511 18.571428,17.14285 z"
       transform="matrix(0.6373564,0,0,0.6904694,139.52873,83.293762)" />
    <path
       sodipodi:type="arc"
       style="fill:#5282e9;fill-opacity:1;stroke:#000000;stroke-width:2;stroke-miterlimit:4;stroke-opacity:1;stroke-dasharray:none;stroke-dashoffset:0"
       id="path3147"
       sodipodi:cx="75.714287"
       sodipodi:cy="218.07646"
       sodipodi:rx="18.571428"
       sodipodi:ry="17.142857"
       d="m 94.285715,218.07646 c 0,9.46774 -8.314712,17.14286 -18.571428,17.14286 -10.256717,0 -18.571428,-7.67512 -18.571428,-17.14286 0,-9.46774 8.314711,-17.14285 18.571428,-17.14285 10.256716,0 18.571428,7.67511 18.571428,17.14285 z"
       transform="matrix(0.6373564,0,0,0.6904694,-130.44895,238.69554)" />
    <path
       sodipodi:type="arc"
       style="fill:#5282e9;fill-opacity:1;stroke:#000000;stroke-width:2;stroke-miterlimit:4;stroke-opacity:1;stroke-dasharray:none;stroke-dashoffset:0"
       id="path3149"
       sodipodi:cx="75.714287"
       sodipodi:cy="218.07646"
       sodipodi:rx="18.571428"
       sodipodi:ry="17.142857"
       d="m 94.285715,218.07646 c 0,9.46774 -8.314712,17.14286 -18.571428,17.14286 -10.256717,0 -18.571428,-7.67512 -18.571428,-17.14286 0,-9.46774 8.314711,-17.14285 18.571428,-17.14285 10.256716,0 18.571428,7.67511 18.571428,17.14285 z"
       transform="matrix(0.6373564,0,0,0.6904694,-4.02039,313.7625)" />
    <path
       sodipodi:type="arc"
       style="fill:#5282e9;fill-opacity:1;stroke:#000000;stroke-width:2;stroke-miterlimit:4;stroke-opacity:1;stroke-dasharray:none;stroke-dashoffset:0"
       id="path3151"
       sodipodi:cx="75.714287"
       sodipodi:cy="218.07646"
       sodipodi:rx="18.571428"
       sodipodi:ry="17.142857"
       d="m 94.285715,218.07646 c 0,9.46774 -8.314712,17.14286 -18.571428,17.14286 -10.256717,0 -18.571428,-7.67512 -18.571428,-17.14286 0,-9.46774 8.314711,-17.14285 18.571428,-17.14285 10.256716,0 18.571428,7.67511 18.571428,17.14285 z"
       transform="matrix(0.6373564,0,0,0.6904694,152.69837,262.4009)" />
    <path
       sodipodi:type="arc"
       style="fill:#d40000;fill-opacity:1;stroke:#000000;stroke-width:2;stroke-miterlimit:4;stroke-opacity:1;stroke-dasharray:none;stroke-dashoffset:0"
       id="path3155"
       sodipodi:cx="75.714287"
       sodipodi:cy="218.07646"
       sodipodi:rx="18.571428"
       sodipodi:ry="17.142857"
       d="m 94.285715,218.07646 c 0,9.46774 -8.314712,17.14286 -18.571428,17.14286 -10.256717,0 -18.571428,-7.67512 -18.571428,-17.14286 0,-9.46774 8.314711,-17.14285 18.571428,-17.14285 10.256716,0 18.571428,7.67511 18.571428,17.14285 z"
       transform="matrix(0.6373564,0,0,0.6904694,7.8323,167.57947)" />
    <path
       style="fill:#5282e9;fill-opacity:1;fill-rule:evenodd;stroke:#000000;stroke-width:1px;stroke-linecap:butt;stroke-linejoin:miter;stroke-opacity:1"
       d="m -90.093751,252.30638 c 0.438988,0 0.877976,0 0,0 z"
       id="path3165"
       inkscape:connector-curvature="0" />
    <g
       id="g3249"
       transform="translate(-154,0)">
      <path
         id="path3229"
         d="M 495.17857,251.6479 626.875,463.67915 633.45982,166.04522"
         style="fill:none;stroke:#000000;stroke-width:1px;stroke-linecap:butt;stroke-linejoin:miter;stroke-opacity:1"
         inkscape:connector-curvature="0" />
      <path
         id="path3231"
         d="M 626.875,462.36218 773.05804,231.89343"
         style="fill:none;stroke:#000000;stroke-width:1px;stroke-linecap:butt;stroke-linejoin:miter;stroke-opacity:1"
         inkscape:connector-curvature="0" />
      <path
         id="path3183"
         d="m 633.37945,166.70371 -138.28124,86.91965 6.58482,135.64732 126.42857,77.70089 158.03571,-55.3125 L 771.6607,232.55193 633.37945,166.70371 z"
         style="fill:none;stroke:#000000;stroke-width:1px;stroke-linecap:butt;stroke-linejoin:miter;stroke-opacity:1"
         inkscape:connector-curvature="0" />
      <path
         transform="matrix(0.6373564,0,0,0.6904694,447.00194,103.26695)"
         d="m 94.285715,218.07646 c 0,9.46774 -8.314712,17.14286 -18.571428,17.14286 -10.256717,0 -18.571428,-7.67512 -18.571428,-17.14286 0,-9.46774 8.314711,-17.14285 18.571428,-17.14285 10.256716,0 18.571428,7.67511 18.571428,17.14285 z"
         sodipodi:ry="17.142857"
         sodipodi:rx="18.571428"
         sodipodi:cy="218.07646"
         sodipodi:cx="75.714287"
         id="path3197"
         style="fill:#5282e9;fill-opacity:1;stroke:#000000;stroke-width:2;stroke-miterlimit:4;stroke-opacity:1;stroke-dasharray:none;stroke-dashoffset:0"
         sodipodi:type="arc" />
      <path
         transform="matrix(0.6373564,0,0,0.6904694,585.12247,17.445545)"
         d="m 94.285715,218.07646 c 0,9.46774 -8.314712,17.14286 -18.571428,17.14286 -10.256717,0 -18.571428,-7.67512 -18.571428,-17.14286 0,-9.46774 8.314711,-17.14285 18.571428,-17.14285 10.256716,0 18.571428,7.67511 18.571428,17.14285 z"
         sodipodi:ry="17.142857"
         sodipodi:rx="18.571428"
         sodipodi:cy="218.07646"
         sodipodi:cx="75.714287"
         id="path3199"
         style="fill:#5282e9;fill-opacity:1;stroke:#000000;stroke-width:2;stroke-miterlimit:4;stroke-opacity:1;stroke-dasharray:none;stroke-dashoffset:0"
         sodipodi:type="arc" />
      <path
         transform="matrix(0.6373564,0,0,0.6904694,723.40372,83.293762)"
         d="m 94.285715,218.07646 c 0,9.46774 -8.314712,17.14286 -18.571428,17.14286 -10.256717,0 -18.571428,-7.67512 -18.571428,-17.14286 0,-9.46774 8.314711,-17.14285 18.571428,-17.14285 10.256716,0 18.571428,7.67511 18.571428,17.14285 z"
         sodipodi:ry="17.142857"
         sodipodi:rx="18.571428"
         sodipodi:cy="218.07646"
         sodipodi:cx="75.714287"
         id="path3201"
         style="fill:#5282e9;fill-opacity:1;stroke:#000000;stroke-width:2;stroke-miterlimit:4;stroke-opacity:1;stroke-dasharray:none;stroke-dashoffset:0"
         sodipodi:type="arc" />
      <path
         transform="matrix(0.6373564,0,0,0.6904694,453.42604,238.69554)"
         d="m 94.285715,218.07646 c 0,9.46774 -8.314712,17.14286 -18.571428,17.14286 -10.256717,0 -18.571428,-7.67512 -18.571428,-17.14286 0,-9.46774 8.314711,-17.14285 18.571428,-17.14285 10.256716,0 18.571428,7.67511 18.571428,17.14285 z"
         sodipodi:ry="17.142857"
         sodipodi:rx="18.571428"
         sodipodi:cy="218.07646"
         sodipodi:cx="75.714287"
         id="path3203"
         style="fill:#5282e9;fill-opacity:1;stroke:#000000;stroke-width:2;stroke-miterlimit:4;stroke-opacity:1;stroke-dasharray:none;stroke-dashoffset:0"
         sodipodi:type="arc" />
      <path
         transform="matrix(0.6373564,0,0,0.6904694,579.8546,313.7625)"
         d="m 94.285715,218.07646 c 0,9.46774 -8.314712,17.14286 -18.571428,17.14286 -10.256717,0 -18.571428,-7.67512 -18.571428,-17.14286 0,-9.46774 8.314711,-17.14285 18.571428,-17.14285 10.256716,0 18.571428,7.67511 18.571428,17.14285 z"
         sodipodi:ry="17.142857"
         sodipodi:rx="18.571428"
         sodipodi:cy="218.07646"
         sodipodi:cx="75.714287"
         id="path3205"
         style="fill:#5282e9;fill-opacity:1;stroke:#000000;stroke-width:2;stroke-miterlimit:4;stroke-opacity:1;stroke-dasharray:none;stroke-dashoffset:0"
         sodipodi:type="arc" />
      <path
         transform="matrix(0.6373564,0,0,0.6904694,736.57336,262.4009)"
         d="m 94.285715,218.07646 c 0,9.46774 -8.314712,17.14286 -18.571428,17.14286 -10.256717,0 -18.571428,-7.67512 -18.571428,-17.14286 0,-9.46774 8.314711,-17.14285 18.571428,-17.14285 10.256716,0 18.571428,7.67511 18.571428,17.14285 z"
         sodipodi:ry="17.142857"
         sodipodi:rx="18.571428"
         sodipodi:cy="218.07646"
         sodipodi:cx="75.714287"
         id="path3207"
         style="fill:#5282e9;fill-opacity:1;stroke:#000000;stroke-width:2;stroke-miterlimit:4;stroke-opacity:1;stroke-dasharray:none;stroke-dashoffset:0"
         sodipodi:type="arc" />
      <path
         id="path3211"
         d="m 493.78124,252.30638 c 0.43899,0 0.87798,0 0,0 z"
         style="fill:#5282e9;fill-opacity:1;fill-rule:evenodd;stroke:#000000;stroke-width:1px;stroke-linecap:butt;stroke-linejoin:miter;stroke-opacity:1"
         inkscape:connector-curvature="0" />
    </g>
    <text
       xml:space="preserve"
       style="font-size:40px;font-style:normal;font-weight:normal;fill:#000000;fill-opacity:1;stroke:none;font-family:Bitstream Vera Sans"
       x="30.0266"
       y="524.12933"
       id="text3261"><tspan
         sodipodi:role="line"
         id="tspan3263"
         x="30.0266"
         y="524.12933"
         style="font-size:36px">a)                                        b)</tspan></text>
  </g>
</svg>
