<?xml version="1.0" encoding="UTF-8" standalone="no"?>
<!-- Created with Inkscape (http://www.inkscape.org/) -->

<svg
   xmlns:dc="http://purl.org/dc/elements/1.1/"
   xmlns:cc="http://creativecommons.org/ns#"
   xmlns:rdf="http://www.w3.org/1999/02/22-rdf-syntax-ns#"
   xmlns:svg="http://www.w3.org/2000/svg"
   xmlns="http://www.w3.org/2000/svg"
   xmlns:xlink="http://www.w3.org/1999/xlink"
   xmlns:sodipodi="http://sodipodi.sourceforge.net/DTD/sodipodi-0.dtd"
   xmlns:inkscape="http://www.inkscape.org/namespaces/inkscape"
   width="429.0939"
   height="263.21585"
   id="svg4247"
   version="1.1"
   inkscape:version="0.48.4 r9939"
   sodipodi:docname="Proyeccion_conica_cilindrica.svg"
   inkscape:export-filename="/home/miguel/Dropbox/Curso Intro GIS libre - Formación CSIC 2013/Images/olaya2011/derivadas/proyección_cónica.png"
   inkscape:export-xdpi="300"
   inkscape:export-ydpi="300">
  <defs
     id="defs4249">
    <linearGradient
       gradientTransform="matrix(1,0,0,0.91842988,186.82534,84.102726)"
       y2="247.25317"
       x2="136.42796"
       y1="276.10507"
       x1="211.96756"
       gradientUnits="userSpaceOnUse"
       id="linearGradient4144-1"
       xlink:href="#linearGradient4115-4-7"
       inkscape:collect="always" />
    <linearGradient
       inkscape:collect="always"
       id="linearGradient4115-4-7">
      <stop
         style="stop-color:#000000;stop-opacity:1"
         offset="0"
         id="stop4117-7-6" />
      <stop
         style="stop-color:#ffffff;stop-opacity:1"
         offset="1"
         id="stop4119-1-3" />
    </linearGradient>
    <radialGradient
       inkscape:collect="always"
       xlink:href="#linearGradient4367-9"
       id="radialGradient4365-1"
       cx="261.32275"
       cy="114.82012"
       fx="261.32275"
       fy="114.82012"
       r="81.000008"
       gradientTransform="matrix(-1.5047415e-7,1.6049383,-1.7283948,-2.034183e-7,298.45454,-146.72174)"
       gradientUnits="userSpaceOnUse" />
    <linearGradient
       id="linearGradient4367-9">
      <stop
         id="stop4369-9"
         offset="0"
         style="stop-color:#ffffff;stop-opacity:1" />
      <stop
         style="stop-color:#ffffff;stop-opacity:1"
         offset="0.42857137"
         id="stop4373-9" />
      <stop
         id="stop4371-1"
         offset="1"
         style="stop-color:#714b32;stop-opacity:1" />
    </linearGradient>
    <radialGradient
       r="81.000008"
       fy="114.82012"
       fx="261.32275"
       cy="114.82012"
       cx="261.32275"
       gradientTransform="matrix(-1.5047415e-7,1.6049383,-1.7283948,-2.034183e-7,485.27989,-87.63555)"
       gradientUnits="userSpaceOnUse"
       id="radialGradient4245"
       xlink:href="#linearGradient4367-9"
       inkscape:collect="always" />
    <radialGradient
       r="81.000008"
       fy="114.82012"
       fx="261.32275"
       cy="114.82012"
       cx="261.32275"
       gradientTransform="matrix(-1.5047415e-7,1.6049383,-1.7283948,-2.034183e-7,437.57432,15.791381)"
       gradientUnits="userSpaceOnUse"
       id="radialGradient4372"
       xlink:href="#linearGradient4367-9-8"
       inkscape:collect="always" />
    <linearGradient
       id="linearGradient4367-9-8">
      <stop
         id="stop4369-9-8"
         offset="0"
         style="stop-color:#ffffff;stop-opacity:1" />
      <stop
         style="stop-color:#ffffff;stop-opacity:1"
         offset="0.42857137"
         id="stop4373-9-2" />
      <stop
         id="stop4371-1-4"
         offset="1"
         style="stop-color:#714b32;stop-opacity:1" />
    </linearGradient>
    <linearGradient
       gradientTransform="matrix(1,0,0,0.97096525,405.65507,55.960396)"
       y2="312.68515"
       x2="105"
       y1="312.68515"
       x1="230"
       gradientUnits="userSpaceOnUse"
       id="linearGradient4144"
       xlink:href="#linearGradient4115-4"
       inkscape:collect="always" />
    <linearGradient
       inkscape:collect="always"
       id="linearGradient4115-4">
      <stop
         style="stop-color:#000000;stop-opacity:1"
         offset="0"
         id="stop4117-7" />
      <stop
         style="stop-color:#ffffff;stop-opacity:1"
         offset="1"
         id="stop4119-1" />
    </linearGradient>
    <radialGradient
       r="81.000008"
       fy="114.82012"
       fx="261.32275"
       cy="114.82012"
       cx="261.32275"
       gradientTransform="matrix(-1.5047415e-7,1.6049383,-1.7283948,-2.034183e-7,704.10961,-110.1547)"
       gradientUnits="userSpaceOnUse"
       id="radialGradient3063"
       xlink:href="#linearGradient4367-9-8"
       inkscape:collect="always" />
  </defs>
  <sodipodi:namedview
     id="base"
     pagecolor="#ffffff"
     bordercolor="#666666"
     borderopacity="1.0"
     inkscape:pageopacity="0.0"
     inkscape:pageshadow="2"
     inkscape:zoom="2.5290698"
     inkscape:cx="222.48715"
     inkscape:cy="102.71209"
     inkscape:document-units="px"
     inkscape:current-layer="layer1"
     showgrid="false"
     fit-margin-top="10"
     fit-margin-left="10"
     fit-margin-bottom="10"
     fit-margin-right="10"
     inkscape:window-width="1920"
     inkscape:window-height="1057"
     inkscape:window-x="-8"
     inkscape:window-y="-8"
     inkscape:window-maximized="1" />
  <metadata
     id="metadata4252">
    <rdf:RDF>
      <cc:Work
         rdf:about="">
        <dc:format>image/svg+xml</dc:format>
        <dc:type
           rdf:resource="http://purl.org/dc/dcmitype/StillImage" />
        <dc:title />
      </cc:Work>
    </rdf:RDF>
  </metadata>
  <g
     inkscape:label="Capa 1"
     inkscape:groupmode="layer"
     id="layer1"
     transform="translate(-265.82535,-227.7775)">
    <path
       inkscape:connector-curvature="0"
       d="m 436.82535,376.77134 c 0.0139,44.19663 -35.18305,78.60733 -79.3797,78.60733 -44.19664,0 -80.63417,-34.4107 -80.62031,-78.60733 -0.0138,-44.19663 36.42367,-81.45754 80.62031,-81.45754 44.19665,0 79.39355,37.26091 79.3797,81.45754 z"
       style="color:#000000;fill:url(#radialGradient4245);fill-opacity:1;fill-rule:nonzero;stroke:#000000;stroke-width:1.98528969;stroke-linecap:butt;stroke-linejoin:miter;stroke-miterlimit:4;stroke-opacity:1;stroke-dasharray:none;stroke-dashoffset:0;marker:none;visibility:visible;display:inline;overflow:visible;enable-background:accumulate"
       id="path5475"
       sodipodi:nodetypes="cscsc" />
    <path
       inkscape:connector-curvature="0"
       d="m 356.79531,272.91771 0,198.35364"
       style="fill:none;stroke:#000000;stroke-width:1px;stroke-linecap:butt;stroke-linejoin:miter;stroke-opacity:1;display:inline"
       id="path5477" />
    <path
       inkscape:connector-curvature="0"
       style="fill:none;stroke:#000000;stroke-width:2;stroke-miterlimit:4;stroke-opacity:1;stroke-dasharray:none;display:inline"
       d="m 276.88785,381.77134 c -0.0443,0.3279 -0.0625,0.66883 -0.0625,1 0,13.25483 35.81721,24 79.99999,24 44.18279,0 80.00001,-10.74517 80.00001,-24 0,-0.33117 -0.0182,-0.6721 -0.0625,-1"
       id="rect3815-2-4-9"
       sodipodi:nodetypes="csssc" />
    <path
       style="opacity:0.39920953;color:#000000;fill:url(#linearGradient4144-1);fill-opacity:1;fill-rule:nonzero;stroke:#000000;stroke-width:1.9928844;stroke-linecap:butt;stroke-linejoin:miter;stroke-miterlimit:4;stroke-opacity:1;stroke-dasharray:none;stroke-dashoffset:0;marker:none;visibility:visible;display:inline;overflow:visible;enable-background:accumulate"
       d="m 356.76284,259.09232 -39.90625,42.07557 -39.53125,41.64505 -0.4375,0 c -0.0443,0.30116 -0.0625,0.61428 -0.0625,0.91843 0,12.17363 35.81722,22.04232 80,22.04232 44.18279,0 80.00001,-9.86869 80.00001,-22.04232 0,-0.30415 -0.0182,-0.61727 -0.0625,-0.91843 l -0.53125,0 -39.53125,-41.64505 -39.93751,-42.07557 z"
       id="path3116"
       inkscape:connector-curvature="0" />
    <path
       inkscape:connector-curvature="0"
       style="opacity:0.39920953;fill:none;stroke:#000000;stroke-width:1.33973873;stroke-miterlimit:4;stroke-opacity:1;stroke-dasharray:none;display:inline"
       d="m 310.5943,306.99202 c -0.0256,0.23533 -0.0361,0.48001 -0.0361,0.71769 0,9.51291 20.71452,17.22465 46.26718,17.22465 25.55267,0 46.26719,-7.71174 46.26719,-17.22465 0,-0.23768 -0.0105,-0.48236 -0.0361,-0.71769"
       id="rect3815-2-6-6"
       sodipodi:nodetypes="csssc" />
    <text
       x="442.1102"
       y="340.50101"
       style="font-size:40px;font-style:normal;font-weight:normal;fill:#000000;fill-opacity:1;stroke:none;display:inline;font-family:Bitstream Vera Sans"
       id="text5509-6-3"
       xml:space="preserve"><tspan
         x="442.1102"
         y="340.50101"
         style="font-size:13px"
         id="tspan5511-1-7">30º</tspan></text>
    <text
       x="416.32437"
       y="310.16559"
       style="font-size:40px;font-style:normal;font-weight:normal;fill:#000000;fill-opacity:1;stroke:none;display:inline;font-family:Bitstream Vera Sans"
       id="text5513-2-3"
       xml:space="preserve"><tspan
         x="416.32437"
         y="310.16559"
         style="font-size:13px"
         id="tspan5515-5-6">60º</tspan></text>
    <path
       inkscape:connector-curvature="0"
       style="fill:none;stroke:#ff0000;stroke-width:1.55394459;stroke-miterlimit:4;stroke-opacity:1;stroke-dasharray:none;display:inline"
       d="m 294.62904,324.99202 c -0.0345,0.23533 -0.0485,0.48001 -0.0485,0.71769 0,9.51291 27.868,17.22465 62.24491,17.22465 34.37692,0 62.24492,-7.71174 62.24492,-17.22465 0,-0.23768 -0.0141,-0.48236 -0.0485,-0.71769"
       id="rect3815-2-6-6-4"
       sodipodi:nodetypes="csssc" />
    <path
       inkscape:connector-curvature="0"
       d="m 655.65507,354.25219 c 0.0139,44.19663 -35.18305,78.60733 -79.37969,78.60733 -44.19664,0 -80.63417,-34.4107 -80.62031,-78.60733 -0.0138,-44.19663 36.42367,-81.45754 80.62031,-81.45754 44.19664,0 79.39354,37.26091 79.37969,81.45754 z"
       style="color:#000000;fill:url(#radialGradient3063);fill-opacity:1;fill-rule:nonzero;stroke:#000000;stroke-width:1.98528969;stroke-linecap:butt;stroke-linejoin:miter;stroke-miterlimit:4;stroke-opacity:1;stroke-dasharray:none;stroke-dashoffset:0;marker:none;visibility:visible;display:inline;overflow:visible;enable-background:accumulate"
       id="path5475-5"
       sodipodi:nodetypes="cscsc" />
    <path
       inkscape:connector-curvature="0"
       d="m 575.62504,250.39856 0,198.35364"
       style="fill:none;stroke:#000000;stroke-width:1px;stroke-linecap:butt;stroke-linejoin:miter;stroke-opacity:1;display:inline"
       id="path5477-5" />
    <path
       inkscape:connector-curvature="0"
       style="fill:none;stroke:#000000;stroke-width:2;stroke-miterlimit:4;stroke-opacity:1;stroke-dasharray:none;display:inline"
       d="m 495.71757,359.25219 c -0.0443,0.3279 -0.0625,0.66883 -0.0625,1 0,13.25483 35.81722,24 80,24 44.18278,0 80,-10.74517 80,-24 0,-0.33117 -0.0182,-0.6721 -0.0625,-1"
       id="rect3815-2-4-9-1"
       sodipodi:nodetypes="csssc" />
    <path
       inkscape:connector-curvature="0"
       style="opacity:0.39920953;fill:url(#linearGradient4144);fill-opacity:1;stroke:#000000;stroke-width:2.04908943;stroke-miterlimit:4;stroke-opacity:1;stroke-dasharray:none;display:inline"
       d="m 495.65507,262.47258 0,0.97096 c 0,-0.32155 0.0182,-0.65258 0.0625,-0.97096 l -0.0625,0 z m 0,0.97096 0,193.22209 c 0,12.86998 35.81722,23.30317 80,23.30317 44.18278,0 80,-10.43319 80,-23.30317 l 0,-193.22209 c 0,12.86999 -35.81722,23.30317 -80,23.30317 -44.18278,0 -80,-10.43318 -80,-23.30317 z m 160,0 0,-0.97096 -0.0625,0 c 0.0443,0.31838 0.0625,0.64941 0.0625,0.97096 z"
       id="rect3815" />
    <path
       sodipodi:type="arc"
       style="opacity:0.39920953;fill:#ffffff;fill-opacity:1;stroke:#000000;stroke-width:1.13536906;stroke-linecap:round;stroke-linejoin:round;stroke-miterlimit:4;stroke-opacity:1;stroke-dasharray:none;display:inline"
       id="path3827-2-8"
       sodipodi:cx="177.5"
       sodipodi:cy="225.18515"
       sodipodi:rx="82.5"
       sodipodi:ry="7.5"
       d="m 260,225.18515 c 0,4.14214 -36.93651,7.5 -82.5,7.5 -45.56349,0 -82.5,-3.35786 -82.5,-7.5 0,-4.14214 36.93651,-7.5 82.5,-7.5 45.56349,0 82.5,3.35786 82.5,7.5 z"
       transform="matrix(0.96969697,0,0,3.1999993,403.87198,-457.81483)" />
    <path
       inkscape:connector-curvature="0"
       style="opacity:0.39920953;fill:none;stroke:#000000;stroke-width:2.07950091;stroke-miterlimit:4;stroke-opacity:1;stroke-dasharray:none;display:inline"
       d="m 495.71757,287.25219 c -0.0443,0.3279 -0.0625,0.66883 -0.0625,1 0,13.25483 35.81722,24 80,24 44.18278,0 80,-10.74517 80,-24 0,-0.33117 -0.0182,-0.6721 -0.0625,-1"
       id="rect3815-2-6"
       sodipodi:nodetypes="csssc" />
    <path
       inkscape:connector-curvature="0"
       style="opacity:0.39920953;fill:none;stroke:#000000;stroke-width:2.07950091;stroke-miterlimit:4;stroke-opacity:1;stroke-dasharray:none;display:inline"
       d="m 495.71757,318.25219 c -0.0443,0.3279 -0.0625,0.66883 -0.0625,1 0,13.25483 35.81722,24 80,24 44.18278,0 80,-10.74517 80,-24 0,-0.33117 -0.0182,-0.6721 -0.0625,-1"
       id="rect3815-2-7"
       sodipodi:nodetypes="csssc" />
    <path
       inkscape:connector-curvature="0"
       style="opacity:0.39920953;fill:none;stroke:#000000;stroke-width:2.07950091;stroke-miterlimit:4;stroke-opacity:1;stroke-dasharray:none;display:inline"
       d="m 495.71757,399.25219 c -0.0443,0.3279 -0.0625,0.66883 -0.0625,1 0,13.25483 35.81722,24 80,24 44.18278,0 80,-10.74517 80,-24 0,-0.33117 -0.0182,-0.6721 -0.0625,-1"
       id="rect3815-2-2"
       sodipodi:nodetypes="csssc" />
    <path
       inkscape:connector-curvature="0"
       style="opacity:0.39920953;fill:none;stroke:#000000;stroke-width:2.07999992;stroke-miterlimit:4;stroke-opacity:1;stroke-dasharray:6.24, 2.08;stroke-dashoffset:0;display:inline"
       d="m 655.59257,320.25219 c 0.0443,-0.3279 0.0625,-0.66883 0.0625,-1 0,-13.25483 -35.81722,-24 -80,-24 -44.18278,0 -80,10.74517 -80,24 0,0.33117 0.0182,0.6721 0.0625,1"
       id="rect3815-2-46-4"
       sodipodi:nodetypes="csssc" />
    <path
       inkscape:connector-curvature="0"
       style="opacity:0.39920953;fill:none;stroke:#000000;stroke-width:2.07999992;stroke-miterlimit:4;stroke-opacity:1;stroke-dasharray:6.24, 2.08;stroke-dashoffset:0;display:inline"
       d="m 655.65507,399.25219 c 0.0443,-0.3279 0.0625,-0.66883 0.0625,-1 0,-13.25483 -35.81722,-24 -80,-24 -44.18278,0 -80,10.74517 -80,24 0,0.33117 0.0182,0.6721 0.0625,1"
       id="rect3815-2-46-9"
       sodipodi:nodetypes="csssc" />
    <path
       inkscape:connector-curvature="0"
       style="opacity:0.39920953;fill:none;stroke:#000000;stroke-width:2.07950091;stroke-miterlimit:4;stroke-opacity:1;stroke-dasharray:none;display:inline"
       d="m 495.71757,359.25219 c -0.0443,0.3279 -0.0625,0.66883 -0.0625,1 0,13.25483 35.81722,24 80,24 44.18278,0 80,-10.74517 80,-24 0,-0.33117 -0.0182,-0.6721 -0.0625,-1"
       id="rect3815-2-4"
       sodipodi:nodetypes="csssc" />
    <path
       inkscape:connector-curvature="0"
       style="opacity:0.39920953;fill:none;stroke:#000000;stroke-width:2.07999992;stroke-miterlimit:4;stroke-opacity:1;stroke-dasharray:6.24, 2.08;stroke-dashoffset:0;display:inline"
       d="m 655.59257,287.25219 c 0.0443,-0.3279 0.0625,-0.66883 0.0625,-1 0,-13.25483 -35.81722,-24 -80,-24 -44.18278,0 -80,10.74517 -80,24 0,0.33117 0.0182,0.6721 0.0625,1"
       id="rect3815-2-46"
       sodipodi:nodetypes="csssc" />
    <path
       inkscape:connector-curvature="0"
       style="opacity:0.39920953;fill:none;stroke:#ff0000;stroke-width:2.07999992;stroke-miterlimit:4;stroke-opacity:1;stroke-dasharray:6.24, 2.08;stroke-dashoffset:0;display:inline"
       d="m 655.59257,359.25219 c 0.0443,-0.3279 0.0625,-0.66883 0.0625,-1 0,-13.25483 -35.81722,-24 -80,-24 -44.18278,0 -80,10.74517 -80,24 0,0.33117 0.0182,0.6721 0.0625,1"
       id="rect3815-2-46-9-5"
       sodipodi:nodetypes="csssc" />
    <text
       x="663.80908"
       y="366.14365"
       style="font-size:40px;font-style:normal;font-weight:normal;fill:#000000;fill-opacity:1;stroke:none;display:inline;font-family:Bitstream Vera Sans"
       id="text5505"
       xml:space="preserve"><tspan
         x="663.80908"
         y="366.14365"
         style="font-size:13px"
         id="tspan5507">0º</tspan></text>
    <text
       x="662.10535"
       y="319.10989"
       style="font-size:40px;font-style:normal;font-weight:normal;fill:#000000;fill-opacity:1;stroke:none;display:inline;font-family:Bitstream Vera Sans"
       id="text5509"
       xml:space="preserve"><tspan
         x="662.10535"
         y="319.10989"
         style="font-size:13px"
         id="tspan5511">30º</tspan></text>
    <text
       x="661.65509"
       y="289.2522"
       style="font-size:40px;font-style:normal;font-weight:normal;fill:#000000;fill-opacity:1;stroke:none;display:inline;font-family:Bitstream Vera Sans"
       id="text5513"
       xml:space="preserve"><tspan
         x="661.65509"
         y="289.2522"
         style="font-size:13px"
         id="tspan5515">60º</tspan></text>
    <text
       x="661.65509"
       y="405.25217"
       style="font-size:40px;font-style:normal;font-weight:normal;fill:#000000;fill-opacity:1;stroke:none;display:inline;font-family:Bitstream Vera Sans"
       id="text5509-5"
       xml:space="preserve"><tspan
         x="661.65509"
         y="405.25217"
         style="font-size:13px"
         id="tspan5511-6">-30º</tspan></text>
    <path
       inkscape:connector-curvature="0"
       style="opacity:0.39920953;fill:none;stroke:#000000;stroke-width:2.07950091;stroke-miterlimit:4;stroke-opacity:1;stroke-dasharray:none;display:inline"
       d="m 495.50351,432.3394 c -0.0443,0.3279 -0.0625,0.66883 -0.0625,1 0,13.25483 35.81722,24 80,24 44.18278,0 80,-10.74517 80,-24 0,-0.33117 -0.0182,-0.6721 -0.0625,-1"
       id="rect3815-2-2-7"
       sodipodi:nodetypes="csssc" />
    <path
       inkscape:connector-curvature="0"
       style="opacity:0.39920953;fill:none;stroke:#000000;stroke-width:2.07999992;stroke-miterlimit:4;stroke-opacity:1;stroke-dasharray:6.24, 2.08;stroke-dashoffset:0;display:inline"
       d="m 655.44101,432.3394 c 0.0443,-0.3279 0.0625,-0.66883 0.0625,-1 0,-13.25483 -35.81722,-24 -80,-24 -44.18278,0 -80,10.74517 -80,24 0,0.33117 0.0182,0.6721 0.0625,1"
       id="rect3815-2-46-9-2"
       sodipodi:nodetypes="csssc" />
    <text
       x="659.88934"
       y="435.75516"
       style="font-size:40px;font-style:normal;font-weight:normal;fill:#000000;fill-opacity:1;stroke:none;display:inline;font-family:Bitstream Vera Sans"
       id="text5509-5-9"
       xml:space="preserve"><tspan
         x="659.88934"
         y="435.75516"
         style="font-size:13px"
         id="tspan5511-6-6">-60º</tspan></text>
  </g>
</svg>
