<?xml version="1.0" encoding="UTF-8" standalone="no"?>
<!-- Created with Inkscape (http://www.inkscape.org/) -->
<svg
   xmlns:dc="http://purl.org/dc/elements/1.1/"
   xmlns:cc="http://creativecommons.org/ns#"
   xmlns:rdf="http://www.w3.org/1999/02/22-rdf-syntax-ns#"
   xmlns:svg="http://www.w3.org/2000/svg"
   xmlns="http://www.w3.org/2000/svg"
   xmlns:sodipodi="http://sodipodi.sourceforge.net/DTD/sodipodi-0.dtd"
   xmlns:inkscape="http://www.inkscape.org/namespaces/inkscape"
   width="412.25519"
   height="355.06451"
   id="svg2"
   sodipodi:version="0.32"
   inkscape:version="0.46"
   version="1.0"
   sodipodi:docname="ResumenRepresentacionTiposInformacion.svg"
   inkscape:output_extension="org.inkscape.output.svg.inkscape">
  <defs
     id="defs4">
    <inkscape:perspective
       sodipodi:type="inkscape:persp3d"
       inkscape:vp_x="0 : 526.18109 : 1"
       inkscape:vp_y="0 : 1000 : 0"
       inkscape:vp_z="744.09448 : 526.18109 : 1"
       inkscape:persp3d-origin="372.04724 : 350.78739 : 1"
       id="perspective10" />
  </defs>
  <sodipodi:namedview
     id="base"
     pagecolor="#ffffff"
     bordercolor="#666666"
     borderopacity="1.0"
     inkscape:pageopacity="0.0"
     inkscape:pageshadow="2"
     inkscape:zoom="1.5095848"
     inkscape:cx="206.12759"
     inkscape:cy="177.53225"
     inkscape:document-units="px"
     inkscape:current-layer="layer1"
     showgrid="false"
     inkscape:window-width="1360"
     inkscape:window-height="749"
     inkscape:window-x="0"
     inkscape:window-y="0" />
  <metadata
     id="metadata7">
    <rdf:RDF>
      <cc:Work
         rdf:about="">
        <dc:format>image/svg+xml</dc:format>
        <dc:type
           rdf:resource="http://purl.org/dc/dcmitype/StillImage" />
      </cc:Work>
    </rdf:RDF>
  </metadata>
  <g
     inkscape:label="Capa 1"
     inkscape:groupmode="layer"
     id="layer1"
     transform="translate(-20.398748,-175.12419)">
    <text
       xml:space="preserve"
       style="font-size:14px;font-style:normal;font-weight:normal;fill:#000000;fill-opacity:1;stroke:none;stroke-width:1px;stroke-linecap:butt;stroke-linejoin:miter;stroke-opacity:1;font-family:Bitstream Vera Sans"
       x="19.475897"
       y="261.47516"
       id="text2383"><tspan
         sodipodi:role="line"
         id="tspan2385"
         x="19.475897"
         y="261.47516">Información cualitativa</tspan><tspan
         sodipodi:role="line"
         x="19.475897"
         y="278.97516"
         id="tspan2387" /><tspan
         sodipodi:role="line"
         x="19.475897"
         y="296.47516"
         id="tspan2389" /><tspan
         sodipodi:role="line"
         x="19.475897"
         y="313.97516"
         id="tspan2391" /><tspan
         sodipodi:role="line"
         x="19.475897"
         y="331.47516"
         id="tspan2393" /><tspan
         sodipodi:role="line"
         x="19.475897"
         y="348.97516"
         id="tspan2395" /><tspan
         sodipodi:role="line"
         x="19.475897"
         y="366.47516"
         id="tspan2397" /><tspan
         sodipodi:role="line"
         x="19.475897"
         y="383.97516"
         id="tspan2399" /><tspan
         sodipodi:role="line"
         x="19.475897"
         y="401.47516"
         id="tspan2401" /><tspan
         sodipodi:role="line"
         x="19.475897"
         y="418.97516"
         id="tspan2403" /><tspan
         sodipodi:role="line"
         x="19.475897"
         y="436.47516"
         id="tspan2405" /><tspan
         sodipodi:role="line"
         x="19.475897"
         y="453.97516"
         id="tspan3836" /><tspan
         sodipodi:role="line"
         x="19.475897"
         y="471.47516"
         id="tspan3838">Información  cuantitativa</tspan></text>
    <g
       id="g3605">
      <rect
         y="198.63943"
         x="216.32593"
         height="19.659018"
         width="49.348145"
         id="rect2407"
         style="opacity:1;fill:#994d99;fill-opacity:1;fill-rule:evenodd;stroke:#000000;stroke-width:1;stroke-linecap:butt;stroke-miterlimit:4;stroke-dasharray:none;stroke-dashoffset:0;stroke-opacity:1" />
      <rect
         y="198.63943"
         x="285.18707"
         height="19.659018"
         width="49.348145"
         id="rect3181"
         style="opacity:1;fill:#82994d;fill-opacity:1;fill-rule:evenodd;stroke:#000000;stroke-width:1;stroke-linecap:butt;stroke-miterlimit:4;stroke-dasharray:none;stroke-dashoffset:0;stroke-opacity:1" />
      <rect
         y="252.14597"
         x="301.82794"
         height="16.066435"
         width="16.066435"
         id="rect3189"
         style="opacity:1;fill:#561bcb;fill-opacity:1;fill-rule:evenodd;stroke:#000000;stroke-width:0.93356568;stroke-linecap:butt;stroke-miterlimit:4;stroke-dasharray:none;stroke-dashoffset:0;stroke-opacity:1" />
      <path
         transform="matrix(1.1290614,0,0,1.1622692,-8.8209086,-107.27463)"
         d="M 228.28531,316.15207 A 7.0210776,6.8204751 0 1 1 214.24316,316.15207 A 7.0210776,6.8204751 0 1 1 228.28531,316.15207 z"
         sodipodi:ry="6.8204751"
         sodipodi:rx="7.0210776"
         sodipodi:cy="316.15207"
         sodipodi:cx="221.26424"
         id="path3191"
         style="opacity:1;fill:#561bcb;fill-opacity:1;fill-rule:evenodd;stroke:#000000;stroke-width:1;stroke-linecap:butt;stroke-miterlimit:4;stroke-dasharray:none;stroke-dashoffset:0;stroke-opacity:1"
         sodipodi:type="arc" />
      <text
         id="text3193"
         y="211.93205"
         x="381.77405"
         style="font-size:14px;font-style:normal;font-weight:normal;fill:#000000;fill-opacity:1;stroke:none;stroke-width:1px;stroke-linecap:butt;stroke-linejoin:miter;stroke-opacity:1;font-family:Bitstream Vera Sans"
         xml:space="preserve"><tspan
           y="211.93205"
           x="381.77405"
           id="tspan3195"
           sodipodi:role="line">Tono</tspan><tspan
           id="tspan3197"
           y="229.43205"
           x="381.77405"
           sodipodi:role="line" /><tspan
           id="tspan3199"
           y="246.93205"
           x="381.77405"
           sodipodi:role="line" /><tspan
           id="tspan3201"
           y="264.43207"
           x="381.77405"
           sodipodi:role="line">Forma</tspan><tspan
           id="tspan3203"
           y="281.93207"
           x="381.77405"
           sodipodi:role="line" /><tspan
           id="tspan3205"
           y="299.43207"
           x="381.77405"
           sodipodi:role="line" /><tspan
           id="tspan3207"
           y="316.93207"
           x="381.77405"
           sodipodi:role="line">Textura</tspan></text>
      <g
         transform="translate(0,4.1567722)"
         id="g3450">
        <g
           id="g3438">
          <rect
             y="299.53268"
             x="216.32593"
             height="19.659018"
             width="49.348145"
             id="rect3209"
             style="opacity:1;fill:none;fill-opacity:1;fill-rule:evenodd;stroke:#000000;stroke-width:1;stroke-linecap:butt;stroke-miterlimit:4;stroke-dasharray:none;stroke-dashoffset:0;stroke-opacity:1" />
          <path
             id="path3211"
             d="M 220.97457,299.4215 L 220.97457,319.18422"
             style="fill:none;fill-rule:evenodd;stroke:#000000;stroke-width:1px;stroke-linecap:butt;stroke-linejoin:miter;stroke-opacity:1" />
          <path
             id="path3215"
             d="M 225.97351,299.60794 L 225.97351,319.18422"
             style="fill:none;fill-rule:evenodd;stroke:#000000;stroke-width:1px;stroke-linecap:butt;stroke-linejoin:miter;stroke-opacity:1" />
          <path
             id="path3217"
             d="M 230.97244,299.88761 L 230.97244,319.18422"
             style="fill:none;fill-rule:evenodd;stroke:#000000;stroke-width:1px;stroke-linecap:butt;stroke-linejoin:miter;stroke-opacity:1" />
          <path
             id="path3219"
             d="M 235.97139,299.70117 L 235.97139,319.18422"
             style="fill:none;fill-rule:evenodd;stroke:#000000;stroke-width:1px;stroke-linecap:butt;stroke-linejoin:miter;stroke-opacity:1" />
          <path
             id="path3223"
             d="M 240.97034,299.70116 L 240.97034,319.18422"
             style="fill:none;fill-rule:evenodd;stroke:#000000;stroke-width:1px;stroke-linecap:butt;stroke-linejoin:miter;stroke-opacity:1" />
          <path
             id="path3225"
             d="M 245.96928,299.70117 L 245.96928,319.18422"
             style="fill:none;fill-rule:evenodd;stroke:#000000;stroke-width:1px;stroke-linecap:butt;stroke-linejoin:miter;stroke-opacity:1" />
          <path
             id="path3227"
             d="M 250.96822,299.70117 L 250.96822,319.18422"
             style="fill:none;fill-rule:evenodd;stroke:#000000;stroke-width:1px;stroke-linecap:butt;stroke-linejoin:miter;stroke-opacity:1" />
          <path
             id="path3229"
             d="M 255.96717,299.51472 L 255.96717,319.18422"
             style="fill:none;fill-rule:evenodd;stroke:#000000;stroke-width:1px;stroke-linecap:butt;stroke-linejoin:miter;stroke-opacity:1" />
          <path
             id="path3231"
             d="M 260.9661,299.51472 L 260.9661,319.18422"
             style="fill:none;fill-rule:evenodd;stroke:#000000;stroke-width:1px;stroke-linecap:butt;stroke-linejoin:miter;stroke-opacity:1" />
        </g>
      </g>
      <g
         transform="translate(70.484634,-21.941178)"
         id="g3391">
        <rect
           style="opacity:1;fill:none;fill-opacity:1;fill-rule:evenodd;stroke:#000000;stroke-width:1;stroke-linecap:butt;stroke-miterlimit:4;stroke-dasharray:none;stroke-dashoffset:0;stroke-opacity:1"
           id="rect3233"
           width="49.348145"
           height="19.659018"
           x="214.70244"
           y="325.57504" />
        <g
           id="g3313"
           transform="translate(-0.1864407,-0.9322034)">
          <path
             transform="translate(0,-0.1864319)"
             d="M 219.26271,329.71811 A 1.5,1.5 0 1 1 216.26271,329.71811 A 1.5,1.5 0 1 1 219.26271,329.71811 z"
             sodipodi:ry="1.5"
             sodipodi:rx="1.5"
             sodipodi:cy="329.71811"
             sodipodi:cx="217.76271"
             style="fill:#000000;stroke:none"
             id="path3293"
             sodipodi:type="arc" />
          <path
             transform="translate(-0.95292,0)"
             d="M 225.04237,329.53168 A 1.5,1.5 0 1 1 222.04237,329.53168 A 1.5,1.5 0 1 1 225.04237,329.53168 z"
             sodipodi:ry="1.5"
             sodipodi:rx="1.5"
             sodipodi:cy="329.53168"
             sodipodi:cx="223.54237"
             style="fill:#000000;stroke:none"
             id="path3295"
             sodipodi:type="arc" />
          <path
             transform="translate(-0.6007557,-0.5593262)"
             d="M 229.51695,330.091 A 1.5,1.5 0 1 1 226.51695,330.091 A 1.5,1.5 0 1 1 229.51695,330.091 z"
             sodipodi:ry="1.5"
             sodipodi:rx="1.5"
             sodipodi:cy="330.091"
             sodipodi:cx="228.01695"
             style="fill:#000000;stroke:none"
             id="path3297"
             sodipodi:type="arc" />
          <path
             transform="translate(-0.6214705,-0.5593262)"
             d="M 234.36441,330.091 A 1.5,1.5 0 1 1 231.36441,330.091 A 1.5,1.5 0 1 1 234.36441,330.091 z"
             sodipodi:ry="1.5"
             sodipodi:rx="1.5"
             sodipodi:cy="330.091"
             sodipodi:cx="232.86441"
             style="fill:#000000;stroke:none"
             id="path3299"
             sodipodi:type="arc" />
          <path
             transform="translate(-0.64217,-0.5593262)"
             d="M 239.21185,330.091 A 1.5,1.5 0 1 1 236.21185,330.091 A 1.5,1.5 0 1 1 239.21185,330.091 z"
             sodipodi:ry="1.5"
             sodipodi:rx="1.5"
             sodipodi:cy="330.091"
             sodipodi:cx="237.71185"
             style="fill:#000000;stroke:none"
             id="path3301"
             sodipodi:type="arc" />
          <path
             transform="translate(-2.7137423,-0.3728943)"
             d="M 246.11017,329.90457 A 1.5,1.5 0 1 1 243.11017,329.90457 A 1.5,1.5 0 1 1 246.11017,329.90457 z"
             sodipodi:ry="1.5"
             sodipodi:rx="1.5"
             sodipodi:cy="329.90457"
             sodipodi:cx="244.61017"
             style="fill:#000000;stroke:none"
             id="path3303"
             sodipodi:type="arc" />
          <path
             transform="translate(-3.4802151,-0.3728943)"
             d="M 251.70338,329.90457 A 1.5,1.5 0 1 1 248.70338,329.90457 A 1.5,1.5 0 1 1 251.70338,329.90457 z"
             sodipodi:ry="1.5"
             sodipodi:rx="1.5"
             sodipodi:cy="329.90457"
             sodipodi:cx="250.20338"
             style="fill:#000000;stroke:none"
             id="path3305"
             sodipodi:type="arc" />
          <path
             transform="translate(-2.0094137,-0.3728943)"
             d="M 255.05933,329.90457 A 1.5,1.5 0 1 1 252.05933,329.90457 A 1.5,1.5 0 1 1 255.05933,329.90457 z"
             sodipodi:ry="1.5"
             sodipodi:rx="1.5"
             sodipodi:cy="329.90457"
             sodipodi:cx="253.55933"
             style="fill:#000000;stroke:none"
             id="path3307"
             sodipodi:type="arc" />
          <path
             transform="translate(-0.9114914,-0.3728943)"
             d="M 258.78815,329.90457 A 1.5,1.5 0 1 1 255.78815,329.90457 A 1.5,1.5 0 1 1 258.78815,329.90457 z"
             sodipodi:ry="1.5"
             sodipodi:rx="1.5"
             sodipodi:cy="329.90457"
             sodipodi:cx="257.28815"
             style="fill:#000000;stroke:none"
             id="path3309"
             sodipodi:type="arc" />
          <path
             transform="translate(0,-0.3728943)"
             d="M 262.7034,329.90457 A 1.5,1.5 0 1 1 259.7034,329.90457 A 1.5,1.5 0 1 1 262.7034,329.90457 z"
             sodipodi:ry="1.5"
             sodipodi:rx="1.5"
             sodipodi:cy="329.90457"
             sodipodi:cx="261.2034"
             style="fill:#000000;stroke:none"
             id="path3311"
             sodipodi:type="arc" />
        </g>
        <g
           id="g3325"
           transform="translate(-0.1864407,3.6666705)">
          <path
             transform="translate(0,-0.1864319)"
             d="M 219.26271,329.71811 A 1.5,1.5 0 1 1 216.26271,329.71811 A 1.5,1.5 0 1 1 219.26271,329.71811 z"
             sodipodi:ry="1.5"
             sodipodi:rx="1.5"
             sodipodi:cy="329.71811"
             sodipodi:cx="217.76271"
             style="fill:#000000;stroke:none"
             id="path3327"
             sodipodi:type="arc" />
          <path
             transform="translate(-0.95292,0)"
             d="M 225.04237,329.53168 A 1.5,1.5 0 1 1 222.04237,329.53168 A 1.5,1.5 0 1 1 225.04237,329.53168 z"
             sodipodi:ry="1.5"
             sodipodi:rx="1.5"
             sodipodi:cy="329.53168"
             sodipodi:cx="223.54237"
             style="fill:#000000;stroke:none"
             id="path3329"
             sodipodi:type="arc" />
          <path
             transform="translate(-0.6007557,-0.5593262)"
             d="M 229.51695,330.091 A 1.5,1.5 0 1 1 226.51695,330.091 A 1.5,1.5 0 1 1 229.51695,330.091 z"
             sodipodi:ry="1.5"
             sodipodi:rx="1.5"
             sodipodi:cy="330.091"
             sodipodi:cx="228.01695"
             style="fill:#000000;stroke:none"
             id="path3331"
             sodipodi:type="arc" />
          <path
             transform="translate(-0.6214705,-0.5593262)"
             d="M 234.36441,330.091 A 1.5,1.5 0 1 1 231.36441,330.091 A 1.5,1.5 0 1 1 234.36441,330.091 z"
             sodipodi:ry="1.5"
             sodipodi:rx="1.5"
             sodipodi:cy="330.091"
             sodipodi:cx="232.86441"
             style="fill:#000000;stroke:none"
             id="path3333"
             sodipodi:type="arc" />
          <path
             transform="translate(-0.64217,-0.5593262)"
             d="M 239.21185,330.091 A 1.5,1.5 0 1 1 236.21185,330.091 A 1.5,1.5 0 1 1 239.21185,330.091 z"
             sodipodi:ry="1.5"
             sodipodi:rx="1.5"
             sodipodi:cy="330.091"
             sodipodi:cx="237.71185"
             style="fill:#000000;stroke:none"
             id="path3335"
             sodipodi:type="arc" />
          <path
             transform="translate(-2.7137423,-0.3728943)"
             d="M 246.11017,329.90457 A 1.5,1.5 0 1 1 243.11017,329.90457 A 1.5,1.5 0 1 1 246.11017,329.90457 z"
             sodipodi:ry="1.5"
             sodipodi:rx="1.5"
             sodipodi:cy="329.90457"
             sodipodi:cx="244.61017"
             style="fill:#000000;stroke:none"
             id="path3337"
             sodipodi:type="arc" />
          <path
             transform="translate(-3.4802151,-0.3728943)"
             d="M 251.70338,329.90457 A 1.5,1.5 0 1 1 248.70338,329.90457 A 1.5,1.5 0 1 1 251.70338,329.90457 z"
             sodipodi:ry="1.5"
             sodipodi:rx="1.5"
             sodipodi:cy="329.90457"
             sodipodi:cx="250.20338"
             style="fill:#000000;stroke:none"
             id="path3339"
             sodipodi:type="arc" />
          <path
             transform="translate(-2.0094137,-0.3728943)"
             d="M 255.05933,329.90457 A 1.5,1.5 0 1 1 252.05933,329.90457 A 1.5,1.5 0 1 1 255.05933,329.90457 z"
             sodipodi:ry="1.5"
             sodipodi:rx="1.5"
             sodipodi:cy="329.90457"
             sodipodi:cx="253.55933"
             style="fill:#000000;stroke:none"
             id="path3341"
             sodipodi:type="arc" />
          <path
             transform="translate(-0.9114914,-0.3728943)"
             d="M 258.78815,329.90457 A 1.5,1.5 0 1 1 255.78815,329.90457 A 1.5,1.5 0 1 1 258.78815,329.90457 z"
             sodipodi:ry="1.5"
             sodipodi:rx="1.5"
             sodipodi:cy="329.90457"
             sodipodi:cx="257.28815"
             style="fill:#000000;stroke:none"
             id="path3343"
             sodipodi:type="arc" />
          <path
             transform="translate(0,-0.3728943)"
             d="M 262.7034,329.90457 A 1.5,1.5 0 1 1 259.7034,329.90457 A 1.5,1.5 0 1 1 262.7034,329.90457 z"
             sodipodi:ry="1.5"
             sodipodi:rx="1.5"
             sodipodi:cy="329.90457"
             sodipodi:cx="261.2034"
             style="fill:#000000;stroke:none"
             id="path3345"
             sodipodi:type="arc" />
        </g>
        <g
           id="g3347"
           transform="translate(-0.1864407,8.2655159)">
          <path
             transform="translate(0,-0.1864319)"
             d="M 219.26271,329.71811 A 1.5,1.5 0 1 1 216.26271,329.71811 A 1.5,1.5 0 1 1 219.26271,329.71811 z"
             sodipodi:ry="1.5"
             sodipodi:rx="1.5"
             sodipodi:cy="329.71811"
             sodipodi:cx="217.76271"
             style="fill:#000000;stroke:none"
             id="path3349"
             sodipodi:type="arc" />
          <path
             transform="translate(-0.95292,0)"
             d="M 225.04237,329.53168 A 1.5,1.5 0 1 1 222.04237,329.53168 A 1.5,1.5 0 1 1 225.04237,329.53168 z"
             sodipodi:ry="1.5"
             sodipodi:rx="1.5"
             sodipodi:cy="329.53168"
             sodipodi:cx="223.54237"
             style="fill:#000000;stroke:none"
             id="path3351"
             sodipodi:type="arc" />
          <path
             transform="translate(-0.6007557,-0.5593262)"
             d="M 229.51695,330.091 A 1.5,1.5 0 1 1 226.51695,330.091 A 1.5,1.5 0 1 1 229.51695,330.091 z"
             sodipodi:ry="1.5"
             sodipodi:rx="1.5"
             sodipodi:cy="330.091"
             sodipodi:cx="228.01695"
             style="fill:#000000;stroke:none"
             id="path3353"
             sodipodi:type="arc" />
          <path
             transform="translate(-0.6214705,-0.5593262)"
             d="M 234.36441,330.091 A 1.5,1.5 0 1 1 231.36441,330.091 A 1.5,1.5 0 1 1 234.36441,330.091 z"
             sodipodi:ry="1.5"
             sodipodi:rx="1.5"
             sodipodi:cy="330.091"
             sodipodi:cx="232.86441"
             style="fill:#000000;stroke:none"
             id="path3355"
             sodipodi:type="arc" />
          <path
             transform="translate(-0.64217,-0.5593262)"
             d="M 239.21185,330.091 A 1.5,1.5 0 1 1 236.21185,330.091 A 1.5,1.5 0 1 1 239.21185,330.091 z"
             sodipodi:ry="1.5"
             sodipodi:rx="1.5"
             sodipodi:cy="330.091"
             sodipodi:cx="237.71185"
             style="fill:#000000;stroke:none"
             id="path3357"
             sodipodi:type="arc" />
          <path
             transform="translate(-2.7137423,-0.3728943)"
             d="M 246.11017,329.90457 A 1.5,1.5 0 1 1 243.11017,329.90457 A 1.5,1.5 0 1 1 246.11017,329.90457 z"
             sodipodi:ry="1.5"
             sodipodi:rx="1.5"
             sodipodi:cy="329.90457"
             sodipodi:cx="244.61017"
             style="fill:#000000;stroke:none"
             id="path3359"
             sodipodi:type="arc" />
          <path
             transform="translate(-3.4802151,-0.3728943)"
             d="M 251.70338,329.90457 A 1.5,1.5 0 1 1 248.70338,329.90457 A 1.5,1.5 0 1 1 251.70338,329.90457 z"
             sodipodi:ry="1.5"
             sodipodi:rx="1.5"
             sodipodi:cy="329.90457"
             sodipodi:cx="250.20338"
             style="fill:#000000;stroke:none"
             id="path3361"
             sodipodi:type="arc" />
          <path
             transform="translate(-2.0094137,-0.3728943)"
             d="M 255.05933,329.90457 A 1.5,1.5 0 1 1 252.05933,329.90457 A 1.5,1.5 0 1 1 255.05933,329.90457 z"
             sodipodi:ry="1.5"
             sodipodi:rx="1.5"
             sodipodi:cy="329.90457"
             sodipodi:cx="253.55933"
             style="fill:#000000;stroke:none"
             id="path3363"
             sodipodi:type="arc" />
          <path
             transform="translate(-0.9114914,-0.3728943)"
             d="M 258.78815,329.90457 A 1.5,1.5 0 1 1 255.78815,329.90457 A 1.5,1.5 0 1 1 258.78815,329.90457 z"
             sodipodi:ry="1.5"
             sodipodi:rx="1.5"
             sodipodi:cy="329.90457"
             sodipodi:cx="257.28815"
             style="fill:#000000;stroke:none"
             id="path3365"
             sodipodi:type="arc" />
          <path
             transform="translate(0,-0.3728943)"
             d="M 262.7034,329.90457 A 1.5,1.5 0 1 1 259.7034,329.90457 A 1.5,1.5 0 1 1 262.7034,329.90457 z"
             sodipodi:ry="1.5"
             sodipodi:rx="1.5"
             sodipodi:cy="329.90457"
             sodipodi:cx="261.2034"
             style="fill:#000000;stroke:none"
             id="path3367"
             sodipodi:type="arc" />
        </g>
        <g
           id="g3369"
           transform="translate(-0.1864407,12.864404)">
          <path
             transform="translate(0,-0.1864319)"
             d="M 219.26271,329.71811 A 1.5,1.5 0 1 1 216.26271,329.71811 A 1.5,1.5 0 1 1 219.26271,329.71811 z"
             sodipodi:ry="1.5"
             sodipodi:rx="1.5"
             sodipodi:cy="329.71811"
             sodipodi:cx="217.76271"
             style="fill:#000000;stroke:none"
             id="path3371"
             sodipodi:type="arc" />
          <path
             transform="translate(-0.95292,0)"
             d="M 225.04237,329.53168 A 1.5,1.5 0 1 1 222.04237,329.53168 A 1.5,1.5 0 1 1 225.04237,329.53168 z"
             sodipodi:ry="1.5"
             sodipodi:rx="1.5"
             sodipodi:cy="329.53168"
             sodipodi:cx="223.54237"
             style="fill:#000000;stroke:none"
             id="path3373"
             sodipodi:type="arc" />
          <path
             transform="translate(-0.6007557,-0.5593262)"
             d="M 229.51695,330.091 A 1.5,1.5 0 1 1 226.51695,330.091 A 1.5,1.5 0 1 1 229.51695,330.091 z"
             sodipodi:ry="1.5"
             sodipodi:rx="1.5"
             sodipodi:cy="330.091"
             sodipodi:cx="228.01695"
             style="fill:#000000;stroke:none"
             id="path3375"
             sodipodi:type="arc" />
          <path
             transform="translate(-0.6214705,-0.5593262)"
             d="M 234.36441,330.091 A 1.5,1.5 0 1 1 231.36441,330.091 A 1.5,1.5 0 1 1 234.36441,330.091 z"
             sodipodi:ry="1.5"
             sodipodi:rx="1.5"
             sodipodi:cy="330.091"
             sodipodi:cx="232.86441"
             style="fill:#000000;stroke:none"
             id="path3377"
             sodipodi:type="arc" />
          <path
             transform="translate(-0.64217,-0.5593262)"
             d="M 239.21185,330.091 A 1.5,1.5 0 1 1 236.21185,330.091 A 1.5,1.5 0 1 1 239.21185,330.091 z"
             sodipodi:ry="1.5"
             sodipodi:rx="1.5"
             sodipodi:cy="330.091"
             sodipodi:cx="237.71185"
             style="fill:#000000;stroke:none"
             id="path3379"
             sodipodi:type="arc" />
          <path
             transform="translate(-2.7137423,-0.3728943)"
             d="M 246.11017,329.90457 A 1.5,1.5 0 1 1 243.11017,329.90457 A 1.5,1.5 0 1 1 246.11017,329.90457 z"
             sodipodi:ry="1.5"
             sodipodi:rx="1.5"
             sodipodi:cy="329.90457"
             sodipodi:cx="244.61017"
             style="fill:#000000;stroke:none"
             id="path3381"
             sodipodi:type="arc" />
          <path
             transform="translate(-3.4802151,-0.3728943)"
             d="M 251.70338,329.90457 A 1.5,1.5 0 1 1 248.70338,329.90457 A 1.5,1.5 0 1 1 251.70338,329.90457 z"
             sodipodi:ry="1.5"
             sodipodi:rx="1.5"
             sodipodi:cy="329.90457"
             sodipodi:cx="250.20338"
             style="fill:#000000;stroke:none"
             id="path3383"
             sodipodi:type="arc" />
          <path
             transform="translate(-2.0094137,-0.3728943)"
             d="M 255.05933,329.90457 A 1.5,1.5 0 1 1 252.05933,329.90457 A 1.5,1.5 0 1 1 255.05933,329.90457 z"
             sodipodi:ry="1.5"
             sodipodi:rx="1.5"
             sodipodi:cy="329.90457"
             sodipodi:cx="253.55933"
             style="fill:#000000;stroke:none"
             id="path3385"
             sodipodi:type="arc" />
          <path
             transform="translate(-0.9114914,-0.3728943)"
             d="M 258.78815,329.90457 A 1.5,1.5 0 1 1 255.78815,329.90457 A 1.5,1.5 0 1 1 258.78815,329.90457 z"
             sodipodi:ry="1.5"
             sodipodi:rx="1.5"
             sodipodi:cy="329.90457"
             sodipodi:cx="257.28815"
             style="fill:#000000;stroke:none"
             id="path3387"
             sodipodi:type="arc" />
          <path
             transform="translate(0,-0.3728943)"
             d="M 262.7034,329.90457 A 1.5,1.5 0 1 1 259.7034,329.90457 A 1.5,1.5 0 1 1 262.7034,329.90457 z"
             sodipodi:ry="1.5"
             sodipodi:rx="1.5"
             sodipodi:cy="329.90457"
             sodipodi:cx="261.2034"
             style="fill:#000000;stroke:none"
             id="path3389"
             sodipodi:type="arc" />
        </g>
      </g>
    </g>
    <path
       style="fill:none;fill-rule:evenodd;stroke:#000000;stroke-width:2;stroke-linecap:butt;stroke-linejoin:miter;stroke-miterlimit:4;stroke-dasharray:none;stroke-opacity:1"
       d="M 195.567,176.12419 L 195.567,341.98032"
       id="path3463" />
    <rect
       style="fill:#994d99;fill-opacity:1;fill-rule:evenodd;stroke:#000000;stroke-width:1;stroke-linecap:butt;stroke-miterlimit:4;stroke-dasharray:none;stroke-dashoffset:0;stroke-opacity:1"
       id="rect3465"
       width="49.348145"
       height="19.659018"
       x="216.32593"
       y="429.86349" />
    <rect
       style="fill:#d6add5;fill-opacity:1;fill-rule:evenodd;stroke:#000000;stroke-width:1;stroke-linecap:butt;stroke-miterlimit:4;stroke-dasharray:none;stroke-dashoffset:0;stroke-opacity:1"
       id="rect3467"
       width="49.348145"
       height="19.659018"
       x="285.18704"
       y="429.86349" />
    <text
       xml:space="preserve"
       style="font-size:14px;font-style:normal;font-weight:normal;fill:#000000;fill-opacity:1;stroke:none;stroke-width:1px;stroke-linecap:butt;stroke-linejoin:miter;stroke-opacity:1;font-family:Bitstream Vera Sans"
       x="381.77405"
       y="443.15613"
       id="text3473"><tspan
         sodipodi:role="line"
         id="tspan3475"
         x="381.77405"
         y="443.15613">Valor</tspan><tspan
         sodipodi:role="line"
         x="381.77405"
         y="460.65613"
         id="tspan3477" /><tspan
         sodipodi:role="line"
         x="381.77405"
         y="478.15613"
         id="tspan3479" /><tspan
         sodipodi:role="line"
         x="381.77405"
         y="495.65613"
         id="tspan3487">Tamaño</tspan></text>
    <path
       sodipodi:type="arc"
       style="fill:#561bcb;fill-opacity:1;fill-rule:evenodd;stroke:#000000;stroke-width:1;stroke-linecap:butt;stroke-miterlimit:4;stroke-dasharray:none;stroke-dashoffset:0;stroke-opacity:1"
       id="path3471"
       sodipodi:cx="221.26424"
       sodipodi:cy="316.15207"
       sodipodi:rx="7.0210776"
       sodipodi:ry="6.8204751"
       d="M 228.28531,316.15207 A 7.0210776,6.8204751 0 1 1 214.24316,316.15207 A 7.0210776,6.8204751 0 1 1 228.28531,316.15207 z"
       transform="matrix(1.1290614,0,0,1.1622692,-8.8209071,123.44554)" />
    <path
       sodipodi:type="arc"
       style="fill:#561bcb;fill-opacity:1;fill-rule:evenodd;stroke:#000000;stroke-width:0.66463292;stroke-linecap:butt;stroke-miterlimit:4;stroke-dasharray:none;stroke-dashoffset:0;stroke-opacity:1"
       id="path3819"
       sodipodi:cx="221.26424"
       sodipodi:cy="316.15207"
       sodipodi:rx="7.0210776"
       sodipodi:ry="6.8204751"
       d="M 228.28531,316.15207 A 7.0210776,6.8204751 0 1 1 214.24316,316.15207 A 7.0210776,6.8204751 0 1 1 228.28531,316.15207 z"
       transform="matrix(1.6987745,0,0,1.7487385,-65.859511,-61.967944)" />
    <path
       style="fill:none;fill-rule:evenodd;stroke:#000000;stroke-width:2;stroke-linecap:butt;stroke-linejoin:miter;stroke-miterlimit:4;stroke-dasharray:none;stroke-opacity:1"
       d="M 195.567,407.60626 L 195.567,529.18871"
       id="path3840" />
  </g>
</svg>
