<?xml version="1.0" encoding="UTF-8" standalone="no"?>
<!-- Created with Inkscape (http://www.inkscape.org/) -->
<svg
   xmlns:dc="http://purl.org/dc/elements/1.1/"
   xmlns:cc="http://web.resource.org/cc/"
   xmlns:rdf="http://www.w3.org/1999/02/22-rdf-syntax-ns#"
   xmlns:svg="http://www.w3.org/2000/svg"
   xmlns="http://www.w3.org/2000/svg"
   xmlns:sodipodi="http://sodipodi.sourceforge.net/DTD/sodipodi-0.dtd"
   xmlns:inkscape="http://www.inkscape.org/namespaces/inkscape"
   width="492.14584"
   height="235.83603"
   id="svg2"
   sodipodi:version="0.32"
   inkscape:version="0.45"
   sodipodi:modified="true"
   version="1.0">
  <defs
     id="defs4" />
  <sodipodi:namedview
     id="base"
     pagecolor="#ffffff"
     bordercolor="#666666"
     borderopacity="1.0"
     inkscape:pageopacity="0.0"
     inkscape:pageshadow="2"
     inkscape:zoom="1.9059391"
     inkscape:cx="246.07292"
     inkscape:cy="117.91801"
     inkscape:document-units="px"
     inkscape:current-layer="layer1"
     showguides="true"
     inkscape:guide-bbox="true"
     inkscape:window-width="1024"
     inkscape:window-height="715"
     inkscape:window-x="0"
     inkscape:window-y="0" />
  <metadata
     id="metadata7">
    <rdf:RDF>
      <cc:Work
         rdf:about="">
        <dc:format>image/svg+xml</dc:format>
        <dc:type
           rdf:resource="http://purl.org/dc/dcmitype/StillImage" />
      </cc:Work>
    </rdf:RDF>
  </metadata>
  <g
     inkscape:label="Capa 1"
     inkscape:groupmode="layer"
     id="layer1"
     transform="translate(-92.610855,-399.40683)">
    <path
       style="fill:none;fill-rule:evenodd;stroke:#000000;stroke-width:1px;stroke-linecap:butt;stroke-linejoin:miter;stroke-opacity:1"
       d="M 152.53348,399.90683 L 152.53348,607.98718 L 573.10268,607.98718"
       id="path2223"
       sodipodi:nodetypes="ccc" />
    <path
       style="fill:none;fill-rule:evenodd;stroke:#29caca;stroke-width:2;stroke-linecap:butt;stroke-linejoin:miter;stroke-miterlimit:4;stroke-dasharray:none;stroke-opacity:1"
       d="M 151.86021,485.43137 C 164.02013,483.7577 178.5365,481.47911 190.72325,480.17039 C 203.20877,477.5845 211.5673,474.40457 223.97925,472.45442 C 234.6322,472.44158 248.73392,468.43861 259.49241,468.97166 C 272.46776,468.68944 285.4753,466.92825 298.4198,467.63024 C 313.40255,469.89508 328.57421,469.61099 343.67156,469.49073 C 355.88899,466.33662 380.44262,465.07388 380.96416,463.8336 C 389.38371,462.73518 399.49757,458.40923 404.88543,455.73923 C 412.65411,453.17386 421.22115,453.79552 428.63283,450.32259 L 430.26786,450.16352"
       id="path2225"
       sodipodi:nodetypes="cccccccccc" />
    <path
       style="fill:none;fill-rule:evenodd;stroke:#e96715;stroke-width:2;stroke-linecap:butt;stroke-linejoin:miter;stroke-miterlimit:4;stroke-dasharray:none;stroke-opacity:1"
       d="M 153.10808,569.35435 C 154.82398,569.35435 160.49786,569.19254 164.87723,569.19254 C 170.18649,569.19254 174.59704,569.62281 178.98438,567.42915 C 181.99113,565.92577 188.55594,564.59541 191.32813,563.90236 C 195.1729,562.94117 200.56702,563.90236 204.55357,563.90236 C 209.54931,563.90236 229.6357,567.00805 234.58636,567.5738 C 240.30754,568.22761 244.62311,567.5738 247.8118,567.5738 C 252.22029,567.5738 258.21996,569.3923 262.62844,569.3923 C 267.69288,569.3923 270.45964,570.12953 274.20759,569.19254 C 278.47614,568.1254 281.85547,568.31084 286.55134,568.31084 C 290.63901,568.31084 293.84239,566.54745 298.01339,566.54745 C 303.1848,566.54745 306.45312,563.90236 311.23884,563.90236 C 315.56386,563.90236 320.19622,562.13897 325.34598,562.13897 C 330.16732,562.13897 332.58011,561.25727 337.68973,561.25727 C 342.76225,561.25727 345.54429,560.37558 350.03348,560.37558 C 354.49819,560.37558 357.337,559.49388 362.37723,559.49388 C 367.56289,559.49388 369.7519,558.75233 373.83929,557.73049 C 376.79235,556.99222 382.93634,551.85941 385.30134,550.67691 C 389.09594,548.77962 394.83586,548.09748 399.40848,546.26843 C 403.64881,544.5723 420.82697,542.74165 424.97768,542.74165 C 427.63188,542.74165 428.70174,542.25148 430.26786,541.85995"
       id="path2227"
       sodipodi:nodetypes="csssssssssssssssssssc" />
    <path
       style="fill:none;fill-rule:evenodd;stroke:#d0df26;stroke-width:2;stroke-linecap:butt;stroke-linejoin:miter;stroke-miterlimit:4;stroke-dasharray:none;stroke-opacity:1"
       d="M 153.25337,574.48273 C 168.51792,573.09589 183.69646,569.14145 199.09559,570.04503 C 215.16327,570.25169 230.96718,573.10207 246.62172,576.46489 C 256.47507,577.39451 266.40928,577.81695 276.30364,578.02127 C 290.73767,576.30599 303.13646,565.38 308.9322,552.33027 C 316.68134,542.54928 322.19713,528.61525 335.8311,525.9994 C 350.93863,519.8826 367.43817,522.1631 383.28994,520.61085 C 397.24031,519.79293 411.1633,520.56106 425.07612,520.45958 C 426.48336,520.28288 428.32424,519.70368 428.50446,518.05415"
       id="path2229"
       sodipodi:nodetypes="ccccccccc" />
    <path
       style="fill:none;fill-rule:evenodd;stroke:#00ff3a;stroke-width:2;stroke-linecap:butt;stroke-linejoin:miter;stroke-miterlimit:4;stroke-dasharray:none;stroke-opacity:1"
       d="M 153.25337,583.29968 C 164.48777,584.77023 176.14369,584.64239 186.91964,588.58986 C 198.38691,588.12004 204.83145,598.90952 214.92903,600.58456 C 225.46005,599.46996 225.01646,586.61554 229.13185,579.38711 C 232.50278,564.29567 244.46228,576.12057 248.92177,583.68277 C 255.17337,590.62362 261.00038,598.88794 270.7245,600.95002 C 283.40282,605.10744 293.4645,592.85373 294.84309,581.21737 C 297.50767,566.64945 297.81648,551.5438 302.29479,537.35952 C 306.70974,528.53858 304.24434,517.70351 308.27101,508.49367 C 311.60292,496.81235 315.87504,484.60397 324.38163,475.67761 C 334.42652,474.02292 342.42071,486.45708 353.76306,484.87668 C 372.90743,486.33088 391.89389,482.67604 411.04399,482.81671 C 417.22592,482.63802 423.40846,482.45346 429.59281,482.38677"
       id="path2231"
       sodipodi:nodetypes="ccccccccccccc" />
    <path
       style="fill:none;fill-rule:evenodd;stroke:#0000f8;stroke-width:2;stroke-linecap:butt;stroke-linejoin:miter;stroke-miterlimit:4;stroke-dasharray:none;stroke-opacity:1"
       d="M 153.18677,586.34851 C 163.98465,585.14469 174.71122,590.08506 185.57733,588.88156 C 200.69185,590.29607 215.78898,590.36695 230.87645,592.09173 C 247.6924,592.28807 250.07176,593.31213 259.64868,593.60521 C 270.10912,593.0273 280.38858,594.49669 290.58386,596.68991 C 294.12799,596.45157 315.76526,597.06148 331.21275,599.66076 C 341.94531,598.84413 352.07894,603.28834 362.85186,602.32742 C 379.79708,603.0866 396.62867,605.73713 413.61773,605.97142 C 418.69657,606.33501 424.25638,606.27825 429.33985,606.5748"
       id="path2233"
       sodipodi:nodetypes="ccccccccc" />
    <text
       xml:space="preserve"
       style="font-size:10px;font-style:normal;font-weight:normal;fill:#000000;fill-opacity:1;stroke:none;stroke-width:1px;stroke-linecap:butt;stroke-linejoin:miter;stroke-opacity:1;font-family:Bitstream Vera Sans"
       x="173.00377"
       y="633.16278"
       id="text3211"><tspan
         sodipodi:role="line"
         id="tspan3213"
         x="173.00377"
         y="633.16278">0.4       0.5      0.6      0.7       0.8      0.9       1       1.1      longitud de onda (micras)</tspan></text>
    <text
       xml:space="preserve"
       style="font-size:10px;font-style:normal;font-weight:normal;fill:#000000;fill-opacity:1;stroke:none;stroke-width:1px;stroke-linecap:butt;stroke-linejoin:miter;stroke-opacity:1;font-family:Bitstream Vera Sans"
       x="119.4165"
       y="440.14813"
       id="text3215"><tspan
         sodipodi:role="line"
         id="tspan3217"
         x="119.4165"
         y="440.14813">80</tspan></text>
    <text
       xml:space="preserve"
       style="font-size:10px;font-style:normal;font-weight:normal;fill:#000000;fill-opacity:1;stroke:none;stroke-width:1px;stroke-linecap:butt;stroke-linejoin:miter;stroke-opacity:1;font-family:Bitstream Vera Sans"
       x="119.39697"
       y="484.78992"
       id="text3219"><tspan
         sodipodi:role="line"
         id="tspan3221"
         x="119.39697"
         y="484.78992">60</tspan></text>
    <text
       xml:space="preserve"
       style="font-size:10px;font-style:normal;font-weight:normal;fill:#000000;fill-opacity:1;stroke:none;stroke-width:1px;stroke-linecap:butt;stroke-linejoin:miter;stroke-opacity:1;font-family:Bitstream Vera Sans"
       x="119.60693"
       y="523.94916"
       id="text3223"><tspan
         sodipodi:role="line"
         id="tspan3225"
         x="119.60693"
         y="523.94916">40</tspan></text>
    <text
       xml:space="preserve"
       style="font-size:10px;font-style:normal;font-weight:normal;fill:#000000;fill-opacity:1;stroke:none;stroke-width:1px;stroke-linecap:butt;stroke-linejoin:miter;stroke-opacity:1;font-family:Bitstream Vera Sans"
       x="119.36279"
       y="566.59094"
       id="text3227"><tspan
         sodipodi:role="line"
         id="tspan3229"
         x="119.36279"
         y="566.59094">20</tspan></text>
    <path
       style="fill:none;fill-rule:evenodd;stroke:#000000;stroke-width:1px;stroke-linecap:butt;stroke-linejoin:miter;stroke-opacity:1"
       d="M 140.71786,440.7573 L 152.90122,440.7573"
       id="path3231" />
    <path
       style="fill:none;fill-rule:evenodd;stroke:#000000;stroke-width:1px;stroke-linecap:butt;stroke-linejoin:miter;stroke-opacity:1"
       d="M 140.10869,480.35324 L 152.29205,480.35324"
       id="path3233" />
    <path
       style="fill:none;fill-rule:evenodd;stroke:#000000;stroke-width:1px;stroke-linecap:butt;stroke-linejoin:miter;stroke-opacity:1"
       d="M 140.37287,522.73083 L 152.55623,522.73083"
       id="path3235" />
    <path
       style="fill:none;fill-rule:evenodd;stroke:#000000;stroke-width:1px;stroke-linecap:butt;stroke-linejoin:miter;stroke-opacity:1"
       d="M 139.75283,563.36174 L 151.93619,563.36174"
       id="path3237" />
    <text
       xml:space="preserve"
       style="font-size:10px;font-style:normal;font-weight:normal;fill:#000000;fill-opacity:1;stroke:none;stroke-width:1px;stroke-linecap:butt;stroke-linejoin:miter;stroke-opacity:1;font-family:Bitstream Vera Sans"
       x="439.81827"
       y="452.06732"
       id="text3239"><tspan
         sodipodi:role="line"
         id="tspan3241"
         x="439.81827"
         y="452.06732">nieve</tspan></text>
    <text
       xml:space="preserve"
       style="font-size:10px;font-style:normal;font-weight:normal;fill:#000000;fill-opacity:1;stroke:none;stroke-width:1px;stroke-linecap:butt;stroke-linejoin:miter;stroke-opacity:1;font-family:Bitstream Vera Sans"
       x="440.42862"
       y="484.52573"
       id="text3243"><tspan
         sodipodi:role="line"
         id="tspan3245"
         x="440.42862"
         y="484.52573">vegetación vigorosa</tspan></text>
    <text
       xml:space="preserve"
       style="font-size:10px;font-style:normal;font-weight:normal;fill:#000000;fill-opacity:1;stroke:none;stroke-width:1px;stroke-linecap:butt;stroke-linejoin:miter;stroke-opacity:1;font-family:Bitstream Vera Sans"
       x="440.42862"
       y="521.07581"
       id="text3247"><tspan
         sodipodi:role="line"
         id="tspan3249"
         x="440.42862"
         y="521.07581">vegetación marchita</tspan></text>
    <text
       xml:space="preserve"
       style="font-size:10px;font-style:normal;font-weight:normal;fill:#000000;fill-opacity:1;stroke:none;stroke-width:1px;stroke-linecap:butt;stroke-linejoin:miter;stroke-opacity:1;font-family:Bitstream Vera Sans"
       x="440.18448"
       y="545.09753"
       id="text3251"><tspan
         sodipodi:role="line"
         id="tspan3253"
         x="440.18448"
         y="545.09753">suelo desnudo</tspan></text>
    <text
       xml:space="preserve"
       style="font-size:10px;font-style:normal;font-weight:normal;fill:#000000;fill-opacity:1;stroke:none;stroke-width:1px;stroke-linecap:butt;stroke-linejoin:miter;stroke-opacity:1;font-family:Bitstream Vera Sans"
       x="440.12589"
       y="602.53186"
       id="text3255"><tspan
         sodipodi:role="line"
         id="tspan3257"
         x="440.12589"
         y="602.53186">agua</tspan></text>
    <text
       xml:space="preserve"
       style="font-size:10px;font-style:normal;font-weight:normal;fill:#000000;fill-opacity:1;stroke:none;stroke-width:1px;stroke-linecap:butt;stroke-linejoin:miter;stroke-opacity:1;font-family:Bitstream Vera Sans"
       x="-535.90485"
       y="100.20851"
       id="text3259"
       transform="matrix(0,-1,1,0,0,0)"><tspan
         sodipodi:role="line"
         id="tspan3261"
         x="-535.90485"
         y="100.20851">Reflectancia (%)</tspan></text>
    <path
       style="fill:none;fill-rule:evenodd;stroke:#000000;stroke-width:1px;stroke-linecap:butt;stroke-linejoin:miter;stroke-opacity:1"
       d="M 180.90392,620.43337 L 180.90392,608.25001"
       id="path4232" />
    <path
       style="fill:none;fill-rule:evenodd;stroke:#000000;stroke-width:1px;stroke-linecap:butt;stroke-linejoin:miter;stroke-opacity:1"
       d="M 216.8258,619.78613 L 216.8258,607.60277"
       id="path4234" />
    <path
       style="fill:none;fill-rule:evenodd;stroke:#000000;stroke-width:1px;stroke-linecap:butt;stroke-linejoin:miter;stroke-opacity:1"
       d="M 252.74769,620.43336 L 252.74769,608.25"
       id="path4236" />
    <path
       style="fill:none;fill-rule:evenodd;stroke:#000000;stroke-width:1px;stroke-linecap:butt;stroke-linejoin:miter;stroke-opacity:1"
       d="M 288.66956,620.43336 L 288.66956,608.25"
       id="path4238" />
    <path
       style="fill:none;fill-rule:evenodd;stroke:#000000;stroke-width:1px;stroke-linecap:butt;stroke-linejoin:miter;stroke-opacity:1"
       d="M 324.59145,620.43337 L 324.59145,608.25001"
       id="path4240" />
    <path
       style="fill:none;fill-rule:evenodd;stroke:#000000;stroke-width:1px;stroke-linecap:butt;stroke-linejoin:miter;stroke-opacity:1"
       d="M 360.51335,620.43336 L 360.51335,608.25"
       id="path4242" />
    <path
       style="fill:none;fill-rule:evenodd;stroke:#000000;stroke-width:1px;stroke-linecap:butt;stroke-linejoin:miter;stroke-opacity:1"
       d="M 396.43522,620.43336 L 396.43522,608.25"
       id="path4244" />
    <path
       style="fill:none;fill-rule:evenodd;stroke:#000000;stroke-width:1px;stroke-linecap:butt;stroke-linejoin:miter;stroke-opacity:1"
       d="M 432.35713,620.27156 L 432.35713,608.0882"
       id="path4246" />
  </g>
</svg>
