<?xml version="1.0" encoding="UTF-8" standalone="no"?>
<!-- Created with Inkscape (http://www.inkscape.org/) -->

<svg
   xmlns:dc="http://purl.org/dc/elements/1.1/"
   xmlns:cc="http://creativecommons.org/ns#"
   xmlns:rdf="http://www.w3.org/1999/02/22-rdf-syntax-ns#"
   xmlns:svg="http://www.w3.org/2000/svg"
   xmlns="http://www.w3.org/2000/svg"
   xmlns:sodipodi="http://sodipodi.sourceforge.net/DTD/sodipodi-0.dtd"
   xmlns:inkscape="http://www.inkscape.org/namespaces/inkscape"
   width="586.7785"
   height="267.99469"
   id="svg2201"
   sodipodi:version="0.32"
   inkscape:version="0.48.4 r9939"
   sodipodi:modified="true"
   version="1.1"
   sodipodi:docname="efecto_borde.svg">
  <defs
     id="defs2203" />
  <sodipodi:namedview
     id="base"
     pagecolor="#ffffff"
     bordercolor="#666666"
     borderopacity="1.0"
     inkscape:pageopacity="0.0"
     inkscape:pageshadow="2"
     inkscape:zoom="0.84761693"
     inkscape:cx="-292.88539"
     inkscape:cy="-115.34793"
     inkscape:document-units="px"
     inkscape:current-layer="layer1"
     inkscape:window-width="1920"
     inkscape:window-height="1057"
     inkscape:window-x="-8"
     inkscape:window-y="-8"
     showgrid="false"
     inkscape:window-maximized="1"
     fit-margin-top="0"
     fit-margin-left="0"
     fit-margin-right="0"
     fit-margin-bottom="0" />
  <metadata
     id="metadata2206">
    <rdf:RDF>
      <cc:Work
         rdf:about="">
        <dc:format>image/svg+xml</dc:format>
        <dc:type
           rdf:resource="http://purl.org/dc/dcmitype/StillImage" />
        <dc:title></dc:title>
      </cc:Work>
    </rdf:RDF>
  </metadata>
  <g
     inkscape:label="Capa 1"
     inkscape:groupmode="layer"
     id="layer1"
     transform="translate(-480.88722,-142.83848)">
    <path
       style="fill:none;stroke:#000000;stroke-width:5;stroke-linecap:butt;stroke-linejoin:miter;stroke-miterlimit:4;stroke-opacity:1;stroke-dasharray:none"
       d="m 502.44537,194.46996 c 31.63723,-59.12273 107.87124,-48.36577 169.57565,-48.36577 79.83353,0 81.08307,121.16201 155.65866,136.84084 57.87381,12.16744 45.18999,-2.22647 99.19159,1.17853 24.38395,1.53751 200.94713,41.81468 114.78003,82.57532 -66.90141,31.64712 -118.15494,-7.07755 -190.0796,-7.07755 -83.59364,0 -163.21976,58.83054 -249.37595,47.18611 C 488.22916,391.40431 459.25079,268.02819 502.44537,194.46996 z"
       id="path3113"
       inkscape:connector-curvature="0"
       sodipodi:nodetypes="cssssssc" />
    <path
       sodipodi:type="arc"
       style="fill:#00a900;fill-opacity:0.58201055;stroke:#000000;stroke-width:2;stroke-miterlimit:4;stroke-opacity:1;stroke-dasharray:none"
       id="path4810-1"
       sodipodi:cx="-751.42859"
       sodipodi:cy="109.50504"
       sodipodi:rx="14.285714"
       sodipodi:ry="14.285714"
       d="m -737.14287,109.50504 c 0,7.88979 -6.39594,14.28572 -14.28572,14.28572 -7.88978,0 -14.28571,-6.39593 -14.28571,-14.28572 0,-7.88978 6.39593,-14.285711 14.28571,-14.285711 7.88978,0 14.28572,6.395931 14.28572,14.285711 z"
       transform="matrix(0.47654038,0,0,0.49458184,1413.3861,289.66857)" />
    <path
       sodipodi:type="arc"
       style="fill:#00a900;fill-opacity:0.58201055;stroke:#000000;stroke-width:2;stroke-miterlimit:4;stroke-opacity:1;stroke-dasharray:none"
       id="path4828-7"
       sodipodi:cx="-751.42859"
       sodipodi:cy="109.50504"
       sodipodi:rx="14.285714"
       sodipodi:ry="14.285714"
       d="m -737.14287,109.50504 c 0,7.88979 -6.39594,14.28572 -14.28572,14.28572 -7.88978,0 -14.28571,-6.39593 -14.28571,-14.28572 0,-7.88978 6.39593,-14.285711 14.28571,-14.285711 7.88978,0 14.28572,6.395931 14.28572,14.285711 z"
       transform="matrix(0.47654038,0,0,0.49458184,1380.4045,289.66857)" />
    <g
       id="g4704"
       transform="translate(34.213569,-535.61932)">
      <path
         transform="matrix(1.3476905,0,0,1.3476905,-178.93275,55.759175)"
         d="m 855.3392,581.04077 c 0,18.56985 -15.05384,33.62368 -33.62368,33.62368 -18.56985,0 -33.62368,-15.05383 -33.62368,-33.62368 0,-18.56984 15.05383,-33.62368 33.62368,-33.62368 18.56984,0 33.62368,15.05384 33.62368,33.62368 z"
         sodipodi:ry="33.62368"
         sodipodi:rx="33.62368"
         sodipodi:cy="581.04077"
         sodipodi:cx="821.71552"
         id="path3721-6"
         style="fill:none;stroke:#000000;stroke-width:2.64467025;stroke-miterlimit:4;stroke-opacity:1;stroke-dasharray:10.57868127, 5.28934064;stroke-dashoffset:0"
         sodipodi:type="arc" />
      <path
         transform="matrix(2.3852527,0,0,2.3852527,-1031.5137,-547.10674)"
         d="m 855.3392,581.04077 c 0,18.56985 -15.05384,33.62368 -33.62368,33.62368 -18.56985,0 -33.62368,-15.05383 -33.62368,-33.62368 0,-18.56984 15.05383,-33.62368 33.62368,-33.62368 18.56984,0 33.62368,15.05384 33.62368,33.62368 z"
         sodipodi:ry="33.62368"
         sodipodi:rx="33.62368"
         sodipodi:cy="581.04077"
         sodipodi:cx="821.71552"
         id="path3721-0-0"
         style="fill:none;stroke:#000000;stroke-width:1.49426389;stroke-miterlimit:4;stroke-opacity:1;stroke-dasharray:5.9770557, 2.98852785;stroke-dashoffset:0"
         sodipodi:type="arc" />
      <path
         transform="matrix(0.58947203,0,0,0.58947203,444.10715,496.31504)"
         d="m 855.3392,581.04077 c 0,18.56985 -15.05384,33.62368 -33.62368,33.62368 -18.56985,0 -33.62368,-15.05383 -33.62368,-33.62368 0,-18.56984 15.05383,-33.62368 33.62368,-33.62368 18.56984,0 33.62368,15.05384 33.62368,33.62368 z"
         sodipodi:ry="33.62368"
         sodipodi:rx="33.62368"
         sodipodi:cy="581.04077"
         sodipodi:cx="821.71552"
         id="path3721-1-7"
         style="fill:none;stroke:#000000;stroke-width:6.04642248;stroke-miterlimit:4;stroke-opacity:1;stroke-dasharray:24.1856908, 12.09284541;stroke-dashoffset:0"
         sodipodi:type="arc" />
    </g>
    <path
       sodipodi:type="arc"
       style="fill:#00a900;fill-opacity:0.58201055;stroke:#000000;stroke-width:2;stroke-miterlimit:4;stroke-opacity:1;stroke-dasharray:none"
       id="path4502-2"
       sodipodi:cx="-751.42859"
       sodipodi:cy="109.50504"
       sodipodi:rx="14.285714"
       sodipodi:ry="14.285714"
       d="m -737.14287,109.50504 c 0,7.88979 -6.39594,14.28572 -14.28572,14.28572 -7.88978,0 -14.28571,-6.39593 -14.28571,-14.28572 0,-7.88978 6.39593,-14.285711 14.28571,-14.285711 7.88978,0 14.28572,6.395931 14.28572,14.285711 z"
       transform="matrix(0.47654038,0,0,0.49458184,1249.4201,253.01287)" />
    <path
       sodipodi:type="arc"
       style="fill:#00a900;fill-opacity:0.58201055;stroke:#000000;stroke-width:2;stroke-miterlimit:4;stroke-opacity:1;stroke-dasharray:none"
       id="path4232"
       sodipodi:cx="-751.42859"
       sodipodi:cy="109.50504"
       sodipodi:rx="14.285714"
       sodipodi:ry="14.285714"
       d="m -737.14287,109.50504 c 0,7.88979 -6.39594,14.28572 -14.28572,14.28572 -7.88978,0 -14.28571,-6.39593 -14.28571,-14.28572 0,-7.88978 6.39593,-14.285711 14.28571,-14.285711 7.88978,0 14.28572,6.395931 14.28572,14.285711 z"
       transform="matrix(0.47654038,0,0,0.49458184,985.48632,258.97507)" />
    <path
       sodipodi:type="arc"
       style="fill:#00a900;fill-opacity:0.58201055;stroke:#000000;stroke-width:2;stroke-miterlimit:4;stroke-opacity:1;stroke-dasharray:none"
       id="path4254"
       sodipodi:cx="-751.42859"
       sodipodi:cy="109.50504"
       sodipodi:rx="14.285714"
       sodipodi:ry="14.285714"
       d="m -737.14287,109.50504 c 0,7.88979 -6.39594,14.28572 -14.28572,14.28572 -7.88978,0 -14.28571,-6.39593 -14.28571,-14.28572 0,-7.88978 6.39593,-14.285711 14.28571,-14.285711 7.88978,0 14.28572,6.395931 14.28572,14.285711 z"
       transform="matrix(0.47654038,0,0,0.49458184,985.48632,332.28647)" />
    <path
       sodipodi:type="arc"
       style="fill:#00a900;fill-opacity:0.58201055;stroke:#000000;stroke-width:2;stroke-miterlimit:4;stroke-opacity:1;stroke-dasharray:none"
       id="path4264"
       sodipodi:cx="-751.42859"
       sodipodi:cy="109.50504"
       sodipodi:rx="14.285714"
       sodipodi:ry="14.285714"
       d="m -737.14287,109.50504 c 0,7.88979 -6.39594,14.28572 -14.28572,14.28572 -7.88978,0 -14.28571,-6.39593 -14.28571,-14.28572 0,-7.88978 6.39593,-14.285711 14.28571,-14.285711 7.88978,0 14.28572,6.395931 14.28572,14.285711 z"
       transform="matrix(0.47654038,0,0,0.49458184,985.48632,295.63077)" />
    <path
       sodipodi:type="arc"
       style="fill:#00a900;fill-opacity:0.58201055;stroke:#000000;stroke-width:2;stroke-miterlimit:4;stroke-opacity:1;stroke-dasharray:none"
       id="path4280"
       sodipodi:cx="-751.42859"
       sodipodi:cy="109.50504"
       sodipodi:rx="14.285714"
       sodipodi:ry="14.285714"
       d="m -737.14287,109.50504 c 0,7.88979 -6.39594,14.28572 -14.28572,14.28572 -7.88978,0 -14.28571,-6.39593 -14.28571,-14.28572 0,-7.88978 6.39593,-14.285711 14.28571,-14.285711 7.88978,0 14.28572,6.395931 14.28572,14.285711 z"
       transform="matrix(0.47654038,0,0,0.49458184,919.5232,258.97507)" />
    <path
       sodipodi:type="arc"
       style="fill:#00a900;fill-opacity:0.58201055;stroke:#000000;stroke-width:2;stroke-miterlimit:4;stroke-opacity:1;stroke-dasharray:none"
       id="path4282"
       sodipodi:cx="-751.42859"
       sodipodi:cy="109.50504"
       sodipodi:rx="14.285714"
       sodipodi:ry="14.285714"
       d="m -737.14287,109.50504 c 0,7.88979 -6.39594,14.28572 -14.28572,14.28572 -7.88978,0 -14.28571,-6.39593 -14.28571,-14.28572 0,-7.88978 6.39593,-14.285711 14.28571,-14.285711 7.88978,0 14.28572,6.395931 14.28572,14.285711 z"
       transform="matrix(0.47654038,0,0,0.49458184,919.5232,332.28647)" />
    <path
       sodipodi:type="arc"
       style="fill:#00a900;fill-opacity:0.58201055;stroke:#000000;stroke-width:2;stroke-miterlimit:4;stroke-opacity:1;stroke-dasharray:none"
       id="path4292"
       sodipodi:cx="-751.42859"
       sodipodi:cy="109.50504"
       sodipodi:rx="14.285714"
       sodipodi:ry="14.285714"
       d="m -737.14287,109.50504 c 0,7.88979 -6.39594,14.28572 -14.28572,14.28572 -7.88978,0 -14.28571,-6.39593 -14.28571,-14.28572 0,-7.88978 6.39593,-14.285711 14.28571,-14.285711 7.88978,0 14.28572,6.395931 14.28572,14.285711 z"
       transform="matrix(0.47654038,0,0,0.49458184,919.5232,295.63077)" />
    <path
       sodipodi:type="arc"
       style="fill:#00a900;fill-opacity:0.58201055;stroke:#000000;stroke-width:2;stroke-miterlimit:4;stroke-opacity:1;stroke-dasharray:none"
       id="path4298"
       sodipodi:cx="-751.42859"
       sodipodi:cy="109.50504"
       sodipodi:rx="14.285714"
       sodipodi:ry="14.285714"
       d="m -737.14287,109.50504 c 0,7.88979 -6.39594,14.28572 -14.28572,14.28572 -7.88978,0 -14.28571,-6.39593 -14.28571,-14.28572 0,-7.88978 6.39593,-14.285711 14.28571,-14.285711 7.88978,0 14.28572,6.395931 14.28572,14.285711 z"
       transform="matrix(0.47654038,0,0,0.49458184,853.56009,258.97507)" />
    <path
       sodipodi:type="arc"
       style="fill:#00a900;fill-opacity:0.58201055;stroke:#000000;stroke-width:2;stroke-miterlimit:4;stroke-opacity:1;stroke-dasharray:none"
       id="path4406"
       sodipodi:cx="-751.42859"
       sodipodi:cy="109.50504"
       sodipodi:rx="14.285714"
       sodipodi:ry="14.285714"
       d="m -737.14287,109.50504 c 0,7.88979 -6.39594,14.28572 -14.28572,14.28572 -7.88978,0 -14.28571,-6.39593 -14.28571,-14.28572 0,-7.88978 6.39593,-14.285711 14.28571,-14.285711 7.88978,0 14.28572,6.395931 14.28572,14.285711 z"
       transform="matrix(0.47654038,0,0,0.49458184,952.50479,258.97507)" />
    <path
       sodipodi:type="arc"
       style="fill:#00a900;fill-opacity:0.58201055;stroke:#000000;stroke-width:2;stroke-miterlimit:4;stroke-opacity:1;stroke-dasharray:none"
       id="path4408"
       sodipodi:cx="-751.42859"
       sodipodi:cy="109.50504"
       sodipodi:rx="14.285714"
       sodipodi:ry="14.285714"
       d="m -737.14287,109.50504 c 0,7.88979 -6.39594,14.28572 -14.28572,14.28572 -7.88978,0 -14.28571,-6.39593 -14.28571,-14.28572 0,-7.88978 6.39593,-14.285711 14.28571,-14.285711 7.88978,0 14.28572,6.395931 14.28572,14.285711 z"
       transform="matrix(0.47654038,0,0,0.49458184,952.50479,332.28647)" />
    <path
       sodipodi:type="arc"
       style="fill:#00a900;fill-opacity:0.58201055;stroke:#000000;stroke-width:2;stroke-miterlimit:4;stroke-opacity:1;stroke-dasharray:none"
       id="path4418"
       sodipodi:cx="-751.42859"
       sodipodi:cy="109.50504"
       sodipodi:rx="14.285714"
       sodipodi:ry="14.285714"
       d="m -737.14287,109.50504 c 0,7.88979 -6.39594,14.28572 -14.28572,14.28572 -7.88978,0 -14.28571,-6.39593 -14.28571,-14.28572 0,-7.88978 6.39593,-14.285711 14.28571,-14.285711 7.88978,0 14.28572,6.395931 14.28572,14.285711 z"
       transform="matrix(0.47654038,0,0,0.49458184,952.50479,295.63077)" />
    <path
       sodipodi:type="arc"
       style="fill:#00a900;fill-opacity:0.58201055;stroke:#000000;stroke-width:2;stroke-miterlimit:4;stroke-opacity:1;stroke-dasharray:none"
       id="path4424"
       sodipodi:cx="-751.42859"
       sodipodi:cy="109.50504"
       sodipodi:rx="14.285714"
       sodipodi:ry="14.285714"
       d="m -737.14287,109.50504 c 0,7.88979 -6.39594,14.28572 -14.28572,14.28572 -7.88978,0 -14.28571,-6.39593 -14.28571,-14.28572 0,-7.88978 6.39593,-14.285711 14.28571,-14.285711 7.88978,0 14.28572,6.395931 14.28572,14.285711 z"
       transform="matrix(0.47654038,0,0,0.49458184,886.54168,258.97507)" />
    <path
       sodipodi:type="arc"
       style="fill:#00a900;fill-opacity:0.58201055;stroke:#000000;stroke-width:2;stroke-miterlimit:4;stroke-opacity:1;stroke-dasharray:none"
       id="path4436"
       sodipodi:cx="-751.42859"
       sodipodi:cy="109.50504"
       sodipodi:rx="14.285714"
       sodipodi:ry="14.285714"
       d="m -737.14287,109.50504 c 0,7.88979 -6.39594,14.28572 -14.28572,14.28572 -7.88978,0 -14.28571,-6.39593 -14.28571,-14.28572 0,-7.88978 6.39593,-14.285711 14.28571,-14.285711 7.88978,0 14.28572,6.395931 14.28572,14.285711 z"
       transform="matrix(0.47654038,0,0,0.49458184,886.54168,295.63077)" />
    <path
       sodipodi:type="arc"
       style="fill:#00a900;fill-opacity:0.58201055;stroke:#000000;stroke-width:2;stroke-miterlimit:4;stroke-opacity:1;stroke-dasharray:none"
       id="path4482"
       sodipodi:cx="-751.42859"
       sodipodi:cy="109.50504"
       sodipodi:rx="14.285714"
       sodipodi:ry="14.285714"
       d="m -737.14287,109.50504 c 0,7.88979 -6.39594,14.28572 -14.28572,14.28572 -7.88978,0 -14.28571,-6.39593 -14.28571,-14.28572 0,-7.88978 6.39593,-14.285711 14.28571,-14.285711 7.88978,0 14.28572,6.395931 14.28572,14.285711 z"
       transform="matrix(0.47654038,0,0,0.49458184,985.48632,107.56041)" />
    <path
       sodipodi:type="arc"
       style="fill:#00a900;fill-opacity:0.58201055;stroke:#000000;stroke-width:2;stroke-miterlimit:4;stroke-opacity:1;stroke-dasharray:none"
       id="path4484"
       sodipodi:cx="-751.42859"
       sodipodi:cy="109.50504"
       sodipodi:rx="14.285714"
       sodipodi:ry="14.285714"
       d="m -737.14287,109.50504 c 0,7.88979 -6.39594,14.28572 -14.28572,14.28572 -7.88978,0 -14.28571,-6.39593 -14.28571,-14.28572 0,-7.88978 6.39593,-14.285711 14.28571,-14.285711 7.88978,0 14.28572,6.395931 14.28572,14.285711 z"
       transform="matrix(0.47654038,0,0,0.49458184,985.48632,180.87188)" />
    <path
       sodipodi:type="arc"
       style="fill:#00a900;fill-opacity:0.58201055;stroke:#000000;stroke-width:2;stroke-miterlimit:4;stroke-opacity:1;stroke-dasharray:none"
       id="path4486"
       sodipodi:cx="-751.42859"
       sodipodi:cy="109.50504"
       sodipodi:rx="14.285714"
       sodipodi:ry="14.285714"
       d="m -737.14287,109.50504 c 0,7.88979 -6.39594,14.28572 -14.28572,14.28572 -7.88978,0 -14.28571,-6.39593 -14.28571,-14.28572 0,-7.88978 6.39593,-14.285711 14.28571,-14.285711 7.88978,0 14.28572,6.395931 14.28572,14.285711 z"
       transform="matrix(0.47654038,0,0,0.49458184,985.48632,217.52758)" />
    <path
       sodipodi:type="arc"
       style="fill:#00a900;fill-opacity:0.58201055;stroke:#000000;stroke-width:2;stroke-miterlimit:4;stroke-opacity:1;stroke-dasharray:none"
       id="path4492"
       sodipodi:cx="-751.42859"
       sodipodi:cy="109.50504"
       sodipodi:rx="14.285714"
       sodipodi:ry="14.285714"
       d="m -737.14287,109.50504 c 0,7.88979 -6.39594,14.28572 -14.28572,14.28572 -7.88978,0 -14.28571,-6.39593 -14.28571,-14.28572 0,-7.88978 6.39593,-14.285711 14.28571,-14.285711 7.88978,0 14.28572,6.395931 14.28572,14.285711 z"
       transform="matrix(0.47654038,0,0,0.49458184,985.48632,144.21618)" />
    <path
       sodipodi:type="arc"
       style="fill:#00a900;fill-opacity:0.58201055;stroke:#000000;stroke-width:2;stroke-miterlimit:4;stroke-opacity:1;stroke-dasharray:none"
       id="path4500"
       sodipodi:cx="-751.42859"
       sodipodi:cy="109.50504"
       sodipodi:rx="14.285714"
       sodipodi:ry="14.285714"
       d="m -737.14287,109.50504 c 0,7.88979 -6.39594,14.28572 -14.28572,14.28572 -7.88978,0 -14.28571,-6.39593 -14.28571,-14.28572 0,-7.88978 6.39593,-14.285711 14.28571,-14.285711 7.88978,0 14.28572,6.395931 14.28572,14.285711 z"
       transform="matrix(0.47654038,0,0,0.49458184,919.5232,107.56041)" />
    <path
       sodipodi:type="arc"
       style="fill:#00a900;fill-opacity:0.58201055;stroke:#000000;stroke-width:2;stroke-miterlimit:4;stroke-opacity:1;stroke-dasharray:none"
       id="path4502"
       sodipodi:cx="-751.42859"
       sodipodi:cy="109.50504"
       sodipodi:rx="14.285714"
       sodipodi:ry="14.285714"
       d="m -737.14287,109.50504 c 0,7.88979 -6.39594,14.28572 -14.28572,14.28572 -7.88978,0 -14.28571,-6.39593 -14.28571,-14.28572 0,-7.88978 6.39593,-14.285711 14.28571,-14.285711 7.88978,0 14.28572,6.395931 14.28572,14.285711 z"
       transform="matrix(0.47654038,0,0,0.49458184,919.5232,180.87188)" />
    <path
       sodipodi:type="arc"
       style="fill:#00a900;fill-opacity:0.58201055;stroke:#000000;stroke-width:2;stroke-miterlimit:4;stroke-opacity:1;stroke-dasharray:none"
       id="path4504"
       sodipodi:cx="-751.42859"
       sodipodi:cy="109.50504"
       sodipodi:rx="14.285714"
       sodipodi:ry="14.285714"
       d="m -737.14287,109.50504 c 0,7.88979 -6.39594,14.28572 -14.28572,14.28572 -7.88978,0 -14.28571,-6.39593 -14.28571,-14.28572 0,-7.88978 6.39593,-14.285711 14.28571,-14.285711 7.88978,0 14.28572,6.395931 14.28572,14.285711 z"
       transform="matrix(0.47654038,0,0,0.49458184,919.5232,217.52758)" />
    <path
       sodipodi:type="arc"
       style="fill:#00a900;fill-opacity:0.58201055;stroke:#000000;stroke-width:2;stroke-miterlimit:4;stroke-opacity:1;stroke-dasharray:none"
       id="path4510"
       sodipodi:cx="-751.42859"
       sodipodi:cy="109.50504"
       sodipodi:rx="14.285714"
       sodipodi:ry="14.285714"
       d="m -737.14287,109.50504 c 0,7.88979 -6.39594,14.28572 -14.28572,14.28572 -7.88978,0 -14.28571,-6.39593 -14.28571,-14.28572 0,-7.88978 6.39593,-14.285711 14.28571,-14.285711 7.88978,0 14.28572,6.395931 14.28572,14.285711 z"
       transform="matrix(0.47654038,0,0,0.49458184,919.5232,144.21618)" />
    <path
       sodipodi:type="arc"
       style="fill:#00a900;fill-opacity:0.58201055;stroke:#000000;stroke-width:2;stroke-miterlimit:4;stroke-opacity:1;stroke-dasharray:none"
       id="path4520"
       sodipodi:cx="-751.42859"
       sodipodi:cy="109.50504"
       sodipodi:rx="14.285714"
       sodipodi:ry="14.285714"
       d="m -737.14287,109.50504 c 0,7.88979 -6.39594,14.28572 -14.28572,14.28572 -7.88978,0 -14.28571,-6.39593 -14.28571,-14.28572 0,-7.88978 6.39593,-14.285711 14.28571,-14.285711 7.88978,0 14.28572,6.395931 14.28572,14.285711 z"
       transform="matrix(0.47654038,0,0,0.49458184,853.56009,180.87188)" />
    <path
       sodipodi:type="arc"
       style="fill:#00a900;fill-opacity:0.58201055;stroke:#000000;stroke-width:2;stroke-miterlimit:4;stroke-opacity:1;stroke-dasharray:none"
       id="path4522"
       sodipodi:cx="-751.42859"
       sodipodi:cy="109.50504"
       sodipodi:rx="14.285714"
       sodipodi:ry="14.285714"
       d="m -737.14287,109.50504 c 0,7.88979 -6.39594,14.28572 -14.28572,14.28572 -7.88978,0 -14.28571,-6.39593 -14.28571,-14.28572 0,-7.88978 6.39593,-14.285711 14.28571,-14.285711 7.88978,0 14.28572,6.395931 14.28572,14.285711 z"
       transform="matrix(0.47654038,0,0,0.49458184,853.56009,217.52758)" />
    <path
       sodipodi:type="arc"
       style="fill:#00a900;fill-opacity:0.58201055;stroke:#000000;stroke-width:2;stroke-miterlimit:4;stroke-opacity:1;stroke-dasharray:none"
       id="path4626"
       sodipodi:cx="-751.42859"
       sodipodi:cy="109.50504"
       sodipodi:rx="14.285714"
       sodipodi:ry="14.285714"
       d="m -737.14287,109.50504 c 0,7.88979 -6.39594,14.28572 -14.28572,14.28572 -7.88978,0 -14.28571,-6.39593 -14.28571,-14.28572 0,-7.88978 6.39593,-14.285711 14.28571,-14.285711 7.88978,0 14.28572,6.395931 14.28572,14.285711 z"
       transform="matrix(0.47654038,0,0,0.49458184,952.50479,107.56041)" />
    <path
       sodipodi:type="arc"
       style="fill:#00a900;fill-opacity:0.58201055;stroke:#000000;stroke-width:2;stroke-miterlimit:4;stroke-opacity:1;stroke-dasharray:none"
       id="path4628"
       sodipodi:cx="-751.42859"
       sodipodi:cy="109.50504"
       sodipodi:rx="14.285714"
       sodipodi:ry="14.285714"
       d="m -737.14287,109.50504 c 0,7.88979 -6.39594,14.28572 -14.28572,14.28572 -7.88978,0 -14.28571,-6.39593 -14.28571,-14.28572 0,-7.88978 6.39593,-14.285711 14.28571,-14.285711 7.88978,0 14.28572,6.395931 14.28572,14.285711 z"
       transform="matrix(0.47654038,0,0,0.49458184,952.50479,180.87188)" />
    <path
       sodipodi:type="arc"
       style="fill:#00a900;fill-opacity:0.58201055;stroke:#000000;stroke-width:2;stroke-miterlimit:4;stroke-opacity:1;stroke-dasharray:none"
       id="path4630"
       sodipodi:cx="-751.42859"
       sodipodi:cy="109.50504"
       sodipodi:rx="14.285714"
       sodipodi:ry="14.285714"
       d="m -737.14287,109.50504 c 0,7.88979 -6.39594,14.28572 -14.28572,14.28572 -7.88978,0 -14.28571,-6.39593 -14.28571,-14.28572 0,-7.88978 6.39593,-14.285711 14.28571,-14.285711 7.88978,0 14.28572,6.395931 14.28572,14.285711 z"
       transform="matrix(0.47654038,0,0,0.49458184,952.50479,217.52758)" />
    <path
       sodipodi:type="arc"
       style="fill:#00a900;fill-opacity:0.58201055;stroke:#000000;stroke-width:2;stroke-miterlimit:4;stroke-opacity:1;stroke-dasharray:none"
       id="path4636"
       sodipodi:cx="-751.42859"
       sodipodi:cy="109.50504"
       sodipodi:rx="14.285714"
       sodipodi:ry="14.285714"
       d="m -737.14287,109.50504 c 0,7.88979 -6.39594,14.28572 -14.28572,14.28572 -7.88978,0 -14.28571,-6.39593 -14.28571,-14.28572 0,-7.88978 6.39593,-14.285711 14.28571,-14.285711 7.88978,0 14.28572,6.395931 14.28572,14.285711 z"
       transform="matrix(0.47654038,0,0,0.49458184,952.50479,144.21618)" />
    <path
       sodipodi:type="arc"
       style="fill:#00a900;fill-opacity:0.58201055;stroke:#000000;stroke-width:2;stroke-miterlimit:4;stroke-opacity:1;stroke-dasharray:none"
       id="path4646"
       sodipodi:cx="-751.42859"
       sodipodi:cy="109.50504"
       sodipodi:rx="14.285714"
       sodipodi:ry="14.285714"
       d="m -737.14287,109.50504 c 0,7.88979 -6.39594,14.28572 -14.28572,14.28572 -7.88978,0 -14.28571,-6.39593 -14.28571,-14.28572 0,-7.88978 6.39593,-14.285711 14.28571,-14.285711 7.88978,0 14.28572,6.395931 14.28572,14.285711 z"
       transform="matrix(0.47654038,0,0,0.49458184,886.54168,180.87188)" />
    <path
       sodipodi:type="arc"
       style="fill:#00a900;fill-opacity:0.58201055;stroke:#000000;stroke-width:2;stroke-miterlimit:4;stroke-opacity:1;stroke-dasharray:none"
       id="path4648"
       sodipodi:cx="-751.42859"
       sodipodi:cy="109.50504"
       sodipodi:rx="14.285714"
       sodipodi:ry="14.285714"
       d="m -737.14287,109.50504 c 0,7.88979 -6.39594,14.28572 -14.28572,14.28572 -7.88978,0 -14.28571,-6.39593 -14.28571,-14.28572 0,-7.88978 6.39593,-14.285711 14.28571,-14.285711 7.88978,0 14.28572,6.395931 14.28572,14.285711 z"
       transform="matrix(0.47654038,0,0,0.49458184,886.54168,217.52758)" />
    <path
       sodipodi:type="arc"
       style="fill:#00a900;fill-opacity:0.58201055;stroke:#000000;stroke-width:2;stroke-miterlimit:4;stroke-opacity:1;stroke-dasharray:none"
       id="path4654"
       sodipodi:cx="-751.42859"
       sodipodi:cy="109.50504"
       sodipodi:rx="14.285714"
       sodipodi:ry="14.285714"
       d="m -737.14287,109.50504 c 0,7.88979 -6.39594,14.28572 -14.28572,14.28572 -7.88978,0 -14.28571,-6.39593 -14.28571,-14.28572 0,-7.88978 6.39593,-14.285711 14.28571,-14.285711 7.88978,0 14.28572,6.395931 14.28572,14.285711 z"
       transform="matrix(0.47654038,0,0,0.49458184,886.54168,144.21618)" />
    <path
       sodipodi:type="arc"
       style="fill:#00a900;fill-opacity:0.58201055;stroke:#000000;stroke-width:2;stroke-miterlimit:4;stroke-opacity:1;stroke-dasharray:none"
       id="path4774"
       sodipodi:cx="-751.42859"
       sodipodi:cy="109.50504"
       sodipodi:rx="14.285714"
       sodipodi:ry="14.285714"
       d="m -737.14287,109.50504 c 0,7.88979 -6.39594,14.28572 -14.28572,14.28572 -7.88978,0 -14.28571,-6.39593 -14.28571,-14.28572 0,-7.88978 6.39593,-14.285711 14.28571,-14.285711 7.88978,0 14.28572,6.395931 14.28572,14.285711 z"
       transform="matrix(0.47654038,0,0,0.49458184,1149.4523,217.52758)" />
    <path
       sodipodi:type="arc"
       style="fill:#00a900;fill-opacity:0.58201055;stroke:#000000;stroke-width:2;stroke-miterlimit:4;stroke-opacity:1;stroke-dasharray:none"
       id="path4790"
       sodipodi:cx="-751.42859"
       sodipodi:cy="109.50504"
       sodipodi:rx="14.285714"
       sodipodi:ry="14.285714"
       d="m -737.14287,109.50504 c 0,7.88979 -6.39594,14.28572 -14.28572,14.28572 -7.88978,0 -14.28571,-6.39593 -14.28571,-14.28572 0,-7.88978 6.39593,-14.285711 14.28571,-14.285711 7.88978,0 14.28572,6.395931 14.28572,14.285711 z"
       transform="matrix(0.47654038,0,0,0.49458184,1116.4708,180.87188)" />
    <path
       sodipodi:type="arc"
       style="fill:#00a900;fill-opacity:0.58201055;stroke:#000000;stroke-width:2;stroke-miterlimit:4;stroke-opacity:1;stroke-dasharray:none"
       id="path4792"
       sodipodi:cx="-751.42859"
       sodipodi:cy="109.50504"
       sodipodi:rx="14.285714"
       sodipodi:ry="14.285714"
       d="m -737.14287,109.50504 c 0,7.88979 -6.39594,14.28572 -14.28572,14.28572 -7.88978,0 -14.28571,-6.39593 -14.28571,-14.28572 0,-7.88978 6.39593,-14.285711 14.28571,-14.285711 7.88978,0 14.28572,6.395931 14.28572,14.285711 z"
       transform="matrix(0.47654038,0,0,0.49458184,1116.4708,217.52758)" />
    <path
       sodipodi:type="arc"
       style="fill:#00a900;fill-opacity:0.58201055;stroke:#000000;stroke-width:2;stroke-miterlimit:4;stroke-opacity:1;stroke-dasharray:none"
       id="path4808"
       sodipodi:cx="-751.42859"
       sodipodi:cy="109.50504"
       sodipodi:rx="14.285714"
       sodipodi:ry="14.285714"
       d="m -737.14287,109.50504 c 0,7.88979 -6.39594,14.28572 -14.28572,14.28572 -7.88978,0 -14.28571,-6.39593 -14.28571,-14.28572 0,-7.88978 6.39593,-14.285711 14.28571,-14.285711 7.88978,0 14.28572,6.395931 14.28572,14.285711 z"
       transform="matrix(0.47654038,0,0,0.49458184,1083.4892,180.87188)" />
    <path
       sodipodi:type="arc"
       style="fill:#00a900;fill-opacity:0.58201055;stroke:#000000;stroke-width:2;stroke-miterlimit:4;stroke-opacity:1;stroke-dasharray:none"
       id="path4810"
       sodipodi:cx="-751.42859"
       sodipodi:cy="109.50504"
       sodipodi:rx="14.285714"
       sodipodi:ry="14.285714"
       d="m -737.14287,109.50504 c 0,7.88979 -6.39594,14.28572 -14.28572,14.28572 -7.88978,0 -14.28571,-6.39593 -14.28571,-14.28572 0,-7.88978 6.39593,-14.285711 14.28571,-14.285711 7.88978,0 14.28572,6.395931 14.28572,14.285711 z"
       transform="matrix(0.47654038,0,0,0.49458184,1083.4892,217.52758)" />
    <path
       sodipodi:type="arc"
       style="fill:#00a900;fill-opacity:0.58201055;stroke:#000000;stroke-width:2;stroke-miterlimit:4;stroke-opacity:1;stroke-dasharray:none"
       id="path4816"
       sodipodi:cx="-751.42859"
       sodipodi:cy="109.50504"
       sodipodi:rx="14.285714"
       sodipodi:ry="14.285714"
       d="m -737.14287,109.50504 c 0,7.88979 -6.39594,14.28572 -14.28572,14.28572 -7.88978,0 -14.28571,-6.39593 -14.28571,-14.28572 0,-7.88978 6.39593,-14.285711 14.28571,-14.285711 7.88978,0 14.28572,6.395931 14.28572,14.285711 z"
       transform="matrix(0.47654038,0,0,0.49458184,1083.4892,144.21618)" />
    <path
       sodipodi:type="arc"
       style="fill:#00a900;fill-opacity:0.58201055;stroke:#000000;stroke-width:2;stroke-miterlimit:4;stroke-opacity:1;stroke-dasharray:none"
       id="path4824"
       sodipodi:cx="-751.42859"
       sodipodi:cy="109.50504"
       sodipodi:rx="14.285714"
       sodipodi:ry="14.285714"
       d="m -737.14287,109.50504 c 0,7.88979 -6.39594,14.28572 -14.28572,14.28572 -7.88978,0 -14.28571,-6.39593 -14.28571,-14.28572 0,-7.88978 6.39593,-14.285711 14.28571,-14.285711 7.88978,0 14.28572,6.395931 14.28572,14.285711 z"
       transform="matrix(0.47654038,0,0,0.49458184,1050.5076,107.56041)" />
    <path
       sodipodi:type="arc"
       style="fill:#00a900;fill-opacity:0.58201055;stroke:#000000;stroke-width:2;stroke-miterlimit:4;stroke-opacity:1;stroke-dasharray:none"
       id="path4826"
       sodipodi:cx="-751.42859"
       sodipodi:cy="109.50504"
       sodipodi:rx="14.285714"
       sodipodi:ry="14.285714"
       d="m -737.14287,109.50504 c 0,7.88979 -6.39594,14.28572 -14.28572,14.28572 -7.88978,0 -14.28571,-6.39593 -14.28571,-14.28572 0,-7.88978 6.39593,-14.285711 14.28571,-14.285711 7.88978,0 14.28572,6.395931 14.28572,14.285711 z"
       transform="matrix(0.47654038,0,0,0.49458184,1050.5076,180.87188)" />
    <path
       sodipodi:type="arc"
       style="fill:#00a900;fill-opacity:0.58201055;stroke:#000000;stroke-width:2;stroke-miterlimit:4;stroke-opacity:1;stroke-dasharray:none"
       id="path4828"
       sodipodi:cx="-751.42859"
       sodipodi:cy="109.50504"
       sodipodi:rx="14.285714"
       sodipodi:ry="14.285714"
       d="m -737.14287,109.50504 c 0,7.88979 -6.39594,14.28572 -14.28572,14.28572 -7.88978,0 -14.28571,-6.39593 -14.28571,-14.28572 0,-7.88978 6.39593,-14.285711 14.28571,-14.285711 7.88978,0 14.28572,6.395931 14.28572,14.285711 z"
       transform="matrix(0.47654038,0,0,0.49458184,1050.5076,217.52758)" />
    <path
       sodipodi:type="arc"
       style="fill:#00a900;fill-opacity:0.58201055;stroke:#000000;stroke-width:2;stroke-miterlimit:4;stroke-opacity:1;stroke-dasharray:none"
       id="path4834"
       sodipodi:cx="-751.42859"
       sodipodi:cy="109.50504"
       sodipodi:rx="14.285714"
       sodipodi:ry="14.285714"
       d="m -737.14287,109.50504 c 0,7.88979 -6.39594,14.28572 -14.28572,14.28572 -7.88978,0 -14.28571,-6.39593 -14.28571,-14.28572 0,-7.88978 6.39593,-14.285711 14.28571,-14.285711 7.88978,0 14.28572,6.395931 14.28572,14.285711 z"
       transform="matrix(0.47654038,0,0,0.49458184,1050.5076,144.21618)" />
    <path
       sodipodi:type="arc"
       style="fill:#00a900;fill-opacity:0.58201055;stroke:#000000;stroke-width:2;stroke-miterlimit:4;stroke-opacity:1;stroke-dasharray:none"
       id="path4896"
       sodipodi:cx="-751.42859"
       sodipodi:cy="109.50504"
       sodipodi:rx="14.285714"
       sodipodi:ry="14.285714"
       d="m -737.14287,109.50504 c 0,7.88979 -6.39594,14.28572 -14.28572,14.28572 -7.88978,0 -14.28571,-6.39593 -14.28571,-14.28572 0,-7.88978 6.39593,-14.285711 14.28571,-14.285711 7.88978,0 14.28572,6.395931 14.28572,14.285711 z"
       transform="matrix(0.47654038,0,0,0.49458184,1017.5261,107.56041)" />
    <path
       sodipodi:type="arc"
       style="fill:#00a900;fill-opacity:0.58201055;stroke:#000000;stroke-width:2;stroke-miterlimit:4;stroke-opacity:1;stroke-dasharray:none"
       id="path4898"
       sodipodi:cx="-751.42859"
       sodipodi:cy="109.50504"
       sodipodi:rx="14.285714"
       sodipodi:ry="14.285714"
       d="m -737.14287,109.50504 c 0,7.88979 -6.39594,14.28572 -14.28572,14.28572 -7.88978,0 -14.28571,-6.39593 -14.28571,-14.28572 0,-7.88978 6.39593,-14.285711 14.28571,-14.285711 7.88978,0 14.28572,6.395931 14.28572,14.285711 z"
       transform="matrix(0.47654038,0,0,0.49458184,1017.5261,180.87188)" />
    <path
       sodipodi:type="arc"
       style="fill:#00a900;fill-opacity:0.58201055;stroke:#000000;stroke-width:2;stroke-miterlimit:4;stroke-opacity:1;stroke-dasharray:none"
       id="path4900"
       sodipodi:cx="-751.42859"
       sodipodi:cy="109.50504"
       sodipodi:rx="14.285714"
       sodipodi:ry="14.285714"
       d="m -737.14287,109.50504 c 0,7.88979 -6.39594,14.28572 -14.28572,14.28572 -7.88978,0 -14.28571,-6.39593 -14.28571,-14.28572 0,-7.88978 6.39593,-14.285711 14.28571,-14.285711 7.88978,0 14.28572,6.395931 14.28572,14.285711 z"
       transform="matrix(0.47654038,0,0,0.49458184,1017.5261,217.52758)" />
    <path
       sodipodi:type="arc"
       style="fill:#00a900;fill-opacity:0.58201055;stroke:#000000;stroke-width:2;stroke-miterlimit:4;stroke-opacity:1;stroke-dasharray:none"
       id="path4906"
       sodipodi:cx="-751.42859"
       sodipodi:cy="109.50504"
       sodipodi:rx="14.285714"
       sodipodi:ry="14.285714"
       d="m -737.14287,109.50504 c 0,7.88979 -6.39594,14.28572 -14.28572,14.28572 -7.88978,0 -14.28571,-6.39593 -14.28571,-14.28572 0,-7.88978 6.39593,-14.285711 14.28571,-14.285711 7.88978,0 14.28572,6.395931 14.28572,14.285711 z"
       transform="matrix(0.47654038,0,0,0.49458184,1017.5261,144.21618)" />
    <path
       sodipodi:type="arc"
       style="fill:#00a900;fill-opacity:0.58201055;stroke:#000000;stroke-width:2;stroke-miterlimit:4;stroke-opacity:1;stroke-dasharray:none"
       id="path4982"
       sodipodi:cx="-751.42859"
       sodipodi:cy="109.50504"
       sodipodi:rx="14.285714"
       sodipodi:ry="14.285714"
       d="m -737.14287,109.50504 c 0,7.88979 -6.39594,14.28572 -14.28572,14.28572 -7.88978,0 -14.28571,-6.39593 -14.28571,-14.28572 0,-7.88978 6.39593,-14.285711 14.28571,-14.285711 7.88978,0 14.28572,6.395931 14.28572,14.285711 z"
       transform="matrix(0.47654038,0,0,0.49458184,1149.4523,257.99143)" />
    <path
       sodipodi:type="arc"
       style="fill:#00a900;fill-opacity:0.58201055;stroke:#000000;stroke-width:2;stroke-miterlimit:4;stroke-opacity:1;stroke-dasharray:none"
       id="path4994"
       sodipodi:cx="-751.42859"
       sodipodi:cy="109.50504"
       sodipodi:rx="14.285714"
       sodipodi:ry="14.285714"
       d="m -737.14287,109.50504 c 0,7.88979 -6.39594,14.28572 -14.28572,14.28572 -7.88978,0 -14.28571,-6.39593 -14.28571,-14.28572 0,-7.88978 6.39593,-14.285711 14.28571,-14.285711 7.88978,0 14.28572,6.395931 14.28572,14.285711 z"
       transform="matrix(0.47654038,0,0,0.49458184,1149.4523,294.6472)" />
    <path
       sodipodi:type="arc"
       style="fill:#00a900;fill-opacity:0.58201055;stroke:#000000;stroke-width:2;stroke-miterlimit:4;stroke-opacity:1;stroke-dasharray:none"
       id="path5000"
       sodipodi:cx="-751.42859"
       sodipodi:cy="109.50504"
       sodipodi:rx="14.285714"
       sodipodi:ry="14.285714"
       d="m -737.14287,109.50504 c 0,7.88979 -6.39594,14.28572 -14.28572,14.28572 -7.88978,0 -14.28571,-6.39593 -14.28571,-14.28572 0,-7.88978 6.39593,-14.285711 14.28571,-14.285711 7.88978,0 14.28572,6.395931 14.28572,14.285711 z"
       transform="matrix(0.47654038,0,0,0.49458184,1116.4708,257.99143)" />
    <path
       sodipodi:type="arc"
       style="fill:#00a900;fill-opacity:0.58201055;stroke:#000000;stroke-width:2;stroke-miterlimit:4;stroke-opacity:1;stroke-dasharray:none"
       id="path5012"
       sodipodi:cx="-751.42859"
       sodipodi:cy="109.50504"
       sodipodi:rx="14.285714"
       sodipodi:ry="14.285714"
       d="m -737.14287,109.50504 c 0,7.88979 -6.39594,14.28572 -14.28572,14.28572 -7.88978,0 -14.28571,-6.39593 -14.28571,-14.28572 0,-7.88978 6.39593,-14.285711 14.28571,-14.285711 7.88978,0 14.28572,6.395931 14.28572,14.285711 z"
       transform="matrix(0.47654038,0,0,0.49458184,1116.4708,294.6472)" />
    <path
       sodipodi:type="arc"
       style="fill:#00a900;fill-opacity:0.58201055;stroke:#000000;stroke-width:2;stroke-miterlimit:4;stroke-opacity:1;stroke-dasharray:none"
       id="path5018"
       sodipodi:cx="-751.42859"
       sodipodi:cy="109.50504"
       sodipodi:rx="14.285714"
       sodipodi:ry="14.285714"
       d="m -737.14287,109.50504 c 0,7.88979 -6.39594,14.28572 -14.28572,14.28572 -7.88978,0 -14.28571,-6.39593 -14.28571,-14.28572 0,-7.88978 6.39593,-14.285711 14.28571,-14.285711 7.88978,0 14.28572,6.395931 14.28572,14.285711 z"
       transform="matrix(0.47654038,0,0,0.49458184,1083.4892,257.99143)" />
    <path
       sodipodi:type="arc"
       style="fill:#00a900;fill-opacity:0.58201055;stroke:#000000;stroke-width:2;stroke-miterlimit:4;stroke-opacity:1;stroke-dasharray:none"
       id="path5030"
       sodipodi:cx="-751.42859"
       sodipodi:cy="109.50504"
       sodipodi:rx="14.285714"
       sodipodi:ry="14.285714"
       d="m -737.14287,109.50504 c 0,7.88979 -6.39594,14.28572 -14.28572,14.28572 -7.88978,0 -14.28571,-6.39593 -14.28571,-14.28572 0,-7.88978 6.39593,-14.285711 14.28571,-14.285711 7.88978,0 14.28572,6.395931 14.28572,14.285711 z"
       transform="matrix(0.47654038,0,0,0.49458184,1083.4892,294.6472)" />
    <path
       sodipodi:type="arc"
       style="fill:#00a900;fill-opacity:0.58201055;stroke:#000000;stroke-width:2;stroke-miterlimit:4;stroke-opacity:1;stroke-dasharray:none"
       id="path5036"
       sodipodi:cx="-751.42859"
       sodipodi:cy="109.50504"
       sodipodi:rx="14.285714"
       sodipodi:ry="14.285714"
       d="m -737.14287,109.50504 c 0,7.88979 -6.39594,14.28572 -14.28572,14.28572 -7.88978,0 -14.28571,-6.39593 -14.28571,-14.28572 0,-7.88978 6.39593,-14.285711 14.28571,-14.285711 7.88978,0 14.28572,6.395931 14.28572,14.285711 z"
       transform="matrix(0.47654038,0,0,0.49458184,1050.5076,257.99143)" />
    <path
       sodipodi:type="arc"
       style="fill:#00a900;fill-opacity:0.58201055;stroke:#000000;stroke-width:2;stroke-miterlimit:4;stroke-opacity:1;stroke-dasharray:none"
       id="path5038"
       sodipodi:cx="-751.42859"
       sodipodi:cy="109.50504"
       sodipodi:rx="14.285714"
       sodipodi:ry="14.285714"
       d="m -737.14287,109.50504 c 0,7.88979 -6.39594,14.28572 -14.28572,14.28572 -7.88978,0 -14.28571,-6.39593 -14.28571,-14.28572 0,-7.88978 6.39593,-14.285711 14.28571,-14.285711 7.88978,0 14.28572,6.395931 14.28572,14.285711 z"
       transform="matrix(0.47654038,0,0,0.49458184,1050.5076,331.3029)" />
    <path
       sodipodi:type="arc"
       style="fill:#00a900;fill-opacity:0.58201055;stroke:#000000;stroke-width:2;stroke-miterlimit:4;stroke-opacity:1;stroke-dasharray:none"
       id="path5048"
       sodipodi:cx="-751.42859"
       sodipodi:cy="109.50504"
       sodipodi:rx="14.285714"
       sodipodi:ry="14.285714"
       d="m -737.14287,109.50504 c 0,7.88979 -6.39594,14.28572 -14.28572,14.28572 -7.88978,0 -14.28571,-6.39593 -14.28571,-14.28572 0,-7.88978 6.39593,-14.285711 14.28571,-14.285711 7.88978,0 14.28572,6.395931 14.28572,14.285711 z"
       transform="matrix(0.47654038,0,0,0.49458184,1050.5076,294.6472)" />
    <path
       sodipodi:type="arc"
       style="fill:#00a900;fill-opacity:0.58201055;stroke:#000000;stroke-width:2;stroke-miterlimit:4;stroke-opacity:1;stroke-dasharray:none"
       id="path5108"
       sodipodi:cx="-751.42859"
       sodipodi:cy="109.50504"
       sodipodi:rx="14.285714"
       sodipodi:ry="14.285714"
       d="m -737.14287,109.50504 c 0,7.88979 -6.39594,14.28572 -14.28572,14.28572 -7.88978,0 -14.28571,-6.39593 -14.28571,-14.28572 0,-7.88978 6.39593,-14.285711 14.28571,-14.285711 7.88978,0 14.28572,6.395931 14.28572,14.285711 z"
       transform="matrix(0.47654038,0,0,0.49458184,1017.5261,257.99143)" />
    <path
       sodipodi:type="arc"
       style="fill:#00a900;fill-opacity:0.58201055;stroke:#000000;stroke-width:2;stroke-miterlimit:4;stroke-opacity:1;stroke-dasharray:none"
       id="path5110"
       sodipodi:cx="-751.42859"
       sodipodi:cy="109.50504"
       sodipodi:rx="14.285714"
       sodipodi:ry="14.285714"
       d="m -737.14287,109.50504 c 0,7.88979 -6.39594,14.28572 -14.28572,14.28572 -7.88978,0 -14.28571,-6.39593 -14.28571,-14.28572 0,-7.88978 6.39593,-14.285711 14.28571,-14.285711 7.88978,0 14.28572,6.395931 14.28572,14.285711 z"
       transform="matrix(0.47654038,0,0,0.49458184,1017.5261,331.3029)" />
    <path
       sodipodi:type="arc"
       style="fill:#00a900;fill-opacity:0.58201055;stroke:#000000;stroke-width:2;stroke-miterlimit:4;stroke-opacity:1;stroke-dasharray:none"
       id="path5120"
       sodipodi:cx="-751.42859"
       sodipodi:cy="109.50504"
       sodipodi:rx="14.285714"
       sodipodi:ry="14.285714"
       d="m -737.14287,109.50504 c 0,7.88979 -6.39594,14.28572 -14.28572,14.28572 -7.88978,0 -14.28571,-6.39593 -14.28571,-14.28572 0,-7.88978 6.39593,-14.285711 14.28571,-14.285711 7.88978,0 14.28572,6.395931 14.28572,14.285711 z"
       transform="matrix(0.47654038,0,0,0.49458184,1017.5261,294.6472)" />
    <path
       sodipodi:type="arc"
       style="fill:#00a900;fill-opacity:0.58201055;stroke:#000000;stroke-width:2;stroke-miterlimit:4;stroke-opacity:1;stroke-dasharray:none"
       id="path4484-4"
       sodipodi:cx="-751.42859"
       sodipodi:cy="109.50504"
       sodipodi:rx="14.285714"
       sodipodi:ry="14.285714"
       d="m -737.14287,109.50504 c 0,7.88979 -6.39594,14.28572 -14.28572,14.28572 -7.88978,0 -14.28571,-6.39593 -14.28571,-14.28572 0,-7.88978 6.39593,-14.285711 14.28571,-14.285711 7.88978,0 14.28572,6.395931 14.28572,14.285711 z"
       transform="matrix(0.47654038,0,0,0.49458184,1315.3832,253.01287)" />
    <path
       sodipodi:type="arc"
       style="fill:#00a900;fill-opacity:0.58201055;stroke:#000000;stroke-width:2;stroke-miterlimit:4;stroke-opacity:1;stroke-dasharray:none"
       id="path4486-2"
       sodipodi:cx="-751.42859"
       sodipodi:cy="109.50504"
       sodipodi:rx="14.285714"
       sodipodi:ry="14.285714"
       d="m -737.14287,109.50504 c 0,7.88979 -6.39594,14.28572 -14.28572,14.28572 -7.88978,0 -14.28571,-6.39593 -14.28571,-14.28572 0,-7.88978 6.39593,-14.285711 14.28571,-14.285711 7.88978,0 14.28572,6.395931 14.28572,14.285711 z"
       transform="matrix(0.47654038,0,0,0.49458184,1315.3832,289.66857)" />
    <path
       sodipodi:type="arc"
       style="fill:#00a900;fill-opacity:0.58201055;stroke:#000000;stroke-width:2;stroke-miterlimit:4;stroke-opacity:1;stroke-dasharray:none"
       id="path4504-1"
       sodipodi:cx="-751.42859"
       sodipodi:cy="109.50504"
       sodipodi:rx="14.285714"
       sodipodi:ry="14.285714"
       d="m -737.14287,109.50504 c 0,7.88979 -6.39594,14.28572 -14.28572,14.28572 -7.88978,0 -14.28571,-6.39593 -14.28571,-14.28572 0,-7.88978 6.39593,-14.285711 14.28571,-14.285711 7.88978,0 14.28572,6.395931 14.28572,14.285711 z"
       transform="matrix(0.47654038,0,0,0.49458184,1249.4201,289.66857)" />
    <path
       sodipodi:type="arc"
       style="fill:#00a900;fill-opacity:0.58201055;stroke:#000000;stroke-width:2;stroke-miterlimit:4;stroke-opacity:1;stroke-dasharray:none"
       id="path4520-5"
       sodipodi:cx="-751.42859"
       sodipodi:cy="109.50504"
       sodipodi:rx="14.285714"
       sodipodi:ry="14.285714"
       d="m -737.14287,109.50504 c 0,7.88979 -6.39594,14.28572 -14.28572,14.28572 -7.88978,0 -14.28571,-6.39593 -14.28571,-14.28572 0,-7.88978 6.39593,-14.285711 14.28571,-14.285711 7.88978,0 14.28572,6.395931 14.28572,14.285711 z"
       transform="matrix(0.47654038,0,0,0.49458184,1183.457,253.01287)" />
    <path
       sodipodi:type="arc"
       style="fill:#00a900;fill-opacity:0.58201055;stroke:#000000;stroke-width:2;stroke-miterlimit:4;stroke-opacity:1;stroke-dasharray:none"
       id="path4522-7"
       sodipodi:cx="-751.42859"
       sodipodi:cy="109.50504"
       sodipodi:rx="14.285714"
       sodipodi:ry="14.285714"
       d="m -737.14287,109.50504 c 0,7.88979 -6.39594,14.28572 -14.28572,14.28572 -7.88978,0 -14.28571,-6.39593 -14.28571,-14.28572 0,-7.88978 6.39593,-14.285711 14.28571,-14.285711 7.88978,0 14.28572,6.395931 14.28572,14.285711 z"
       transform="matrix(0.47654038,0,0,0.49458184,1183.457,289.66857)" />
    <path
       sodipodi:type="arc"
       style="fill:#00a900;fill-opacity:0.58201055;stroke:#000000;stroke-width:2;stroke-miterlimit:4;stroke-opacity:1;stroke-dasharray:none"
       id="path4628-8"
       sodipodi:cx="-751.42859"
       sodipodi:cy="109.50504"
       sodipodi:rx="14.285714"
       sodipodi:ry="14.285714"
       d="m -737.14287,109.50504 c 0,7.88979 -6.39594,14.28572 -14.28572,14.28572 -7.88978,0 -14.28571,-6.39593 -14.28571,-14.28572 0,-7.88978 6.39593,-14.285711 14.28571,-14.285711 7.88978,0 14.28572,6.395931 14.28572,14.285711 z"
       transform="matrix(0.47654038,0,0,0.49458184,1282.4017,253.01287)" />
    <path
       sodipodi:type="arc"
       style="fill:#00a900;fill-opacity:0.58201055;stroke:#000000;stroke-width:2;stroke-miterlimit:4;stroke-opacity:1;stroke-dasharray:none"
       id="path4630-9"
       sodipodi:cx="-751.42859"
       sodipodi:cy="109.50504"
       sodipodi:rx="14.285714"
       sodipodi:ry="14.285714"
       d="m -737.14287,109.50504 c 0,7.88979 -6.39594,14.28572 -14.28572,14.28572 -7.88978,0 -14.28571,-6.39593 -14.28571,-14.28572 0,-7.88978 6.39593,-14.285711 14.28571,-14.285711 7.88978,0 14.28572,6.395931 14.28572,14.285711 z"
       transform="matrix(0.47654038,0,0,0.49458184,1282.4017,289.66857)" />
    <path
       sodipodi:type="arc"
       style="fill:#00a900;fill-opacity:0.58201055;stroke:#000000;stroke-width:2;stroke-miterlimit:4;stroke-opacity:1;stroke-dasharray:none"
       id="path4646-9"
       sodipodi:cx="-751.42859"
       sodipodi:cy="109.50504"
       sodipodi:rx="14.285714"
       sodipodi:ry="14.285714"
       d="m -737.14287,109.50504 c 0,7.88979 -6.39594,14.28572 -14.28572,14.28572 -7.88978,0 -14.28571,-6.39593 -14.28571,-14.28572 0,-7.88978 6.39593,-14.285711 14.28571,-14.285711 7.88978,0 14.28572,6.395931 14.28572,14.285711 z"
       transform="matrix(0.47654038,0,0,0.49458184,1216.4386,253.01287)" />
    <path
       sodipodi:type="arc"
       style="fill:#00a900;fill-opacity:0.58201055;stroke:#000000;stroke-width:2;stroke-miterlimit:4;stroke-opacity:1;stroke-dasharray:none"
       id="path4648-5"
       sodipodi:cx="-751.42859"
       sodipodi:cy="109.50504"
       sodipodi:rx="14.285714"
       sodipodi:ry="14.285714"
       d="m -737.14287,109.50504 c 0,7.88979 -6.39594,14.28572 -14.28572,14.28572 -7.88978,0 -14.28571,-6.39593 -14.28571,-14.28572 0,-7.88978 6.39593,-14.285711 14.28571,-14.285711 7.88978,0 14.28572,6.395931 14.28572,14.285711 z"
       transform="matrix(0.47654038,0,0,0.49458184,1216.4386,289.66857)" />
    <path
       sodipodi:type="arc"
       style="fill:#00a900;fill-opacity:0.58201055;stroke:#000000;stroke-width:2;stroke-miterlimit:4;stroke-opacity:1;stroke-dasharray:none"
       id="path4898-7"
       sodipodi:cx="-751.42859"
       sodipodi:cy="109.50504"
       sodipodi:rx="14.285714"
       sodipodi:ry="14.285714"
       d="m -737.14287,109.50504 c 0,7.88979 -6.39594,14.28572 -14.28572,14.28572 -7.88978,0 -14.28571,-6.39593 -14.28571,-14.28572 0,-7.88978 6.39593,-14.285711 14.28571,-14.285711 7.88978,0 14.28572,6.395931 14.28572,14.285711 z"
       transform="matrix(0.47654038,0,0,0.49458184,1347.423,253.01287)" />
    <path
       sodipodi:type="arc"
       style="fill:#00a900;fill-opacity:0.58201055;stroke:#000000;stroke-width:2;stroke-miterlimit:4;stroke-opacity:1;stroke-dasharray:none"
       id="path4900-7"
       sodipodi:cx="-751.42859"
       sodipodi:cy="109.50504"
       sodipodi:rx="14.285714"
       sodipodi:ry="14.285714"
       d="m -737.14287,109.50504 c 0,7.88979 -6.39594,14.28572 -14.28572,14.28572 -7.88978,0 -14.28571,-6.39593 -14.28571,-14.28572 0,-7.88978 6.39593,-14.285711 14.28571,-14.285711 7.88978,0 14.28572,6.395931 14.28572,14.285711 z"
       transform="matrix(0.47654038,0,0,0.49458184,1347.423,289.66857)" />
    <g
       id="g4669"
       transform="matrix(1.1880656,0,0,1.1880656,-387.9917,-442.53658)">
      <path
         transform="matrix(1.134357,0,0,1.134357,-98.605433,-56.241015)"
         d="m 855.3392,581.04077 c 0,18.56985 -15.05384,33.62368 -33.62368,33.62368 -18.56985,0 -33.62368,-15.05383 -33.62368,-33.62368 0,-18.56984 15.05383,-33.62368 33.62368,-33.62368 18.56984,0 33.62368,15.05384 33.62368,33.62368 z"
         sodipodi:ry="33.62368"
         sodipodi:rx="33.62368"
         sodipodi:cy="581.04077"
         sodipodi:cx="821.71552"
         id="path3721"
         style="fill:none;stroke:#000000;stroke-width:2.64467001;stroke-miterlimit:4;stroke-opacity:1;stroke-dasharray:none;stroke-dashoffset:0"
         sodipodi:type="arc" />
      <path
         transform="matrix(2.0076776,0,0,2.0076776,-816.22652,-563.67589)"
         d="m 855.3392,581.04077 c 0,18.56985 -15.05384,33.62368 -33.62368,33.62368 -18.56985,0 -33.62368,-15.05383 -33.62368,-33.62368 0,-18.56984 15.05383,-33.62368 33.62368,-33.62368 18.56984,0 33.62368,15.05384 33.62368,33.62368 z"
         sodipodi:ry="33.62368"
         sodipodi:rx="33.62368"
         sodipodi:cy="581.04077"
         sodipodi:cx="821.71552"
         id="path3721-0"
         style="fill:none;stroke:#000000;stroke-width:1.49426377;stroke-miterlimit:4;stroke-opacity:1;stroke-dasharray:none;stroke-dashoffset:0"
         sodipodi:type="arc" />
      <path
         transform="matrix(0.49616118,0,0,0.49616118,425.80997,314.57678)"
         d="m 855.3392,581.04077 c 0,18.56985 -15.05384,33.62368 -33.62368,33.62368 -18.56985,0 -33.62368,-15.05383 -33.62368,-33.62368 0,-18.56984 15.05383,-33.62368 33.62368,-33.62368 18.56984,0 33.62368,15.05384 33.62368,33.62368 z"
         sodipodi:ry="33.62368"
         sodipodi:rx="33.62368"
         sodipodi:cy="581.04077"
         sodipodi:cx="821.71552"
         id="path3721-1"
         style="fill:none;stroke:#000000;stroke-width:6.04642248;stroke-miterlimit:4;stroke-opacity:1;stroke-dasharray:none;stroke-dashoffset:0"
         sodipodi:type="arc" />
    </g>
  </g>
</svg>
