<?xml version="1.0" encoding="UTF-8" standalone="no"?>
<!-- Created with Inkscape (http://www.inkscape.org/) -->

<svg
   xmlns:dc="http://purl.org/dc/elements/1.1/"
   xmlns:cc="http://creativecommons.org/ns#"
   xmlns:rdf="http://www.w3.org/1999/02/22-rdf-syntax-ns#"
   xmlns:svg="http://www.w3.org/2000/svg"
   xmlns="http://www.w3.org/2000/svg"
   xmlns:sodipodi="http://sodipodi.sourceforge.net/DTD/sodipodi-0.dtd"
   xmlns:inkscape="http://www.inkscape.org/namespaces/inkscape"
   width="593.83624"
   height="222.03745"
   id="svg2"
   version="1.1"
   inkscape:version="0.48.4 r9939"
   sodipodi:docname="Estructura_escalas.svg">
  <defs
     id="defs4" />
  <sodipodi:namedview
     id="base"
     pagecolor="#ffffff"
     bordercolor="#666666"
     borderopacity="1.0"
     inkscape:pageopacity="0.0"
     inkscape:pageshadow="2"
     inkscape:zoom="1.1337808"
     inkscape:cx="277.26441"
     inkscape:cy="81.466021"
     inkscape:document-units="px"
     inkscape:current-layer="layer1"
     showgrid="false"
     fit-margin-top="0"
     fit-margin-left="0"
     fit-margin-right="0"
     fit-margin-bottom="0"
     inkscape:window-width="1920"
     inkscape:window-height="1057"
     inkscape:window-x="-8"
     inkscape:window-y="-8"
     inkscape:window-maximized="1" />
  <metadata
     id="metadata7">
    <rdf:RDF>
      <cc:Work
         rdf:about="">
        <dc:format>image/svg+xml</dc:format>
        <dc:type
           rdf:resource="http://purl.org/dc/dcmitype/StillImage" />
        <dc:title />
      </cc:Work>
    </rdf:RDF>
  </metadata>
  <g
     inkscape:label="Layer 1"
     inkscape:groupmode="layer"
     id="layer1"
     transform="translate(-55.142857,-133.21933)">
    <g
       id="g4047"
       transform="translate(5.2920283,85.554459)"
       style="stroke-width:2;stroke-miterlimit:4;stroke-dasharray:none">
      <rect
         y="49.664871"
         x="390.25848"
         height="174.28572"
         width="251.42857"
         id="rect2985-3"
         style="fill:none;stroke:#000000;stroke-width:2;stroke-miterlimit:4;stroke-opacity:1;stroke-dasharray:none" />
      <path
         transform="matrix(1.7793572,0,0,1.7793572,183.24916,0.74966165)"
         d="m 157.87885,54.814827 c 0,3.409824 -2.76421,6.174033 -6.17403,6.174033 -3.40983,0 -6.17403,-2.764209 -6.17403,-6.174033 0,-3.409824 2.7642,-6.174033 6.17403,-6.174033 3.40982,0 6.17403,2.764209 6.17403,6.174033 z"
         sodipodi:ry="6.1740332"
         sodipodi:rx="6.1740332"
         sodipodi:cy="54.814827"
         sodipodi:cx="151.70482"
         id="path3755-41"
         style="fill:#000000;fill-opacity:1;stroke:#000000;stroke-width:1.12400141;stroke-miterlimit:4;stroke-opacity:1;stroke-dasharray:none;stroke-dashoffset:0"
         sodipodi:type="arc" />
      <path
         transform="matrix(1.7793572,0,0,1.7793572,238.3209,-2.5024944)"
         d="m 157.87885,54.814827 c 0,3.409824 -2.76421,6.174033 -6.17403,6.174033 -3.40983,0 -6.17403,-2.764209 -6.17403,-6.174033 0,-3.409824 2.7642,-6.174033 6.17403,-6.174033 3.40982,0 6.17403,2.764209 6.17403,6.174033 z"
         sodipodi:ry="6.1740332"
         sodipodi:rx="6.1740332"
         sodipodi:cy="54.814827"
         sodipodi:cx="151.70482"
         id="path3755-1-1"
         style="fill:#000000;fill-opacity:1;stroke:#000000;stroke-width:1.12400141;stroke-miterlimit:4;stroke-opacity:1;stroke-dasharray:none;stroke-dashoffset:0"
         sodipodi:type="arc" />
      <path
         transform="matrix(1.7793572,0,0,1.7793572,303.83555,-4.3816764)"
         d="m 157.87885,54.814827 c 0,3.409824 -2.76421,6.174033 -6.17403,6.174033 -3.40983,0 -6.17403,-2.764209 -6.17403,-6.174033 0,-3.409824 2.7642,-6.174033 6.17403,-6.174033 3.40982,0 6.17403,2.764209 6.17403,6.174033 z"
         sodipodi:ry="6.1740332"
         sodipodi:rx="6.1740332"
         sodipodi:cy="54.814827"
         sodipodi:cx="151.70482"
         id="path3755-7-3"
         style="fill:#000000;fill-opacity:1;stroke:#000000;stroke-width:1.12400141;stroke-miterlimit:4;stroke-opacity:1;stroke-dasharray:none;stroke-dashoffset:0"
         sodipodi:type="arc" />
      <path
         transform="matrix(1.7793572,0,0,1.7793572,180.68348,41.800331)"
         d="m 157.87885,54.814827 c 0,3.409824 -2.76421,6.174033 -6.17403,6.174033 -3.40983,0 -6.17403,-2.764209 -6.17403,-6.174033 0,-3.409824 2.7642,-6.174033 6.17403,-6.174033 3.40982,0 6.17403,2.764209 6.17403,6.174033 z"
         sodipodi:ry="6.1740332"
         sodipodi:rx="6.1740332"
         sodipodi:cy="54.814827"
         sodipodi:cx="151.70482"
         id="path3755-4-8"
         style="fill:#000000;fill-opacity:1;stroke:#000000;stroke-width:1.12400141;stroke-miterlimit:4;stroke-opacity:1;stroke-dasharray:none;stroke-dashoffset:0"
         sodipodi:type="arc" />
      <path
         transform="matrix(1.7793572,0,0,1.7793572,244.31895,41.800331)"
         d="m 157.87885,54.814827 c 0,3.409824 -2.76421,6.174033 -6.17403,6.174033 -3.40983,0 -6.17403,-2.764209 -6.17403,-6.174033 0,-3.409824 2.7642,-6.174033 6.17403,-6.174033 3.40982,0 6.17403,2.764209 6.17403,6.174033 z"
         sodipodi:ry="6.1740332"
         sodipodi:rx="6.1740332"
         sodipodi:cy="54.814827"
         sodipodi:cx="151.70482"
         id="path3755-0-7"
         style="fill:#000000;fill-opacity:1;stroke:#000000;stroke-width:1.12400141;stroke-miterlimit:4;stroke-opacity:1;stroke-dasharray:none;stroke-dashoffset:0"
         sodipodi:type="arc" />
      <path
         transform="matrix(1.7793572,0,0,1.7793572,301.95637,33.416871)"
         d="m 157.87885,54.814827 c 0,3.409824 -2.76421,6.174033 -6.17403,6.174033 -3.40983,0 -6.17403,-2.764209 -6.17403,-6.174033 0,-3.409824 2.7642,-6.174033 6.17403,-6.174033 3.40982,0 6.17403,2.764209 6.17403,6.174033 z"
         sodipodi:ry="6.1740332"
         sodipodi:rx="6.1740332"
         sodipodi:cy="54.814827"
         sodipodi:cx="151.70482"
         id="path3755-9-4"
         style="fill:#000000;fill-opacity:1;stroke:#000000;stroke-width:1.12400141;stroke-miterlimit:4;stroke-opacity:1;stroke-dasharray:none;stroke-dashoffset:0"
         sodipodi:type="arc" />
      <path
         transform="matrix(1.7793572,0,0,1.7793572,185.81482,84.223981)"
         d="m 157.87885,54.814827 c 0,3.409824 -2.76421,6.174033 -6.17403,6.174033 -3.40983,0 -6.17403,-2.764209 -6.17403,-6.174033 0,-3.409824 2.7642,-6.174033 6.17403,-6.174033 3.40982,0 6.17403,2.764209 6.17403,6.174033 z"
         sodipodi:ry="6.1740332"
         sodipodi:rx="6.1740332"
         sodipodi:cy="54.814827"
         sodipodi:cx="151.70482"
         id="path3755-48-2"
         style="fill:#000000;fill-opacity:1;stroke:#000000;stroke-width:1.12400141;stroke-miterlimit:4;stroke-opacity:1;stroke-dasharray:none;stroke-dashoffset:0"
         sodipodi:type="arc" />
      <path
         transform="matrix(1.7793572,0,0,1.7793572,247.39087,77.719691)"
         d="m 157.87885,54.814827 c 0,3.409824 -2.76421,6.174033 -6.17403,6.174033 -3.40983,0 -6.17403,-2.764209 -6.17403,-6.174033 0,-3.409824 2.7642,-6.174033 6.17403,-6.174033 3.40982,0 6.17403,2.764209 6.17403,6.174033 z"
         sodipodi:ry="6.1740332"
         sodipodi:rx="6.1740332"
         sodipodi:cy="54.814827"
         sodipodi:cx="151.70482"
         id="path3755-8-7"
         style="fill:#000000;fill-opacity:1;stroke:#000000;stroke-width:1.12400141;stroke-miterlimit:4;stroke-opacity:1;stroke-dasharray:none;stroke-dashoffset:0"
         sodipodi:type="arc" />
      <path
         transform="matrix(1.7793572,0,0,1.7793572,301.2699,77.719691)"
         d="m 157.87885,54.814827 c 0,3.409824 -2.76421,6.174033 -6.17403,6.174033 -3.40983,0 -6.17403,-2.764209 -6.17403,-6.174033 0,-3.409824 2.7642,-6.174033 6.17403,-6.174033 3.40982,0 6.17403,2.764209 6.17403,6.174033 z"
         sodipodi:ry="6.1740332"
         sodipodi:rx="6.1740332"
         sodipodi:cy="54.814827"
         sodipodi:cx="151.70482"
         id="path3755-2-7"
         style="fill:#000000;fill-opacity:1;stroke:#000000;stroke-width:1.12400141;stroke-miterlimit:4;stroke-opacity:1;stroke-dasharray:none;stroke-dashoffset:0"
         sodipodi:type="arc" />
    </g>
    <g
       id="g4063"
       style="stroke-width:2;stroke-miterlimit:4;stroke-dasharray:none">
      <rect
         y="135.21933"
         x="57.142857"
         height="174.28572"
         width="251.42857"
         id="rect2985"
         style="fill:none;stroke:#000000;stroke-width:2;stroke-miterlimit:4;stroke-opacity:1;stroke-dasharray:none" />
      <path
         transform="matrix(0.61169314,0,0,0.61169314,132.99642,124.47953)"
         d="m 157.87885,54.814827 c 0,3.409824 -2.76421,6.174033 -6.17403,6.174033 -3.40983,0 -6.17403,-2.764209 -6.17403,-6.174033 0,-3.409824 2.7642,-6.174033 6.17403,-6.174033 3.40982,0 6.17403,2.764209 6.17403,6.174033 z"
         sodipodi:ry="6.1740332"
         sodipodi:rx="6.1740332"
         sodipodi:cy="54.814827"
         sodipodi:cx="151.70482"
         id="path3755"
         style="fill:#000000;fill-opacity:1;stroke:#000000;stroke-width:3.26961326;stroke-miterlimit:4;stroke-opacity:1;stroke-dasharray:none;stroke-dashoffset:0"
         sodipodi:type="arc" />
      <path
         transform="matrix(0.61169314,0,0,0.61169314,151.92854,123.36153)"
         d="m 157.87885,54.814827 c 0,3.409824 -2.76421,6.174033 -6.17403,6.174033 -3.40983,0 -6.17403,-2.764209 -6.17403,-6.174033 0,-3.409824 2.7642,-6.174033 6.17403,-6.174033 3.40982,0 6.17403,2.764209 6.17403,6.174033 z"
         sodipodi:ry="6.1740332"
         sodipodi:rx="6.1740332"
         sodipodi:cy="54.814827"
         sodipodi:cx="151.70482"
         id="path3755-1"
         style="fill:#000000;fill-opacity:1;stroke:#000000;stroke-width:3.26961326;stroke-miterlimit:4;stroke-opacity:1;stroke-dasharray:none;stroke-dashoffset:0"
         sodipodi:type="arc" />
      <path
         transform="matrix(0.61169314,0,0,0.61169314,174.45064,122.71552)"
         d="m 157.87885,54.814827 c 0,3.409824 -2.76421,6.174033 -6.17403,6.174033 -3.40983,0 -6.17403,-2.764209 -6.17403,-6.174033 0,-3.409824 2.7642,-6.174033 6.17403,-6.174033 3.40982,0 6.17403,2.764209 6.17403,6.174033 z"
         sodipodi:ry="6.1740332"
         sodipodi:rx="6.1740332"
         sodipodi:cy="54.814827"
         sodipodi:cx="151.70482"
         id="path3755-7"
         style="fill:#000000;fill-opacity:1;stroke:#000000;stroke-width:3.26961326;stroke-miterlimit:4;stroke-opacity:1;stroke-dasharray:none;stroke-dashoffset:0"
         sodipodi:type="arc" />
      <path
         transform="matrix(0.61169314,0,0,0.61169314,132.11441,138.5916)"
         d="m 157.87885,54.814827 c 0,3.409824 -2.76421,6.174033 -6.17403,6.174033 -3.40983,0 -6.17403,-2.764209 -6.17403,-6.174033 0,-3.409824 2.7642,-6.174033 6.17403,-6.174033 3.40982,0 6.17403,2.764209 6.17403,6.174033 z"
         sodipodi:ry="6.1740332"
         sodipodi:rx="6.1740332"
         sodipodi:cy="54.814827"
         sodipodi:cx="151.70482"
         id="path3755-4"
         style="fill:#000000;fill-opacity:1;stroke:#000000;stroke-width:3.26961326;stroke-miterlimit:4;stroke-opacity:1;stroke-dasharray:none;stroke-dashoffset:0"
         sodipodi:type="arc" />
      <path
         transform="matrix(0.61169314,0,0,0.61169314,153.9905,138.5916)"
         d="m 157.87885,54.814827 c 0,3.409824 -2.76421,6.174033 -6.17403,6.174033 -3.40983,0 -6.17403,-2.764209 -6.17403,-6.174033 0,-3.409824 2.7642,-6.174033 6.17403,-6.174033 3.40982,0 6.17403,2.764209 6.17403,6.174033 z"
         sodipodi:ry="6.1740332"
         sodipodi:rx="6.1740332"
         sodipodi:cy="54.814827"
         sodipodi:cx="151.70482"
         id="path3755-0"
         style="fill:#000000;fill-opacity:1;stroke:#000000;stroke-width:3.26961326;stroke-miterlimit:4;stroke-opacity:1;stroke-dasharray:none;stroke-dashoffset:0"
         sodipodi:type="arc" />
      <path
         transform="matrix(0.61169314,0,0,0.61169314,173.80463,135.7096)"
         d="m 157.87885,54.814827 c 0,3.409824 -2.76421,6.174033 -6.17403,6.174033 -3.40983,0 -6.17403,-2.764209 -6.17403,-6.174033 0,-3.409824 2.7642,-6.174033 6.17403,-6.174033 3.40982,0 6.17403,2.764209 6.17403,6.174033 z"
         sodipodi:ry="6.1740332"
         sodipodi:rx="6.1740332"
         sodipodi:cy="54.814827"
         sodipodi:cx="151.70482"
         id="path3755-9"
         style="fill:#000000;fill-opacity:1;stroke:#000000;stroke-width:3.26961326;stroke-miterlimit:4;stroke-opacity:1;stroke-dasharray:none;stroke-dashoffset:0"
         sodipodi:type="arc" />
      <path
         transform="matrix(0.61169314,0,0,0.61169314,133.87842,153.17566)"
         d="m 157.87885,54.814827 c 0,3.409824 -2.76421,6.174033 -6.17403,6.174033 -3.40983,0 -6.17403,-2.764209 -6.17403,-6.174033 0,-3.409824 2.7642,-6.174033 6.17403,-6.174033 3.40982,0 6.17403,2.764209 6.17403,6.174033 z"
         sodipodi:ry="6.1740332"
         sodipodi:rx="6.1740332"
         sodipodi:cy="54.814827"
         sodipodi:cx="151.70482"
         id="path3755-48"
         style="fill:#000000;fill-opacity:1;stroke:#000000;stroke-width:3.26961326;stroke-miterlimit:4;stroke-opacity:1;stroke-dasharray:none;stroke-dashoffset:0"
         sodipodi:type="arc" />
      <path
         transform="matrix(0.61169314,0,0,0.61169314,155.04654,150.93967)"
         d="m 157.87885,54.814827 c 0,3.409824 -2.76421,6.174033 -6.17403,6.174033 -3.40983,0 -6.17403,-2.764209 -6.17403,-6.174033 0,-3.409824 2.7642,-6.174033 6.17403,-6.174033 3.40982,0 6.17403,2.764209 6.17403,6.174033 z"
         sodipodi:ry="6.1740332"
         sodipodi:rx="6.1740332"
         sodipodi:cy="54.814827"
         sodipodi:cx="151.70482"
         id="path3755-8"
         style="fill:#000000;fill-opacity:1;stroke:#000000;stroke-width:3.26961326;stroke-miterlimit:4;stroke-opacity:1;stroke-dasharray:none;stroke-dashoffset:0"
         sodipodi:type="arc" />
      <path
         transform="matrix(0.61169314,0,0,0.61169314,173.56863,150.93967)"
         d="m 157.87885,54.814827 c 0,3.409824 -2.76421,6.174033 -6.17403,6.174033 -3.40983,0 -6.17403,-2.764209 -6.17403,-6.174033 0,-3.409824 2.7642,-6.174033 6.17403,-6.174033 3.40982,0 6.17403,2.764209 6.17403,6.174033 z"
         sodipodi:ry="6.1740332"
         sodipodi:rx="6.1740332"
         sodipodi:cy="54.814827"
         sodipodi:cx="151.70482"
         id="path3755-2"
         style="fill:#000000;fill-opacity:1;stroke:#000000;stroke-width:3.26961326;stroke-miterlimit:4;stroke-opacity:1;stroke-dasharray:none;stroke-dashoffset:0"
         sodipodi:type="arc" />
      <path
         transform="matrix(0.61169314,0,0,0.61169314,35.09389,249.7242)"
         d="m 157.87885,54.814827 c 0,3.409824 -2.76421,6.174033 -6.17403,6.174033 -3.40983,0 -6.17403,-2.764209 -6.17403,-6.174033 0,-3.409824 2.7642,-6.174033 6.17403,-6.174033 3.40982,0 6.17403,2.764209 6.17403,6.174033 z"
         sodipodi:ry="6.1740332"
         sodipodi:rx="6.1740332"
         sodipodi:cy="54.814827"
         sodipodi:cx="151.70482"
         id="path3755-45"
         style="fill:#000000;fill-opacity:1;stroke:#000000;stroke-width:3.26961326;stroke-miterlimit:4;stroke-opacity:1;stroke-dasharray:none;stroke-dashoffset:0"
         sodipodi:type="arc" />
      <path
         transform="matrix(0.61169314,0,0,0.61169314,26.273843,239.14014)"
         d="m 157.87885,54.814827 c 0,3.409824 -2.76421,6.174033 -6.17403,6.174033 -3.40983,0 -6.17403,-2.764209 -6.17403,-6.174033 0,-3.409824 2.7642,-6.174033 6.17403,-6.174033 3.40982,0 6.17403,2.764209 6.17403,6.174033 z"
         sodipodi:ry="6.1740332"
         sodipodi:rx="6.1740332"
         sodipodi:cy="54.814827"
         sodipodi:cx="151.70482"
         id="path3755-5"
         style="fill:#000000;fill-opacity:1;stroke:#000000;stroke-width:3.26961326;stroke-miterlimit:4;stroke-opacity:1;stroke-dasharray:none;stroke-dashoffset:0"
         sodipodi:type="arc" />
      <path
         transform="matrix(0.61169314,0,0,0.61169314,41.267923,241.78616)"
         d="m 157.87885,54.814827 c 0,3.409824 -2.76421,6.174033 -6.17403,6.174033 -3.40983,0 -6.17403,-2.764209 -6.17403,-6.174033 0,-3.409824 2.7642,-6.174033 6.17403,-6.174033 3.40982,0 6.17403,2.764209 6.17403,6.174033 z"
         sodipodi:ry="6.1740332"
         sodipodi:rx="6.1740332"
         sodipodi:cy="54.814827"
         sodipodi:cx="151.70482"
         id="path3755-17"
         style="fill:#000000;fill-opacity:1;stroke:#000000;stroke-width:3.26961326;stroke-miterlimit:4;stroke-opacity:1;stroke-dasharray:none;stroke-dashoffset:0"
         sodipodi:type="arc" />
      <path
         transform="matrix(0.61169314,0,0,0.61169314,35.975895,227.67408)"
         d="m 157.87885,54.814827 c 0,3.409824 -2.76421,6.174033 -6.17403,6.174033 -3.40983,0 -6.17403,-2.764209 -6.17403,-6.174033 0,-3.409824 2.7642,-6.174033 6.17403,-6.174033 3.40982,0 6.17403,2.764209 6.17403,6.174033 z"
         sodipodi:ry="6.1740332"
         sodipodi:rx="6.1740332"
         sodipodi:cy="54.814827"
         sodipodi:cx="151.70482"
         id="path3755-11"
         style="fill:#000000;fill-opacity:1;stroke:#000000;stroke-width:3.26961326;stroke-miterlimit:4;stroke-opacity:1;stroke-dasharray:none;stroke-dashoffset:0"
         sodipodi:type="arc" />
      <path
         transform="matrix(0.61169314,0,0,0.61169314,133.87842,232.96611)"
         d="m 157.87885,54.814827 c 0,3.409824 -2.76421,6.174033 -6.17403,6.174033 -3.40983,0 -6.17403,-2.764209 -6.17403,-6.174033 0,-3.409824 2.7642,-6.174033 6.17403,-6.174033 3.40982,0 6.17403,2.764209 6.17403,6.174033 z"
         sodipodi:ry="6.1740332"
         sodipodi:rx="6.1740332"
         sodipodi:cy="54.814827"
         sodipodi:cx="151.70482"
         id="path3755-52"
         style="fill:#000000;fill-opacity:1;stroke:#000000;stroke-width:3.26961326;stroke-miterlimit:4;stroke-opacity:1;stroke-dasharray:none;stroke-dashoffset:0"
         sodipodi:type="arc" />
      <path
         transform="matrix(0.61169314,0,0,0.61169314,165.63059,248.84219)"
         d="m 157.87885,54.814827 c 0,3.409824 -2.76421,6.174033 -6.17403,6.174033 -3.40983,0 -6.17403,-2.764209 -6.17403,-6.174033 0,-3.409824 2.7642,-6.174033 6.17403,-6.174033 3.40982,0 6.17403,2.764209 6.17403,6.174033 z"
         sodipodi:ry="6.1740332"
         sodipodi:rx="6.1740332"
         sodipodi:cy="54.814827"
         sodipodi:cx="151.70482"
         id="path3755-76"
         style="fill:#000000;fill-opacity:1;stroke:#000000;stroke-width:3.26961326;stroke-miterlimit:4;stroke-opacity:1;stroke-dasharray:none;stroke-dashoffset:0"
         sodipodi:type="arc" />
      <path
         transform="matrix(0.61169314,0,0,0.61169314,130.3504,256.78023)"
         d="m 157.87885,54.814827 c 0,3.409824 -2.76421,6.174033 -6.17403,6.174033 -3.40983,0 -6.17403,-2.764209 -6.17403,-6.174033 0,-3.409824 2.7642,-6.174033 6.17403,-6.174033 3.40982,0 6.17403,2.764209 6.17403,6.174033 z"
         sodipodi:ry="6.1740332"
         sodipodi:rx="6.1740332"
         sodipodi:cy="54.814827"
         sodipodi:cx="151.70482"
         id="path3755-14"
         style="fill:#000000;fill-opacity:1;stroke:#000000;stroke-width:3.26961326;stroke-miterlimit:4;stroke-opacity:1;stroke-dasharray:none;stroke-dashoffset:0"
         sodipodi:type="arc" />
      <path
         transform="matrix(0.61169314,0,0,0.61169314,150.63651,240.02214)"
         d="m 157.87885,54.814827 c 0,3.409824 -2.76421,6.174033 -6.17403,6.174033 -3.40983,0 -6.17403,-2.764209 -6.17403,-6.174033 0,-3.409824 2.7642,-6.174033 6.17403,-6.174033 3.40982,0 6.17403,2.764209 6.17403,6.174033 z"
         sodipodi:ry="6.1740332"
         sodipodi:rx="6.1740332"
         sodipodi:cy="54.814827"
         sodipodi:cx="151.70482"
         id="path3755-23"
         style="fill:#000000;fill-opacity:1;stroke:#000000;stroke-width:3.26961326;stroke-miterlimit:4;stroke-opacity:1;stroke-dasharray:none;stroke-dashoffset:0"
         sodipodi:type="arc" />
      <path
         transform="matrix(0.61169314,0,0,0.61169314,155.04654,209.15198)"
         d="m 157.87885,54.814827 c 0,3.409824 -2.76421,6.174033 -6.17403,6.174033 -3.40983,0 -6.17403,-2.764209 -6.17403,-6.174033 0,-3.409824 2.7642,-6.174033 6.17403,-6.174033 3.40982,0 6.17403,2.764209 6.17403,6.174033 z"
         sodipodi:ry="6.1740332"
         sodipodi:rx="6.1740332"
         sodipodi:cy="54.814827"
         sodipodi:cx="151.70482"
         id="path3755-22"
         style="fill:#000000;fill-opacity:1;stroke:#000000;stroke-width:3.26961326;stroke-miterlimit:4;stroke-opacity:1;stroke-dasharray:none;stroke-dashoffset:0"
         sodipodi:type="arc" />
      <path
         transform="matrix(0.61169314,0,0,0.61169314,147.10849,253.25222)"
         d="m 157.87885,54.814827 c 0,3.409824 -2.76421,6.174033 -6.17403,6.174033 -3.40983,0 -6.17403,-2.764209 -6.17403,-6.174033 0,-3.409824 2.7642,-6.174033 6.17403,-6.174033 3.40982,0 6.17403,2.764209 6.17403,6.174033 z"
         sodipodi:ry="6.1740332"
         sodipodi:rx="6.1740332"
         sodipodi:cy="54.814827"
         sodipodi:cx="151.70482"
         id="path3755-16"
         style="fill:#000000;fill-opacity:1;stroke:#000000;stroke-width:3.26961326;stroke-miterlimit:4;stroke-opacity:1;stroke-dasharray:none;stroke-dashoffset:0"
         sodipodi:type="arc" />
      <path
         transform="matrix(0.61169314,0,0,0.61169314,146.22649,222.38205)"
         d="m 157.87885,54.814827 c 0,3.409824 -2.76421,6.174033 -6.17403,6.174033 -3.40983,0 -6.17403,-2.764209 -6.17403,-6.174033 0,-3.409824 2.7642,-6.174033 6.17403,-6.174033 3.40982,0 6.17403,2.764209 6.17403,6.174033 z"
         sodipodi:ry="6.1740332"
         sodipodi:rx="6.1740332"
         sodipodi:cy="54.814827"
         sodipodi:cx="151.70482"
         id="path3755-85"
         style="fill:#000000;fill-opacity:1;stroke:#000000;stroke-width:3.26961326;stroke-miterlimit:4;stroke-opacity:1;stroke-dasharray:none;stroke-dashoffset:0"
         sodipodi:type="arc" />
      <path
         transform="matrix(0.61169314,0,0,0.61169314,47.441952,172.98979)"
         d="m 157.87885,54.814827 c 0,3.409824 -2.76421,6.174033 -6.17403,6.174033 -3.40983,0 -6.17403,-2.764209 -6.17403,-6.174033 0,-3.409824 2.7642,-6.174033 6.17403,-6.174033 3.40982,0 6.17403,2.764209 6.17403,6.174033 z"
         sodipodi:ry="6.1740332"
         sodipodi:rx="6.1740332"
         sodipodi:cy="54.814827"
         sodipodi:cx="151.70482"
         id="path3755-761"
         style="fill:#000000;fill-opacity:1;stroke:#000000;stroke-width:3.26961326;stroke-miterlimit:4;stroke-opacity:1;stroke-dasharray:none;stroke-dashoffset:0"
         sodipodi:type="arc" />
      <path
         transform="matrix(0.61169314,0,0,0.61169314,71.256083,173.87179)"
         d="m 157.87885,54.814827 c 0,3.409824 -2.76421,6.174033 -6.17403,6.174033 -3.40983,0 -6.17403,-2.764209 -6.17403,-6.174033 0,-3.409824 2.7642,-6.174033 6.17403,-6.174033 3.40982,0 6.17403,2.764209 6.17403,6.174033 z"
         sodipodi:ry="6.1740332"
         sodipodi:rx="6.1740332"
         sodipodi:cy="54.814827"
         sodipodi:cx="151.70482"
         id="path3755-89"
         style="fill:#000000;fill-opacity:1;stroke:#000000;stroke-width:3.26961326;stroke-miterlimit:4;stroke-opacity:1;stroke-dasharray:none;stroke-dashoffset:0"
         sodipodi:type="arc" />
      <path
         transform="matrix(0.61169314,0,0,0.61169314,55.380003,181.80983)"
         d="m 157.87885,54.814827 c 0,3.409824 -2.76421,6.174033 -6.17403,6.174033 -3.40983,0 -6.17403,-2.764209 -6.17403,-6.174033 0,-3.409824 2.7642,-6.174033 6.17403,-6.174033 3.40982,0 6.17403,2.764209 6.17403,6.174033 z"
         sodipodi:ry="6.1740332"
         sodipodi:rx="6.1740332"
         sodipodi:cy="54.814827"
         sodipodi:cx="151.70482"
         id="path3755-27"
         style="fill:#000000;fill-opacity:1;stroke:#000000;stroke-width:3.26961326;stroke-miterlimit:4;stroke-opacity:1;stroke-dasharray:none;stroke-dashoffset:0"
         sodipodi:type="arc" />
      <path
         transform="matrix(0.61169314,0,0,0.61169314,77.430112,190.62988)"
         d="m 157.87885,54.814827 c 0,3.409824 -2.76421,6.174033 -6.17403,6.174033 -3.40983,0 -6.17403,-2.764209 -6.17403,-6.174033 0,-3.409824 2.7642,-6.174033 6.17403,-6.174033 3.40982,0 6.17403,2.764209 6.17403,6.174033 z"
         sodipodi:ry="6.1740332"
         sodipodi:rx="6.1740332"
         sodipodi:cy="54.814827"
         sodipodi:cx="151.70482"
         id="path3755-95"
         style="fill:#000000;fill-opacity:1;stroke:#000000;stroke-width:3.26961326;stroke-miterlimit:4;stroke-opacity:1;stroke-dasharray:none;stroke-dashoffset:0"
         sodipodi:type="arc" />
      <path
         transform="matrix(0.61169314,0,0,0.61169314,84.486162,179.16382)"
         d="m 157.87885,54.814827 c 0,3.409824 -2.76421,6.174033 -6.17403,6.174033 -3.40983,0 -6.17403,-2.764209 -6.17403,-6.174033 0,-3.409824 2.7642,-6.174033 6.17403,-6.174033 3.40982,0 6.17403,2.764209 6.17403,6.174033 z"
         sodipodi:ry="6.1740332"
         sodipodi:rx="6.1740332"
         sodipodi:cy="54.814827"
         sodipodi:cx="151.70482"
         id="path3755-43"
         style="fill:#000000;fill-opacity:1;stroke:#000000;stroke-width:3.26961326;stroke-miterlimit:4;stroke-opacity:1;stroke-dasharray:none;stroke-dashoffset:0"
         sodipodi:type="arc" />
      <path
         transform="matrix(0.61169314,0,0,0.61169314,7.7517424,248.8422)"
         d="m 157.87885,54.814827 c 0,3.409824 -2.76421,6.174033 -6.17403,6.174033 -3.40983,0 -6.17403,-2.764209 -6.17403,-6.174033 0,-3.409824 2.7642,-6.174033 6.17403,-6.174033 3.40982,0 6.17403,2.764209 6.17403,6.174033 z"
         sodipodi:ry="6.1740332"
         sodipodi:rx="6.1740332"
         sodipodi:cy="54.814827"
         sodipodi:cx="151.70482"
         id="path3755-12"
         style="fill:#000000;fill-opacity:1;stroke:#000000;stroke-width:3.26961326;stroke-miterlimit:4;stroke-opacity:1;stroke-dasharray:none;stroke-dashoffset:0"
         sodipodi:type="arc" />
      <path
         transform="matrix(0.61169314,0,0,0.61169314,106.53627,254.13422)"
         d="m 157.87885,54.814827 c 0,3.409824 -2.76421,6.174033 -6.17403,6.174033 -3.40983,0 -6.17403,-2.764209 -6.17403,-6.174033 0,-3.409824 2.7642,-6.174033 6.17403,-6.174033 3.40982,0 6.17403,2.764209 6.17403,6.174033 z"
         sodipodi:ry="6.1740332"
         sodipodi:rx="6.1740332"
         sodipodi:cy="54.814827"
         sodipodi:cx="151.70482"
         id="path3755-3"
         style="fill:#000000;fill-opacity:1;stroke:#000000;stroke-width:3.26961326;stroke-miterlimit:4;stroke-opacity:1;stroke-dasharray:none;stroke-dashoffset:0"
         sodipodi:type="arc" />
      <rect
         y="142.1333"
         x="204.62509"
         height="59.976322"
         width="84.672455"
         id="rect4037"
         style="fill:none;stroke:#000000;stroke-width:2;stroke-miterlimit:4;stroke-opacity:1;stroke-dasharray:none;stroke-dashoffset:0" />
    </g>
    <text
       xml:space="preserve"
       style="font-size:40px;font-style:normal;font-weight:normal;line-height:125%;letter-spacing:0px;word-spacing:0px;fill:#000000;fill-opacity:1;stroke:none;font-family:Sans"
       x="166.6989"
       y="348.5224"
       id="text4094"
       sodipodi:linespacing="125%"><tspan
         sodipodi:role="line"
         id="tspan4096"
         x="166.6989"
         y="348.5224"
         style="font-size:32px">a)                                  b)</tspan></text>
  </g>
</svg>
