<?xml version="1.0" encoding="UTF-8" standalone="no"?>
<!-- Created with Inkscape (http://www.inkscape.org/) -->
<svg
   xmlns:dc="http://purl.org/dc/elements/1.1/"
   xmlns:cc="http://web.resource.org/cc/"
   xmlns:rdf="http://www.w3.org/1999/02/22-rdf-syntax-ns#"
   xmlns:svg="http://www.w3.org/2000/svg"
   xmlns="http://www.w3.org/2000/svg"
   xmlns:sodipodi="http://sodipodi.sourceforge.net/DTD/sodipodi-0.dtd"
   xmlns:inkscape="http://www.inkscape.org/namespaces/inkscape"
   width="693.57141"
   height="492.28574"
   id="svg2"
   sodipodi:version="0.32"
   inkscape:version="0.45"
   sodipodi:modified="true"
   version="1.0">
  <defs
     id="defs4">
    <marker
       inkscape:stockid="TriangleOutL"
       orient="auto"
       refY="0"
       refX="0"
       id="TriangleOutL"
       style="overflow:visible">
      <path
         id="path3261"
         d="M 5.77,0 L -2.88,5 L -2.88,-5 L 5.77,0 z "
         style="fill-rule:evenodd;stroke:#000000;stroke-width:1pt;marker-start:none"
         transform="scale(0.8,0.8)" />
    </marker>
  </defs>
  <sodipodi:namedview
     id="base"
     pagecolor="#ffffff"
     bordercolor="#666666"
     borderopacity="1.0"
     inkscape:pageopacity="0.0"
     inkscape:pageshadow="2"
     inkscape:zoom="0.48652451"
     inkscape:cx="372.04724"
     inkscape:cy="526.18109"
     inkscape:document-units="px"
     inkscape:current-layer="layer1"
     inkscape:window-width="1024"
     inkscape:window-height="715"
     inkscape:window-x="0"
     inkscape:window-y="0" />
  <metadata
     id="metadata7">
    <rdf:RDF>
      <cc:Work
         rdf:about="">
        <dc:format>image/svg+xml</dc:format>
        <dc:type
           rdf:resource="http://purl.org/dc/dcmitype/StillImage" />
      </cc:Work>
    </rdf:RDF>
  </metadata>
  <g
     inkscape:label="Capa 1"
     inkscape:groupmode="layer"
     id="layer1"
     transform="translate(-23.214286,-67.076466)">
    <g
       id="g3150">
      <rect
         y="438.11328"
         x="431.46539"
         height="120.49778"
         width="151.92635"
         id="rect3146"
         style="fill:#cccccc;fill-opacity:1;stroke:#000000;stroke-width:1.50222683;stroke-miterlimit:4;stroke-dasharray:none;stroke-dashoffset:0;stroke-opacity:1" />
      <rect
         y="438.11328"
         x="128.89395"
         height="120.49778"
         width="151.92635"
         id="rect3140"
         style="fill:#cccccc;fill-opacity:1;stroke:#000000;stroke-width:1.50222683;stroke-miterlimit:4;stroke-dasharray:none;stroke-dashoffset:0;stroke-opacity:1" />
      <rect
         y="344.07648"
         x="280"
         height="214.28572"
         width="151.42857"
         id="rect3138"
         style="fill:#cccccc;fill-opacity:1;stroke:#000000;stroke-width:2;stroke-miterlimit:4;stroke-dasharray:none;stroke-dashoffset:0;stroke-opacity:1" />
      <path
         sodipodi:nodetypes="csssssssssssssssssssc"
         id="path2164"
         d="M 25.714286,540.93362 C 32.12525,540.93362 59.200889,515.21933 74.285714,515.21933 C 85.965148,515.21933 92.214416,500.64738 94.285714,492.36218 C 97.294027,480.32893 117.57115,463.36247 125.71429,455.21933 C 136.20404,444.72958 134.12341,434.77774 151.42857,420.93361 C 165.85925,409.38907 199.30108,453.98085 208.57143,460.93361 C 228.91939,476.19458 238.16868,464.59624 245.71429,449.50504 C 253.41082,434.11197 256.71014,421.36633 271.42857,406.6479 C 294.20706,383.86941 305.81318,369.40615 325.71429,349.50504 C 339.46661,335.75271 347.70245,329.93953 360,323.79075 C 377.93639,314.82256 386.33497,344.41144 397.14286,355.21933 C 411.30353,369.38 420.87762,373.12766 428.57143,392.36218 C 433.94349,405.79233 453.21751,421.20066 465.71429,418.07647 C 472.77436,416.31145 478.73651,396.48281 482.85714,392.36218 C 498.55683,376.6625 508.95199,407.1236 520,420.93361 C 523.36553,425.14053 527.61905,428.55266 531.42857,432.36218 C 546.48592,447.41953 555.12032,472.36218 577.14286,472.36218 C 586.1276,472.36218 582.44383,449.50504 591.42857,449.50504 C 609.74798,449.50504 604.18908,485.12269 617.14286,498.07647 C 634.22083,515.15444 656.44643,512.37647 674.28571,526.6479 C 682.33781,533.08957 706.75942,541.90918 714.28571,543.79075"
         style="fill:none;fill-rule:evenodd;stroke:#000000;stroke-width:5;stroke-linecap:butt;stroke-linejoin:miter;stroke-miterlimit:4;stroke-dasharray:none;stroke-opacity:1" />
    </g>
    <g
       id="g3160"
       transform="translate(47.857138,0)">
      <rect
         y="68.448311"
         x="63.229004"
         height="144.9706"
         width="144.9706"
         id="rect3142"
         style="fill:#cccccc;fill-opacity:1;stroke:#000000;stroke-width:2.7436893;stroke-miterlimit:4;stroke-dasharray:none;stroke-dashoffset:0;stroke-opacity:1" />
      <g
         id="g3156">
        <rect
           style="fill:#ffffff;fill-opacity:1;stroke:#000000;stroke-width:2.7436893;stroke-miterlimit:4;stroke-dasharray:none;stroke-dashoffset:0;stroke-opacity:1"
           id="rect3144"
           width="144.9706"
           height="144.9706"
           x="436.08612"
           y="68.448311" />
        <path
           sodipodi:type="arc"
           style="fill:#b3b3b3;fill-opacity:1;stroke:#000000;stroke-width:2;stroke-miterlimit:4;stroke-dasharray:none;stroke-dashoffset:0;stroke-opacity:1"
           id="path3148"
           sodipodi:cx="509.73795"
           sodipodi:cy="145.93304"
           sodipodi:rx="6.1661844"
           sodipodi:ry="8.2215796"
           d="M 515.90413 145.93304 A 6.1661844 8.2215796 0 1 1  503.57176,145.93304 A 6.1661844 8.2215796 0 1 1  515.90413 145.93304 z"
           transform="matrix(1.0665211,0,0,0.7998908,-35.574504,24.924129)" />
      </g>
    </g>
    <path
       style="fill:none;fill-rule:evenodd;stroke:#000000;stroke-width:3;stroke-linecap:butt;stroke-linejoin:miter;marker-end:url(#TriangleOutL);stroke-miterlimit:4;stroke-dasharray:none;stroke-opacity:1"
       d="M 365.86029,316.36463 L 466.57464,230.03804"
       id="path3166"
       sodipodi:nodetypes="cc" />
    <path
       style="fill:none;fill-rule:evenodd;stroke:#000000;stroke-width:3;stroke-linecap:butt;stroke-linejoin:miter;marker-end:url(#TriangleOutL);stroke-miterlimit:4;stroke-dasharray:none;stroke-opacity:1"
       d="M 275.42291,339.02937 L 205.53949,236.25962"
       id="path3366" />
  </g>
</svg>
