<?xml version="1.0" encoding="UTF-8" standalone="no"?>
<!-- Created with Inkscape (http://www.inkscape.org/) -->
<svg
   xmlns:dc="http://purl.org/dc/elements/1.1/"
   xmlns:cc="http://web.resource.org/cc/"
   xmlns:rdf="http://www.w3.org/1999/02/22-rdf-syntax-ns#"
   xmlns:svg="http://www.w3.org/2000/svg"
   xmlns="http://www.w3.org/2000/svg"
   xmlns:sodipodi="http://sodipodi.sourceforge.net/DTD/sodipodi-0.dtd"
   xmlns:inkscape="http://www.inkscape.org/namespaces/inkscape"
   width="2158.6797"
   height="1662.6246"
   id="svg2"
   sodipodi:version="0.32"
   inkscape:version="0.45"
   version="1.0"
   sodipodi:docbase="/home/victor/Desktop/libro_sig/Algebra_de_mapas"
   sodipodi:docname="Analisis_focal_bordes.pdf"
   inkscape:output_extension="org.inkscape.output.pdf"
   inkscape:dataloss="true">
  <defs
     id="defs4">
    <marker
       inkscape:stockid="Arrow2Mend"
       orient="auto"
       refY="0"
       refX="0"
       id="Arrow2Mend"
       style="overflow:visible">
      <path
         id="path12312"
         style="font-size:12px;fill-rule:evenodd;stroke-width:0.625;stroke-linejoin:round"
         d="M 8.7185878,4.0337352 L -2.2072895,0.016013256 L 8.7185884,-4.0017078 C 6.97309,-1.6296469 6.9831476,1.6157441 8.7185878,4.0337352 z "
         transform="scale(-0.6,-0.6)" />
    </marker>
  </defs>
  <sodipodi:namedview
     id="base"
     pagecolor="#ffffff"
     bordercolor="#666666"
     borderopacity="1.0"
     inkscape:pageopacity="0.0"
     inkscape:pageshadow="2"
     inkscape:zoom="0.25279175"
     inkscape:cx="1458.3703"
     inkscape:cy="713.79666"
     inkscape:document-units="px"
     inkscape:current-layer="layer1"
     inkscape:window-width="1024"
     inkscape:window-height="715"
     inkscape:window-x="0"
     inkscape:window-y="0" />
  <metadata
     id="metadata7">
    <rdf:RDF>
      <cc:Work
         rdf:about="">
        <dc:format>image/svg+xml</dc:format>
        <dc:type
           rdf:resource="http://purl.org/dc/dcmitype/StillImage" />
      </cc:Work>
    </rdf:RDF>
  </metadata>
  <g
     inkscape:label="Capa 1"
     inkscape:groupmode="layer"
     id="layer1"
     transform="translate(1048.5091,-188.46542)">
    <rect
       ry="0"
       y="2370.3372"
       x="1833.8605"
       height="204.29199"
       width="215.00482"
       id="rect22639"
       style="fill:#ffffff;fill-opacity:1;stroke:#000000;stroke-width:6.11035776;stroke-miterlimit:4;stroke-dasharray:none;stroke-opacity:1"
       transform="matrix(0.9999999,-3.9133655e-4,-0.6977521,0.7163393,0,0)" />
    <rect
       ry="0"
       y="1350.1429"
       x="1833.7736"
       height="204.29199"
       width="215.00482"
       id="rect22641"
       style="fill:#ffffff;fill-opacity:1;stroke:#000000;stroke-width:6.11035776;stroke-miterlimit:4;stroke-dasharray:none;stroke-opacity:1"
       transform="matrix(0.9999999,-3.9133655e-4,-0.6977521,0.7163393,0,0)" />
    <rect
       style="fill:#ffffff;fill-opacity:1;stroke:#000000;stroke-width:6.11035776;stroke-miterlimit:4;stroke-dasharray:none;stroke-opacity:1"
       id="rect22643"
       width="215.00482"
       height="204.29199"
       x="1833.373"
       y="1554.9055"
       ry="0"
       transform="matrix(0.9999999,-3.9133655e-4,-0.6977521,0.7163393,0,0)" />
    <rect
       ry="0"
       y="1759.1173"
       x="1833.373"
       height="204.29199"
       width="215.00482"
       id="rect22645"
       style="fill:#ffffff;fill-opacity:1;stroke:#000000;stroke-width:6.11035776;stroke-miterlimit:4;stroke-dasharray:none;stroke-opacity:1"
       transform="matrix(0.9999999,-3.9133655e-4,-0.6977521,0.7163393,0,0)" />
    <rect
       ry="0"
       y="1961.3795"
       x="1831.7494"
       height="204.25804"
       width="217.49858"
       id="rect22647"
       style="fill:#ffffff;fill-opacity:1;stroke:#000000;stroke-width:6.14517927;stroke-miterlimit:4;stroke-dasharray:none;stroke-opacity:1"
       transform="matrix(0.9999999,-3.9133655e-4,-0.6977521,0.7163393,0,0)" />
    <rect
       style="fill:#ffffff;fill-opacity:1;stroke:#000000;stroke-width:6.11035776;stroke-miterlimit:4;stroke-dasharray:none;stroke-opacity:1"
       id="rect22649"
       width="215.00482"
       height="204.29199"
       x="1833.8605"
       y="2166.125"
       ry="0"
       transform="matrix(0.9999999,-3.9133655e-4,-0.6977521,0.7163393,0,0)" />
    <rect
       ry="0"
       y="1350.198"
       x="973.52991"
       height="204.29199"
       width="215.00482"
       id="rect22651"
       style="fill:#ffffff;fill-opacity:1;stroke:#000000;stroke-width:6.11035776;stroke-miterlimit:4;stroke-dasharray:none;stroke-opacity:1"
       transform="matrix(0.9999999,-3.9133655e-4,-0.6977521,0.7163393,0,0)" />
    <rect
       style="fill:#ffffff;fill-opacity:1;stroke:#000000;stroke-width:6.11035776;stroke-miterlimit:4;stroke-dasharray:none;stroke-opacity:1"
       id="rect22653"
       width="215.00482"
       height="204.29199"
       x="1188.4509"
       y="1350.198"
       ry="0"
       transform="matrix(0.9999999,-3.9133655e-4,-0.6977521,0.7163393,0,0)" />
    <rect
       style="fill:#ffffff;fill-opacity:1;stroke:#000000;stroke-width:6.11035776;stroke-miterlimit:4;stroke-dasharray:none;stroke-opacity:1"
       id="rect22655"
       width="215.00482"
       height="204.29199"
       x="1404.446"
       y="1350.198"
       ry="0"
       transform="matrix(0.9999999,-3.9133655e-4,-0.6977521,0.7163393,0,0)" />
    <rect
       ry="0"
       y="1350.198"
       x="1619.3667"
       height="204.29199"
       width="215.00482"
       id="rect22657"
       style="fill:#ffffff;fill-opacity:1;stroke:#000000;stroke-width:6.11035776;stroke-miterlimit:4;stroke-dasharray:none;stroke-opacity:1"
       transform="matrix(0.9999999,-3.9133655e-4,-0.6977521,0.7163393,0,0)" />
    <rect
       style="fill:#ffffff;fill-opacity:1;stroke:#000000;stroke-width:6.11035776;stroke-miterlimit:4;stroke-dasharray:none;stroke-opacity:1"
       id="rect22659"
       width="215.00482"
       height="204.29199"
       x="973.12976"
       y="1554.9607"
       ry="0"
       transform="matrix(0.9999999,-3.9133655e-4,-0.6977521,0.7163393,0,0)" />
    <rect
       ry="0"
       y="1554.9607"
       x="1188.0507"
       height="204.29199"
       width="215.00482"
       id="rect22661"
       style="fill:#ffffff;fill-opacity:1;stroke:#000000;stroke-width:6.11035776;stroke-miterlimit:4;stroke-dasharray:none;stroke-opacity:1"
       transform="matrix(0.9999999,-3.9133655e-4,-0.6977521,0.7163393,0,0)" />
    <rect
       ry="0"
       y="1759.1725"
       x="973.12976"
       height="204.29199"
       width="215.00482"
       id="rect22663"
       style="fill:#ffffff;fill-opacity:1;stroke:#000000;stroke-width:6.11035776;stroke-miterlimit:4;stroke-dasharray:none;stroke-opacity:1"
       transform="matrix(0.9999999,-3.9133655e-4,-0.6977521,0.7163393,0,0)" />
    <rect
       style="fill:#ffffff;fill-opacity:1;stroke:#000000;stroke-width:6.11035776;stroke-miterlimit:4;stroke-dasharray:none;stroke-opacity:1"
       id="rect22665"
       width="215.00482"
       height="204.29199"
       x="1188.0507"
       y="1759.1725"
       ry="0"
       transform="matrix(0.9999999,-3.9133655e-4,-0.6977521,0.7163393,0,0)" />
    <rect
       ry="0"
       y="1554.9607"
       x="1404.0459"
       height="204.29199"
       width="215.00482"
       id="rect22667"
       style="fill:#ffffff;fill-opacity:1;stroke:#000000;stroke-width:6.11035776;stroke-miterlimit:4;stroke-dasharray:none;stroke-opacity:1"
       transform="matrix(0.9999999,-3.9133655e-4,-0.6977521,0.7163393,0,0)" />
    <rect
       style="fill:#ffffff;fill-opacity:1;stroke:#000000;stroke-width:6.11035776;stroke-miterlimit:4;stroke-dasharray:none;stroke-opacity:1"
       id="rect22669"
       width="215.00482"
       height="204.29199"
       x="1618.9668"
       y="1554.9607"
       ry="0"
       transform="matrix(0.9999999,-3.9133655e-4,-0.6977521,0.7163393,0,0)" />
    <rect
       style="fill:#ffffff;fill-opacity:1;stroke:#000000;stroke-width:6.11035776;stroke-miterlimit:4;stroke-dasharray:none;stroke-opacity:1"
       id="rect22671"
       width="215.00482"
       height="204.29199"
       x="1404.0459"
       y="1759.1725"
       ry="0"
       transform="matrix(0.9999999,-3.9133655e-4,-0.6977521,0.7163393,0,0)" />
    <rect
       ry="0"
       y="1759.1725"
       x="1618.9668"
       height="204.29199"
       width="215.00482"
       id="rect22673"
       style="fill:#ffffff;fill-opacity:1;stroke:#000000;stroke-width:6.11035776;stroke-miterlimit:4;stroke-dasharray:none;stroke-opacity:1"
       transform="matrix(0.9999999,-3.9133655e-4,-0.6977521,0.7163393,0,0)" />
    <rect
       ry="0"
       y="1350.0876"
       x="760.24768"
       height="204.29199"
       width="215.00482"
       id="rect22675"
       style="fill:#ffff00;fill-opacity:1;stroke:#000000;stroke-width:6.11035776;stroke-miterlimit:4;stroke-dasharray:none;stroke-opacity:1"
       transform="matrix(0.9999999,-3.9133655e-4,-0.6977521,0.7163393,0,0)" />
    <rect
       style="fill:#ffffff;fill-opacity:1;stroke:#000000;stroke-width:6.11035776;stroke-miterlimit:4;stroke-dasharray:none;stroke-opacity:1"
       id="rect22677"
       width="215.00482"
       height="204.29199"
       x="759.84741"
       y="1554.8502"
       ry="0"
       transform="matrix(0.9999999,-3.9133655e-4,-0.6977521,0.7163393,0,0)" />
    <rect
       ry="0"
       y="1759.0623"
       x="759.84741"
       height="204.29199"
       width="215.00482"
       id="rect22679"
       style="fill:#ffffff;fill-opacity:1;stroke:#000000;stroke-width:6.11035776;stroke-miterlimit:4;stroke-dasharray:none;stroke-opacity:1"
       transform="matrix(0.9999999,-3.9133655e-4,-0.6977521,0.7163393,0,0)" />
    <rect
       ry="0"
       y="1961.4175"
       x="974.0174"
       height="204.29199"
       width="215.00482"
       id="rect22681"
       style="fill:#ffffff;fill-opacity:1;stroke:#000000;stroke-width:6.11035776;stroke-miterlimit:4;stroke-dasharray:none;stroke-opacity:1"
       transform="matrix(0.9999999,-3.9133655e-4,-0.6977521,0.7163393,0,0)" />
    <rect
       style="fill:#ffffff;fill-opacity:1;stroke:#000000;stroke-width:6.11035776;stroke-miterlimit:4;stroke-dasharray:none;stroke-opacity:1"
       id="rect22683"
       width="215.00482"
       height="204.29199"
       x="1188.9384"
       y="1961.4175"
       ry="0"
       transform="matrix(0.9999999,-3.9133655e-4,-0.6977521,0.7163393,0,0)" />
    <rect
       style="fill:#ffffff;fill-opacity:1;stroke:#000000;stroke-width:6.11035776;stroke-miterlimit:4;stroke-dasharray:none;stroke-opacity:1"
       id="rect22685"
       width="215.00482"
       height="204.29199"
       x="1404.9336"
       y="1961.4175"
       ry="0"
       transform="matrix(0.9999999,-3.9133655e-4,-0.6977521,0.7163393,0,0)" />
    <rect
       ry="0"
       y="1961.4347"
       x="1617.3425"
       height="204.25804"
       width="217.49858"
       id="rect22687"
       style="fill:#ffffff;fill-opacity:1;stroke:#000000;stroke-width:6.14517927;stroke-miterlimit:4;stroke-dasharray:none;stroke-opacity:1"
       transform="matrix(0.9999999,-3.9133655e-4,-0.6977521,0.7163393,0,0)" />
    <rect
       style="fill:#ffffff;fill-opacity:1;stroke:#000000;stroke-width:6.11035776;stroke-miterlimit:4;stroke-dasharray:none;stroke-opacity:1"
       id="rect22689"
       width="215.00482"
       height="204.29199"
       x="973.61719"
       y="2166.1799"
       ry="0"
       transform="matrix(0.9999999,-3.9133655e-4,-0.6977521,0.7163393,0,0)" />
    <rect
       ry="0"
       y="2166.1799"
       x="1188.5381"
       height="204.29199"
       width="215.00482"
       id="rect22691"
       style="fill:#ffffff;fill-opacity:1;stroke:#000000;stroke-width:6.11035776;stroke-miterlimit:4;stroke-dasharray:none;stroke-opacity:1"
       transform="matrix(0.9999999,-3.9133655e-4,-0.6977521,0.7163393,0,0)" />
    <rect
       ry="0"
       y="2370.3921"
       x="973.61719"
       height="204.29199"
       width="215.00482"
       id="rect22693"
       style="fill:#ffffff;fill-opacity:1;stroke:#000000;stroke-width:6.11035776;stroke-miterlimit:4;stroke-dasharray:none;stroke-opacity:1"
       transform="matrix(0.9999999,-3.9133655e-4,-0.6977521,0.7163393,0,0)" />
    <rect
       style="fill:#ffffff;fill-opacity:1;stroke:#000000;stroke-width:6.11035776;stroke-miterlimit:4;stroke-dasharray:none;stroke-opacity:1"
       id="rect22695"
       width="215.00482"
       height="204.29199"
       x="1188.5381"
       y="2370.3921"
       ry="0"
       transform="matrix(0.9999999,-3.9133655e-4,-0.6977521,0.7163393,0,0)" />
    <rect
       ry="0"
       y="2166.1799"
       x="1404.5333"
       height="204.29199"
       width="215.00482"
       id="rect22697"
       style="fill:#ffffff;fill-opacity:1;stroke:#000000;stroke-width:6.11035776;stroke-miterlimit:4;stroke-dasharray:none;stroke-opacity:1"
       transform="matrix(0.9999999,-3.9133655e-4,-0.6977521,0.7163393,0,0)" />
    <rect
       style="fill:#ffffff;fill-opacity:1;stroke:#000000;stroke-width:6.11035776;stroke-miterlimit:4;stroke-dasharray:none;stroke-opacity:1"
       id="rect22699"
       width="215.00482"
       height="204.29199"
       x="1619.454"
       y="2166.1799"
       ry="0"
       transform="matrix(0.9999999,-3.9133655e-4,-0.6977521,0.7163393,0,0)" />
    <rect
       style="fill:#ffffff;fill-opacity:1;stroke:#000000;stroke-width:6.11035776;stroke-miterlimit:4;stroke-dasharray:none;stroke-opacity:1"
       id="rect22701"
       width="215.00482"
       height="204.29199"
       x="1404.5333"
       y="2370.3921"
       ry="0"
       transform="matrix(0.9999999,-3.9133655e-4,-0.6977521,0.7163393,0,0)" />
    <rect
       ry="0"
       y="2370.3921"
       x="1619.454"
       height="204.29199"
       width="215.00482"
       id="rect22703"
       style="fill:#ffffff;fill-opacity:1;stroke:#000000;stroke-width:6.11035776;stroke-miterlimit:4;stroke-dasharray:none;stroke-opacity:1"
       transform="matrix(0.9999999,-3.9133655e-4,-0.6977521,0.7163393,0,0)" />
    <rect
       ry="0"
       y="1961.3075"
       x="760.73511"
       height="204.29199"
       width="215.00482"
       id="rect22705"
       style="fill:#ffffff;fill-opacity:1;stroke:#000000;stroke-width:6.11035776;stroke-miterlimit:4;stroke-dasharray:none;stroke-opacity:1"
       transform="matrix(0.9999999,-3.9133655e-4,-0.6977521,0.7163393,0,0)" />
    <rect
       style="fill:#ffffff;fill-opacity:1;stroke:#000000;stroke-width:6.11035776;stroke-miterlimit:4;stroke-dasharray:none;stroke-opacity:1"
       id="rect22707"
       width="215.00482"
       height="204.29199"
       x="760.33484"
       y="2166.0698"
       ry="0"
       transform="matrix(0.9999999,-3.9133655e-4,-0.6977521,0.7163393,0,0)" />
    <rect
       ry="0"
       y="2370.2817"
       x="760.33484"
       height="204.29199"
       width="215.00482"
       id="rect22709"
       style="fill:#ffffff;fill-opacity:1;stroke:#000000;stroke-width:6.11035776;stroke-miterlimit:4;stroke-dasharray:none;stroke-opacity:1"
       transform="matrix(0.9999999,-3.9133655e-4,-0.6977521,0.7163393,0,0)" />
    <g
       id="g28168"
       transform="matrix(0.9999863,-5.2359638e-3,5.2359638e-3,0.9999863,-337.85079,258.87913)">
      <rect
         transform="matrix(0.9999883,4.8446322e-3,-0.7014933,0.7126761,0,0)"
         style="fill:#ffffff;fill-opacity:1;stroke:#000000;stroke-width:6.11035728;stroke-miterlimit:4;stroke-dasharray:6.11035751, 6.11035751;stroke-dashoffset:0;stroke-opacity:1"
         id="rect28164"
         width="215.00482"
         height="204.29199"
         x="842.39923"
         y="782.62329"
         ry="0" />
      <rect
         transform="matrix(0.9999883,4.8446322e-3,-0.7014933,0.7126761,0,0)"
         ry="0"
         y="782.62329"
         x="1057.3201"
         height="204.29199"
         width="215.00482"
         id="rect28166"
         style="fill:#ffffff;fill-opacity:1;stroke:#000000;stroke-width:6.11035728;stroke-miterlimit:4;stroke-dasharray:6.11035751, 6.11035751;stroke-dashoffset:0;stroke-opacity:1" />
    </g>
    <path
       style="fill:none;fill-rule:evenodd;stroke:#000000;stroke-width:13;stroke-linecap:butt;stroke-linejoin:miter;stroke-miterlimit:4;stroke-dasharray:none;stroke-opacity:1"
       d="M -1038.0909,1844.4923 L 251.61187,1843.446 L 1103.0178,965.86704"
       id="path22711" />
    <g
       id="g27149"
       transform="matrix(0.9999939,-3.4906514e-3,3.4906514e-3,0.9999939,-64.075752,-147.67583)">
      <rect
         transform="matrix(0.9999883,4.8446318e-3,-0.7014933,0.7126761,0,0)"
         style="fill:#ff0000;fill-opacity:1;stroke:#000000;stroke-width:6.11035776;stroke-miterlimit:4;stroke-dasharray:none;stroke-opacity:1"
         id="rect22759"
         width="215.00482"
         height="204.29199"
         x="356.1568"
         y="475.44476"
         ry="0" />
      <rect
         transform="matrix(0.9999883,4.8446318e-3,-0.7014933,0.7126761,0,0)"
         ry="0"
         y="475.44476"
         x="571.07776"
         height="204.29199"
         width="215.00482"
         id="rect22761"
         style="fill:#ff0000;fill-opacity:1;stroke:#000000;stroke-width:6.11035776;stroke-miterlimit:4;stroke-dasharray:none;stroke-opacity:1" />
      <rect
         transform="matrix(0.9999883,4.8446318e-3,-0.7014933,0.7126761,0,0)"
         ry="0"
         y="680.20728"
         x="355.75662"
         height="204.29199"
         width="215.00482"
         id="rect22767"
         style="fill:#ffffff;fill-opacity:1;stroke:#000000;stroke-width:6.11035776;stroke-miterlimit:4;stroke-dasharray:none;stroke-opacity:1" />
      <rect
         transform="matrix(0.9999883,4.8446318e-3,-0.7014933,0.7126761,0,0)"
         style="fill:#ffffff;fill-opacity:1;stroke:#000000;stroke-width:6.11035776;stroke-miterlimit:4;stroke-dasharray:none;stroke-opacity:1"
         id="rect22769"
         width="215.00482"
         height="204.29199"
         x="570.67743"
         y="680.20728"
         ry="0" />
      <rect
         transform="matrix(0.9999883,4.8446318e-3,-0.7014933,0.7126761,0,0)"
         style="fill:#ffffff;fill-opacity:1;stroke:#000000;stroke-width:6.11035776;stroke-miterlimit:4;stroke-dasharray:none;stroke-opacity:1"
         id="rect22771"
         width="215.00482"
         height="204.29199"
         x="355.75662"
         y="884.41956"
         ry="0" />
      <rect
         transform="matrix(0.9999883,4.8446318e-3,-0.7014933,0.7126761,0,0)"
         ry="0"
         y="884.41956"
         x="570.67743"
         height="204.29199"
         width="215.00482"
         id="rect22773"
         style="fill:#ffffff;fill-opacity:1;stroke:#000000;stroke-width:6.11035776;stroke-miterlimit:4;stroke-dasharray:none;stroke-opacity:1" />
      <rect
         transform="matrix(0.9999883,4.8446318e-3,-0.7014933,0.7126761,0,0)"
         style="fill:#ff0000;fill-opacity:1;stroke:#000000;stroke-width:6.11035776;stroke-miterlimit:4;stroke-dasharray:none;stroke-opacity:1"
         id="rect22783"
         width="215.00482"
         height="204.29199"
         x="142.87453"
         y="475.33478"
         ry="0" />
      <rect
         transform="matrix(0.9999883,4.8446318e-3,-0.7014933,0.7126761,0,0)"
         ry="0"
         y="680.09717"
         x="142.47429"
         height="204.29199"
         width="215.00482"
         id="rect22785"
         style="fill:#ff0000;fill-opacity:1;stroke:#000000;stroke-width:6.11035776;stroke-miterlimit:4;stroke-dasharray:none;stroke-opacity:1" />
      <rect
         transform="matrix(0.9999883,4.8446318e-3,-0.7014933,0.7126761,0,0)"
         style="fill:#ff0000;fill-opacity:1;stroke:#000000;stroke-width:6.11035776;stroke-miterlimit:4;stroke-dasharray:none;stroke-opacity:1"
         id="rect22787"
         width="215.00482"
         height="204.29199"
         x="142.47429"
         y="884.30908"
         ry="0" />
    </g>
    <path
       style="fill:none;fill-rule:evenodd;stroke:#000000;stroke-width:4;stroke-linecap:butt;stroke-linejoin:miter;stroke-miterlimit:4;stroke-dasharray:4, 4;stroke-dashoffset:0;stroke-opacity:1"
       d="M 386.56506,823.90997 L 389.48876,189.20841"
       id="path27120"
       sodipodi:nodetypes="cc" />
    <path
       style="fill:none;fill-rule:evenodd;stroke:#000000;stroke-width:4;stroke-linecap:butt;stroke-linejoin:miter;stroke-miterlimit:4;stroke-dasharray:4, 4;stroke-dashoffset:0;stroke-opacity:1"
       d="M -256.57685,821.51651 L -257.55902,633.9394"
       id="path27122" />
    <path
       style="fill:none;fill-rule:evenodd;stroke:#000000;stroke-width:4;stroke-linecap:butt;stroke-linejoin:miter;stroke-miterlimit:4;stroke-dasharray:4, 4;stroke-dashoffset:0;stroke-opacity:1"
       d="M -38.433958,1259.7794 L -41.716796,632.80924"
       id="path27124" />
    <path
       style="fill:none;fill-rule:evenodd;stroke:#000000;stroke-width:4;stroke-linecap:butt;stroke-linejoin:miter;stroke-miterlimit:4;stroke-dasharray:4, 4;stroke-dashoffset:0;stroke-opacity:1"
       d="M -680.83488,1260.5734 L -684.0908,638.74234"
       id="path27126" />
    <g
       id="g28159"
       transform="matrix(0.9999863,-5.2359638e-3,5.2359638e-3,0.9999863,-730.66003,433.10044)">
      <rect
         transform="matrix(0.9999883,4.844632e-3,-0.7014933,0.7126761,0,0)"
         ry="0"
         y="539.13269"
         x="853.31927"
         height="204.29199"
         width="215.00482"
         id="rect28145"
         style="fill:#ffffff;fill-opacity:1;stroke:#000000;stroke-width:6.11035728;stroke-miterlimit:4;stroke-dasharray:6.11035751, 6.11035751;stroke-dashoffset:0;stroke-opacity:1" />
      <rect
         transform="matrix(0.9999883,4.844632e-3,-0.7014933,0.7126761,0,0)"
         style="fill:#ffffff;fill-opacity:1;stroke:#000000;stroke-width:6.11035728;stroke-miterlimit:4;stroke-dasharray:6.11035751, 6.11035751;stroke-dashoffset:0;stroke-opacity:1"
         id="rect28147"
         width="215.00482"
         height="204.29199"
         x="852.91901"
         y="743.89539"
         ry="0" />
      <rect
         transform="matrix(0.9999883,4.844632e-3,-0.7014933,0.7126761,0,0)"
         ry="0"
         y="948.10724"
         x="852.91901"
         height="204.29199"
         width="215.00482"
         id="rect28149"
         style="fill:#ffffff;fill-opacity:1;stroke:#000000;stroke-width:6.11035728;stroke-miterlimit:4;stroke-dasharray:6.11035751, 6.11035751;stroke-dashoffset:0;stroke-opacity:1" />
    </g>
  </g>
</svg>
