<?xml version="1.0" encoding="UTF-8" standalone="no"?>
<!-- Created with Inkscape (http://www.inkscape.org/) -->

<svg
   xmlns:dc="http://purl.org/dc/elements/1.1/"
   xmlns:cc="http://creativecommons.org/ns#"
   xmlns:rdf="http://www.w3.org/1999/02/22-rdf-syntax-ns#"
   xmlns:svg="http://www.w3.org/2000/svg"
   xmlns="http://www.w3.org/2000/svg"
   xmlns:sodipodi="http://sodipodi.sourceforge.net/DTD/sodipodi-0.dtd"
   xmlns:inkscape="http://www.inkscape.org/namespaces/inkscape"
   width="1677.5381"
   height="354.41809"
   id="svg2"
   sodipodi:version="0.32"
   inkscape:version="0.48.4 r9939"
   sodipodi:modified="true"
   version="1.0"
   sodipodi:docname="Zonas_llanas_por_IDW.svg">
  <defs
     id="defs4" />
  <sodipodi:namedview
     id="base"
     pagecolor="#ffffff"
     bordercolor="#666666"
     borderopacity="1.0"
     inkscape:pageopacity="0.0"
     inkscape:pageshadow="2"
     inkscape:zoom="0.32636132"
     inkscape:cx="12.276532"
     inkscape:cy="-54.776046"
     inkscape:document-units="px"
     inkscape:current-layer="layer1"
     showguides="true"
     inkscape:guide-bbox="true"
     inkscape:window-width="1920"
     inkscape:window-height="1057"
     inkscape:window-x="-8"
     inkscape:window-y="-8"
     showgrid="false"
     inkscape:window-maximized="1"
     fit-margin-top="0"
     fit-margin-left="0"
     fit-margin-right="0"
     fit-margin-bottom="0" />
  <metadata
     id="metadata7">
    <rdf:RDF>
      <cc:Work
         rdf:about="">
        <dc:format>image/svg+xml</dc:format>
        <dc:type
           rdf:resource="http://purl.org/dc/dcmitype/StillImage" />
      </cc:Work>
    </rdf:RDF>
  </metadata>
  <g
     inkscape:label="Capa 1"
     inkscape:groupmode="layer"
     id="layer1"
     transform="translate(5,-34.372647)">
    <g
       id="g3026">
      <path
         transform="translate(100,81.42857)"
         d="m 145.71429,189.50504 c 0,6.31182 -5.11674,11.42857 -11.42857,11.42857 -6.31183,0 -11.42857,-5.11675 -11.42857,-11.42857 0,-6.31183 5.11674,-11.42858 11.42857,-11.42858 6.31183,0 11.42857,5.11675 11.42857,11.42858 z"
         sodipodi:ry="11.428572"
         sodipodi:rx="11.428572"
         sodipodi:cy="189.50504"
         sodipodi:cx="134.28572"
         id="path2160"
         style="fill:#ffffff;fill-opacity:1;stroke:#000000;stroke-width:4;stroke-miterlimit:4;stroke-opacity:1;stroke-dasharray:none"
         sodipodi:type="arc" />
      <path
         transform="translate(402.85714,-74.28571)"
         d="m 145.71429,189.50504 c 0,6.31182 -5.11674,11.42857 -11.42857,11.42857 -6.31183,0 -11.42857,-5.11675 -11.42857,-11.42857 0,-6.31183 5.11674,-11.42858 11.42857,-11.42858 6.31183,0 11.42857,5.11675 11.42857,11.42858 z"
         sodipodi:ry="11.428572"
         sodipodi:rx="11.428572"
         sodipodi:cy="189.50504"
         sodipodi:cx="134.28572"
         id="path4106"
         style="fill:#ffffff;fill-opacity:1;stroke:#000000;stroke-width:4;stroke-miterlimit:4;stroke-opacity:1;stroke-dasharray:none"
         sodipodi:type="arc" />
      <path
         transform="translate(214.85714,-74.285709)"
         d="m 145.71429,189.50504 c 0,6.31182 -5.11674,11.42857 -11.42857,11.42857 -6.31183,0 -11.42857,-5.11675 -11.42857,-11.42857 0,-6.31183 5.11674,-11.42858 11.42857,-11.42858 6.31183,0 11.42857,5.11675 11.42857,11.42858 z"
         sodipodi:ry="11.428572"
         sodipodi:rx="11.428572"
         sodipodi:cy="189.50504"
         sodipodi:cx="134.28572"
         id="path4108"
         style="fill:#ffffff;fill-opacity:1;stroke:#000000;stroke-width:4;stroke-miterlimit:4;stroke-opacity:1;stroke-dasharray:none"
         sodipodi:type="arc" />
      <path
         transform="translate(558.85713,86.285719)"
         d="m 145.71429,189.50504 c 0,6.31182 -5.11674,11.42857 -11.42857,11.42857 -6.31183,0 -11.42857,-5.11675 -11.42857,-11.42857 0,-6.31183 5.11674,-11.42858 11.42857,-11.42858 6.31183,0 11.42857,5.11675 11.42857,11.42858 z"
         sodipodi:ry="11.428572"
         sodipodi:rx="11.428572"
         sodipodi:cy="189.50504"
         sodipodi:cx="134.28572"
         id="path4110"
         style="fill:#ffffff;fill-opacity:1;stroke:#000000;stroke-width:4;stroke-miterlimit:4;stroke-opacity:1;stroke-dasharray:none"
         sodipodi:type="arc" />
      <path
         id="path4112"
         d="m 0,383.79075 742.85714,0"
         style="fill:none;stroke:#000000;stroke-width:10;stroke-linecap:butt;stroke-linejoin:miter;stroke-miterlimit:4;stroke-opacity:1;stroke-dasharray:none"
         inkscape:connector-curvature="0" />
      <path
         transform="translate(-108.85715,34.571433)"
         d="m 145.71429,189.50504 c 0,6.31182 -5.11674,11.42857 -11.42857,11.42857 -6.31183,0 -11.42857,-5.11675 -11.42857,-11.42857 0,-6.31183 5.11674,-11.42858 11.42857,-11.42858 6.31183,0 11.42857,5.11675 11.42857,11.42858 z"
         sodipodi:ry="11.428572"
         sodipodi:rx="11.428572"
         sodipodi:cy="189.50504"
         sodipodi:cx="134.28572"
         id="path4114"
         style="fill:#ffffff;fill-opacity:1;stroke:#000000;stroke-width:4;stroke-miterlimit:4;stroke-opacity:1;stroke-dasharray:none"
         sodipodi:type="arc" />
      <path
         sodipodi:nodetypes="cccccc"
         id="path4120"
         d="m 25.714286,223.79075 205.714284,45.71429 117.14286,-154.28571 188.57143,0 157.14285,160 31.42858,5.71428"
         style="fill:none;stroke:#000000;stroke-width:5;stroke-linecap:butt;stroke-linejoin:miter;stroke-miterlimit:4;stroke-opacity:1;stroke-dasharray:40, 20;stroke-dashoffset:0"
         inkscape:connector-curvature="0" />
      <path
         sodipodi:nodetypes="cccc"
         id="path5095"
         d="m 22.749697,233.37308 c 0,160.3312 0,150.58133 0,150.58133 l 14.083146,2.16664 17.333103,-3.24996"
         style="fill:none;stroke:#000000;stroke-width:3;stroke-linecap:butt;stroke-linejoin:miter;stroke-miterlimit:4;stroke-opacity:1;stroke-dasharray:none"
         inkscape:connector-curvature="0" />
      <path
         sodipodi:nodetypes="ccc"
         id="path5097"
         d="m 235.08021,283.20575 0,101.83198 16.24978,-3.24996"
         style="fill:none;stroke:#000000;stroke-width:3;stroke-linecap:butt;stroke-linejoin:miter;stroke-miterlimit:4;stroke-opacity:1;stroke-dasharray:none"
         inkscape:connector-curvature="0" />
      <path
         id="path5099"
         d="m 349.91201,126.1245 0,258.91323"
         style="fill:none;stroke:#000000;stroke-width:3;stroke-linecap:butt;stroke-linejoin:miter;stroke-miterlimit:4;stroke-opacity:1;stroke-dasharray:none"
         inkscape:connector-curvature="0" />
      <path
         id="path5101"
         d="m 537.32618,127.20782 0,256.74659"
         style="fill:none;stroke:#000000;stroke-width:3;stroke-linecap:butt;stroke-linejoin:miter;stroke-miterlimit:4;stroke-opacity:1;stroke-dasharray:none"
         inkscape:connector-curvature="0" />
      <path
         id="path5103"
         d="m 694.40743,287.53902 0,96.41539"
         style="fill:none;stroke:#000000;stroke-width:3;stroke-linecap:butt;stroke-linejoin:miter;stroke-miterlimit:4;stroke-opacity:1;stroke-dasharray:none"
         inkscape:connector-curvature="0" />
      <text
         id="text6115"
         y="133.1356"
         x="144.01218"
         style="font-size:55px;font-style:normal;font-weight:normal;fill:#000000;fill-opacity:1;stroke:none;font-family:Bitstream Vera Sans"
         xml:space="preserve"><tspan
           style="font-size:40px"
           y="133.1356"
           x="144.01218"
           id="tspan6117"
           sodipodi:role="line">a)</tspan></text>
    </g>
    <g
       id="g3010"
       transform="translate(922.29067,-427.12852)">
      <path
         transform="translate(102.39024,508.55709)"
         d="m 145.71429,189.50504 c 0,6.31182 -5.11674,11.42857 -11.42857,11.42857 -6.31183,0 -11.42857,-5.11675 -11.42857,-11.42857 0,-6.31183 5.11674,-11.42858 11.42857,-11.42858 6.31183,0 11.42857,5.11675 11.42857,11.42858 z"
         sodipodi:ry="11.428572"
         sodipodi:rx="11.428572"
         sodipodi:cy="189.50504"
         sodipodi:cx="134.28572"
         id="path6074"
         style="fill:#ffffff;fill-opacity:1;stroke:#000000;stroke-width:4;stroke-miterlimit:4;stroke-opacity:1;stroke-dasharray:none"
         sodipodi:type="arc" />
      <path
         transform="translate(405.24738,352.84281)"
         d="m 145.71429,189.50504 c 0,6.31182 -5.11674,11.42857 -11.42857,11.42857 -6.31183,0 -11.42857,-5.11675 -11.42857,-11.42857 0,-6.31183 5.11674,-11.42858 11.42857,-11.42858 6.31183,0 11.42857,5.11675 11.42857,11.42858 z"
         sodipodi:ry="11.428572"
         sodipodi:rx="11.428572"
         sodipodi:cy="189.50504"
         sodipodi:cx="134.28572"
         id="path6076"
         style="fill:#ffffff;fill-opacity:1;stroke:#000000;stroke-width:4;stroke-miterlimit:4;stroke-opacity:1;stroke-dasharray:none"
         sodipodi:type="arc" />
      <path
         transform="translate(217.24738,352.84281)"
         d="m 145.71429,189.50504 c 0,6.31182 -5.11674,11.42857 -11.42857,11.42857 -6.31183,0 -11.42857,-5.11675 -11.42857,-11.42857 0,-6.31183 5.11674,-11.42858 11.42857,-11.42858 6.31183,0 11.42857,5.11675 11.42857,11.42858 z"
         sodipodi:ry="11.428572"
         sodipodi:rx="11.428572"
         sodipodi:cy="189.50504"
         sodipodi:cx="134.28572"
         id="path6078"
         style="fill:#ffffff;fill-opacity:1;stroke:#000000;stroke-width:4;stroke-miterlimit:4;stroke-opacity:1;stroke-dasharray:none"
         sodipodi:type="arc" />
      <path
         transform="translate(561.24742,513.41424)"
         d="m 145.71429,189.50504 c 0,6.31182 -5.11674,11.42857 -11.42857,11.42857 -6.31183,0 -11.42857,-5.11675 -11.42857,-11.42857 0,-6.31183 5.11674,-11.42858 11.42857,-11.42858 6.31183,0 11.42857,5.11675 11.42857,11.42858 z"
         sodipodi:ry="11.428572"
         sodipodi:rx="11.428572"
         sodipodi:cy="189.50504"
         sodipodi:cx="134.28572"
         id="path6080"
         style="fill:#ffffff;fill-opacity:1;stroke:#000000;stroke-width:4;stroke-miterlimit:4;stroke-opacity:1;stroke-dasharray:none"
         sodipodi:type="arc" />
      <path
         id="path6082"
         d="m 2.39024,810.91927 742.85718,0"
         style="fill:none;stroke:#000000;stroke-width:10;stroke-linecap:butt;stroke-linejoin:miter;stroke-miterlimit:4;stroke-opacity:1;stroke-dasharray:none"
         inkscape:connector-curvature="0" />
      <path
         transform="translate(-106.46691,461.69995)"
         d="m 145.71429,189.50504 c 0,6.31182 -5.11674,11.42857 -11.42857,11.42857 -6.31183,0 -11.42857,-5.11675 -11.42857,-11.42857 0,-6.31183 5.11674,-11.42858 11.42857,-11.42858 6.31183,0 11.42857,5.11675 11.42857,11.42858 z"
         sodipodi:ry="11.428572"
         sodipodi:rx="11.428572"
         sodipodi:cy="189.50504"
         sodipodi:cx="134.28572"
         id="path6084"
         style="fill:#ffffff;fill-opacity:1;stroke:#000000;stroke-width:4;stroke-miterlimit:4;stroke-opacity:1;stroke-dasharray:none"
         sodipodi:type="arc" />
      <path
         sodipodi:nodetypes="csssssc"
         id="path6088"
         d="m 24.06097,648.77947 c 23.86559,5.89936 50.04,13.61425 60.15105,15.45419 10.52691,1.91562 52.86895,28.15725 154.14837,36.71608 60.1743,5.08516 97.98534,-134.65853 113.97197,-159.72129 39.18565,-61.43263 77.05148,-138.05057 187.81296,0.80262 110.7615,138.85318 132.4323,150.89248 157.3135,162.93176 22.4087,10.84292 40.1309,9.63144 40.1309,9.63144"
         style="fill:none;stroke:#000000;stroke-width:5;stroke-linecap:butt;stroke-linejoin:miter;stroke-miterlimit:4;stroke-opacity:1;stroke-dasharray:5, 5;stroke-dashoffset:0"
         inkscape:connector-curvature="0" />
      <path
         sodipodi:nodetypes="cccc"
         id="path6090"
         d="m 25.13994,660.5016 c 0,160.3312 0,150.58133 0,150.58133 l 14.08315,2.16664 17.3331,-3.24996"
         style="fill:none;stroke:#000000;stroke-width:3;stroke-linecap:butt;stroke-linejoin:miter;stroke-miterlimit:4;stroke-opacity:1;stroke-dasharray:none"
         inkscape:connector-curvature="0" />
      <path
         sodipodi:nodetypes="ccc"
         id="path6092"
         d="m 237.47045,710.33427 0,101.83198 16.24978,-3.24996"
         style="fill:none;stroke:#000000;stroke-width:3;stroke-linecap:butt;stroke-linejoin:miter;stroke-miterlimit:4;stroke-opacity:1;stroke-dasharray:none"
         inkscape:connector-curvature="0" />
      <path
         id="path6094"
         d="m 352.30225,553.25302 0,258.91323"
         style="fill:none;stroke:#000000;stroke-width:3;stroke-linecap:butt;stroke-linejoin:miter;stroke-miterlimit:4;stroke-opacity:1;stroke-dasharray:none"
         inkscape:connector-curvature="0" />
      <path
         id="path6096"
         d="m 539.71642,554.33634 0,256.74659"
         style="fill:none;stroke:#000000;stroke-width:3;stroke-linecap:butt;stroke-linejoin:miter;stroke-miterlimit:4;stroke-opacity:1;stroke-dasharray:none"
         inkscape:connector-curvature="0" />
      <path
         id="path6098"
         d="m 696.79772,714.66754 0,96.41539"
         style="fill:none;stroke:#000000;stroke-width:3;stroke-linecap:butt;stroke-linejoin:miter;stroke-miterlimit:4;stroke-opacity:1;stroke-dasharray:none"
         inkscape:connector-curvature="0" />
      <text
         id="text6119"
         y="562.10797"
         x="142.32028"
         style="font-size:55px;font-style:normal;font-weight:normal;fill:#000000;fill-opacity:1;stroke:none;font-family:Bitstream Vera Sans"
         xml:space="preserve"><tspan
           style="font-size:40px"
           y="562.10797"
           x="142.32028"
           id="tspan6121"
           sodipodi:role="line">b)</tspan></text>
    </g>
  </g>
</svg>
