<?xml version="1.0" encoding="UTF-8" standalone="no"?>
<!-- Created with Inkscape (http://www.inkscape.org/) -->
<svg
   xmlns:dc="http://purl.org/dc/elements/1.1/"
   xmlns:cc="http://web.resource.org/cc/"
   xmlns:rdf="http://www.w3.org/1999/02/22-rdf-syntax-ns#"
   xmlns:svg="http://www.w3.org/2000/svg"
   xmlns="http://www.w3.org/2000/svg"
   xmlns:sodipodi="http://sodipodi.sourceforge.net/DTD/sodipodi-0.dtd"
   xmlns:inkscape="http://www.inkscape.org/namespaces/inkscape"
   width="2112.7822"
   height="689.68481"
   id="svg2"
   sodipodi:version="0.32"
   inkscape:version="0.45"
   version="1.0"
   sodipodi:docbase="/home/victor/Desktop/libro_sig/LaTeX/Algebra_de_mapas"
   sodipodi:docname="Tipos_indices_espaciales.svg"
   inkscape:output_extension="org.inkscape.output.svg.inkscape">
  <defs
     id="defs4" />
  <sodipodi:namedview
     id="base"
     pagecolor="#ffffff"
     bordercolor="#666666"
     borderopacity="1.0"
     inkscape:pageopacity="0.0"
     inkscape:pageshadow="2"
     inkscape:zoom="0.24782091"
     inkscape:cx="787.51917"
     inkscape:cy="482.95069"
     inkscape:document-units="px"
     inkscape:current-layer="layer1"
     inkscape:window-width="1024"
     inkscape:window-height="715"
     inkscape:window-x="0"
     inkscape:window-y="0" />
  <metadata
     id="metadata7">
    <rdf:RDF>
      <cc:Work
         rdf:about="">
        <dc:format>image/svg+xml</dc:format>
        <dc:type
           rdf:resource="http://purl.org/dc/dcmitype/StillImage" />
      </cc:Work>
    </rdf:RDF>
  </metadata>
  <g
     inkscape:label="Capa 1"
     inkscape:groupmode="layer"
     id="layer1"
     transform="translate(65.791649,-333.62119)">
    <rect
       style="fill:#ffffff;stroke:#000000;stroke-width:5;stroke-miterlimit:4;stroke-dasharray:none;stroke-opacity:1"
       id="rect7082"
       width="171.49568"
       height="171.4957"
       x="1357.144"
       y="336.21375"
       ry="0" />
    <rect
       ry="0"
       y="336.21375"
       x="1528.5726"
       height="171.4957"
       width="171.49568"
       id="rect7084"
       style="fill:#ffffff;stroke:#000000;stroke-width:5;stroke-miterlimit:4;stroke-dasharray:none;stroke-opacity:1" />
    <rect
       ry="0"
       y="507.64227"
       x="1357.144"
       height="171.4957"
       width="171.49568"
       id="rect7086"
       style="fill:#c8c83b;fill-opacity:1;stroke:#000000;stroke-width:5;stroke-miterlimit:4;stroke-dasharray:none;stroke-opacity:1" />
    <rect
       style="fill:#c8c83b;fill-opacity:1;stroke:#000000;stroke-width:5;stroke-miterlimit:4;stroke-dasharray:none;stroke-opacity:1"
       id="rect7088"
       width="171.49568"
       height="171.4957"
       x="1528.5726"
       y="507.64227"
       ry="0" />
    <rect
       ry="0"
       y="336.21375"
       x="1700.8584"
       height="171.4957"
       width="171.49568"
       id="rect7090"
       style="fill:#ffffff;stroke:#000000;stroke-width:5;stroke-miterlimit:4;stroke-dasharray:none;stroke-opacity:1" />
    <rect
       style="fill:#ffffff;stroke:#000000;stroke-width:5;stroke-miterlimit:4;stroke-dasharray:none;stroke-opacity:1"
       id="rect7092"
       width="171.49568"
       height="171.4957"
       x="1872.287"
       y="336.21375"
       ry="0" />
    <rect
       style="fill:#c8c83b;fill-opacity:1;stroke:#000000;stroke-width:5;stroke-miterlimit:4;stroke-dasharray:none;stroke-opacity:1"
       id="rect7094"
       width="171.49568"
       height="171.4957"
       x="1700.8584"
       y="507.64227"
       ry="0" />
    <rect
       ry="0"
       y="507.64227"
       x="1872.287"
       height="171.4957"
       width="171.49568"
       id="rect7096"
       style="fill:#c8c83b;fill-opacity:1;stroke:#000000;stroke-width:5;stroke-miterlimit:4;stroke-dasharray:none;stroke-opacity:1" />
    <rect
       style="fill:#ffffff;stroke:#000000;stroke-width:5;stroke-miterlimit:4;stroke-dasharray:none;stroke-opacity:1"
       id="rect8095"
       width="171.49568"
       height="171.4957"
       x="1187.0223"
       y="336.12119"
       ry="0" />
    <rect
       ry="0"
       y="507.54974"
       x="1187.0223"
       height="171.4957"
       width="171.49568"
       id="rect8097"
       style="fill:#ffffff;stroke:#000000;stroke-width:5;stroke-miterlimit:4;stroke-dasharray:none;stroke-opacity:1" />
    <rect
       ry="0"
       y="677.41962"
       x="1357.8522"
       height="171.4957"
       width="171.49568"
       id="rect8210"
       style="fill:#c8c83b;fill-opacity:1;stroke:#000000;stroke-width:5;stroke-miterlimit:4;stroke-dasharray:none;stroke-opacity:1" />
    <rect
       style="fill:#c8c83b;fill-opacity:1;stroke:#000000;stroke-width:5;stroke-miterlimit:4;stroke-dasharray:none;stroke-opacity:1"
       id="rect8212"
       width="171.49568"
       height="171.4957"
       x="1529.2808"
       y="677.41962"
       ry="0" />
    <rect
       style="fill:#c8c83b;fill-opacity:1;stroke:#000000;stroke-width:5;stroke-miterlimit:4;stroke-dasharray:none;stroke-opacity:1"
       id="rect8214"
       width="171.49568"
       height="171.4957"
       x="1701.5664"
       y="677.41962"
       ry="0" />
    <rect
       ry="0"
       y="677.43384"
       x="1870.9916"
       height="171.46719"
       width="173.48477"
       id="rect8216"
       style="fill:#c8c83b;fill-opacity:1;stroke:#000000;stroke-width:5.02849483;stroke-miterlimit:4;stroke-dasharray:none;stroke-opacity:1" />
    <rect
       style="fill:#c8c83b;fill-opacity:1;stroke:#000000;stroke-width:5;stroke-miterlimit:4;stroke-dasharray:none;stroke-opacity:1"
       id="rect8218"
       width="171.49568"
       height="171.4957"
       x="1357.5328"
       y="849.3103"
       ry="0" />
    <rect
       ry="0"
       y="849.3103"
       x="1528.9615"
       height="171.4957"
       width="171.49568"
       id="rect8220"
       style="fill:#ffffff;stroke:#000000;stroke-width:5;stroke-miterlimit:4;stroke-dasharray:none;stroke-opacity:1" />
    <rect
       ry="0"
       y="849.3103"
       x="1701.2472"
       height="171.4957"
       width="171.49568"
       id="rect8226"
       style="fill:#ffffff;stroke:#000000;stroke-width:5;stroke-miterlimit:4;stroke-dasharray:none;stroke-opacity:1" />
    <rect
       style="fill:#ffffff;stroke:#000000;stroke-width:5;stroke-miterlimit:4;stroke-dasharray:none;stroke-opacity:1"
       id="rect8228"
       width="171.49568"
       height="171.4957"
       x="1872.6758"
       y="849.3103"
       ry="0" />
    <rect
       ry="0"
       y="677.32709"
       x="1187.7303"
       height="171.4957"
       width="171.49568"
       id="rect8234"
       style="fill:#ffffff;stroke:#000000;stroke-width:5;stroke-miterlimit:4;stroke-dasharray:none;stroke-opacity:1" />
    <rect
       style="fill:#ffffff;stroke:#000000;stroke-width:5;stroke-miterlimit:4;stroke-dasharray:none;stroke-opacity:1"
       id="rect8236"
       width="171.49568"
       height="171.4957"
       x="1187.4111"
       y="849.21777"
       ry="0" />
    <text
       xml:space="preserve"
       style="font-size:11px;font-style:normal;font-weight:normal;fill:#000000;fill-opacity:1;stroke:none;stroke-width:1px;stroke-linecap:butt;stroke-linejoin:miter;stroke-opacity:1;font-family:Bitstream Vera Sans"
       x="-70.416161"
       y="613.6698"
       id="text2476"><tspan
         sodipodi:role="line"
         id="tspan2478"
         x="-70.416161"
         y="613.6698"><tspan
           style="font-size:77px"
           id="tspan2482">a)                                         b)</tspan></tspan></text>
    <path
       style="fill:none;fill-rule:evenodd;stroke:#0000ef;stroke-width:8.28255272;stroke-linecap:butt;stroke-linejoin:miter;stroke-miterlimit:4;stroke-dasharray:none;stroke-opacity:1"
       d="M 257.16161,688.07612 L 376.95922,614.26316 L 499.65647,560.07108 L 638.4944,546.23072 L 757.65279,649.75593 L 757.65279,705.27097 L 709.36329,774.66477 L 609.56489,781.60414 L 574.15249,722.61942 L 554.83669,656.69531 C 554.83669,656.69531 548.39819,642.81655 535.52089,660.16499 C 522.64369,677.51344 458.25759,750.37693 458.25759,750.37693 L 416.40669,819.77074 L 393.87159,819.77074 L 364.89789,819.77074 L 335.92409,771.19508 L 335.92409,719.14973 L 310.16969,719.14973 L 271.53809,771.19508 C 271.53809,771.19508 265.09939,795.4829 271.53809,809.36167 C 277.97669,823.24044 316.60829,868.3464 316.60829,868.3464 C 316.60829,868.3464 300.51179,903.04324 287.63459,903.04324 C 274.75729,903.04324 271.53809,903.04324 271.53809,903.04324 C 271.53809,903.04324 258.66089,896.10392 245.78359,882.22516 C 232.90639,868.3464 213.59059,830.17981 213.59059,830.17981 L 207.15199,792.01321 L 216.80989,760.786 L 257.16161,688.07612 z "
       id="path3550"
       sodipodi:nodetypes="ccccccccccsccccccccscscscccc" />
    <rect
       style="opacity:1;fill:none;fill-opacity:1;stroke:#000000;stroke-width:9;stroke-miterlimit:4;stroke-dasharray:none;stroke-dashoffset:0;stroke-opacity:1"
       id="rect3552"
       width="560.99347"
       height="375.37555"
       x="203.92325"
       y="536.94916" />
    <path
       style="fill:none;fill-rule:evenodd;stroke:#0000ef;stroke-width:8.28255272;stroke-linecap:butt;stroke-linejoin:miter;stroke-miterlimit:4;stroke-dasharray:none;stroke-opacity:1"
       d="M 1443.5022,677.98819 L 1563.2998,604.17523 L 1685.9971,549.98315 L 1824.835,536.14279 L 1943.9934,639.668 L 1943.9934,695.18304 L 1895.7039,764.57684 L 1795.9055,771.51621 L 1760.4931,712.53149 L 1741.1773,646.60738 C 1741.1773,646.60738 1734.7388,632.72862 1721.8615,650.07706 C 1708.9843,667.42551 1644.5982,740.289 1644.5982,740.289 L 1602.7473,809.68281 L 1580.2122,809.68281 L 1551.2385,809.68281 L 1522.2647,761.10715 L 1522.2647,709.0618 L 1496.5103,709.0618 L 1457.8787,761.10715 C 1457.8787,761.10715 1451.44,785.39497 1457.8787,799.27374 C 1464.3173,813.15251 1502.9489,858.25847 1502.9489,858.25847 C 1502.9489,858.25847 1486.8524,892.95531 1473.9752,892.95531 C 1461.0979,892.95531 1457.8787,892.95531 1457.8787,892.95531 C 1457.8787,892.95531 1445.0015,886.01599 1432.1242,872.13723 C 1419.247,858.25847 1399.9312,820.09188 1399.9312,820.09188 L 1393.4926,781.92528 L 1403.1505,750.69807 L 1443.5022,677.98819 z "
       id="path3554"
       sodipodi:nodetypes="ccccccccccsccccccccscscscccc" />
  </g>
</svg>
