<?xml version="1.0" encoding="UTF-8" standalone="no"?>
<!-- Created with Inkscape (http://www.inkscape.org/) -->

<svg
   xmlns:dc="http://purl.org/dc/elements/1.1/"
   xmlns:cc="http://creativecommons.org/ns#"
   xmlns:rdf="http://www.w3.org/1999/02/22-rdf-syntax-ns#"
   xmlns:svg="http://www.w3.org/2000/svg"
   xmlns="http://www.w3.org/2000/svg"
   xmlns:sodipodi="http://sodipodi.sourceforge.net/DTD/sodipodi-0.dtd"
   xmlns:inkscape="http://www.inkscape.org/namespaces/inkscape"
   width="969.83191"
   height="407.87509"
   id="svg4382"
   sodipodi:version="0.32"
   inkscape:version="0.48.4 r9939"
   version="1.0"
   sodipodi:docname="Topologia_vias.svg"
   inkscape:output_extension="org.inkscape.output.svg.inkscape"
   sodipodi:modified="true">
  <defs
     id="defs4384">
    <inkscape:perspective
       sodipodi:type="inkscape:persp3d"
       inkscape:vp_x="0 : 172 : 1"
       inkscape:vp_y="0 : 1000 : 0"
       inkscape:vp_z="971.3299 : 172 : 1"
       inkscape:persp3d-origin="485.66495 : 114.66667 : 1"
       id="perspective40" />
    <marker
       inkscape:stockid="TriangleOutL"
       orient="auto"
       refY="0"
       refX="0"
       id="TriangleOutL"
       style="overflow:visible">
      <path
         id="path3238"
         d="m 5.77,0 -8.65,5 0,-10 8.65,5 z"
         style="fill-rule:evenodd;stroke:#000000;stroke-width:1pt;marker-start:none"
         transform="scale(0.8,0.8)"
         inkscape:connector-curvature="0" />
    </marker>
  </defs>
  <sodipodi:namedview
     id="base"
     pagecolor="#ffffff"
     bordercolor="#666666"
     borderopacity="1.0"
     inkscape:pageopacity="0.0"
     inkscape:pageshadow="2"
     inkscape:zoom="0.74536983"
     inkscape:cx="325.34832"
     inkscape:cy="237.37451"
     inkscape:document-units="px"
     inkscape:current-layer="layer1"
     inkscape:window-width="1920"
     inkscape:window-height="1057"
     inkscape:window-x="-8"
     inkscape:window-y="-8"
     showgrid="false"
     fit-margin-top="0"
     fit-margin-left="0"
     fit-margin-right="0"
     fit-margin-bottom="0"
     inkscape:window-maximized="1" />
  <metadata
     id="metadata4387">
    <rdf:RDF>
      <cc:Work
         rdf:about="">
        <dc:format>image/svg+xml</dc:format>
        <dc:type
           rdf:resource="http://purl.org/dc/dcmitype/StillImage" />
      </cc:Work>
    </rdf:RDF>
  </metadata>
  <g
     inkscape:label="Capa 1"
     inkscape:groupmode="layer"
     id="layer1"
     transform="translate(-109.2974,-316.8616)">
    <g
       id="g4398"
       transform="translate(0,2.1428535)">
      <path
         id="path4390"
         d="m 111.42857,655.21933 c -1.04855,-10.62228 4.7509,-36.14647 8.57143,-51.42858 2.89555,-11.58219 18.73986,-18.34061 28.57143,-25.71428 12.07283,-9.05463 39.74699,-11.32737 54.28571,-17.14286 15.38679,-6.15471 36.07633,-13.9302 54.28572,-20 12.29197,-4.09732 23.23337,-24.36205 25.71428,-34.28571 2.83496,-11.33984 15.03608,-31.72679 20,-40 6.63945,-11.06574 21.94368,-10.5151 28.57143,-17.14286 11.06448,-11.06448 25.69918,-19.97986 34.28572,-31.42857 11.09513,-14.79351 21.66526,-26.18767 28.57142,-40 7.05347,-14.10692 9.19135,-26.95412 17.14286,-42.85714 3.76526,-7.53052 6.92101,-13.39832 8.57143,-20"
         style="fill:none;stroke:#000000;stroke-width:4;stroke-linecap:butt;stroke-linejoin:miter;stroke-miterlimit:4;stroke-opacity:1;stroke-dasharray:none"
         inkscape:connector-curvature="0" />
      <path
         id="path4392"
         d="m 234.28571,355.21933 c 10.56481,-21.12962 96.32311,6.36529 114.28572,17.14285 8.28295,4.96978 16.8061,22.18363 20,28.57143 5.45925,10.9185 22.27583,18.28078 31.42857,22.85714 9.82061,4.91031 21.59508,13.02365 28.57143,20 9.01989,9.01989 10.134,21.56258 17.14286,28.57143 1.34687,1.34687 0,3.80953 0,5.71429"
         style="fill:none;stroke:#000000;stroke-width:4;stroke-linecap:butt;stroke-linejoin:miter;stroke-miterlimit:4;stroke-opacity:1;stroke-dasharray:none"
         inkscape:connector-curvature="0" />
      <path
         id="path4394"
         d="m 145.71429,480.93361 c 21.4021,21.4021 61.49967,6.46412 88.57142,20 21.53527,10.76763 37.41619,24.42238 57.14286,34.28572 19.50328,9.75164 40.98921,11.42857 62.85714,11.42857 19.4601,0 33.6974,2.16805 51.42858,5.71428 13.90997,2.782 26.48568,16.46284 37.14285,22.85715"
         style="fill:none;stroke:#000000;stroke-width:4;stroke-linecap:butt;stroke-linejoin:miter;stroke-miterlimit:4;stroke-opacity:1;stroke-dasharray:none"
         inkscape:connector-curvature="0" />
      <path
         id="path4396"
         d="m 182.85714,449.50504 c 20.02658,4.00532 46.94862,-8.57143 68.57143,-8.57143 16.06725,0 26.57053,6.57053 34.28572,14.28572 5.0139,5.0139 36.2963,9.07407 45.71428,11.42857 12.67542,3.16885 31.17414,-0.65068 40,-2.85715 13.77432,-3.44358 23.68584,-11.84292 34.28572,-17.14285 10.03611,-5.01806 34.89556,-5.86675 45.71428,-8.57143 14.54707,-3.63677 24.9051,-10.51199 40,-14.28572 15.19361,-3.7984 30.82713,-11.12785 48.57143,-20 5.08878,-2.54438 10.6728,-4.81105 14.28571,-5.71428"
         style="fill:none;stroke:#000000;stroke-width:4;stroke-linecap:butt;stroke-linejoin:miter;stroke-miterlimit:4;stroke-opacity:1;stroke-dasharray:none"
         inkscape:connector-curvature="0" />
    </g>
    <g
       id="g4404"
       transform="translate(524.34807,2.1428535)">
      <path
         id="path4406"
         d="m 111.42857,655.21933 c -1.04855,-10.62228 4.7509,-36.14647 8.57143,-51.42858 2.89555,-11.58219 18.73986,-18.34061 28.57143,-25.71428 12.07283,-9.05463 39.74699,-11.32737 54.28571,-17.14286 15.38679,-6.15471 36.07633,-13.9302 54.28572,-20 12.29197,-4.09732 23.23337,-24.36205 25.71428,-34.28571 2.83496,-11.33984 15.03608,-31.72679 20,-40 6.63945,-11.06574 21.94368,-10.5151 28.57143,-17.14286 11.06448,-11.06448 25.69918,-19.97986 34.28572,-31.42857 11.09513,-14.79351 21.66526,-26.18767 28.57142,-40 7.05347,-14.10692 9.19135,-26.95412 17.14286,-42.85714 3.76526,-7.53052 6.92101,-13.39832 8.57143,-20"
         style="fill:none;stroke:#000000;stroke-width:4;stroke-linecap:butt;stroke-linejoin:miter;stroke-miterlimit:4;stroke-opacity:1;stroke-dasharray:none"
         inkscape:connector-curvature="0" />
      <path
         id="path4408"
         d="m 234.28571,355.21933 c 10.56481,-21.12962 96.32311,6.36529 114.28572,17.14285 8.28295,4.96978 16.8061,22.18363 20,28.57143 5.45925,10.9185 22.27583,18.28078 31.42857,22.85714 9.82061,4.91031 21.59508,13.02365 28.57143,20 9.01989,9.01989 10.134,21.56258 17.14286,28.57143 1.34687,1.34687 0,3.80953 0,5.71429"
         style="fill:none;stroke:#000000;stroke-width:4;stroke-linecap:butt;stroke-linejoin:miter;stroke-miterlimit:4;stroke-opacity:1;stroke-dasharray:none"
         inkscape:connector-curvature="0" />
      <path
         id="path4410"
         d="m 145.71429,480.93361 c 21.4021,21.4021 61.49967,6.46412 88.57142,20 21.53527,10.76763 37.41619,24.42238 57.14286,34.28572 19.50328,9.75164 40.98921,11.42857 62.85714,11.42857 19.4601,0 33.6974,2.16805 51.42858,5.71428 13.90997,2.782 26.48568,16.46284 37.14285,22.85715"
         style="fill:none;stroke:#000000;stroke-width:4;stroke-linecap:butt;stroke-linejoin:miter;stroke-miterlimit:4;stroke-opacity:1;stroke-dasharray:none"
         inkscape:connector-curvature="0" />
      <path
         id="path4412"
         d="m 182.85714,449.50504 c 20.02658,4.00532 46.94862,-8.57143 68.57143,-8.57143 16.06725,0 26.57053,6.57053 34.28572,14.28572 5.0139,5.0139 36.2963,9.07407 45.71428,11.42857 12.67542,3.16885 31.17414,-0.65068 40,-2.85715 13.77432,-3.44358 23.68584,-11.84292 34.28572,-17.14285 10.03611,-5.01806 34.89556,-5.86675 45.71428,-8.57143 14.54707,-3.63677 24.9051,-10.51199 40,-14.28572 15.19361,-3.7984 30.82713,-11.12785 48.57143,-20 5.08878,-2.54438 10.6728,-4.81105 14.28571,-5.71428"
         style="fill:none;stroke:#000000;stroke-width:4;stroke-linecap:butt;stroke-linejoin:miter;stroke-miterlimit:4;stroke-opacity:1;stroke-dasharray:none"
         inkscape:connector-curvature="0" />
    </g>
    <path
       sodipodi:type="arc"
       style="fill:#ffdb00;fill-opacity:1;stroke:#090807;stroke-width:4;stroke-miterlimit:4;stroke-opacity:1;stroke-dasharray:none;stroke-dashoffset:0"
       id="path4418"
       sodipodi:cx="132.85715"
       sodipodi:cy="203.79076"
       sodipodi:rx="12.857142"
       sodipodi:ry="11.428572"
       d="m 145.71429,203.79076 c 0,6.31182 -5.75634,11.42857 -12.85714,11.42857 -7.10081,0 -12.85715,-5.11675 -12.85715,-11.42857 0,-6.31183 5.75634,-11.42858 12.85715,-11.42858 7.1008,0 12.85714,5.11675 12.85714,11.42858 z"
       transform="translate(763.82342,207.8363)" />
    <path
       sodipodi:type="arc"
       style="fill:#ffdb00;fill-opacity:1;stroke:#090807;stroke-width:4;stroke-miterlimit:4;stroke-opacity:1;stroke-dasharray:none;stroke-dashoffset:0"
       id="path4420"
       sodipodi:cx="132.85715"
       sodipodi:cy="203.79076"
       sodipodi:rx="12.857142"
       sodipodi:ry="11.428572"
       d="m 145.71429,203.79076 c 0,6.31182 -5.75634,11.42857 -12.85714,11.42857 -7.10081,0 -12.85715,-5.11675 -12.85715,-11.42857 0,-6.31183 5.75634,-11.42858 12.85715,-11.42858 7.1008,0 12.85714,5.11675 12.85714,11.42858 z"
       transform="translate(665.94543,325.11557)" />
    <path
       sodipodi:type="arc"
       style="fill:#ffdb00;fill-opacity:1;stroke:#090807;stroke-width:4;stroke-miterlimit:4;stroke-opacity:1;stroke-dasharray:none;stroke-dashoffset:0"
       id="path4422"
       sodipodi:cx="132.85715"
       sodipodi:cy="203.79076"
       sodipodi:rx="12.857142"
       sodipodi:ry="11.428572"
       d="m 145.71429,203.79076 c 0,6.31182 -5.75634,11.42857 -12.85714,11.42857 -7.10081,0 -12.85715,-5.11675 -12.85715,-11.42857 0,-6.31183 5.75634,-11.42858 12.85715,-11.42858 7.1008,0 12.85714,5.11675 12.85714,11.42858 z"
       transform="translate(819.63244,240.32588)" />
    <path
       style="fill:none;stroke:#000000;stroke-width:1px;stroke-linecap:butt;stroke-linejoin:miter;stroke-opacity:1;marker-end:url(#TriangleOutL)"
       d="m 567.50352,282.28567 71.10564,-26.83232"
       id="path2172"
       transform="translate(109.30387,315.36218)"
       inkscape:connector-curvature="0" />
    <path
       style="fill:none;stroke:#000000;stroke-width:1px;stroke-linecap:butt;stroke-linejoin:miter;stroke-opacity:1;marker-end:url(#TriangleOutL)"
       d="m 643.97562,262.16143 -71.10564,26.83232"
       id="path3347"
       transform="translate(109.30387,315.36218)"
       inkscape:connector-curvature="0" />
    <path
       style="fill:none;stroke:#000000;stroke-width:1px;stroke-linecap:butt;stroke-linejoin:miter;stroke-opacity:1"
       d="m 698.98187,153.49055 c 0,0.4472 0,0.89441 0,0 z"
       id="path3351"
       transform="translate(109.30387,315.36218)"
       inkscape:connector-curvature="0" />
    <path
       style="fill:none;stroke:#000000;stroke-width:1px;stroke-linecap:butt;stroke-linejoin:miter;stroke-opacity:1;marker-end:url(#TriangleOutL)"
       d="m 880.10002,133.36631 77.81372,-24.14909"
       id="path3355"
       transform="translate(109.30387,315.36218)"
       inkscape:connector-curvature="0" />
    <path
       style="fill:none;stroke:#000000;stroke-width:1px;stroke-linecap:butt;stroke-linejoin:miter;stroke-opacity:1;marker-mid:url(#TriangleOutL);marker-end:url(#TriangleOutL)"
       d="M 822.41053,83.72652 853.2677,17.987342"
       id="path3359"
       transform="translate(109.30387,315.36218)"
       inkscape:connector-curvature="0" />
    <path
       style="fill:none;stroke:#000000;stroke-width:1px;stroke-linecap:butt;stroke-linejoin:miter;stroke-opacity:1;marker-end:url(#TriangleOutL)"
       d="m 844.98832,478.4711 76.4721,-4.02485"
       id="path3361"
       sodipodi:nodetypes="cc"
       inkscape:connector-curvature="0" />
    <path
       style="fill:none;stroke:#000000;stroke-width:1px;stroke-linecap:butt;stroke-linejoin:miter;stroke-opacity:1;marker-end:url(#TriangleOutL)"
       d="m 698.75219,466.39655 92.57149,0"
       id="path3363"
       sodipodi:nodetypes="cc"
       inkscape:connector-curvature="0" />
    <path
       style="fill:none;stroke:#000000;stroke-width:1px;stroke-linecap:butt;stroke-linejoin:miter;stroke-opacity:1;marker-end:url(#TriangleOutL)"
       d="m 835.597,577.75067 77.81372,-24.14909"
       id="path3365"
       transform="translate(109.30387,315.36218)"
       inkscape:connector-curvature="0" />
    <path
       style="fill:none;stroke:#000000;stroke-width:1px;stroke-linecap:butt;stroke-linejoin:miter;stroke-opacity:1;marker-end:url(#TriangleOutL)"
       d="m 855.72124,585.80037 77.81372,-24.14909"
       id="path3367"
       transform="translate(109.30387,315.36218)"
       inkscape:connector-curvature="0" />
    <path
       style="fill:none;stroke:#000000;stroke-width:1px;stroke-linecap:butt;stroke-linejoin:miter;stroke-opacity:1;marker-end:url(#TriangleOutL)"
       d="m 925.48527,568.35937 -77.81372,-9.39132"
       id="path3369"
       sodipodi:nodetypes="cc"
       inkscape:connector-curvature="0" />
    <path
       style="fill:none;stroke:#000000;stroke-width:1px;stroke-linecap:butt;stroke-linejoin:miter;stroke-opacity:1;marker-end:url(#TriangleOutL)"
       d="M 756.44167,518.71958 677.28633,503.9618"
       id="path3371"
       sodipodi:nodetypes="cc"
       inkscape:connector-curvature="0" />
    <path
       style="fill:none;stroke:#000000;stroke-width:1px;stroke-linecap:butt;stroke-linejoin:miter;stroke-opacity:1;marker-mid:url(#TriangleOutL);marker-end:url(#TriangleOutL)"
       d="m 973.99594,337.45124 -30.85717,61.71432"
       id="path3373"
       sodipodi:nodetypes="cc"
       inkscape:connector-curvature="0" />
    <path
       style="fill:none;stroke:#000000;stroke-width:1px;stroke-linecap:butt;stroke-linejoin:miter;stroke-opacity:1;marker-mid:url(#TriangleOutL);marker-end:url(#TriangleOutL)"
       d="m 816.31824,511.94375 10.73293,-30.85717"
       id="path3375"
       sodipodi:nodetypes="cc"
       inkscape:connector-curvature="0" />
    <path
       style="fill:none;stroke:#000000;stroke-width:1px;stroke-linecap:butt;stroke-linejoin:miter;stroke-opacity:1;marker-mid:url(#TriangleOutL);marker-end:url(#TriangleOutL)"
       d="m 833.83435,483.68737 -10.73292,36.22362"
       id="path3377"
       sodipodi:nodetypes="cc"
       inkscape:connector-curvature="0" />
    <path
       style="fill:none;stroke:#000000;stroke-width:1px;stroke-linecap:butt;stroke-linejoin:miter;stroke-opacity:1;marker-mid:url(#TriangleOutL);marker-end:url(#TriangleOutL)"
       d="m 824.71022,453.41066 42.93171,-44.27333"
       id="path3379"
       sodipodi:nodetypes="cc"
       inkscape:connector-curvature="0" />
    <path
       style="fill:none;stroke:#000000;stroke-width:1px;stroke-linecap:butt;stroke-linejoin:miter;stroke-opacity:1;marker-mid:url(#TriangleOutL);marker-end:url(#TriangleOutL)"
       d="m 873.69984,417.2639 -37.56525,36.22362"
       id="path3381"
       sodipodi:nodetypes="cc"
       inkscape:connector-curvature="0" />
    <path
       style="fill:none;stroke:#000000;stroke-width:1px;stroke-linecap:butt;stroke-linejoin:miter;stroke-opacity:1;marker-end:url(#TriangleOutL)"
       d="m 783.27398,364.43375 75.13049,21.46585"
       id="path3383"
       sodipodi:nodetypes="cc"
       inkscape:connector-curvature="0" />
    <path
       style="fill:none;stroke:#000000;stroke-width:1px;stroke-linecap:butt;stroke-linejoin:miter;stroke-opacity:1;marker-end:url(#TriangleOutL)"
       d="m 922.78713,405.53183 25.4907,16.09939"
       id="path3385"
       sodipodi:nodetypes="cc"
       inkscape:connector-curvature="0" />
    <text
       xml:space="preserve"
       style="font-size:40px;font-style:normal;font-weight:normal;fill:#000000;fill-opacity:1;stroke:none;font-family:Bitstream Vera Sans"
       x="239.4406"
       y="716.31873"
       id="text2413"><tspan
         sodipodi:role="line"
         id="tspan2415"
         x="239.4406"
         y="716.31873">  a)</tspan></text>
    <text
       xml:space="preserve"
       style="font-size:40px;font-style:normal;font-weight:normal;line-height:125%;letter-spacing:0px;word-spacing:0px;fill:#000000;fill-opacity:1;stroke:none;font-family:Sans"
       x="806.98132"
       y="716.31873"
       id="text3018"
       sodipodi:linespacing="125%"><tspan
         sodipodi:role="line"
         id="tspan3020"
         x="806.98132"
         y="716.31873">b)</tspan></text>
  </g>
</svg>
