<?xml version="1.0" encoding="UTF-8" standalone="no"?>
<!-- Created with Inkscape (http://www.inkscape.org/) -->
<svg
   xmlns:dc="http://purl.org/dc/elements/1.1/"
   xmlns:cc="http://web.resource.org/cc/"
   xmlns:rdf="http://www.w3.org/1999/02/22-rdf-syntax-ns#"
   xmlns:svg="http://www.w3.org/2000/svg"
   xmlns="http://www.w3.org/2000/svg"
   xmlns:sodipodi="http://sodipodi.sourceforge.net/DTD/sodipodi-0.dtd"
   xmlns:inkscape="http://www.inkscape.org/namespaces/inkscape"
   width="315.35245"
   height="229.03178"
   id="svg2"
   sodipodi:version="0.32"
   inkscape:version="0.45.1"
   version="1.0"
   sodipodi:docbase="C:\Documents and Settings\Victor Olaya\Escritorio\libro_sig\LaTeX\Estadistica_avanzada"
   sodipodi:docname="Cluster_jerarquico.svg"
   inkscape:output_extension="org.inkscape.output.svg.inkscape">
  <defs
     id="defs4">
    <marker
       inkscape:stockid="Arrow1Lend"
       orient="auto"
       refY="0"
       refX="0"
       id="Arrow1Lend"
       style="overflow:visible">
      <path
         id="path4175"
         d="M 0,0 L 5,-5 L -12.5,0 L 5,5 L 0,0 z "
         style="fill-rule:evenodd;stroke:#000000;stroke-width:1pt;marker-start:none"
         transform="matrix(-0.8,0,0,-0.8,-10,0)" />
    </marker>
    <marker
       inkscape:stockid="Arrow1Lstart"
       orient="auto"
       refY="0"
       refX="0"
       id="Arrow1Lstart"
       style="overflow:visible">
      <path
         id="path4172"
         d="M 0,0 L 5,-5 L -12.5,0 L 5,5 L 0,0 z "
         style="fill-rule:evenodd;stroke:#000000;stroke-width:1pt;marker-start:none"
         transform="matrix(0.8,0,0,0.8,10,0)" />
    </marker>
    <marker
       inkscape:stockid="Arrow2Lstart"
       orient="auto"
       refY="0"
       refX="0"
       id="Arrow2Lstart"
       style="overflow:visible">
      <path
         id="path4190"
         style="font-size:12px;fill-rule:evenodd;stroke-width:0.625;stroke-linejoin:round"
         d="M 8.7185878,4.0337352 L -2.2072895,0.016013256 L 8.7185884,-4.0017078 C 6.97309,-1.6296469 6.9831476,1.6157441 8.7185878,4.0337352 z "
         transform="matrix(1.1,0,0,1.1,1.1,0)" />
    </marker>
    <marker
       inkscape:stockid="Arrow2Lend"
       orient="auto"
       refY="0"
       refX="0"
       id="Arrow2Lend"
       style="overflow:visible">
      <path
         id="path4193"
         style="font-size:12px;fill-rule:evenodd;stroke-width:0.625;stroke-linejoin:round"
         d="M 8.7185878,4.0337352 L -2.2072895,0.016013256 L 8.7185884,-4.0017078 C 6.97309,-1.6296469 6.9831476,1.6157441 8.7185878,4.0337352 z "
         transform="matrix(-1.1,0,0,-1.1,-1.1,0)" />
    </marker>
  </defs>
  <sodipodi:namedview
     id="base"
     pagecolor="#ffffff"
     bordercolor="#666666"
     borderopacity="1.0"
     inkscape:pageopacity="0.0"
     inkscape:pageshadow="2"
     inkscape:zoom="2.2354976"
     inkscape:cx="157.67622"
     inkscape:cy="114.51589"
     inkscape:document-units="px"
     inkscape:current-layer="layer1"
     inkscape:window-width="1024"
     inkscape:window-height="708"
     inkscape:window-x="-4"
     inkscape:window-y="-4" />
  <metadata
     id="metadata7">
    <rdf:RDF>
      <cc:Work
         rdf:about="">
        <dc:format>image/svg+xml</dc:format>
        <dc:type
           rdf:resource="http://purl.org/dc/dcmitype/StillImage" />
      </cc:Work>
    </rdf:RDF>
  </metadata>
  <g
     inkscape:label="Capa 1"
     inkscape:groupmode="layer"
     id="layer1"
     transform="translate(-22.714105,-207.05373)">
    <path
       sodipodi:type="arc"
       style="fill:#000000;fill-opacity:1;stroke:#000000;stroke-width:3.48474181;stroke-miterlimit:4;stroke-dasharray:none;stroke-dashoffset:0;stroke-opacity:1;marker-start:none"
       id="path2160"
       sodipodi:cx="81.428574"
       sodipodi:cy="705.2193"
       sodipodi:rx="10"
       sodipodi:ry="10"
       d="M 91.428574 705.2193 A 10 10 0 1 1  71.428574,705.2193 A 10 10 0 1 1  91.428574 705.2193 z"
       transform="matrix(0.3376213,0,0,0.3811088,175.34666,125.85236)" />
    <path
       sodipodi:type="arc"
       style="fill:#000000;fill-opacity:1;stroke:#000000;stroke-width:3.48474181;stroke-miterlimit:4;stroke-dasharray:none;stroke-dashoffset:0;stroke-opacity:1;marker-start:none"
       id="path3134"
       sodipodi:cx="81.428574"
       sodipodi:cy="705.2193"
       sodipodi:rx="10"
       sodipodi:ry="10"
       d="M 91.428574 705.2193 A 10 10 0 1 1  71.428574,705.2193 A 10 10 0 1 1  91.428574 705.2193 z"
       transform="matrix(0.3376213,0,0,0.3811088,208.26474,125.85236)" />
    <path
       sodipodi:type="arc"
       style="fill:#000000;fill-opacity:1;stroke:#000000;stroke-width:3.48474181;stroke-miterlimit:4;stroke-dasharray:none;stroke-dashoffset:0;stroke-opacity:1;marker-start:none"
       id="path3136"
       sodipodi:cx="81.428574"
       sodipodi:cy="705.2193"
       sodipodi:rx="10"
       sodipodi:ry="10"
       d="M 91.428574 705.2193 A 10 10 0 1 1  71.428574,705.2193 A 10 10 0 1 1  91.428574 705.2193 z"
       transform="matrix(0.3376213,0,0,0.3811088,241.18281,125.85236)" />
    <path
       sodipodi:type="arc"
       style="fill:#000000;fill-opacity:1;stroke:#000000;stroke-width:3.48474181;stroke-miterlimit:4;stroke-dasharray:none;stroke-dashoffset:0;stroke-opacity:1;marker-start:none"
       id="path3138"
       sodipodi:cx="81.428574"
       sodipodi:cy="705.2193"
       sodipodi:rx="10"
       sodipodi:ry="10"
       d="M 91.428574 705.2193 A 10 10 0 1 1  71.428574,705.2193 A 10 10 0 1 1  91.428574 705.2193 z"
       transform="matrix(0.3376213,0,0,0.3811088,274.10088,125.85236)" />
    <path
       sodipodi:type="arc"
       style="fill:#000000;fill-opacity:1;stroke:#000000;stroke-width:3.48474181;stroke-miterlimit:4;stroke-dasharray:none;stroke-dashoffset:0;stroke-opacity:1;marker-start:none"
       id="path3140"
       sodipodi:cx="81.428574"
       sodipodi:cy="705.2193"
       sodipodi:rx="10"
       sodipodi:ry="10"
       d="M 91.428574 705.2193 A 10 10 0 1 1  71.428574,705.2193 A 10 10 0 1 1  91.428574 705.2193 z"
       transform="matrix(0.3376213,0,0,0.3811088,307.01896,125.85236)" />
    <path
       style="fill:none;fill-rule:evenodd;stroke:#000000;stroke-width:1.25;stroke-linecap:butt;stroke-linejoin:miter;stroke-opacity:1;marker-start:none;stroke-miterlimit:4;stroke-dasharray:none"
       d="M 202.80632,393.74619 L 202.80632,361.60155"
       id="path3144" />
    <path
       style="fill:none;fill-rule:evenodd;stroke:#000000;stroke-width:1.25;stroke-linecap:butt;stroke-linejoin:miter;stroke-opacity:1;marker-start:none;stroke-miterlimit:4;stroke-dasharray:none"
       d="M 235.75791,393.74619 L 235.75791,361.60155"
       id="path3146" />
    <path
       style="fill:none;fill-rule:evenodd;stroke:#000000;stroke-width:1.25;stroke-linecap:butt;stroke-linejoin:miter;stroke-opacity:1;marker-start:none;stroke-miterlimit:4;stroke-dasharray:none"
       d="M 202.71813,361.79273 L 235.66972,361.79273"
       id="path3148" />
    <path
       style="fill:none;fill-rule:evenodd;stroke:#000000;stroke-width:1.25;stroke-linecap:butt;stroke-linejoin:miter;stroke-opacity:1;marker-start:none;stroke-miterlimit:4;stroke-dasharray:none"
       d="M 268.54604,394.34591 L 268.54604,341.53083 L 301.64828,341.53083 L 301.64828,394.34591 M 334.36757,394.49609 L 334.36757,322.98888 L 284.44543,322.98888 L 284.44543,341.59676"
       id="path3150"
       sodipodi:nodetypes="cccccccc" />
    <path
       style="fill:none;fill-rule:evenodd;stroke:#000000;stroke-width:1.25;stroke-linecap:butt;stroke-linejoin:miter;stroke-opacity:1;marker-start:none;stroke-miterlimit:4;stroke-dasharray:none"
       d="M 218.53119,361.91027 L 218.53119,295.50583 L 312.66376,295.50583 L 312.66376,322.93918"
       id="path3152"
       sodipodi:nodetypes="cccc" />
    <path
       sodipodi:type="arc"
       style="fill:#000000;fill-opacity:1;stroke:#000000;stroke-width:3.52400927;stroke-miterlimit:4;stroke-dasharray:none;stroke-dashoffset:0;stroke-opacity:1;marker-start:none"
       id="path3156"
       sodipodi:cx="81.428574"
       sodipodi:cy="705.2193"
       sodipodi:rx="10"
       sodipodi:ry="10"
       d="M 91.428574 705.2193 A 10 10 0 1 1  71.428574,705.2193 A 10 10 0 1 1  91.428574 705.2193 z"
       transform="matrix(0.3338593,0,0,0.3768621,74.881865,128.92593)" />
    <path
       sodipodi:type="arc"
       style="fill:#000000;fill-opacity:1;stroke:#000000;stroke-width:3.52400927;stroke-miterlimit:4;stroke-dasharray:none;stroke-dashoffset:0;stroke-opacity:1;marker-start:none"
       id="path3158"
       sodipodi:cx="81.428574"
       sodipodi:cy="705.2193"
       sodipodi:rx="10"
       sodipodi:ry="10"
       d="M 91.428574 705.2193 A 10 10 0 1 1  71.428574,705.2193 A 10 10 0 1 1  91.428574 705.2193 z"
       transform="matrix(0.3338593,0,0,0.3768621,107.79994,128.92593)" />
    <path
       sodipodi:type="arc"
       style="fill:#000000;fill-opacity:1;stroke:#000000;stroke-width:3.52400927;stroke-miterlimit:4;stroke-dasharray:none;stroke-dashoffset:0;stroke-opacity:1;marker-start:none"
       id="path3160"
       sodipodi:cx="81.428574"
       sodipodi:cy="705.2193"
       sodipodi:rx="10"
       sodipodi:ry="10"
       d="M 91.428574 705.2193 A 10 10 0 1 1  71.428574,705.2193 A 10 10 0 1 1  91.428574 705.2193 z"
       transform="matrix(0.3338593,0,0,0.3768621,140.71801,128.92593)" />
    <path
       style="fill:none;fill-rule:evenodd;stroke:#000000;stroke-width:1.25;stroke-linecap:butt;stroke-linejoin:miter;stroke-opacity:1;marker-start:none;stroke-miterlimit:4;stroke-dasharray:none"
       d="M 101.93876,396.11183 L 101.93876,365.12181 L 135.041,365.12181 L 135.041,396.11183 M 167.7603,396.19995 L 167.7603,354.24205 L 117.83816,354.24205 L 117.83816,365.16049"
       id="path3162"
       sodipodi:nodetypes="cccccccc" />
    <path
       style="fill:none;fill-rule:evenodd;stroke:#000000;stroke-width:1.25;stroke-linecap:butt;stroke-linejoin:miter;stroke-opacity:1;marker-start:none;stroke-miterlimit:4;stroke-dasharray:none"
       d="M 143.18722,354.01184 L 143.18722,243.92282 L 268.32939,243.92282 L 268.32939,295.49468"
       id="path3196"
       sodipodi:nodetypes="cccc" />
    <path
       style="fill:none;fill-rule:evenodd;stroke:#000000;stroke-width:1.25;stroke-linecap:butt;stroke-linejoin:miter;marker-start:url(#Arrow2Lstart);marker-end:url(#Arrow2Lend);stroke-miterlimit:4;stroke-dasharray:none;stroke-opacity:1"
       d="M 101.09454,416.37201 L 334.26009,416.37201"
       id="path3198" />
    <text
       xml:space="preserve"
       style="font-size:10.04378605px;font-style:normal;font-weight:normal;fill:#000000;fill-opacity:1;stroke:none;stroke-width:1px;stroke-linecap:butt;stroke-linejoin:miter;stroke-opacity:1;font-family:Bitstream Vera Sans"
       x="23.3578"
       y="284.99088"
       id="text4369"
       transform="scale(0.9412184,1.0624526)"><tspan
         sodipodi:role="line"
         id="tspan4371"
         x="23.3578"
         y="284.99088">Distancia</tspan></text>
    <text
       xml:space="preserve"
       style="font-size:5.73930597px;font-style:normal;font-weight:normal;fill:#000000;fill-opacity:1;stroke:none;stroke-width:1px;stroke-linecap:butt;stroke-linejoin:miter;stroke-opacity:1;font-family:Bitstream Vera Sans"
       x="215.78886"
       y="410.32913"
       id="text4373"
       transform="scale(0.9412184,1.0624526)"><tspan
         sodipodi:role="line"
         id="tspan4375"
         x="215.78886"
         y="410.32913"
         style="font-size:10.04378605px">Clases</tspan></text>
    <path
       style="fill:none;fill-rule:evenodd;stroke:#000000;stroke-width:0.35870662px;stroke-linecap:butt;stroke-linejoin:miter;stroke-opacity:1"
       d="M 82.358019,394.4388 C 81.895387,394.4388 81.432758,394.4388 82.358019,394.4388 z "
       id="path4377" />
    <path
       style="fill:none;fill-rule:evenodd;stroke:#000000;stroke-width:1.25;stroke-linecap:butt;stroke-linejoin:miter;marker-start:url(#Arrow2Lstart);marker-end:url(#Arrow2Lend);stroke-miterlimit:4;stroke-dasharray:none;stroke-opacity:1"
       d="M 85.827743,394.4388 L 85.827743,208.00647"
       id="path4379"
       sodipodi:nodetypes="cc" />
    <path
       style="fill:none;fill-rule:evenodd;stroke:#000000;stroke-width:1.25;stroke-linecap:butt;stroke-linejoin:miter;stroke-opacity:1;marker-start:none;stroke-miterlimit:4;stroke-dasharray:none"
       d="M 202.53521,211.47638 C 202.53521,211.47638 202.52329,243.89362 202.53521,243.89362"
       id="path4385"
       sodipodi:nodetypes="cc" />
  </g>
</svg>
