<?xml version="1.0" encoding="UTF-8" standalone="no"?>
<!-- Created with Inkscape (http://www.inkscape.org/) -->

<svg
   xmlns:dc="http://purl.org/dc/elements/1.1/"
   xmlns:cc="http://creativecommons.org/ns#"
   xmlns:rdf="http://www.w3.org/1999/02/22-rdf-syntax-ns#"
   xmlns:svg="http://www.w3.org/2000/svg"
   xmlns="http://www.w3.org/2000/svg"
   xmlns:xlink="http://www.w3.org/1999/xlink"
   xmlns:sodipodi="http://sodipodi.sourceforge.net/DTD/sodipodi-0.dtd"
   xmlns:inkscape="http://www.inkscape.org/namespaces/inkscape"
   width="596.89844"
   height="418.6264"
   id="svg2"
   sodipodi:version="0.32"
   inkscape:version="0.48.4 r9939"
   version="1.0"
   sodipodi:docname="maxima_verosimilitud.svg"
   inkscape:output_extension="org.inkscape.output.svg.inkscape"
   sodipodi:modified="true">
  <defs
     id="defs4">
    <linearGradient
       id="linearGradient3330">
      <stop
         style="stop-color:#000000;stop-opacity:1;"
         offset="0"
         id="stop3332" />
      <stop
         style="stop-color:#f80000;stop-opacity:0.67010307;"
         offset="1"
         id="stop3334" />
    </linearGradient>
    <linearGradient
       id="linearGradient3320">
      <stop
         style="stop-color:#000000;stop-opacity:1;"
         offset="0"
         id="stop3322" />
      <stop
         style="stop-color:#0000f2;stop-opacity:0.53608245;"
         offset="1"
         id="stop3324" />
    </linearGradient>
    <linearGradient
       id="linearGradient3310">
      <stop
         style="stop-color:#000000;stop-opacity:1;"
         offset="0"
         id="stop3312" />
      <stop
         style="stop-color:#00fd00;stop-opacity:0.73195875;"
         offset="1"
         id="stop3314" />
    </linearGradient>
    <linearGradient
       id="linearGradient3300">
      <stop
         style="stop-color:#00ff00;stop-opacity:1;"
         offset="0"
         id="stop3302" />
      <stop
         id="stop3308"
         offset="0.5"
         style="stop-color:#5bda32;stop-opacity:0.49803922;" />
      <stop
         style="stop-color:#00ff00;stop-opacity:0;"
         offset="1"
         id="stop3304" />
    </linearGradient>
    <marker
       inkscape:stockid="TriangleOutM"
       orient="auto"
       refY="0"
       refX="0"
       id="TriangleOutM"
       style="overflow:visible">
      <path
         id="path3229"
         d="m 5.77,0 -8.65,5 0,-10 8.65,5 z"
         style="fill-rule:evenodd;stroke:#000000;stroke-width:1pt;marker-start:none"
         transform="scale(0.4,0.4)"
         inkscape:connector-curvature="0" />
    </marker>
    <radialGradient
       inkscape:collect="always"
       xlink:href="#linearGradient3310"
       id="radialGradient3316"
       cx="195.58067"
       cy="328.25259"
       fx="195.58067"
       fy="328.25259"
       r="91.360313"
       gradientTransform="matrix(1,0,0,0.5322351,0,153.54503)"
       gradientUnits="userSpaceOnUse" />
    <radialGradient
       inkscape:collect="always"
       xlink:href="#linearGradient3320"
       id="radialGradient3326"
       cx="302.99606"
       cy="144.60695"
       fx="302.99606"
       fy="144.60695"
       r="102.52535"
       gradientTransform="matrix(1,0,0,0.5831748,0,60.275813)"
       gradientUnits="userSpaceOnUse" />
    <radialGradient
       inkscape:collect="always"
       xlink:href="#linearGradient3330"
       id="radialGradient3336"
       cx="402.7114"
       cy="321.32257"
       fx="402.7114"
       fy="321.32257"
       r="45.160156"
       gradientTransform="matrix(1,0,0,1.5541408,0,-178.05795)"
       gradientUnits="userSpaceOnUse" />
  </defs>
  <sodipodi:namedview
     id="base"
     pagecolor="#ffffff"
     bordercolor="#666666"
     borderopacity="1.0"
     inkscape:pageopacity="0.0"
     inkscape:pageshadow="2"
     inkscape:zoom="1.2986968"
     inkscape:cx="112.38489"
     inkscape:cy="212.44352"
     inkscape:document-units="px"
     inkscape:current-layer="layer1"
     inkscape:window-width="1920"
     inkscape:window-height="1057"
     inkscape:window-x="-8"
     inkscape:window-y="-8"
     showgrid="false"
     inkscape:window-maximized="1"
     fit-margin-top="0"
     fit-margin-left="0"
     fit-margin-right="0"
     fit-margin-bottom="0" />
  <metadata
     id="metadata7">
    <rdf:RDF>
      <cc:Work
         rdf:about="">
        <dc:format>image/svg+xml</dc:format>
        <dc:type
           rdf:resource="http://purl.org/dc/dcmitype/StillImage" />
      </cc:Work>
    </rdf:RDF>
  </metadata>
  <g
     inkscape:label="Capa 1"
     inkscape:groupmode="layer"
     id="layer1"
     transform="translate(-227.96776,-70.759758)">
    <path
       sodipodi:type="arc"
       style="opacity:0.53982299;fill:url(#radialGradient3316);fill-opacity:1;stroke:#000000;stroke-width:1;stroke-miterlimit:4;stroke-opacity:1;stroke-dasharray:none"
       id="path2329"
       sodipodi:cx="195.58067"
       sodipodi:cy="328.25259"
       sodipodi:rx="90.860313"
       sodipodi:ry="48.125168"
       d="m 286.44099,328.25259 c 0,26.5788 -40.67955,48.12517 -90.86032,48.12517 -50.18076,0 -90.86031,-21.54637 -90.86031,-48.12517 0,-26.57879 40.67955,-48.12516 90.86031,-48.12516 50.18077,0 90.86032,21.54637 90.86032,48.12516 z"
       transform="matrix(1.0336316,0,0,1.0634965,217.56935,52.895369)" />
    <path
       sodipodi:type="arc"
       style="opacity:0.58849553;fill:url(#radialGradient3326);fill-opacity:1;stroke:#000000;stroke-width:1;stroke-miterlimit:4;stroke-opacity:1;stroke-dasharray:none"
       id="path3318"
       sodipodi:cx="302.99606"
       sodipodi:cy="144.60695"
       sodipodi:rx="102.02535"
       sodipodi:ry="59.290207"
       d="m 405.02142,144.60695 c 0,32.74508 -45.67831,59.29021 -102.02536,59.29021 -56.34704,0 -102.02535,-26.54513 -102.02535,-59.29021 0,-32.74508 45.67831,-59.290208 102.02535,-59.290208 56.34705,0 102.02536,26.545128 102.02536,59.290208 z"
       transform="translate(224.91705,61.418231)" />
    <path
       sodipodi:type="arc"
       style="opacity:0.55309735;fill:url(#radialGradient3336);fill-opacity:1;stroke:#000000;stroke-width:1;stroke-miterlimit:4;stroke-opacity:1;stroke-dasharray:none"
       id="path3328"
       sodipodi:cx="402.7114"
       sodipodi:cy="321.32257"
       sodipodi:rx="44.660156"
       sodipodi:ry="69.685242"
       d="m 447.37155,321.32257 c 0,38.4861 -19.99503,69.68524 -44.66015,69.68524 -24.66513,0 -44.66016,-31.19914 -44.66016,-69.68524 0,-38.4861 19.99503,-69.68524 44.66016,-69.68524 24.66512,0 44.66015,31.19914 44.66015,69.68524 z"
       transform="translate(219.99706,67.738274)" />
    <path
       style="fill:none;stroke:#000000;stroke-width:3;stroke-linecap:butt;stroke-linejoin:miter;stroke-miterlimit:4;stroke-opacity:1;stroke-dasharray:none;marker-end:url(#TriangleOutM)"
       d="m 263.53933,482.63615 451.64867,0"
       id="path2166"
       sodipodi:nodetypes="cc"
       inkscape:connector-curvature="0" />
    <path
       style="fill:none;stroke:#000000;stroke-width:3;stroke-linecap:butt;stroke-linejoin:miter;stroke-miterlimit:4;stroke-opacity:1;stroke-dasharray:none;marker-end:url(#TriangleOutM)"
       d="m 264.65997,483.8357 0,-381.01691"
       id="path3337"
       sodipodi:nodetypes="cc"
       inkscape:connector-curvature="0" />
    <path
       sodipodi:type="arc"
       style="fill:#000000;fill-opacity:1;stroke:#000000;stroke-width:3;stroke-miterlimit:4;stroke-opacity:1;stroke-dasharray:none"
       id="path3341"
       sodipodi:cx="352.66122"
       sodipodi:cy="256.17944"
       sodipodi:rx="3.0800107"
       sodipodi:ry="3.0800107"
       d="m 355.74124,256.17944 c 0,1.70105 -1.37897,3.08001 -3.08002,3.08001 -1.70104,0 -3.08001,-1.37896 -3.08001,-3.08001 0,-1.70104 1.37897,-3.08001 3.08001,-3.08001 1.70105,0 3.08002,1.37897 3.08002,3.08001 z"
       transform="translate(61.600205,-3.8500206)" />
    <path
       sodipodi:type="arc"
       style="fill:#000000;fill-opacity:1;stroke:#000000;stroke-width:3;stroke-miterlimit:4;stroke-opacity:1;stroke-dasharray:none"
       id="path3345"
       sodipodi:cx="352.66122"
       sodipodi:cy="256.17944"
       sodipodi:rx="3.0800107"
       sodipodi:ry="3.0800107"
       d="m 355.74124,256.17944 c 0,1.70105 -1.37897,3.08001 -3.08002,3.08001 -1.70104,0 -3.08001,-1.37896 -3.08001,-3.08001 0,-1.70104 1.37897,-3.08001 3.08001,-3.08001 1.70105,0 3.08002,1.37897 3.08002,3.08001 z"
       transform="translate(126.28043,17.710054)" />
    <path
       sodipodi:type="arc"
       style="fill:#000000;fill-opacity:1;stroke:#000000;stroke-width:3;stroke-miterlimit:4;stroke-opacity:1;stroke-dasharray:none"
       id="path3347"
       sodipodi:cx="352.66122"
       sodipodi:cy="256.17944"
       sodipodi:rx="3.0800107"
       sodipodi:ry="3.0800107"
       d="m 355.74124,256.17944 c 0,1.70105 -1.37897,3.08001 -3.08002,3.08001 -1.70104,0 -3.08001,-1.37896 -3.08001,-3.08001 0,-1.70104 1.37897,-3.08001 3.08001,-3.08001 1.70105,0 3.08002,1.37897 3.08002,3.08001 z"
       transform="translate(114.73039,-19.250074)" />
    <path
       sodipodi:type="arc"
       style="fill:#000000;fill-opacity:1;stroke:#000000;stroke-width:3;stroke-miterlimit:4;stroke-opacity:1;stroke-dasharray:none"
       id="path3351"
       sodipodi:cx="352.66122"
       sodipodi:cy="256.17944"
       sodipodi:rx="3.0800107"
       sodipodi:ry="3.0800107"
       d="m 355.74124,256.17944 c 0,1.70105 -1.37897,3.08001 -3.08002,3.08001 -1.70104,0 -3.08001,-1.37896 -3.08001,-3.08001 0,-1.70104 1.37897,-3.08001 3.08001,-3.08001 1.70105,0 3.08002,1.37897 3.08002,3.08001 z"
       transform="translate(63.14021,158.62054)" />
    <path
       sodipodi:type="arc"
       style="fill:#000000;fill-opacity:1;stroke:#000000;stroke-width:3;stroke-miterlimit:4;stroke-opacity:1;stroke-dasharray:none"
       id="path3353"
       sodipodi:cx="352.66122"
       sodipodi:cy="256.17944"
       sodipodi:rx="3.0800107"
       sodipodi:ry="3.0800107"
       d="m 355.74124,256.17944 c 0,1.70105 -1.37897,3.08001 -3.08002,3.08001 -1.70104,0 -3.08001,-1.37896 -3.08001,-3.08001 0,-1.70104 1.37897,-3.08001 3.08001,-3.08001 1.70105,0 3.08002,1.37897 3.08002,3.08001 z"
       transform="translate(27.720088,108.57037)" />
    <path
       sodipodi:type="arc"
       style="fill:#000000;fill-opacity:1;stroke:#000000;stroke-width:3;stroke-miterlimit:4;stroke-opacity:1;stroke-dasharray:none"
       id="path3355"
       sodipodi:cx="352.66122"
       sodipodi:cy="256.17944"
       sodipodi:rx="3.0800107"
       sodipodi:ry="3.0800107"
       d="m 355.74124,256.17944 c 0,1.70105 -1.37897,3.08001 -3.08002,3.08001 -1.70104,0 -3.08001,-1.37896 -3.08001,-3.08001 0,-1.70104 1.37897,-3.08001 3.08001,-3.08001 1.70105,0 3.08002,1.37897 3.08002,3.08001 z"
       transform="translate(202.51069,-6.1600286)" />
    <path
       sodipodi:type="arc"
       style="fill:#000000;fill-opacity:1;stroke:#000000;stroke-width:3;stroke-miterlimit:4;stroke-opacity:1;stroke-dasharray:none"
       id="path3357"
       sodipodi:cx="352.66122"
       sodipodi:cy="256.17944"
       sodipodi:rx="3.0800107"
       sodipodi:ry="3.0800107"
       d="m 355.74124,256.17944 c 0,1.70105 -1.37897,3.08001 -3.08002,3.08001 -1.70104,0 -3.08001,-1.37896 -3.08001,-3.08001 0,-1.70104 1.37897,-3.08001 3.08001,-3.08001 1.70105,0 3.08002,1.37897 3.08002,3.08001 z"
       transform="translate(194.81066,-83.160294)" />
    <path
       sodipodi:type="arc"
       style="fill:#000000;fill-opacity:1;stroke:#000000;stroke-width:3;stroke-miterlimit:4;stroke-opacity:1;stroke-dasharray:none"
       id="path3359"
       sodipodi:cx="352.66122"
       sodipodi:cy="256.17944"
       sodipodi:rx="3.0800107"
       sodipodi:ry="3.0800107"
       d="m 355.74124,256.17944 c 0,1.70105 -1.37897,3.08001 -3.08002,3.08001 -1.70104,0 -3.08001,-1.37896 -3.08001,-3.08001 0,-1.70104 1.37897,-3.08001 3.08001,-3.08001 1.70105,0 3.08002,1.37897 3.08002,3.08001 z"
       transform="translate(118.5804,-80.850286)" />
    <path
       sodipodi:type="arc"
       style="fill:#000000;fill-opacity:1;stroke:#000000;stroke-width:3;stroke-miterlimit:4;stroke-opacity:1;stroke-dasharray:none"
       id="path3363"
       sodipodi:cx="352.66122"
       sodipodi:cy="256.17944"
       sodipodi:rx="3.0800107"
       sodipodi:ry="3.0800107"
       d="m 355.74124,256.17944 c 0,1.70105 -1.37897,3.08001 -3.08002,3.08001 -1.70104,0 -3.08001,-1.37896 -3.08001,-3.08001 0,-1.70104 1.37897,-3.08001 3.08001,-3.08001 1.70105,0 3.08002,1.37897 3.08002,3.08001 z"
       transform="translate(9.2400241,80.850272)" />
    <path
       sodipodi:type="arc"
       style="fill:#000000;fill-opacity:1;stroke:#000000;stroke-width:3;stroke-miterlimit:4;stroke-opacity:1;stroke-dasharray:none"
       id="path3367"
       sodipodi:cx="352.66122"
       sodipodi:cy="256.17944"
       sodipodi:rx="3.0800107"
       sodipodi:ry="3.0800107"
       d="m 355.74124,256.17944 c 0,1.70105 -1.37897,3.08001 -3.08002,3.08001 -1.70104,0 -3.08001,-1.37896 -3.08001,-3.08001 0,-1.70104 1.37897,-3.08001 3.08001,-3.08001 1.70105,0 3.08002,1.37897 3.08002,3.08001 z"
       transform="translate(249.48085,66.990224)" />
    <path
       sodipodi:type="arc"
       style="fill:#000000;fill-opacity:1;stroke:#000000;stroke-width:3;stroke-miterlimit:4;stroke-opacity:1;stroke-dasharray:none"
       id="path3371"
       sodipodi:cx="352.66122"
       sodipodi:cy="256.17944"
       sodipodi:rx="3.0800107"
       sodipodi:ry="3.0800107"
       d="m 355.74124,256.17944 c 0,1.70105 -1.37897,3.08001 -3.08002,3.08001 -1.70104,0 -3.08001,-1.37896 -3.08001,-3.08001 0,-1.70104 1.37897,-3.08001 3.08001,-3.08001 1.70105,0 3.08002,1.37897 3.08002,3.08001 z"
       transform="translate(-13.860056,187.88064)" />
    <path
       sodipodi:type="arc"
       style="fill:#000000;fill-opacity:1;stroke:#000000;stroke-width:3;stroke-miterlimit:4;stroke-opacity:1;stroke-dasharray:none"
       id="path3373"
       sodipodi:cx="352.66122"
       sodipodi:cy="256.17944"
       sodipodi:rx="3.0800107"
       sodipodi:ry="3.0800107"
       d="m 355.74124,256.17944 c 0,1.70105 -1.37897,3.08001 -3.08002,3.08001 -1.70104,0 -3.08001,-1.37896 -3.08001,-3.08001 0,-1.70104 1.37897,-3.08001 3.08001,-3.08001 1.70105,0 3.08002,1.37897 3.08002,3.08001 z"
       transform="translate(-50.05018,140.91048)" />
    <path
       sodipodi:type="arc"
       style="fill:#000000;fill-opacity:1;stroke:#000000;stroke-width:3;stroke-miterlimit:4;stroke-opacity:1;stroke-dasharray:none"
       id="path3375"
       sodipodi:cx="352.66122"
       sodipodi:cy="256.17944"
       sodipodi:rx="3.0800107"
       sodipodi:ry="3.0800107"
       d="m 355.74124,256.17944 c 0,1.70105 -1.37897,3.08001 -3.08002,3.08001 -1.70104,0 -3.08001,-1.37896 -3.08001,-3.08001 0,-1.70104 1.37897,-3.08001 3.08001,-3.08001 1.70105,0 3.08002,1.37897 3.08002,3.08001 z"
       transform="translate(275.66094,-37.730137)" />
    <path
       sodipodi:type="arc"
       style="fill:#000000;fill-opacity:1;stroke:#000000;stroke-width:3;stroke-miterlimit:4;stroke-opacity:1;stroke-dasharray:none"
       id="path3377"
       sodipodi:cx="352.66122"
       sodipodi:cy="256.17944"
       sodipodi:rx="3.0800107"
       sodipodi:ry="3.0800107"
       d="m 355.74124,256.17944 c 0,1.70105 -1.37897,3.08001 -3.08002,3.08001 -1.70104,0 -3.08001,-1.37896 -3.08001,-3.08001 0,-1.70104 1.37897,-3.08001 3.08001,-3.08001 1.70105,0 3.08002,1.37897 3.08002,3.08001 z"
       transform="translate(180.95062,-52.360188)" />
    <path
       sodipodi:type="arc"
       style="fill:#000000;fill-opacity:1;stroke:#000000;stroke-width:3;stroke-miterlimit:4;stroke-opacity:1;stroke-dasharray:none"
       id="path3379"
       sodipodi:cx="352.66122"
       sodipodi:cy="256.17944"
       sodipodi:rx="3.0800107"
       sodipodi:ry="3.0800107"
       d="m 355.74124,256.17944 c 0,1.70105 -1.37897,3.08001 -3.08002,3.08001 -1.70104,0 -3.08001,-1.37896 -3.08001,-3.08001 0,-1.70104 1.37897,-3.08001 3.08001,-3.08001 1.70105,0 3.08002,1.37897 3.08002,3.08001 z"
       transform="translate(162.47055,-26.9501)" />
    <path
       sodipodi:type="arc"
       style="fill:#000000;fill-opacity:1;stroke:#000000;stroke-width:3;stroke-miterlimit:4;stroke-opacity:1;stroke-dasharray:none"
       id="path3381"
       sodipodi:cx="352.66122"
       sodipodi:cy="256.17944"
       sodipodi:rx="3.0800107"
       sodipodi:ry="3.0800107"
       d="m 355.74124,256.17944 c 0,1.70105 -1.37897,3.08001 -3.08002,3.08001 -1.70104,0 -3.08001,-1.37896 -3.08001,-3.08001 0,-1.70104 1.37897,-3.08001 3.08001,-3.08001 1.70105,0 3.08002,1.37897 3.08002,3.08001 z"
       transform="translate(171.71058,2.3100007)" />
    <path
       sodipodi:type="arc"
       style="fill:#000000;fill-opacity:1;stroke:#000000;stroke-width:3;stroke-miterlimit:4;stroke-opacity:1;stroke-dasharray:none"
       id="path3383"
       sodipodi:cx="352.66122"
       sodipodi:cy="256.17944"
       sodipodi:rx="3.0800107"
       sodipodi:ry="3.0800107"
       d="m 355.74124,256.17944 c 0,1.70105 -1.37897,3.08001 -3.08002,3.08001 -1.70104,0 -3.08001,-1.37896 -3.08001,-3.08001 0,-1.70104 1.37897,-3.08001 3.08001,-3.08001 1.70105,0 3.08002,1.37897 3.08002,3.08001 z"
       transform="translate(222.53076,23.870075)" />
    <path
       sodipodi:type="arc"
       style="fill:#000000;fill-opacity:1;stroke:#000000;stroke-width:3;stroke-miterlimit:4;stroke-opacity:1;stroke-dasharray:none"
       id="path3385"
       sodipodi:cx="352.66122"
       sodipodi:cy="256.17944"
       sodipodi:rx="3.0800107"
       sodipodi:ry="3.0800107"
       d="m 355.74124,256.17944 c 0,1.70105 -1.37897,3.08001 -3.08002,3.08001 -1.70104,0 -3.08001,-1.37896 -3.08001,-3.08001 0,-1.70104 1.37897,-3.08001 3.08001,-3.08001 1.70105,0 3.08002,1.37897 3.08002,3.08001 z"
       transform="translate(127.82043,-53.900193)" />
    <path
       sodipodi:type="arc"
       style="fill:#000000;fill-opacity:1;stroke:#000000;stroke-width:3;stroke-miterlimit:4;stroke-opacity:1;stroke-dasharray:none"
       id="path3387"
       sodipodi:cx="352.66122"
       sodipodi:cy="256.17944"
       sodipodi:rx="3.0800107"
       sodipodi:ry="3.0800107"
       d="m 355.74124,256.17944 c 0,1.70105 -1.37897,3.08001 -3.08002,3.08001 -1.70104,0 -3.08001,-1.37896 -3.08001,-3.08001 0,-1.70104 1.37897,-3.08001 3.08001,-3.08001 1.70105,0 3.08002,1.37897 3.08002,3.08001 z"
       transform="translate(-3.8500211,150.15051)" />
    <path
       sodipodi:type="arc"
       style="fill:#000000;fill-opacity:1;stroke:#000000;stroke-width:3;stroke-miterlimit:4;stroke-opacity:1;stroke-dasharray:none"
       id="path3389"
       sodipodi:cx="352.66122"
       sodipodi:cy="256.17944"
       sodipodi:rx="3.0800107"
       sodipodi:ry="3.0800107"
       d="m 355.74124,256.17944 c 0,1.70105 -1.37897,3.08001 -3.08002,3.08001 -1.70104,0 -3.08001,-1.37896 -3.08001,-3.08001 0,-1.70104 1.37897,-3.08001 3.08001,-3.08001 1.70105,0 3.08002,1.37897 3.08002,3.08001 z"
       transform="translate(25.41008,177.1006)" />
    <path
       sodipodi:type="arc"
       style="fill:#000000;fill-opacity:1;stroke:#000000;stroke-width:3;stroke-miterlimit:4;stroke-opacity:1;stroke-dasharray:none"
       id="path3391"
       sodipodi:cx="352.66122"
       sodipodi:cy="256.17944"
       sodipodi:rx="3.0800107"
       sodipodi:ry="3.0800107"
       d="m 355.74124,256.17944 c 0,1.70105 -1.37897,3.08001 -3.08002,3.08001 -1.70104,0 -3.08001,-1.37896 -3.08001,-3.08001 0,-1.70104 1.37897,-3.08001 3.08001,-3.08001 1.70105,0 3.08002,1.37897 3.08002,3.08001 z"
       transform="translate(4.6200081,204.8207)" />
    <path
       sodipodi:type="arc"
       style="fill:#000000;fill-opacity:1;stroke:#000000;stroke-width:3;stroke-miterlimit:4;stroke-opacity:1;stroke-dasharray:none"
       id="path3393"
       sodipodi:cx="352.66122"
       sodipodi:cy="256.17944"
       sodipodi:rx="3.0800107"
       sodipodi:ry="3.0800107"
       d="m 355.74124,256.17944 c 0,1.70105 -1.37897,3.08001 -3.08002,3.08001 -1.70104,0 -3.08001,-1.37896 -3.08001,-3.08001 0,-1.70104 1.37897,-3.08001 3.08001,-3.08001 1.70105,0 3.08002,1.37897 3.08002,3.08001 z"
       transform="translate(13.090037,170.17058)" />
    <path
       sodipodi:type="arc"
       style="fill:#000000;fill-opacity:1;stroke:#000000;stroke-width:3;stroke-miterlimit:4;stroke-opacity:1;stroke-dasharray:none"
       id="path3395"
       sodipodi:cx="352.66122"
       sodipodi:cy="256.17944"
       sodipodi:rx="3.0800107"
       sodipodi:ry="3.0800107"
       d="m 355.74124,256.17944 c 0,1.70105 -1.37897,3.08001 -3.08002,3.08001 -1.70104,0 -3.08001,-1.37896 -3.08001,-3.08001 0,-1.70104 1.37897,-3.08001 3.08001,-3.08001 1.70105,0 3.08002,1.37897 3.08002,3.08001 z"
       transform="translate(32.340104,123.20042)" />
    <path
       sodipodi:type="arc"
       style="fill:#000000;fill-opacity:1;stroke:#000000;stroke-width:3;stroke-miterlimit:4;stroke-opacity:1;stroke-dasharray:none"
       id="path3397"
       sodipodi:cx="352.66122"
       sodipodi:cy="256.17944"
       sodipodi:rx="3.0800107"
       sodipodi:ry="3.0800107"
       d="m 355.74124,256.17944 c 0,1.70105 -1.37897,3.08001 -3.08002,3.08001 -1.70104,0 -3.08001,-1.37896 -3.08001,-3.08001 0,-1.70104 1.37897,-3.08001 3.08001,-3.08001 1.70105,0 3.08002,1.37897 3.08002,3.08001 z"
       transform="translate(66.220221,103.18035)" />
    <path
       sodipodi:type="arc"
       style="fill:#000000;fill-opacity:1;stroke:#000000;stroke-width:3;stroke-miterlimit:4;stroke-opacity:1;stroke-dasharray:none"
       id="path3399"
       sodipodi:cx="352.66122"
       sodipodi:cy="256.17944"
       sodipodi:rx="3.0800107"
       sodipodi:ry="3.0800107"
       d="m 355.74124,256.17944 c 0,1.70105 -1.37897,3.08001 -3.08002,3.08001 -1.70104,0 -3.08001,-1.37896 -3.08001,-3.08001 0,-1.70104 1.37897,-3.08001 3.08001,-3.08001 1.70105,0 3.08002,1.37897 3.08002,3.08001 z"
       transform="translate(3.0800028,115.50039)" />
    <path
       sodipodi:type="arc"
       style="fill:#000000;fill-opacity:1;stroke:#000000;stroke-width:3;stroke-miterlimit:4;stroke-opacity:1;stroke-dasharray:none"
       id="path3401"
       sodipodi:cx="352.66122"
       sodipodi:cy="256.17944"
       sodipodi:rx="3.0800107"
       sodipodi:ry="3.0800107"
       d="m 355.74124,256.17944 c 0,1.70105 -1.37897,3.08001 -3.08002,3.08001 -1.70104,0 -3.08001,-1.37896 -3.08001,-3.08001 0,-1.70104 1.37897,-3.08001 3.08001,-3.08001 1.70105,0 3.08002,1.37897 3.08002,3.08001 z"
       transform="translate(25.41008,143.22049)" />
    <path
       sodipodi:type="arc"
       style="fill:#000000;fill-opacity:1;stroke:#000000;stroke-width:3;stroke-miterlimit:4;stroke-opacity:1;stroke-dasharray:none"
       id="path3339"
       sodipodi:cx="352.66122"
       sodipodi:cy="256.17944"
       sodipodi:rx="3.0800107"
       sodipodi:ry="3.0800107"
       d="m 355.74124,256.17944 c 0,1.70105 -1.37897,3.08001 -3.08002,3.08001 -1.70104,0 -3.08001,-1.37896 -3.08001,-3.08001 0,-1.70104 1.37897,-3.08001 3.08001,-3.08001 1.70105,0 3.08002,1.37897 3.08002,3.08001 z"
       transform="translate(227.15078,-31.570116)" />
    <path
       sodipodi:type="arc"
       style="fill:#000000;fill-opacity:1;stroke:#000000;stroke-width:3;stroke-miterlimit:4;stroke-opacity:1;stroke-dasharray:none"
       id="path3406"
       sodipodi:cx="352.66122"
       sodipodi:cy="256.17944"
       sodipodi:rx="3.0800107"
       sodipodi:ry="3.0800107"
       d="m 355.74124,256.17944 c 0,1.70105 -1.37897,3.08001 -3.08002,3.08001 -1.70104,0 -3.08001,-1.37896 -3.08001,-3.08001 0,-1.70104 1.37897,-3.08001 3.08001,-3.08001 1.70105,0 3.08002,1.37897 3.08002,3.08001 z"
       transform="translate(200.97069,-27.720103)" />
    <path
       sodipodi:type="arc"
       style="fill:#000000;fill-opacity:1;stroke:#000000;stroke-width:3;stroke-miterlimit:4;stroke-opacity:1;stroke-dasharray:none"
       id="path3408"
       sodipodi:cx="352.66122"
       sodipodi:cy="256.17944"
       sodipodi:rx="3.0800107"
       sodipodi:ry="3.0800107"
       d="m 355.74124,256.17944 c 0,1.70105 -1.37897,3.08001 -3.08002,3.08001 -1.70104,0 -3.08001,-1.37896 -3.08001,-3.08001 0,-1.70104 1.37897,-3.08001 3.08001,-3.08001 1.70105,0 3.08002,1.37897 3.08002,3.08001 z"
       transform="translate(210.98072,-55.440199)" />
    <path
       sodipodi:type="arc"
       style="fill:#000000;fill-opacity:1;stroke:#000000;stroke-width:3;stroke-miterlimit:4;stroke-opacity:1;stroke-dasharray:none"
       id="path4381"
       sodipodi:cx="352.66122"
       sodipodi:cy="256.17944"
       sodipodi:rx="3.0800107"
       sodipodi:ry="3.0800107"
       d="m 355.74124,256.17944 c 0,1.70105 -1.37897,3.08001 -3.08002,3.08001 -1.70104,0 -3.08001,-1.37896 -3.08001,-3.08001 0,-1.70104 1.37897,-3.08001 3.08001,-3.08001 1.70105,0 3.08002,1.37897 3.08002,3.08001 z"
       transform="translate(253.33087,147.0705)" />
    <path
       sodipodi:type="arc"
       style="fill:#000000;fill-opacity:1;stroke:#000000;stroke-width:3;stroke-miterlimit:4;stroke-opacity:1;stroke-dasharray:none"
       id="path4383"
       sodipodi:cx="352.66122"
       sodipodi:cy="256.17944"
       sodipodi:rx="3.0800107"
       sodipodi:ry="3.0800107"
       d="m 355.74124,256.17944 c 0,1.70105 -1.37897,3.08001 -3.08002,3.08001 -1.70104,0 -3.08001,-1.37896 -3.08001,-3.08001 0,-1.70104 1.37897,-3.08001 3.08001,-3.08001 1.70105,0 3.08002,1.37897 3.08002,3.08001 z"
       transform="translate(251.79086,163.24056)" />
    <path
       sodipodi:type="arc"
       style="fill:#000000;fill-opacity:1;stroke:#000000;stroke-width:3;stroke-miterlimit:4;stroke-opacity:1;stroke-dasharray:none"
       id="path4385"
       sodipodi:cx="352.66122"
       sodipodi:cy="256.17944"
       sodipodi:rx="3.0800107"
       sodipodi:ry="3.0800107"
       d="m 355.74124,256.17944 c 0,1.70105 -1.37897,3.08001 -3.08002,3.08001 -1.70104,0 -3.08001,-1.37896 -3.08001,-3.08001 0,-1.70104 1.37897,-3.08001 3.08001,-3.08001 1.70105,0 3.08002,1.37897 3.08002,3.08001 z"
       transform="translate(284.13097,156.31053)" />
    <path
       sodipodi:type="arc"
       style="fill:#000000;fill-opacity:1;stroke:#000000;stroke-width:3;stroke-miterlimit:4;stroke-opacity:1;stroke-dasharray:none"
       id="path4387"
       sodipodi:cx="352.66122"
       sodipodi:cy="256.17944"
       sodipodi:rx="3.0800107"
       sodipodi:ry="3.0800107"
       d="m 355.74124,256.17944 c 0,1.70105 -1.37897,3.08001 -3.08002,3.08001 -1.70104,0 -3.08001,-1.37896 -3.08001,-3.08001 0,-1.70104 1.37897,-3.08001 3.08001,-3.08001 1.70105,0 3.08002,1.37897 3.08002,3.08001 z"
       transform="translate(264.1109,103.95035)" />
    <path
       sodipodi:type="arc"
       style="fill:#000000;fill-opacity:1;stroke:#000000;stroke-width:3;stroke-miterlimit:4;stroke-opacity:1;stroke-dasharray:none"
       id="path4389"
       sodipodi:cx="352.66122"
       sodipodi:cy="256.17944"
       sodipodi:rx="3.0800107"
       sodipodi:ry="3.0800107"
       d="m 355.74124,256.17944 c 0,1.70105 -1.37897,3.08001 -3.08002,3.08001 -1.70104,0 -3.08001,-1.37896 -3.08001,-3.08001 0,-1.70104 1.37897,-3.08001 3.08001,-3.08001 1.70105,0 3.08002,1.37897 3.08002,3.08001 z"
       transform="translate(279.51096,132.44045)" />
    <path
       sodipodi:type="arc"
       style="fill:#000000;fill-opacity:1;stroke:#000000;stroke-width:3;stroke-miterlimit:4;stroke-opacity:1;stroke-dasharray:none"
       id="path4391"
       sodipodi:cx="352.66122"
       sodipodi:cy="256.17944"
       sodipodi:rx="3.0800107"
       sodipodi:ry="3.0800107"
       d="m 355.74124,256.17944 c 0,1.70105 -1.37897,3.08001 -3.08002,3.08001 -1.70104,0 -3.08001,-1.37896 -3.08001,-3.08001 0,-1.70104 1.37897,-3.08001 3.08001,-3.08001 1.70105,0 3.08002,1.37897 3.08002,3.08001 z"
       transform="translate(294.91101,127.05043)" />
    <path
       sodipodi:type="arc"
       style="fill:#000000;fill-opacity:1;stroke:#000000;stroke-width:3;stroke-miterlimit:4;stroke-opacity:1;stroke-dasharray:none"
       id="path4393"
       sodipodi:cx="352.66122"
       sodipodi:cy="256.17944"
       sodipodi:rx="3.0800107"
       sodipodi:ry="3.0800107"
       d="m 355.74124,256.17944 c 0,1.70105 -1.37897,3.08001 -3.08002,3.08001 -1.70104,0 -3.08001,-1.37896 -3.08001,-3.08001 0,-1.70104 1.37897,-3.08001 3.08001,-3.08001 1.70105,0 3.08002,1.37897 3.08002,3.08001 z"
       transform="translate(248.71085,125.51043)" />
    <path
       sodipodi:type="arc"
       style="fill:#000000;fill-opacity:1;stroke:#000000;stroke-width:3;stroke-miterlimit:4;stroke-opacity:1;stroke-dasharray:none"
       id="path4395"
       sodipodi:cx="352.66122"
       sodipodi:cy="256.17944"
       sodipodi:rx="3.0800107"
       sodipodi:ry="3.0800107"
       d="m 355.74124,256.17944 c 0,1.70105 -1.37897,3.08001 -3.08002,3.08001 -1.70104,0 -3.08001,-1.37896 -3.08001,-3.08001 0,-1.70104 1.37897,-3.08001 3.08001,-3.08001 1.70105,0 3.08002,1.37897 3.08002,3.08001 z"
       transform="translate(282.59097,113.19038)" />
    <path
       sodipodi:type="arc"
       style="fill:#000000;fill-opacity:1;stroke:#000000;stroke-width:3;stroke-miterlimit:4;stroke-opacity:1;stroke-dasharray:none"
       id="path4397"
       sodipodi:cx="352.66122"
       sodipodi:cy="256.17944"
       sodipodi:rx="3.0800107"
       sodipodi:ry="3.0800107"
       d="m 355.74124,256.17944 c 0,1.70105 -1.37897,3.08001 -3.08002,3.08001 -1.70104,0 -3.08001,-1.37896 -3.08001,-3.08001 0,-1.70104 1.37897,-3.08001 3.08001,-3.08001 1.70105,0 3.08002,1.37897 3.08002,3.08001 z"
       transform="translate(299.53103,85.470288)" />
    <path
       sodipodi:type="arc"
       style="fill:#000000;fill-opacity:1;stroke:#000000;stroke-width:3;stroke-miterlimit:4;stroke-opacity:1;stroke-dasharray:none"
       id="path4399"
       sodipodi:cx="352.66122"
       sodipodi:cy="256.17944"
       sodipodi:rx="3.0800107"
       sodipodi:ry="3.0800107"
       d="m 355.74124,256.17944 c 0,1.70105 -1.37897,3.08001 -3.08002,3.08001 -1.70104,0 -3.08001,-1.37896 -3.08001,-3.08001 0,-1.70104 1.37897,-3.08001 3.08001,-3.08001 1.70105,0 3.08002,1.37897 3.08002,3.08001 z"
       transform="translate(322.63111,160.16055)" />
    <path
       sodipodi:type="arc"
       style="fill:#000000;fill-opacity:1;stroke:#000000;stroke-width:3;stroke-miterlimit:4;stroke-opacity:1;stroke-dasharray:none"
       id="path4401"
       sodipodi:cx="352.66122"
       sodipodi:cy="256.17944"
       sodipodi:rx="3.0800107"
       sodipodi:ry="3.0800107"
       d="m 355.74124,256.17944 c 0,1.70105 -1.37897,3.08001 -3.08002,3.08001 -1.70104,0 -3.08001,-1.37896 -3.08001,-3.08001 0,-1.70104 1.37897,-3.08001 3.08001,-3.08001 1.70105,0 3.08002,1.37897 3.08002,3.08001 z"
       transform="translate(287.21098,175.5606)" />
    <path
       sodipodi:type="arc"
       style="fill:#000000;fill-opacity:1;stroke:#000000;stroke-width:3;stroke-miterlimit:4;stroke-opacity:1;stroke-dasharray:none"
       id="path4403"
       sodipodi:cx="352.66122"
       sodipodi:cy="256.17944"
       sodipodi:rx="3.0800107"
       sodipodi:ry="3.0800107"
       d="m 355.74124,256.17944 c 0,1.70105 -1.37897,3.08001 -3.08002,3.08001 -1.70104,0 -3.08001,-1.37896 -3.08001,-3.08001 0,-1.70104 1.37897,-3.08001 3.08001,-3.08001 1.70105,0 3.08002,1.37897 3.08002,3.08001 z"
       transform="translate(228.69078,192.50066)" />
    <path
       sodipodi:type="arc"
       style="fill:#000000;fill-opacity:1;stroke:#000000;stroke-width:3;stroke-miterlimit:4;stroke-opacity:1;stroke-dasharray:none"
       id="path4405"
       sodipodi:cx="352.66122"
       sodipodi:cy="256.17944"
       sodipodi:rx="3.0800107"
       sodipodi:ry="3.0800107"
       d="m 355.74124,256.17944 c 0,1.70105 -1.37897,3.08001 -3.08002,3.08001 -1.70104,0 -3.08001,-1.37896 -3.08001,-3.08001 0,-1.70104 1.37897,-3.08001 3.08001,-3.08001 1.70105,0 3.08002,1.37897 3.08002,3.08001 z"
       transform="translate(217.14074,148.61051)" />
    <path
       sodipodi:type="arc"
       style="fill:#000000;fill-opacity:1;stroke:#000000;stroke-width:3;stroke-miterlimit:4;stroke-opacity:1;stroke-dasharray:none"
       id="path4407"
       sodipodi:cx="352.66122"
       sodipodi:cy="256.17944"
       sodipodi:rx="3.0800107"
       sodipodi:ry="3.0800107"
       d="m 355.74124,256.17944 c 0,1.70105 -1.37897,3.08001 -3.08002,3.08001 -1.70104,0 -3.08001,-1.37896 -3.08001,-3.08001 0,-1.70104 1.37897,-3.08001 3.08001,-3.08001 1.70105,0 3.08002,1.37897 3.08002,3.08001 z"
       transform="translate(144.76049,85.470288)" />
    <text
       xml:space="preserve"
       style="font-size:11px;font-style:normal;font-weight:normal;fill:#000000;fill-opacity:1;stroke:none;font-family:Bitstream Vera Sans"
       x="738.3916"
       y="486.30615"
       id="text4599"><tspan
         sodipodi:role="line"
         id="tspan4601"
         x="738.3916"
         y="486.30615"
         style="font-size:20px">Variable 1</tspan></text>
    <text
       xml:space="preserve"
       style="font-size:11px;font-style:normal;font-weight:normal;fill:#000000;fill-opacity:1;stroke:none;font-family:Bitstream Vera Sans"
       x="227.87987"
       y="85.134758"
       id="text4603"><tspan
         sodipodi:role="line"
         id="tspan4605"
         x="227.87987"
         y="85.134758"
         style="font-size:20px">Variable 2</tspan></text>
  </g>
</svg>
