<?xml version="1.0" encoding="UTF-8" standalone="no"?>
<!-- Created with Inkscape (http://www.inkscape.org/) -->

<svg
   xmlns:dc="http://purl.org/dc/elements/1.1/"
   xmlns:cc="http://creativecommons.org/ns#"
   xmlns:rdf="http://www.w3.org/1999/02/22-rdf-syntax-ns#"
   xmlns:svg="http://www.w3.org/2000/svg"
   xmlns="http://www.w3.org/2000/svg"
   xmlns:sodipodi="http://sodipodi.sourceforge.net/DTD/sodipodi-0.dtd"
   xmlns:inkscape="http://www.inkscape.org/namespaces/inkscape"
   width="596.89844"
   height="418.6264"
   id="svg2"
   sodipodi:version="0.32"
   inkscape:version="0.48.4 r9939"
   version="1.0"
   sodipodi:docname="Minima_distancia.svg"
   inkscape:output_extension="org.inkscape.output.svg.inkscape">
  <defs
     id="defs4">
    <marker
       inkscape:stockid="TriangleOutM"
       orient="auto"
       refY="0"
       refX="0"
       id="TriangleOutM"
       style="overflow:visible">
      <path
         id="path3229"
         d="m 5.77,0 -8.65,5 0,-10 8.65,5 z"
         style="fill-rule:evenodd;stroke:#000000;stroke-width:1pt;marker-start:none"
         transform="scale(0.4,0.4)"
         inkscape:connector-curvature="0" />
    </marker>
  </defs>
  <sodipodi:namedview
     id="base"
     pagecolor="#ffffff"
     bordercolor="#666666"
     borderopacity="1.0"
     inkscape:pageopacity="0.0"
     inkscape:pageshadow="2"
     inkscape:zoom="1.2986968"
     inkscape:cx="232.50531"
     inkscape:cy="191.68837"
     inkscape:document-units="px"
     inkscape:current-layer="layer1"
     inkscape:window-width="1920"
     inkscape:window-height="1057"
     inkscape:window-x="-8"
     inkscape:window-y="-8"
     showgrid="false"
     fit-margin-top="0"
     fit-margin-left="0"
     fit-margin-right="0"
     fit-margin-bottom="0"
     inkscape:window-maximized="1" />
  <metadata
     id="metadata7">
    <rdf:RDF>
      <cc:Work
         rdf:about="">
        <dc:format>image/svg+xml</dc:format>
        <dc:type
           rdf:resource="http://purl.org/dc/dcmitype/StillImage" />
      </cc:Work>
    </rdf:RDF>
  </metadata>
  <g
     inkscape:label="Capa 1"
     inkscape:groupmode="layer"
     id="layer1"
     transform="translate(-227.96776,-70.759758)">
    <path
       style="opacity:0.30434786;fill:#00ff00;fill-rule:evenodd;stroke:#000000;stroke-width:1px;stroke-linecap:butt;stroke-linejoin:miter;stroke-opacity:1"
       d="m 276.81724,194.32515 244.09084,126.28044 8.47003,150.15052 -251.02087,0 0,-275.66095 -1.54,-0.77001 z"
       id="path3322"
       sodipodi:nodetypes="cccccc"
       inkscape:connector-curvature="0" />
    <path
       style="opacity:0.30434786;fill:#ff0000;fill-rule:evenodd;stroke:#000000;stroke-width:1px;stroke-linecap:butt;stroke-linejoin:miter;stroke-opacity:1"
       d="m 744.97886,211.26521 0,259.4909 -216.37075,0 -7.70003,-150.92053 224.07078,-108.57037 z"
       id="path3324"
       sodipodi:nodetypes="ccccc"
       inkscape:connector-curvature="0" />
    <path
       style="opacity:0.30434786;fill:#0000ff;fill-rule:evenodd;stroke:#000000;stroke-width:1px;stroke-linecap:butt;stroke-linejoin:miter;stroke-opacity:1"
       d="m 277.58724,193.55515 244.09084,127.05044 224.07078,-109.34038 0,-121.660419 -468.16162,0 0,103.950359 z"
       id="path3326"
       inkscape:connector-curvature="0" />
    <path
       style="fill:none;stroke:#000000;stroke-width:3;stroke-linecap:butt;stroke-linejoin:miter;stroke-miterlimit:4;stroke-opacity:1;stroke-dasharray:none;marker-end:url(#TriangleOutM)"
       d="m 263.53933,482.63615 451.64867,0"
       id="path2166"
       sodipodi:nodetypes="cc"
       inkscape:connector-curvature="0" />
    <path
       style="fill:none;stroke:#000000;stroke-width:3;stroke-linecap:butt;stroke-linejoin:miter;stroke-miterlimit:4;stroke-opacity:1;stroke-dasharray:none;marker-end:url(#TriangleOutM)"
       d="m 264.65997,483.8357 0,-381.01691"
       id="path3337"
       sodipodi:nodetypes="cc"
       inkscape:connector-curvature="0" />
    <path
       sodipodi:type="arc"
       style="fill:#000000;fill-opacity:1;stroke:#000000;stroke-width:3;stroke-miterlimit:4;stroke-opacity:1;stroke-dasharray:none"
       id="path3341"
       sodipodi:cx="352.66122"
       sodipodi:cy="256.17944"
       sodipodi:rx="3.0800107"
       sodipodi:ry="3.0800107"
       d="m 355.74124,256.17944 c 0,1.70105 -1.37897,3.08001 -3.08002,3.08001 -1.70104,0 -3.08001,-1.37896 -3.08001,-3.08001 0,-1.70104 1.37897,-3.08001 3.08001,-3.08001 1.70105,0 3.08002,1.37897 3.08002,3.08001 z"
       transform="translate(59.600205,-7.8500206)" />
    <path
       sodipodi:type="arc"
       style="fill:#000000;fill-opacity:1;stroke:#000000;stroke-width:3;stroke-miterlimit:4;stroke-opacity:1;stroke-dasharray:none"
       id="path3345"
       sodipodi:cx="352.66122"
       sodipodi:cy="256.17944"
       sodipodi:rx="3.0800107"
       sodipodi:ry="3.0800107"
       d="m 355.74124,256.17944 c 0,1.70105 -1.37897,3.08001 -3.08002,3.08001 -1.70104,0 -3.08001,-1.37896 -3.08001,-3.08001 0,-1.70104 1.37897,-3.08001 3.08001,-3.08001 1.70105,0 3.08002,1.37897 3.08002,3.08001 z"
       transform="translate(124.28043,13.710054)" />
    <path
       sodipodi:type="arc"
       style="fill:#000000;fill-opacity:1;stroke:#000000;stroke-width:3;stroke-miterlimit:4;stroke-opacity:1;stroke-dasharray:none"
       id="path3347"
       sodipodi:cx="352.66122"
       sodipodi:cy="256.17944"
       sodipodi:rx="3.0800107"
       sodipodi:ry="3.0800107"
       d="m 355.74124,256.17944 c 0,1.70105 -1.37897,3.08001 -3.08002,3.08001 -1.70104,0 -3.08001,-1.37896 -3.08001,-3.08001 0,-1.70104 1.37897,-3.08001 3.08001,-3.08001 1.70105,0 3.08002,1.37897 3.08002,3.08001 z"
       transform="translate(112.73039,-23.250074)" />
    <path
       sodipodi:type="arc"
       style="fill:#000000;fill-opacity:1;stroke:#000000;stroke-width:3;stroke-miterlimit:4;stroke-opacity:1;stroke-dasharray:none"
       id="path3351"
       sodipodi:cx="352.66122"
       sodipodi:cy="256.17944"
       sodipodi:rx="3.0800107"
       sodipodi:ry="3.0800107"
       d="m 355.74124,256.17944 c 0,1.70105 -1.37897,3.08001 -3.08002,3.08001 -1.70104,0 -3.08001,-1.37896 -3.08001,-3.08001 0,-1.70104 1.37897,-3.08001 3.08001,-3.08001 1.70105,0 3.08002,1.37897 3.08002,3.08001 z"
       transform="translate(61.14021,154.62054)" />
    <path
       sodipodi:type="arc"
       style="fill:#000000;fill-opacity:1;stroke:#000000;stroke-width:3;stroke-miterlimit:4;stroke-opacity:1;stroke-dasharray:none"
       id="path3353"
       sodipodi:cx="352.66122"
       sodipodi:cy="256.17944"
       sodipodi:rx="3.0800107"
       sodipodi:ry="3.0800107"
       d="m 355.74124,256.17944 c 0,1.70105 -1.37897,3.08001 -3.08002,3.08001 -1.70104,0 -3.08001,-1.37896 -3.08001,-3.08001 0,-1.70104 1.37897,-3.08001 3.08001,-3.08001 1.70105,0 3.08002,1.37897 3.08002,3.08001 z"
       transform="translate(25.720088,104.57037)" />
    <path
       sodipodi:type="arc"
       style="fill:#000000;fill-opacity:1;stroke:#000000;stroke-width:3;stroke-miterlimit:4;stroke-opacity:1;stroke-dasharray:none"
       id="path3355"
       sodipodi:cx="352.66122"
       sodipodi:cy="256.17944"
       sodipodi:rx="3.0800107"
       sodipodi:ry="3.0800107"
       d="m 355.74124,256.17944 c 0,1.70105 -1.37897,3.08001 -3.08002,3.08001 -1.70104,0 -3.08001,-1.37896 -3.08001,-3.08001 0,-1.70104 1.37897,-3.08001 3.08001,-3.08001 1.70105,0 3.08002,1.37897 3.08002,3.08001 z"
       transform="translate(200.51069,-10.160029)" />
    <path
       sodipodi:type="arc"
       style="fill:#000000;fill-opacity:1;stroke:#000000;stroke-width:3;stroke-miterlimit:4;stroke-opacity:1;stroke-dasharray:none"
       id="path3357"
       sodipodi:cx="352.66122"
       sodipodi:cy="256.17944"
       sodipodi:rx="3.0800107"
       sodipodi:ry="3.0800107"
       d="m 355.74124,256.17944 c 0,1.70105 -1.37897,3.08001 -3.08002,3.08001 -1.70104,0 -3.08001,-1.37896 -3.08001,-3.08001 0,-1.70104 1.37897,-3.08001 3.08001,-3.08001 1.70105,0 3.08002,1.37897 3.08002,3.08001 z"
       transform="translate(192.81066,-87.160294)" />
    <path
       sodipodi:type="arc"
       style="fill:#000000;fill-opacity:1;stroke:#000000;stroke-width:3;stroke-miterlimit:4;stroke-opacity:1;stroke-dasharray:none"
       id="path3359"
       sodipodi:cx="352.66122"
       sodipodi:cy="256.17944"
       sodipodi:rx="3.0800107"
       sodipodi:ry="3.0800107"
       d="m 355.74124,256.17944 c 0,1.70105 -1.37897,3.08001 -3.08002,3.08001 -1.70104,0 -3.08001,-1.37896 -3.08001,-3.08001 0,-1.70104 1.37897,-3.08001 3.08001,-3.08001 1.70105,0 3.08002,1.37897 3.08002,3.08001 z"
       transform="translate(116.5804,-84.850286)" />
    <path
       sodipodi:type="arc"
       style="fill:#000000;fill-opacity:1;stroke:#000000;stroke-width:3;stroke-miterlimit:4;stroke-opacity:1;stroke-dasharray:none"
       id="path3363"
       sodipodi:cx="352.66122"
       sodipodi:cy="256.17944"
       sodipodi:rx="3.0800107"
       sodipodi:ry="3.0800107"
       d="m 355.74124,256.17944 c 0,1.70105 -1.37897,3.08001 -3.08002,3.08001 -1.70104,0 -3.08001,-1.37896 -3.08001,-3.08001 0,-1.70104 1.37897,-3.08001 3.08001,-3.08001 1.70105,0 3.08002,1.37897 3.08002,3.08001 z"
       transform="translate(7.2400241,76.850272)" />
    <path
       sodipodi:type="arc"
       style="fill:#000000;fill-opacity:1;stroke:#000000;stroke-width:3;stroke-miterlimit:4;stroke-opacity:1;stroke-dasharray:none"
       id="path3367"
       sodipodi:cx="352.66122"
       sodipodi:cy="256.17944"
       sodipodi:rx="3.0800107"
       sodipodi:ry="3.0800107"
       d="m 355.74124,256.17944 c 0,1.70105 -1.37897,3.08001 -3.08002,3.08001 -1.70104,0 -3.08001,-1.37896 -3.08001,-3.08001 0,-1.70104 1.37897,-3.08001 3.08001,-3.08001 1.70105,0 3.08002,1.37897 3.08002,3.08001 z"
       transform="translate(247.48085,62.990224)" />
    <path
       sodipodi:type="arc"
       style="fill:#000000;fill-opacity:1;stroke:#000000;stroke-width:3;stroke-miterlimit:4;stroke-opacity:1;stroke-dasharray:none"
       id="path3371"
       sodipodi:cx="352.66122"
       sodipodi:cy="256.17944"
       sodipodi:rx="3.0800107"
       sodipodi:ry="3.0800107"
       d="m 355.74124,256.17944 c 0,1.70105 -1.37897,3.08001 -3.08002,3.08001 -1.70104,0 -3.08001,-1.37896 -3.08001,-3.08001 0,-1.70104 1.37897,-3.08001 3.08001,-3.08001 1.70105,0 3.08002,1.37897 3.08002,3.08001 z"
       transform="translate(-15.860056,183.88064)" />
    <path
       sodipodi:type="arc"
       style="fill:#000000;fill-opacity:1;stroke:#000000;stroke-width:3;stroke-miterlimit:4;stroke-opacity:1;stroke-dasharray:none"
       id="path3373"
       sodipodi:cx="352.66122"
       sodipodi:cy="256.17944"
       sodipodi:rx="3.0800107"
       sodipodi:ry="3.0800107"
       d="m 355.74124,256.17944 c 0,1.70105 -1.37897,3.08001 -3.08002,3.08001 -1.70104,0 -3.08001,-1.37896 -3.08001,-3.08001 0,-1.70104 1.37897,-3.08001 3.08001,-3.08001 1.70105,0 3.08002,1.37897 3.08002,3.08001 z"
       transform="translate(-52.05018,136.91048)" />
    <path
       sodipodi:type="arc"
       style="fill:#000000;fill-opacity:1;stroke:#000000;stroke-width:3;stroke-miterlimit:4;stroke-opacity:1;stroke-dasharray:none"
       id="path3375"
       sodipodi:cx="352.66122"
       sodipodi:cy="256.17944"
       sodipodi:rx="3.0800107"
       sodipodi:ry="3.0800107"
       d="m 355.74124,256.17944 c 0,1.70105 -1.37897,3.08001 -3.08002,3.08001 -1.70104,0 -3.08001,-1.37896 -3.08001,-3.08001 0,-1.70104 1.37897,-3.08001 3.08001,-3.08001 1.70105,0 3.08002,1.37897 3.08002,3.08001 z"
       transform="translate(273.66094,-41.730137)" />
    <path
       sodipodi:type="arc"
       style="fill:#000000;fill-opacity:1;stroke:#000000;stroke-width:3;stroke-miterlimit:4;stroke-opacity:1;stroke-dasharray:none"
       id="path3377"
       sodipodi:cx="352.66122"
       sodipodi:cy="256.17944"
       sodipodi:rx="3.0800107"
       sodipodi:ry="3.0800107"
       d="m 355.74124,256.17944 c 0,1.70105 -1.37897,3.08001 -3.08002,3.08001 -1.70104,0 -3.08001,-1.37896 -3.08001,-3.08001 0,-1.70104 1.37897,-3.08001 3.08001,-3.08001 1.70105,0 3.08002,1.37897 3.08002,3.08001 z"
       transform="translate(178.95062,-56.360188)" />
    <path
       sodipodi:type="arc"
       style="fill:#000000;fill-opacity:1;stroke:#000000;stroke-width:3;stroke-miterlimit:4;stroke-opacity:1;stroke-dasharray:none"
       id="path3379"
       sodipodi:cx="352.66122"
       sodipodi:cy="256.17944"
       sodipodi:rx="3.0800107"
       sodipodi:ry="3.0800107"
       d="m 355.74124,256.17944 c 0,1.70105 -1.37897,3.08001 -3.08002,3.08001 -1.70104,0 -3.08001,-1.37896 -3.08001,-3.08001 0,-1.70104 1.37897,-3.08001 3.08001,-3.08001 1.70105,0 3.08002,1.37897 3.08002,3.08001 z"
       transform="translate(160.47055,-30.9501)" />
    <path
       sodipodi:type="arc"
       style="fill:#000000;fill-opacity:1;stroke:#000000;stroke-width:3;stroke-miterlimit:4;stroke-opacity:1;stroke-dasharray:none"
       id="path3381"
       sodipodi:cx="352.66122"
       sodipodi:cy="256.17944"
       sodipodi:rx="3.0800107"
       sodipodi:ry="3.0800107"
       d="m 355.74124,256.17944 c 0,1.70105 -1.37897,3.08001 -3.08002,3.08001 -1.70104,0 -3.08001,-1.37896 -3.08001,-3.08001 0,-1.70104 1.37897,-3.08001 3.08001,-3.08001 1.70105,0 3.08002,1.37897 3.08002,3.08001 z"
       transform="translate(169.71058,-1.6899993)" />
    <path
       sodipodi:type="arc"
       style="fill:#000000;fill-opacity:1;stroke:#000000;stroke-width:3;stroke-miterlimit:4;stroke-opacity:1;stroke-dasharray:none"
       id="path3383"
       sodipodi:cx="352.66122"
       sodipodi:cy="256.17944"
       sodipodi:rx="3.0800107"
       sodipodi:ry="3.0800107"
       d="m 355.74124,256.17944 c 0,1.70105 -1.37897,3.08001 -3.08002,3.08001 -1.70104,0 -3.08001,-1.37896 -3.08001,-3.08001 0,-1.70104 1.37897,-3.08001 3.08001,-3.08001 1.70105,0 3.08002,1.37897 3.08002,3.08001 z"
       transform="translate(220.53076,19.870075)" />
    <path
       sodipodi:type="arc"
       style="fill:#000000;fill-opacity:1;stroke:#000000;stroke-width:3;stroke-miterlimit:4;stroke-opacity:1;stroke-dasharray:none"
       id="path3385"
       sodipodi:cx="352.66122"
       sodipodi:cy="256.17944"
       sodipodi:rx="3.0800107"
       sodipodi:ry="3.0800107"
       d="m 355.74124,256.17944 c 0,1.70105 -1.37897,3.08001 -3.08002,3.08001 -1.70104,0 -3.08001,-1.37896 -3.08001,-3.08001 0,-1.70104 1.37897,-3.08001 3.08001,-3.08001 1.70105,0 3.08002,1.37897 3.08002,3.08001 z"
       transform="translate(125.82043,-57.900193)" />
    <path
       sodipodi:type="arc"
       style="fill:#000000;fill-opacity:1;stroke:#000000;stroke-width:3;stroke-miterlimit:4;stroke-opacity:1;stroke-dasharray:none"
       id="path3387"
       sodipodi:cx="352.66122"
       sodipodi:cy="256.17944"
       sodipodi:rx="3.0800107"
       sodipodi:ry="3.0800107"
       d="m 355.74124,256.17944 c 0,1.70105 -1.37897,3.08001 -3.08002,3.08001 -1.70104,0 -3.08001,-1.37896 -3.08001,-3.08001 0,-1.70104 1.37897,-3.08001 3.08001,-3.08001 1.70105,0 3.08002,1.37897 3.08002,3.08001 z"
       transform="translate(-5.8500211,146.15051)" />
    <path
       sodipodi:type="arc"
       style="fill:#000000;fill-opacity:1;stroke:#000000;stroke-width:3;stroke-miterlimit:4;stroke-opacity:1;stroke-dasharray:none"
       id="path3389"
       sodipodi:cx="352.66122"
       sodipodi:cy="256.17944"
       sodipodi:rx="3.0800107"
       sodipodi:ry="3.0800107"
       d="m 355.74124,256.17944 c 0,1.70105 -1.37897,3.08001 -3.08002,3.08001 -1.70104,0 -3.08001,-1.37896 -3.08001,-3.08001 0,-1.70104 1.37897,-3.08001 3.08001,-3.08001 1.70105,0 3.08002,1.37897 3.08002,3.08001 z"
       transform="translate(23.41008,173.1006)" />
    <path
       sodipodi:type="arc"
       style="fill:#000000;fill-opacity:1;stroke:#000000;stroke-width:3;stroke-miterlimit:4;stroke-opacity:1;stroke-dasharray:none"
       id="path3391"
       sodipodi:cx="352.66122"
       sodipodi:cy="256.17944"
       sodipodi:rx="3.0800107"
       sodipodi:ry="3.0800107"
       d="m 355.74124,256.17944 c 0,1.70105 -1.37897,3.08001 -3.08002,3.08001 -1.70104,0 -3.08001,-1.37896 -3.08001,-3.08001 0,-1.70104 1.37897,-3.08001 3.08001,-3.08001 1.70105,0 3.08002,1.37897 3.08002,3.08001 z"
       transform="translate(2.6200081,200.8207)" />
    <path
       sodipodi:type="arc"
       style="fill:#000000;fill-opacity:1;stroke:#000000;stroke-width:3;stroke-miterlimit:4;stroke-opacity:1;stroke-dasharray:none"
       id="path3393"
       sodipodi:cx="352.66122"
       sodipodi:cy="256.17944"
       sodipodi:rx="3.0800107"
       sodipodi:ry="3.0800107"
       d="m 355.74124,256.17944 c 0,1.70105 -1.37897,3.08001 -3.08002,3.08001 -1.70104,0 -3.08001,-1.37896 -3.08001,-3.08001 0,-1.70104 1.37897,-3.08001 3.08001,-3.08001 1.70105,0 3.08002,1.37897 3.08002,3.08001 z"
       transform="translate(11.090037,166.17058)" />
    <path
       sodipodi:type="arc"
       style="fill:#000000;fill-opacity:1;stroke:#000000;stroke-width:3;stroke-miterlimit:4;stroke-opacity:1;stroke-dasharray:none"
       id="path3395"
       sodipodi:cx="352.66122"
       sodipodi:cy="256.17944"
       sodipodi:rx="3.0800107"
       sodipodi:ry="3.0800107"
       d="m 355.74124,256.17944 c 0,1.70105 -1.37897,3.08001 -3.08002,3.08001 -1.70104,0 -3.08001,-1.37896 -3.08001,-3.08001 0,-1.70104 1.37897,-3.08001 3.08001,-3.08001 1.70105,0 3.08002,1.37897 3.08002,3.08001 z"
       transform="translate(30.340104,119.20042)" />
    <path
       sodipodi:type="arc"
       style="fill:#000000;fill-opacity:1;stroke:#000000;stroke-width:3;stroke-miterlimit:4;stroke-opacity:1;stroke-dasharray:none"
       id="path3397"
       sodipodi:cx="352.66122"
       sodipodi:cy="256.17944"
       sodipodi:rx="3.0800107"
       sodipodi:ry="3.0800107"
       d="m 355.74124,256.17944 c 0,1.70105 -1.37897,3.08001 -3.08002,3.08001 -1.70104,0 -3.08001,-1.37896 -3.08001,-3.08001 0,-1.70104 1.37897,-3.08001 3.08001,-3.08001 1.70105,0 3.08002,1.37897 3.08002,3.08001 z"
       transform="translate(64.220221,99.18035)" />
    <path
       sodipodi:type="arc"
       style="fill:#000000;fill-opacity:1;stroke:#000000;stroke-width:3;stroke-miterlimit:4;stroke-opacity:1;stroke-dasharray:none"
       id="path3399"
       sodipodi:cx="352.66122"
       sodipodi:cy="256.17944"
       sodipodi:rx="3.0800107"
       sodipodi:ry="3.0800107"
       d="m 355.74124,256.17944 c 0,1.70105 -1.37897,3.08001 -3.08002,3.08001 -1.70104,0 -3.08001,-1.37896 -3.08001,-3.08001 0,-1.70104 1.37897,-3.08001 3.08001,-3.08001 1.70105,0 3.08002,1.37897 3.08002,3.08001 z"
       transform="translate(1.0800028,111.50039)" />
    <path
       sodipodi:type="arc"
       style="fill:#000000;fill-opacity:1;stroke:#000000;stroke-width:3;stroke-miterlimit:4;stroke-opacity:1;stroke-dasharray:none"
       id="path3401"
       sodipodi:cx="352.66122"
       sodipodi:cy="256.17944"
       sodipodi:rx="3.0800107"
       sodipodi:ry="3.0800107"
       d="m 355.74124,256.17944 c 0,1.70105 -1.37897,3.08001 -3.08002,3.08001 -1.70104,0 -3.08001,-1.37896 -3.08001,-3.08001 0,-1.70104 1.37897,-3.08001 3.08001,-3.08001 1.70105,0 3.08002,1.37897 3.08002,3.08001 z"
       transform="translate(23.41008,139.22049)" />
    <path
       sodipodi:type="arc"
       style="fill:#000000;fill-opacity:1;stroke:#000000;stroke-width:3;stroke-miterlimit:4;stroke-opacity:1;stroke-dasharray:none"
       id="path3339"
       sodipodi:cx="352.66122"
       sodipodi:cy="256.17944"
       sodipodi:rx="3.0800107"
       sodipodi:ry="3.0800107"
       d="m 355.74124,256.17944 c 0,1.70105 -1.37897,3.08001 -3.08002,3.08001 -1.70104,0 -3.08001,-1.37896 -3.08001,-3.08001 0,-1.70104 1.37897,-3.08001 3.08001,-3.08001 1.70105,0 3.08002,1.37897 3.08002,3.08001 z"
       transform="translate(225.15078,-35.570116)" />
    <path
       sodipodi:type="arc"
       style="fill:#000000;fill-opacity:1;stroke:#000000;stroke-width:3;stroke-miterlimit:4;stroke-opacity:1;stroke-dasharray:none"
       id="path3406"
       sodipodi:cx="352.66122"
       sodipodi:cy="256.17944"
       sodipodi:rx="3.0800107"
       sodipodi:ry="3.0800107"
       d="m 355.74124,256.17944 c 0,1.70105 -1.37897,3.08001 -3.08002,3.08001 -1.70104,0 -3.08001,-1.37896 -3.08001,-3.08001 0,-1.70104 1.37897,-3.08001 3.08001,-3.08001 1.70105,0 3.08002,1.37897 3.08002,3.08001 z"
       transform="translate(198.97069,-31.720103)" />
    <path
       sodipodi:type="arc"
       style="fill:#000000;fill-opacity:1;stroke:#000000;stroke-width:3;stroke-miterlimit:4;stroke-opacity:1;stroke-dasharray:none"
       id="path3408"
       sodipodi:cx="352.66122"
       sodipodi:cy="256.17944"
       sodipodi:rx="3.0800107"
       sodipodi:ry="3.0800107"
       d="m 355.74124,256.17944 c 0,1.70105 -1.37897,3.08001 -3.08002,3.08001 -1.70104,0 -3.08001,-1.37896 -3.08001,-3.08001 0,-1.70104 1.37897,-3.08001 3.08001,-3.08001 1.70105,0 3.08002,1.37897 3.08002,3.08001 z"
       transform="translate(208.98072,-59.440199)" />
    <path
       sodipodi:type="arc"
       style="fill:#000000;fill-opacity:1;stroke:#000000;stroke-width:3;stroke-miterlimit:4;stroke-opacity:1;stroke-dasharray:none"
       id="path4381"
       sodipodi:cx="352.66122"
       sodipodi:cy="256.17944"
       sodipodi:rx="3.0800107"
       sodipodi:ry="3.0800107"
       d="m 355.74124,256.17944 c 0,1.70105 -1.37897,3.08001 -3.08002,3.08001 -1.70104,0 -3.08001,-1.37896 -3.08001,-3.08001 0,-1.70104 1.37897,-3.08001 3.08001,-3.08001 1.70105,0 3.08002,1.37897 3.08002,3.08001 z"
       transform="translate(251.33087,143.0705)" />
    <path
       sodipodi:type="arc"
       style="fill:#000000;fill-opacity:1;stroke:#000000;stroke-width:3;stroke-miterlimit:4;stroke-opacity:1;stroke-dasharray:none"
       id="path4383"
       sodipodi:cx="352.66122"
       sodipodi:cy="256.17944"
       sodipodi:rx="3.0800107"
       sodipodi:ry="3.0800107"
       d="m 355.74124,256.17944 c 0,1.70105 -1.37897,3.08001 -3.08002,3.08001 -1.70104,0 -3.08001,-1.37896 -3.08001,-3.08001 0,-1.70104 1.37897,-3.08001 3.08001,-3.08001 1.70105,0 3.08002,1.37897 3.08002,3.08001 z"
       transform="translate(249.79086,159.24056)" />
    <path
       sodipodi:type="arc"
       style="fill:#000000;fill-opacity:1;stroke:#000000;stroke-width:3;stroke-miterlimit:4;stroke-opacity:1;stroke-dasharray:none"
       id="path4385"
       sodipodi:cx="352.66122"
       sodipodi:cy="256.17944"
       sodipodi:rx="3.0800107"
       sodipodi:ry="3.0800107"
       d="m 355.74124,256.17944 c 0,1.70105 -1.37897,3.08001 -3.08002,3.08001 -1.70104,0 -3.08001,-1.37896 -3.08001,-3.08001 0,-1.70104 1.37897,-3.08001 3.08001,-3.08001 1.70105,0 3.08002,1.37897 3.08002,3.08001 z"
       transform="translate(282.13097,152.31053)" />
    <path
       sodipodi:type="arc"
       style="fill:#000000;fill-opacity:1;stroke:#000000;stroke-width:3;stroke-miterlimit:4;stroke-opacity:1;stroke-dasharray:none"
       id="path4387"
       sodipodi:cx="352.66122"
       sodipodi:cy="256.17944"
       sodipodi:rx="3.0800107"
       sodipodi:ry="3.0800107"
       d="m 355.74124,256.17944 c 0,1.70105 -1.37897,3.08001 -3.08002,3.08001 -1.70104,0 -3.08001,-1.37896 -3.08001,-3.08001 0,-1.70104 1.37897,-3.08001 3.08001,-3.08001 1.70105,0 3.08002,1.37897 3.08002,3.08001 z"
       transform="translate(262.1109,99.95035)" />
    <path
       sodipodi:type="arc"
       style="fill:#000000;fill-opacity:1;stroke:#000000;stroke-width:3;stroke-miterlimit:4;stroke-opacity:1;stroke-dasharray:none"
       id="path4389"
       sodipodi:cx="352.66122"
       sodipodi:cy="256.17944"
       sodipodi:rx="3.0800107"
       sodipodi:ry="3.0800107"
       d="m 355.74124,256.17944 c 0,1.70105 -1.37897,3.08001 -3.08002,3.08001 -1.70104,0 -3.08001,-1.37896 -3.08001,-3.08001 0,-1.70104 1.37897,-3.08001 3.08001,-3.08001 1.70105,0 3.08002,1.37897 3.08002,3.08001 z"
       transform="translate(277.51096,128.44045)" />
    <path
       sodipodi:type="arc"
       style="fill:#000000;fill-opacity:1;stroke:#000000;stroke-width:3;stroke-miterlimit:4;stroke-opacity:1;stroke-dasharray:none"
       id="path4391"
       sodipodi:cx="352.66122"
       sodipodi:cy="256.17944"
       sodipodi:rx="3.0800107"
       sodipodi:ry="3.0800107"
       d="m 355.74124,256.17944 c 0,1.70105 -1.37897,3.08001 -3.08002,3.08001 -1.70104,0 -3.08001,-1.37896 -3.08001,-3.08001 0,-1.70104 1.37897,-3.08001 3.08001,-3.08001 1.70105,0 3.08002,1.37897 3.08002,3.08001 z"
       transform="translate(292.91101,123.05043)" />
    <path
       sodipodi:type="arc"
       style="fill:#000000;fill-opacity:1;stroke:#000000;stroke-width:3;stroke-miterlimit:4;stroke-opacity:1;stroke-dasharray:none"
       id="path4393"
       sodipodi:cx="352.66122"
       sodipodi:cy="256.17944"
       sodipodi:rx="3.0800107"
       sodipodi:ry="3.0800107"
       d="m 355.74124,256.17944 c 0,1.70105 -1.37897,3.08001 -3.08002,3.08001 -1.70104,0 -3.08001,-1.37896 -3.08001,-3.08001 0,-1.70104 1.37897,-3.08001 3.08001,-3.08001 1.70105,0 3.08002,1.37897 3.08002,3.08001 z"
       transform="translate(246.71085,121.51043)" />
    <path
       sodipodi:type="arc"
       style="fill:#000000;fill-opacity:1;stroke:#000000;stroke-width:3;stroke-miterlimit:4;stroke-opacity:1;stroke-dasharray:none"
       id="path4395"
       sodipodi:cx="352.66122"
       sodipodi:cy="256.17944"
       sodipodi:rx="3.0800107"
       sodipodi:ry="3.0800107"
       d="m 355.74124,256.17944 c 0,1.70105 -1.37897,3.08001 -3.08002,3.08001 -1.70104,0 -3.08001,-1.37896 -3.08001,-3.08001 0,-1.70104 1.37897,-3.08001 3.08001,-3.08001 1.70105,0 3.08002,1.37897 3.08002,3.08001 z"
       transform="translate(280.59097,109.19038)" />
    <path
       sodipodi:type="arc"
       style="fill:#000000;fill-opacity:1;stroke:#000000;stroke-width:3;stroke-miterlimit:4;stroke-opacity:1;stroke-dasharray:none"
       id="path4397"
       sodipodi:cx="352.66122"
       sodipodi:cy="256.17944"
       sodipodi:rx="3.0800107"
       sodipodi:ry="3.0800107"
       d="m 355.74124,256.17944 c 0,1.70105 -1.37897,3.08001 -3.08002,3.08001 -1.70104,0 -3.08001,-1.37896 -3.08001,-3.08001 0,-1.70104 1.37897,-3.08001 3.08001,-3.08001 1.70105,0 3.08002,1.37897 3.08002,3.08001 z"
       transform="translate(297.53103,81.470288)" />
    <path
       sodipodi:type="arc"
       style="fill:#000000;fill-opacity:1;stroke:#000000;stroke-width:3;stroke-miterlimit:4;stroke-opacity:1;stroke-dasharray:none"
       id="path4399"
       sodipodi:cx="352.66122"
       sodipodi:cy="256.17944"
       sodipodi:rx="3.0800107"
       sodipodi:ry="3.0800107"
       d="m 355.74124,256.17944 c 0,1.70105 -1.37897,3.08001 -3.08002,3.08001 -1.70104,0 -3.08001,-1.37896 -3.08001,-3.08001 0,-1.70104 1.37897,-3.08001 3.08001,-3.08001 1.70105,0 3.08002,1.37897 3.08002,3.08001 z"
       transform="translate(320.63111,156.16055)" />
    <path
       sodipodi:type="arc"
       style="fill:#000000;fill-opacity:1;stroke:#000000;stroke-width:3;stroke-miterlimit:4;stroke-opacity:1;stroke-dasharray:none"
       id="path4401"
       sodipodi:cx="352.66122"
       sodipodi:cy="256.17944"
       sodipodi:rx="3.0800107"
       sodipodi:ry="3.0800107"
       d="m 355.74124,256.17944 c 0,1.70105 -1.37897,3.08001 -3.08002,3.08001 -1.70104,0 -3.08001,-1.37896 -3.08001,-3.08001 0,-1.70104 1.37897,-3.08001 3.08001,-3.08001 1.70105,0 3.08002,1.37897 3.08002,3.08001 z"
       transform="translate(285.21098,171.5606)" />
    <path
       sodipodi:type="arc"
       style="fill:#000000;fill-opacity:1;stroke:#000000;stroke-width:3;stroke-miterlimit:4;stroke-opacity:1;stroke-dasharray:none"
       id="path4403"
       sodipodi:cx="352.66122"
       sodipodi:cy="256.17944"
       sodipodi:rx="3.0800107"
       sodipodi:ry="3.0800107"
       d="m 355.74124,256.17944 c 0,1.70105 -1.37897,3.08001 -3.08002,3.08001 -1.70104,0 -3.08001,-1.37896 -3.08001,-3.08001 0,-1.70104 1.37897,-3.08001 3.08001,-3.08001 1.70105,0 3.08002,1.37897 3.08002,3.08001 z"
       transform="translate(226.69078,188.50066)" />
    <path
       sodipodi:type="arc"
       style="fill:#000000;fill-opacity:1;stroke:#000000;stroke-width:3;stroke-miterlimit:4;stroke-opacity:1;stroke-dasharray:none"
       id="path4405"
       sodipodi:cx="352.66122"
       sodipodi:cy="256.17944"
       sodipodi:rx="3.0800107"
       sodipodi:ry="3.0800107"
       d="m 355.74124,256.17944 c 0,1.70105 -1.37897,3.08001 -3.08002,3.08001 -1.70104,0 -3.08001,-1.37896 -3.08001,-3.08001 0,-1.70104 1.37897,-3.08001 3.08001,-3.08001 1.70105,0 3.08002,1.37897 3.08002,3.08001 z"
       transform="translate(215.14074,144.61051)" />
    <path
       sodipodi:type="arc"
       style="fill:#000000;fill-opacity:1;stroke:#000000;stroke-width:3;stroke-miterlimit:4;stroke-opacity:1;stroke-dasharray:none"
       id="path4407"
       sodipodi:cx="352.66122"
       sodipodi:cy="256.17944"
       sodipodi:rx="3.0800107"
       sodipodi:ry="3.0800107"
       d="m 355.74124,256.17944 c 0,1.70105 -1.37897,3.08001 -3.08002,3.08001 -1.70104,0 -3.08001,-1.37896 -3.08001,-3.08001 0,-1.70104 1.37897,-3.08001 3.08001,-3.08001 1.70105,0 3.08002,1.37897 3.08002,3.08001 z"
       transform="translate(142.76049,81.470288)" />
    <text
       xml:space="preserve"
       style="font-size:11px;font-style:normal;font-weight:normal;fill:#000000;fill-opacity:1;stroke:none;font-family:Bitstream Vera Sans"
       x="738.3916"
       y="486.30615"
       id="text4599"><tspan
         sodipodi:role="line"
         id="tspan4601"
         x="738.3916"
         y="486.30615"
         style="font-size:20px">Variable 1</tspan></text>
    <text
       xml:space="preserve"
       style="font-size:11px;font-style:normal;font-weight:normal;fill:#000000;fill-opacity:1;stroke:none;font-family:Bitstream Vera Sans"
       x="227.87987"
       y="85.134758"
       id="text4603"><tspan
         sodipodi:role="line"
         id="tspan4605"
         x="227.87987"
         y="85.134758"
         style="font-size:20px">Variable 2</tspan></text>
    <path
       sodipodi:type="arc"
       style="fill:#00ff00;fill-opacity:1;stroke:#00ff00;stroke-width:3;stroke-miterlimit:4;stroke-opacity:1;stroke-dasharray:none"
       id="path2329"
       sodipodi:cx="352.66122"
       sodipodi:cy="256.17944"
       sodipodi:rx="3.0800107"
       sodipodi:ry="3.0800107"
       d="m 355.74124,256.17944 c 0,1.70105 -1.37897,3.08001 -3.08002,3.08001 -1.70104,0 -3.08001,-1.37896 -3.08001,-3.08001 0,-1.70104 1.37897,-3.08001 3.08001,-3.08001 1.70105,0 3.08002,1.37897 3.08002,3.08001 z"
       transform="translate(65.836502,138.3464)" />
    <path
       sodipodi:type="arc"
       style="fill:#ff0000;fill-opacity:1;stroke:#fe0000;stroke-width:3;stroke-miterlimit:4;stroke-opacity:1;stroke-dasharray:none"
       id="path3300"
       sodipodi:cx="352.66122"
       sodipodi:cy="256.17944"
       sodipodi:rx="3.0800107"
       sodipodi:ry="3.0800107"
       d="m 355.74124,256.17944 c 0,1.70105 -1.37897,3.08001 -3.08002,3.08001 -1.70104,0 -3.08001,-1.37896 -3.08001,-3.08001 0,-1.70104 1.37897,-3.08001 3.08001,-3.08001 1.70105,0 3.08002,1.37897 3.08002,3.08001 z"
       transform="translate(274.50723,126.02636)" />
    <path
       sodipodi:type="arc"
       style="fill:#0000ff;fill-opacity:1;stroke:#0000ff;stroke-width:3;stroke-miterlimit:4;stroke-opacity:1;stroke-dasharray:none"
       id="path3302"
       sodipodi:cx="352.66122"
       sodipodi:cy="256.17944"
       sodipodi:rx="3.0800107"
       sodipodi:ry="3.0800107"
       d="m 355.74124,256.17944 c 0,1.70105 -1.37897,3.08001 -3.08002,3.08001 -1.70104,0 -3.08001,-1.37896 -3.08001,-3.08001 0,-1.70104 1.37897,-3.08001 3.08001,-3.08001 1.70105,0 3.08002,1.37897 3.08002,3.08001 z"
       transform="translate(178.25689,-53.38426)" />
    <path
       style="fill:none;stroke:#000000;stroke-width:1px;stroke-linecap:butt;stroke-linejoin:miter;stroke-opacity:1"
       d="M 290.67728,201.25518 521.67809,321.3756"
       id="path3304"
       sodipodi:nodetypes="cc"
       inkscape:connector-curvature="0" />
    <path
       style="fill:none;stroke:#000000;stroke-width:1px;stroke-linecap:butt;stroke-linejoin:miter;stroke-opacity:1"
       d="M 744.97887,212.03521 519.36808,321.37559"
       id="path3306"
       sodipodi:nodetypes="cc"
       inkscape:connector-curvature="0" />
    <path
       style="fill:none;stroke:#000000;stroke-width:1px;stroke-linecap:butt;stroke-linejoin:miter;stroke-opacity:1"
       d="m 520.90808,322.1456 8.47003,147.84051"
       id="path3308"
       sodipodi:nodetypes="cc"
       inkscape:connector-curvature="0" />
    <path
       style="fill:none;stroke:#000000;stroke-width:1px;stroke-linecap:butt;stroke-linejoin:miter;stroke-opacity:1"
       d="m 530.14811,202.02518 c 0,0.25666 0,0.51333 0,0 z"
       id="path3310"
       inkscape:connector-curvature="0" />
    <path
       style="fill:none;stroke:#000000;stroke-width:1px;stroke-linecap:butt;stroke-linejoin:miter;stroke-opacity:1"
       d="m 189.42066,320.16756 c 0,-0.25667 0,-0.51334 0,0 z"
       id="path4297"
       transform="translate(227.99706,73.738274)"
       inkscape:connector-curvature="0" />
  </g>
</svg>
