<?xml version="1.0" encoding="UTF-8" standalone="no"?>
<!-- Created with Inkscape (http://www.inkscape.org/) -->
<svg
   xmlns:dc="http://purl.org/dc/elements/1.1/"
   xmlns:cc="http://web.resource.org/cc/"
   xmlns:rdf="http://www.w3.org/1999/02/22-rdf-syntax-ns#"
   xmlns:svg="http://www.w3.org/2000/svg"
   xmlns="http://www.w3.org/2000/svg"
   xmlns:sodipodi="http://sodipodi.sourceforge.net/DTD/sodipodi-0.dtd"
   xmlns:inkscape="http://www.inkscape.org/namespaces/inkscape"
   width="1052.1246"
   height="1133.9225"
   id="svg2"
   sodipodi:version="0.32"
   inkscape:version="0.45"
   sodipodi:modified="true"
   version="1.0">
  <defs
     id="defs4" />
  <sodipodi:namedview
     id="base"
     pagecolor="#ffffff"
     bordercolor="#666666"
     borderopacity="1.0"
     inkscape:pageopacity="0.0"
     inkscape:pageshadow="2"
     inkscape:zoom="0.35"
     inkscape:cx="350"
     inkscape:cy="520"
     inkscape:document-units="px"
     inkscape:current-layer="layer1"
     inkscape:window-width="1024"
     inkscape:window-height="715"
     inkscape:window-x="0"
     inkscape:window-y="0" />
  <metadata
     id="metadata7">
    <rdf:RDF>
      <cc:Work
         rdf:about="">
        <dc:format>image/svg+xml</dc:format>
        <dc:type
           rdf:resource="http://purl.org/dc/dcmitype/StillImage" />
      </cc:Work>
    </rdf:RDF>
  </metadata>
  <g
     inkscape:label="Capa 1"
     inkscape:groupmode="layer"
     id="layer1"
     transform="translate(-254.31814,-44.301306)">
    <path
       style="fill:#ffffff;fill-opacity:1;fill-rule:evenodd;stroke:#ffffff;stroke-width:1px;stroke-linecap:butt;stroke-linejoin:miter;stroke-opacity:1"
       d="M 345.71429,80.933611 C 349.87415,90.309693 352.55558,100.33049 357.14286,109.50504 C 357.71854,110.65641 342.85714,86.116558 342.85714,112.36218 C 342.85714,119.94245 374.74222,152.81869 377.14286,155.21933 C 410.21893,188.2954 413.72308,186.6479 462.85714,186.6479 C 492.47566,186.6479 506.44134,209.50504 531.42857,209.50504 C 539.54236,209.50504 555.58797,183.95918 560,178.07647 C 569.54629,165.34808 568.57143,151.83353 568.57143,135.21933 C 568.57143,122.21121 551.87089,101.81825 545.71429,89.50504 C 534.61912,67.314706 517.42426,62.502884 497.14286,52.362183 C 492.55558,50.068546 487.61905,48.552659 482.85714,46.647897 C 472.47007,42.493067 451.36762,46.647897 440,46.647897 C 422.90475,46.647897 406.18083,59.271769 391.42857,66.647897 C 389.7249,67.499732 387.61905,66.647897 385.71429,66.647897 C 373.85333,66.647897 359.12163,78.252142 345.71429,80.933611 z "
       id="path2168" />
    <path
       sodipodi:type="arc"
       style="fill:#ffffff;fill-opacity:1;stroke:#000000;stroke-width:3.15614319;stroke-miterlimit:4;stroke-dasharray:25.24914524, 25.24914524;stroke-dashoffset:0;stroke-opacity:1"
       id="path3141"
       sodipodi:cx="-115.71429"
       sodipodi:cy="69.505043"
       sodipodi:rx="172.85715"
       sodipodi:ry="191.42857"
       d="M 57.14286 69.505043 A 172.85715 191.42857 0 1 1  -288.57143,69.505043 A 172.85715 191.42857 0 1 1  57.14286 69.505043 z"
       transform="matrix(1.0002862,0,0,0.9032435,1072.4617,565.29649)" />
    <path
       sodipodi:type="arc"
       style="fill:none;fill-opacity:1;stroke:#000000;stroke-width:5.26023865;stroke-miterlimit:4;stroke-dasharray:none;stroke-dashoffset:0;stroke-opacity:1"
       id="path4112"
       sodipodi:cx="-115.71429"
       sodipodi:cy="69.505043"
       sodipodi:rx="172.85715"
       sodipodi:ry="191.42857"
       d="M 57.14286,69.505043 A 172.85715,191.42857 0 1 1 -241.77729,-61.471275"
       transform="matrix(1.0002862,0,0,0.9032435,1072.4617,566.29649)"
       sodipodi:start="0"
       sodipodi:end="3.8951052"
       sodipodi:open="true" />
    <path
       style="fill:none;fill-rule:evenodd;stroke:#000000;stroke-width:15;stroke-linecap:butt;stroke-linejoin:miter;stroke-miterlimit:4;stroke-dasharray:none;stroke-opacity:1"
       d="M 1132.3344,629.47465 C 1115.7389,619.06199 851.80431,517.01747 837.26555,506.47633 C 750.39774,443.49395 658.67342,343.18217 543.6289,344.85807 C 341.77053,363.75031 200.42701,666.11405 288.53864,890.56144 C 344.20489,1039.1928 474.1093,1123.8328 601.29229,1145.5181 C 800.74195,1193.2012 1010.0771,1172.3791 1201.7753,1090.2784 C 1311.8702,1010.4011 1335.8815,791.8363 1234.9735,688.4895 C 1214.5916,663.82171 1156.3034,636.80831 1128.6521,626.63289"
       id="path4124"
       sodipodi:nodetypes="cscccccc" />
    <path
       sodipodi:type="arc"
       style="fill:none;fill-opacity:1;stroke:#000000;stroke-width:5;stroke-miterlimit:4;stroke-dasharray:none;stroke-dashoffset:0;stroke-opacity:1"
       id="path4168"
       sodipodi:cx="955.71429"
       sodipodi:cy="623.79077"
       sodipodi:rx="7.1428571"
       sodipodi:ry="11.428572"
       d="M 962.85715 623.79077 A 7.1428571 11.428572 0 1 1  948.57144,623.79077 A 7.1428571 11.428572 0 1 1  962.85715 623.79077 z"
       transform="matrix(1.0595919,0,0,0.6497449,-55.952829,222.91447)" />
  </g>
</svg>
