<?xml version="1.0" encoding="UTF-8" standalone="no"?>
<!-- Created with Inkscape (http://www.inkscape.org/) -->
<svg
   xmlns:dc="http://purl.org/dc/elements/1.1/"
   xmlns:cc="http://web.resource.org/cc/"
   xmlns:rdf="http://www.w3.org/1999/02/22-rdf-syntax-ns#"
   xmlns:svg="http://www.w3.org/2000/svg"
   xmlns="http://www.w3.org/2000/svg"
   xmlns:sodipodi="http://sodipodi.sourceforge.net/DTD/sodipodi-0.dtd"
   xmlns:inkscape="http://www.inkscape.org/namespaces/inkscape"
   width="775"
   height="346.71472"
   id="svg2"
   sodipodi:version="0.32"
   inkscape:version="0.45"
   version="1.0"
   sodipodi:docbase="/home/victor/Desktop/libro_sig/Algebra_de_mapas"
   sodipodi:docname="malla.svg"
   inkscape:output_extension="org.inkscape.output.svg.inkscape"
   inkscape:dataloss="true"
   sodipodi:modified="true">
  <defs
     id="defs4" />
  <sodipodi:namedview
     id="base"
     pagecolor="#ffffff"
     bordercolor="#666666"
     borderopacity="1.0"
     inkscape:pageopacity="0.0"
     inkscape:pageshadow="2"
     inkscape:zoom="0.35355339"
     inkscape:cx="298.70667"
     inkscape:cy="501.40894"
     inkscape:document-units="px"
     inkscape:current-layer="layer1"
     inkscape:window-width="1024"
     inkscape:window-height="715"
     inkscape:window-x="0"
     inkscape:window-y="0" />
  <metadata
     id="metadata7">
    <rdf:RDF>
      <cc:Work
         rdf:about="">
        <dc:format>image/svg+xml</dc:format>
        <dc:type
           rdf:resource="http://purl.org/dc/dcmitype/StillImage" />
      </cc:Work>
    </rdf:RDF>
  </metadata>
  <g
     inkscape:label="Capa 1"
     inkscape:groupmode="layer"
     id="layer1"
     transform="translate(167.2603,-350.12532)">
    <g
       id="g2215">
      <rect
         style="fill:#ffffff;stroke:#000000;stroke-width:4.97876787;stroke-miterlimit:4;stroke-dasharray:none;stroke-opacity:1"
         id="rect29887"
         width="170.02122"
         height="171.51692"
         x="-164.77092"
         y="522.83374"
         ry="0" />
      <rect
         style="fill:#ffffff;stroke:#000000;stroke-width:4.97876787;stroke-miterlimit:4;stroke-dasharray:none;stroke-opacity:1"
         id="rect29889"
         width="170.02122"
         height="171.51692"
         x="5.2290878"
         y="522.83374"
         ry="0" />
      <rect
         style="fill:#ffffff;stroke:#000000;stroke-width:4.97876787;stroke-miterlimit:4;stroke-dasharray:none;stroke-opacity:1"
         id="rect29901"
         width="170.02122"
         height="171.51692"
         x="-164.77092"
         y="352.61472"
         ry="0" />
      <rect
         style="fill:#ffffff;stroke:#000000;stroke-width:4.97876787;stroke-miterlimit:4;stroke-dasharray:none;stroke-opacity:1"
         id="rect29903"
         width="170.02122"
         height="171.51692"
         x="5.2290878"
         y="352.61472"
         ry="0" />
    </g>
    <g
       id="g2221"
       transform="translate(430,-7.8470612e-6)">
      <rect
         style="fill:#ffffff;stroke:#000000;stroke-width:4.97876787;stroke-miterlimit:4;stroke-dasharray:none;stroke-opacity:1"
         id="rect2223"
         width="170.02122"
         height="171.51692"
         x="-164.77092"
         y="522.83374"
         ry="0" />
      <rect
         style="fill:#ffffff;stroke:#000000;stroke-width:4.97876787;stroke-miterlimit:4;stroke-dasharray:none;stroke-opacity:1"
         id="rect2225"
         width="170.02122"
         height="171.51692"
         x="5.2290878"
         y="522.83374"
         ry="0" />
      <rect
         style="fill:#ffffff;stroke:#000000;stroke-width:4.97876787;stroke-miterlimit:4;stroke-dasharray:none;stroke-opacity:1"
         id="rect2227"
         width="170.02122"
         height="171.51692"
         x="-164.77092"
         y="352.61472"
         ry="0" />
      <rect
         style="fill:#ffffff;stroke:#000000;stroke-width:4.97876787;stroke-miterlimit:4;stroke-dasharray:none;stroke-opacity:1"
         id="rect2229"
         width="170.02122"
         height="171.51692"
         x="5.2290878"
         y="352.61472"
         ry="0" />
    </g>
    <path
       sodipodi:type="arc"
       style="fill:#000000;fill-opacity:1;stroke:#000000;stroke-width:3;stroke-miterlimit:4;stroke-dasharray:none;stroke-dashoffset:0;stroke-opacity:1"
       id="path2231"
       sodipodi:cx="118.79394"
       sodipodi:cy="290.5419"
       sodipodi:rx="8.485281"
       sodipodi:ry="7.0710678"
       d="M 127.27922 290.5419 A 8.485281 7.0710678 0 1 1  110.30866,290.5419 A 8.485281 7.0710678 0 1 1  127.27922 290.5419 z"
       transform="translate(-167.2603,173.83601)" />
    <path
       sodipodi:type="arc"
       style="fill:#000000;fill-opacity:1;stroke:#000000;stroke-width:3;stroke-miterlimit:4;stroke-dasharray:none;stroke-dashoffset:0;stroke-opacity:1"
       id="path2233"
       sodipodi:cx="118.79394"
       sodipodi:cy="290.5419"
       sodipodi:rx="8.485281"
       sodipodi:ry="7.0710678"
       d="M 127.27922 290.5419 A 8.485281 7.0710678 0 1 1  110.30866,290.5419 A 8.485281 7.0710678 0 1 1  127.27922 290.5419 z"
       transform="translate(-28.667369,149.79439)" />
    <path
       sodipodi:type="arc"
       style="fill:#000000;fill-opacity:1;stroke:#000000;stroke-width:3;stroke-miterlimit:4;stroke-dasharray:none;stroke-dashoffset:0;stroke-opacity:1"
       id="path2235"
       sodipodi:cx="118.79394"
       sodipodi:cy="290.5419"
       sodipodi:rx="8.485281"
       sodipodi:ry="7.0710678"
       d="M 127.27922 290.5419 A 8.485281 7.0710678 0 1 1  110.30866,290.5419 A 8.485281 7.0710678 0 1 1  127.27922 290.5419 z"
       transform="translate(-237.97098,370.55384)" />
    <path
       sodipodi:type="arc"
       style="fill:#000000;fill-opacity:1;stroke:#000000;stroke-width:3;stroke-miterlimit:4;stroke-dasharray:none;stroke-dashoffset:0;stroke-opacity:1"
       id="path2237"
       sodipodi:cx="118.79394"
       sodipodi:cy="290.5419"
       sodipodi:rx="8.485281"
       sodipodi:ry="7.0710678"
       d="M 127.27922 290.5419 A 8.485281 7.0710678 0 1 1  110.30866,290.5419 A 8.485281 7.0710678 0 1 1  127.27922 290.5419 z"
       transform="translate(-76.75063,366.21069)" />
    <path
       sodipodi:type="arc"
       style="fill:#000000;fill-opacity:1;stroke:#000000;stroke-width:3;stroke-miterlimit:4;stroke-dasharray:none;stroke-dashoffset:0;stroke-opacity:1"
       id="path2239"
       sodipodi:cx="118.79394"
       sodipodi:cy="290.5419"
       sodipodi:rx="8.485281"
       sodipodi:ry="7.0710678"
       d="M 127.27922 290.5419 A 8.485281 7.0710678 0 1 1  110.30866,290.5419 A 8.485281 7.0710678 0 1 1  127.27922 290.5419 z"
       transform="translate(22.244319,371.03912)" />
    <path
       sodipodi:type="arc"
       style="fill:#000000;fill-opacity:1;stroke:#000000;stroke-width:3;stroke-miterlimit:4;stroke-dasharray:none;stroke-dashoffset:0;stroke-opacity:1"
       id="path2241"
       sodipodi:cx="118.79394"
       sodipodi:cy="290.5419"
       sodipodi:rx="8.485281"
       sodipodi:ry="7.0710678"
       d="M 127.27922 290.5419 A 8.485281 7.0710678 0 1 1  110.30866,290.5419 A 8.485281 7.0710678 0 1 1  127.27922 290.5419 z"
       transform="translate(-257.76997,107.36798)" />
    <path
       sodipodi:type="arc"
       style="fill:#000000;fill-opacity:1;stroke:#000000;stroke-width:3;stroke-miterlimit:4;stroke-dasharray:none;stroke-dashoffset:0;stroke-opacity:1"
       id="path2243"
       sodipodi:cx="118.79394"
       sodipodi:cy="290.5419"
       sodipodi:rx="8.485281"
       sodipodi:ry="7.0710678"
       d="M 127.27922 290.5419 A 8.485281 7.0710678 0 1 1  110.30866,290.5419 A 8.485281 7.0710678 0 1 1  127.27922 290.5419 z"
       transform="translate(296.60175,212.01978)" />
    <path
       sodipodi:type="arc"
       style="fill:#000000;fill-opacity:1;stroke:#000000;stroke-width:3;stroke-miterlimit:4;stroke-dasharray:none;stroke-dashoffset:0;stroke-opacity:1"
       id="path2245"
       sodipodi:cx="118.79394"
       sodipodi:cy="290.5419"
       sodipodi:rx="8.485281"
       sodipodi:ry="7.0710678"
       d="M 127.27922 290.5419 A 8.485281 7.0710678 0 1 1  110.30866,290.5419 A 8.485281 7.0710678 0 1 1  127.27922 290.5419 z"
       transform="translate(260.86164,215.33349)" />
    <path
       sodipodi:type="arc"
       style="fill:#000000;fill-opacity:1;stroke:#000000;stroke-width:3;stroke-miterlimit:4;stroke-dasharray:none;stroke-dashoffset:0;stroke-opacity:1"
       id="path2247"
       sodipodi:cx="118.79394"
       sodipodi:cy="290.5419"
       sodipodi:rx="8.485281"
       sodipodi:ry="7.0710678"
       d="M 127.27922 290.5419 A 8.485281 7.0710678 0 1 1  110.30866,290.5419 A 8.485281 7.0710678 0 1 1  127.27922 290.5419 z"
       transform="translate(288.11647,271.90203)" />
    <path
       sodipodi:type="arc"
       style="fill:#000000;fill-opacity:1;stroke:#000000;stroke-width:3;stroke-miterlimit:4;stroke-dasharray:none;stroke-dashoffset:0;stroke-opacity:1"
       id="path2251"
       sodipodi:cx="118.79394"
       sodipodi:cy="290.5419"
       sodipodi:rx="8.485281"
       sodipodi:ry="7.0710678"
       d="M 127.27922 290.5419 A 8.485281 7.0710678 0 1 1  110.30866,290.5419 A 8.485281 7.0710678 0 1 1  127.27922 290.5419 z"
       transform="translate(341.85659,217.33349)" />
    <path
       sodipodi:type="arc"
       style="fill:#000000;fill-opacity:1;stroke:#000000;stroke-width:3;stroke-miterlimit:4;stroke-dasharray:none;stroke-dashoffset:0;stroke-opacity:1"
       id="path2253"
       sodipodi:cx="118.79394"
       sodipodi:cy="290.5419"
       sodipodi:rx="8.485281"
       sodipodi:ry="7.0710678"
       d="M 127.27922 290.5419 A 8.485281 7.0710678 0 1 1  110.30866,290.5419 A 8.485281 7.0710678 0 1 1  127.27922 290.5419 z"
       transform="translate(358.82715,271.41675)" />
    <path
       sodipodi:type="arc"
       style="fill:#000000;fill-opacity:1;stroke:#000000;stroke-width:3;stroke-miterlimit:4;stroke-dasharray:none;stroke-dashoffset:0;stroke-opacity:1"
       id="path2255"
       sodipodi:cx="118.79394"
       sodipodi:cy="290.5419"
       sodipodi:rx="8.485281"
       sodipodi:ry="7.0710678"
       d="M 127.27922 290.5419 A 8.485281 7.0710678 0 1 1  110.30866,290.5419 A 8.485281 7.0710678 0 1 1  127.27922 290.5419 z"
       transform="translate(333.3713,282.73046)" />
  </g>
</svg>
