<?xml version="1.0" encoding="UTF-8" standalone="no"?>
<!-- Created with Inkscape (http://www.inkscape.org/) -->
<svg
   xmlns:dc="http://purl.org/dc/elements/1.1/"
   xmlns:cc="http://web.resource.org/cc/"
   xmlns:rdf="http://www.w3.org/1999/02/22-rdf-syntax-ns#"
   xmlns:svg="http://www.w3.org/2000/svg"
   xmlns="http://www.w3.org/2000/svg"
   xmlns:sodipodi="http://sodipodi.sourceforge.net/DTD/sodipodi-0.dtd"
   xmlns:inkscape="http://www.inkscape.org/namespaces/inkscape"
   width="1190.5797"
   height="697.15411"
   id="svg2"
   sodipodi:version="0.32"
   inkscape:version="0.45"
   sodipodi:modified="true"
   version="1.0">
  <defs
     id="defs4" />
  <sodipodi:namedview
     id="base"
     pagecolor="#ffffff"
     bordercolor="#666666"
     borderopacity="1.0"
     inkscape:pageopacity="0.0"
     inkscape:pageshadow="2"
     inkscape:zoom="0.48652451"
     inkscape:cx="372.04724"
     inkscape:cy="526.18109"
     inkscape:document-units="px"
     inkscape:current-layer="layer1"
     inkscape:window-width="1024"
     inkscape:window-height="715"
     inkscape:window-x="0"
     inkscape:window-y="0" />
  <metadata
     id="metadata7">
    <rdf:RDF>
      <cc:Work
         rdf:about="">
        <dc:format>image/svg+xml</dc:format>
        <dc:type
           rdf:resource="http://purl.org/dc/dcmitype/StillImage" />
      </cc:Work>
    </rdf:RDF>
  </metadata>
  <g
     inkscape:label="Capa 1"
     inkscape:groupmode="layer"
     id="layer1"
     transform="translate(-54.142857,-66.642263)">
    <path
       style="fill:none;fill-rule:evenodd;stroke:#000000;stroke-width:1px;stroke-linecap:butt;stroke-linejoin:miter;stroke-opacity:1"
       d="M 57.142857,452.36218 C 57.142857,451.4098 57.142857,450.45742 57.142857,452.36218 z "
       id="path2160" />
    <path
       style="fill:none;fill-rule:evenodd;stroke:#000000;stroke-width:6;stroke-linecap:butt;stroke-linejoin:miter;stroke-miterlimit:4;stroke-dasharray:none;stroke-opacity:1"
       d="M 82.857143,409.50504 C 86.270228,402.1003 95.795864,387.99489 102.85714,380.93361 C 111.55951,372.23124 125.32958,365.41168 134.28571,360.93361 C 146.45416,354.84938 157.70456,353.5099 171.42857,346.64789 C 179.121,342.80168 186.53572,320.50502 188.57143,312.36218 C 192.4206,296.96549 206.73818,280.68592 217.14286,272.36218 C 228.61936,263.18097 240.83534,257.86763 251.42857,255.21932 C 268.99445,250.82785 279.67581,243.79075 300,243.79075 C 312.90178,243.79075 322.97185,232.36218 340,232.36218 C 370.13332,232.36218 380.20792,239.76494 397.14286,260.93361 C 411.23138,278.54426 421.85355,301.78356 431.42857,320.93361 C 439.68518,337.44682 439.18165,353.99887 431.42857,369.50504 C 419.44236,393.47745 435.35502,401.82753 402.85714,418.07647 C 391.47261,423.76873 363.89465,418.07647 351.42857,418.07647 C 327.01274,418.07647 319.99242,423.08594 305.71429,440.93361 C 295.77001,453.36396 300.15067,472.96486 302.85714,483.79075 C 306.59423,498.73909 311.42857,509.23882 311.42857,526.64789 C 311.42857,543.90092 291.96627,557.53876 282.85714,566.64789 C 270.59983,578.9052 247.38101,580.93361 228.57143,580.93361 C 208.57143,580.93361 188.57143,580.93361 168.57143,580.93361 C 148.10338,580.93361 129.43395,567.51042 117.14286,555.21932 C 110.11896,548.19543 94.146114,543.65115 85.714286,535.21932 C 77.24,526.74504 70.709388,500.91402 68.571429,492.36218 C 63.97708,473.98479 57.142857,465.3771 57.142857,443.79075 C 57.142857,426.74526 66.632722,415.99481 82.857143,409.50504 z "
       id="path2162" />
    <path
       sodipodi:type="arc"
       style="fill:#000000;fill-opacity:1;stroke:#000000;stroke-width:6;stroke-miterlimit:4;stroke-dasharray:none;stroke-opacity:1"
       id="path3134"
       sodipodi:cx="210"
       sodipodi:cy="308.07648"
       sodipodi:rx="7.1428571"
       sodipodi:ry="7.1428571"
       d="M 217.14286 308.07648 A 7.1428571 7.1428571 0 1 1  202.85714,308.07648 A 7.1428571 7.1428571 0 1 1  217.14286 308.07648 z"
       transform="translate(-28.571429,91.428571)" />
    <path
       sodipodi:type="arc"
       style="fill:#000000;fill-opacity:1;stroke:#000000;stroke-width:6;stroke-miterlimit:4;stroke-dasharray:none;stroke-opacity:1"
       id="path3136"
       sodipodi:cx="210"
       sodipodi:cy="308.07648"
       sodipodi:rx="7.1428571"
       sodipodi:ry="7.1428571"
       d="M 217.14286 308.07648 A 7.1428571 7.1428571 0 1 1  202.85714,308.07648 A 7.1428571 7.1428571 0 1 1  217.14286 308.07648 z"
       transform="translate(-21.428571,112.85713)" />
    <path
       sodipodi:type="arc"
       style="fill:#000000;fill-opacity:1;stroke:#000000;stroke-width:6;stroke-miterlimit:4;stroke-dasharray:none;stroke-opacity:1"
       id="path3138"
       sodipodi:cx="210"
       sodipodi:cy="308.07648"
       sodipodi:rx="7.1428571"
       sodipodi:ry="7.1428571"
       d="M 217.14286 308.07648 A 7.1428571 7.1428571 0 1 1  202.85714,308.07648 A 7.1428571 7.1428571 0 1 1  217.14286 308.07648 z"
       transform="translate(4.2857143,98.57142)" />
    <path
       sodipodi:type="arc"
       style="fill:#000000;fill-opacity:1;stroke:#000000;stroke-width:6;stroke-miterlimit:4;stroke-dasharray:none;stroke-opacity:1"
       id="path3140"
       sodipodi:cx="210"
       sodipodi:cy="308.07648"
       sodipodi:rx="7.1428571"
       sodipodi:ry="7.1428571"
       d="M 217.14286 308.07648 A 7.1428571 7.1428571 0 1 1  202.85714,308.07648 A 7.1428571 7.1428571 0 1 1  217.14286 308.07648 z"
       transform="translate(4.2857143,132.85713)" />
    <path
       sodipodi:type="arc"
       style="fill:#000000;fill-opacity:1;stroke:#000000;stroke-width:6;stroke-miterlimit:4;stroke-dasharray:none;stroke-opacity:1"
       id="path3142"
       sodipodi:cx="210"
       sodipodi:cy="308.07648"
       sodipodi:rx="7.1428571"
       sodipodi:ry="7.1428571"
       d="M 217.14286 308.07648 A 7.1428571 7.1428571 0 1 1  202.85714,308.07648 A 7.1428571 7.1428571 0 1 1  217.14286 308.07648 z"
       transform="translate(27.142857,87.142848)" />
    <path
       sodipodi:type="arc"
       style="fill:#000000;fill-opacity:1;stroke:#000000;stroke-width:6;stroke-miterlimit:4;stroke-dasharray:none;stroke-opacity:1"
       id="path3144"
       sodipodi:cx="210"
       sodipodi:cy="308.07648"
       sodipodi:rx="7.1428571"
       sodipodi:ry="7.1428571"
       d="M 217.14286 308.07648 A 7.1428571 7.1428571 0 1 1  202.85714,308.07648 A 7.1428571 7.1428571 0 1 1  217.14286 308.07648 z"
       transform="translate(-18.571429,167.14285)" />
    <path
       sodipodi:type="arc"
       style="fill:#000000;fill-opacity:1;stroke:#000000;stroke-width:6;stroke-miterlimit:4;stroke-dasharray:none;stroke-opacity:1"
       id="path3146"
       sodipodi:cx="210"
       sodipodi:cy="308.07648"
       sodipodi:rx="7.1428571"
       sodipodi:ry="7.1428571"
       d="M 217.14286 308.07648 A 7.1428571 7.1428571 0 1 1  202.85714,308.07648 A 7.1428571 7.1428571 0 1 1  217.14286 308.07648 z"
       transform="translate(-87.142857,129.99999)" />
    <path
       sodipodi:type="arc"
       style="fill:#000000;fill-opacity:1;stroke:#000000;stroke-width:6;stroke-miterlimit:4;stroke-dasharray:none;stroke-opacity:1"
       id="path3148"
       sodipodi:cx="210"
       sodipodi:cy="308.07648"
       sodipodi:rx="7.1428571"
       sodipodi:ry="7.1428571"
       d="M 217.14286 308.07648 A 7.1428571 7.1428571 0 1 1  202.85714,308.07648 A 7.1428571 7.1428571 0 1 1  217.14286 308.07648 z"
       transform="translate(21.428571,38.57142)" />
    <path
       sodipodi:type="arc"
       style="fill:#000000;fill-opacity:1;stroke:#000000;stroke-width:6;stroke-miterlimit:4;stroke-dasharray:none;stroke-opacity:1"
       id="path3150"
       sodipodi:cx="210"
       sodipodi:cy="308.07648"
       sodipodi:rx="7.1428571"
       sodipodi:ry="7.1428571"
       d="M 217.14286 308.07648 A 7.1428571 7.1428571 0 1 1  202.85714,308.07648 A 7.1428571 7.1428571 0 1 1  217.14286 308.07648 z"
       transform="translate(101.42857,92.857134)" />
    <path
       style="fill:none;fill-rule:evenodd;stroke:#000000;stroke-width:1px;stroke-linecap:butt;stroke-linejoin:miter;stroke-opacity:1"
       d="M 635.85458,478.07647 C 635.85458,477.12409 635.85458,476.17171 635.85458,478.07647 z "
       id="path3152" />
    <path
       style="fill:none;fill-rule:evenodd;stroke:#000000;stroke-width:6;stroke-linecap:butt;stroke-linejoin:miter;stroke-miterlimit:4;stroke-dasharray:none;stroke-opacity:1"
       d="M 527.76854,420.88453 C 534.64094,406.20227 553.82117,378.23379 568.03934,364.23255 C 585.56188,346.97733 613.28849,333.45537 631.32201,324.57617 C 655.82367,312.51224 678.47679,309.85629 706.11063,296.25017 C 721.59964,288.62383 736.52948,244.41358 740.62846,228.2678 C 748.37892,197.73895 777.20793,165.4595 798.15817,148.95503 C 821.26657,130.75035 845.86398,120.21496 867.1938,114.96384 C 902.56344,106.25635 924.07066,92.303051 964.99426,92.303051 C 990.97256,92.303051 1011.2491,69.642263 1045.5359,69.642263 C 1106.2105,69.642263 1126.4961,84.320598 1160.5954,126.29424 C 1188.9631,161.21298 1210.3513,207.29231 1229.631,245.2634 C 1246.256,278.00611 1245.2422,310.82583 1229.631,341.57176 C 1205.4963,389.10472 1237.5369,405.66142 1172.1013,437.88013 C 1149.178,449.16685 1093.6488,437.88013 1068.5478,437.88013 C 1019.3856,437.88013 1005.2498,447.813 976.50026,483.20171 C 956.47696,507.84884 965.29766,546.71388 970.74736,568.17967 C 978.27216,597.81952 988.00616,618.63859 988.00616,653.15763 C 988.00616,687.36727 948.81806,714.40864 930.47656,732.4704 C 905.79598,756.77443 859.0438,760.7964 821.17013,760.7964 C 780.89925,760.7964 740.62846,760.7964 700.35767,760.7964 C 659.14444,760.7964 621.5528,734.18064 596.80418,709.80961 C 582.6613,695.88251 550.49933,686.87202 533.52151,670.15323 C 516.45821,653.35026 503.30857,602.13202 499.0037,585.17526 C 489.75279,548.73622 475.9918,531.66873 475.9918,488.8669 C 475.9918,455.06877 495.10003,433.75257 527.76854,420.88453 z "
       id="path3154" />
    <path
       sodipodi:type="arc"
       style="fill:#000000;fill-opacity:1;stroke:#000000;stroke-width:6;stroke-miterlimit:4;stroke-dasharray:none;stroke-opacity:1"
       id="path3156"
       sodipodi:cx="210"
       sodipodi:cy="308.07648"
       sodipodi:rx="7.1428571"
       sodipodi:ry="7.1428571"
       d="M 217.14286 308.07648 A 7.1428571 7.1428571 0 1 1  202.85714,308.07648 A 7.1428571 7.1428571 0 1 1  217.14286 308.07648 z"
       transform="translate(550.1403,117.14286)" />
    <path
       sodipodi:type="arc"
       style="fill:#000000;fill-opacity:1;stroke:#000000;stroke-width:6;stroke-miterlimit:4;stroke-dasharray:none;stroke-opacity:1"
       id="path3158"
       sodipodi:cx="210"
       sodipodi:cy="308.07648"
       sodipodi:rx="7.1428571"
       sodipodi:ry="7.1428571"
       d="M 217.14286 308.07648 A 7.1428571 7.1428571 0 1 1  202.85714,308.07648 A 7.1428571 7.1428571 0 1 1  217.14286 308.07648 z"
       transform="translate(557.28316,138.57142)" />
    <path
       sodipodi:type="arc"
       style="fill:#000000;fill-opacity:1;stroke:#000000;stroke-width:6;stroke-miterlimit:4;stroke-dasharray:none;stroke-opacity:1"
       id="path3160"
       sodipodi:cx="210"
       sodipodi:cy="308.07648"
       sodipodi:rx="7.1428571"
       sodipodi:ry="7.1428571"
       d="M 217.14286 308.07648 A 7.1428571 7.1428571 0 1 1  202.85714,308.07648 A 7.1428571 7.1428571 0 1 1  217.14286 308.07648 z"
       transform="translate(582.99744,124.28571)" />
    <path
       sodipodi:type="arc"
       style="fill:#000000;fill-opacity:1;stroke:#000000;stroke-width:6;stroke-miterlimit:4;stroke-dasharray:none;stroke-opacity:1"
       id="path3162"
       sodipodi:cx="210"
       sodipodi:cy="308.07648"
       sodipodi:rx="7.1428571"
       sodipodi:ry="7.1428571"
       d="M 217.14286 308.07648 A 7.1428571 7.1428571 0 1 1  202.85714,308.07648 A 7.1428571 7.1428571 0 1 1  217.14286 308.07648 z"
       transform="translate(582.99744,158.57142)" />
    <path
       sodipodi:type="arc"
       style="fill:#000000;fill-opacity:1;stroke:#000000;stroke-width:6;stroke-miterlimit:4;stroke-dasharray:none;stroke-opacity:1"
       id="path3164"
       sodipodi:cx="210"
       sodipodi:cy="308.07648"
       sodipodi:rx="7.1428571"
       sodipodi:ry="7.1428571"
       d="M 217.14286 308.07648 A 7.1428571 7.1428571 0 1 1  202.85714,308.07648 A 7.1428571 7.1428571 0 1 1  217.14286 308.07648 z"
       transform="translate(605.85458,112.85714)" />
    <path
       sodipodi:type="arc"
       style="fill:#000000;fill-opacity:1;stroke:#000000;stroke-width:6;stroke-miterlimit:4;stroke-dasharray:none;stroke-opacity:1"
       id="path3166"
       sodipodi:cx="210"
       sodipodi:cy="308.07648"
       sodipodi:rx="7.1428571"
       sodipodi:ry="7.1428571"
       d="M 217.14286 308.07648 A 7.1428571 7.1428571 0 1 1  202.85714,308.07648 A 7.1428571 7.1428571 0 1 1  217.14286 308.07648 z"
       transform="translate(560.1403,192.85714)" />
    <path
       sodipodi:type="arc"
       style="fill:#000000;fill-opacity:1;stroke:#000000;stroke-width:6;stroke-miterlimit:4;stroke-dasharray:none;stroke-opacity:1"
       id="path3168"
       sodipodi:cx="210"
       sodipodi:cy="308.07648"
       sodipodi:rx="7.1428571"
       sodipodi:ry="7.1428571"
       d="M 217.14286 308.07648 A 7.1428571 7.1428571 0 1 1  202.85714,308.07648 A 7.1428571 7.1428571 0 1 1  217.14286 308.07648 z"
       transform="translate(491.56887,155.71428)" />
    <path
       sodipodi:type="arc"
       style="fill:#000000;fill-opacity:1;stroke:#000000;stroke-width:6;stroke-miterlimit:4;stroke-dasharray:none;stroke-opacity:1"
       id="path3170"
       sodipodi:cx="210"
       sodipodi:cy="308.07648"
       sodipodi:rx="7.1428571"
       sodipodi:ry="7.1428571"
       d="M 217.14286 308.07648 A 7.1428571 7.1428571 0 1 1  202.85714,308.07648 A 7.1428571 7.1428571 0 1 1  217.14286 308.07648 z"
       transform="translate(600.1403,64.285705)" />
    <path
       sodipodi:type="arc"
       style="fill:#000000;fill-opacity:1;stroke:#000000;stroke-width:6;stroke-miterlimit:4;stroke-dasharray:none;stroke-opacity:1"
       id="path3172"
       sodipodi:cx="210"
       sodipodi:cy="308.07648"
       sodipodi:rx="7.1428571"
       sodipodi:ry="7.1428571"
       d="M 217.14286 308.07648 A 7.1428571 7.1428571 0 1 1  202.85714,308.07648 A 7.1428571 7.1428571 0 1 1  217.14286 308.07648 z"
       transform="translate(680.1403,118.57142)" />
    <text
       xml:space="preserve"
       style="font-size:50px;font-style:normal;font-weight:normal;fill:#000000;fill-opacity:1;stroke:none;stroke-width:1px;stroke-linecap:butt;stroke-linejoin:miter;stroke-opacity:1;font-family:Bitstream Vera Sans"
       x="176.57143"
       y="730.36218"
       id="text3182"><tspan
         sodipodi:role="line"
         id="tspan3184"
         x="176.57143"
         y="730.36218"
         style="font-size:50px">a)             b)</tspan></text>
  </g>
</svg>
